<?xml version="1.0" encoding="utf-8"?>
<!-- Generator: Adobe Illustrator 25.2.1, SVG Export Plug-In . SVG Version: 6.00 Build 0)  -->
<svg version="1.1" id="Layer_1" xmlns="http://www.w3.org/2000/svg" xmlns:xlink="http://www.w3.org/1999/xlink" x="0px" y="0px"
	 viewBox="0 0 500 500" style="enable-background:new 0 0 500 500;" xml:space="preserve">
<style type="text/css">
	.st0{fill:#407BFF;}
	.st1{opacity:0.4;}
	.st2{fill:#263238;}
	.st3{opacity:0.2;fill:#FFFFFF;enable-background:new    ;}
	.st4{opacity:0.6;fill:#FFFFFF;enable-background:new    ;}
	.st5{opacity:0.2;enable-background:new    ;}
	.st6{opacity:0.3;fill:#FFFFFF;enable-background:new    ;}
	.st7{fill:#EDF9F8;stroke:#000000;stroke-miterlimit:10;}
	.st8{fill:#EBEBEB;}
	.st9{fill:#F0F0F0;}
	.st10{fill:#FAFAFA;}
	.st11{fill:#E6E6E6;}
	.st12{fill:#E0E0E0;}
	.st13{display:none;}
	.st14{display:inline;}
	.st15{opacity:0.9;fill:#FFFFFF;enable-background:new    ;}
	.st16{fill:#D1D3D3;}
	.st17{opacity:0.5;}
	.st18{fill:#FFFFFF;}
	.st19{opacity:0.7;fill:#FFFFFF;enable-background:new    ;}
	.st20{opacity:0.4;fill:#FFFFFF;enable-background:new    ;}
	.st21{opacity:0.5;fill:#FFFFFF;enable-background:new    ;}
	.st22{fill:#F2D636;}
	.st23{opacity:0.3;}
	.st24{fill:#F9D003;}
	.st25{fill:#F2D606;}
	.st26{fill:#895F02;}
	.st27{fill:#DBB178;}
	.st28{opacity:0.1;enable-background:new    ;}
	.st29{opacity:0.5;enable-background:new    ;}
	.st30{fill:#C0854B;}
	.st31{fill:#A02724;}
</style>
<g id="Desk">
	<g>
		<g>
			<g>
				<path class="st0" d="M348.8,432.7c-0.9,0.1-1.9-0.7-2-1.8l-11.6-128.3c-0.2-2.4-2.1-4.3-4.3-4.3h-54.8c-2.2,0-4.1,1.9-4.3,4.3
					l-11.6,128.3c-0.1,1.1-0.9,1.9-2,1.8l0,0c-0.9-0.1-1.6-1.1-1.6-2.1l11.6-128.3c0.5-4.4,3.7-7.9,7.8-7.9h54.8
					c4.1,0,7.4,3.4,7.8,7.9l11.6,128.3C350.4,431.7,349.7,432.6,348.8,432.7L348.8,432.7z"/>
			</g>
			<g class="st1">
				<path d="M348.8,432.7c-0.9,0.1-1.9-0.7-2-1.8l-11.6-128.3c-0.2-2.4-2.1-4.3-4.3-4.3h-54.8c-2.2,0-4.1,1.9-4.3,4.3l-11.6,128.3
					c-0.1,1.1-0.9,1.9-2,1.8l0,0c-0.9-0.1-1.6-1.1-1.6-2.1l11.6-128.3c0.5-4.4,3.7-7.9,7.8-7.9h54.8c4.1,0,7.4,3.4,7.8,7.9
					l11.6,128.3C350.4,431.7,349.7,432.6,348.8,432.7L348.8,432.7z"/>
			</g>
			<path class="st2" d="M348,300.8H199.1c-1.3,0-2.3-1-2.3-2.2v-7.3c0-1.2,1-2.2,2.3-2.2H348c1.3,0,2.3,1,2.3,2.2v7.3
				C350.3,299.8,349.3,300.8,348,300.8z"/>
			<path class="st3" d="M348,300.8h-65.1V289H348c1.3,0,2.3,1,2.3,2.2v7.3C350.3,299.8,349.3,300.8,348,300.8z"/>
			<g>
				<g>
					<path class="st0" d="M288.7,432.7c-0.9,0.1-1.9-0.7-2-1.8l-11.6-128.3c-0.2-2.4-2.1-4.3-4.3-4.3h-54.8c-2.2,0-4.1,1.9-4.3,4.3
						l-11.6,128.4c-0.1,1.1-0.9,1.9-2,1.8l0,0c-0.9-0.1-1.6-1.1-1.6-2.1l11.6-128.3c0.5-4.4,3.7-7.9,7.8-7.9h54.8
						c4.1,0,7.4,3.4,7.8,7.9l11.6,128.3C290.5,431.7,289.8,432.6,288.7,432.7L288.7,432.7z"/>
				</g>
				<g class="st1">
					<path d="M288.7,432.7c-0.9,0.1-1.9-0.7-2-1.8l-11.6-128.3c-0.2-2.4-2.1-4.3-4.3-4.3h-54.8c-2.2,0-4.1,1.9-4.3,4.3l-11.6,128.4
						c-0.1,1.1-0.9,1.9-2,1.8l0,0c-0.9-0.1-1.6-1.1-1.6-2.1l11.6-128.3c0.5-4.4,3.7-7.9,7.8-7.9h54.8c4.1,0,7.4,3.4,7.8,7.9
						l11.6,128.3C290.5,431.7,289.8,432.6,288.7,432.7L288.7,432.7z"/>
				</g>
			</g>
		</g>
		<g>
			<g>
				<path class="st2" d="M286.8,288.9h-39c-1.2,0-2.1-0.9-2.1-2V283h43v3.9C288.8,288,287.9,288.9,286.8,288.9z"/>
				<path class="st3" d="M286.8,288.9h-39c-1.2,0-2.1-0.9-2.1-2V283h43v3.9C288.8,288,287.9,288.9,286.8,288.9z"/>
			</g>
			<g>
				<path class="st2" d="M256.4,288.9h-39c-1.2,0-2.1-0.9-2.1-2V283h43v3.9C258.5,288,257.5,288.9,256.4,288.9z"/>
				<path class="st4" d="M256.4,288.9h-39c-1.2,0-2.1-0.9-2.1-2V283h43v3.9C258.5,288,257.5,288.9,256.4,288.9z"/>
				<rect x="249.5" y="285.4" class="st2" width="3.9" height="1.3"/>
				<rect x="243" y="285.4" class="st2" width="3.9" height="1.3"/>
			</g>
			<g>
				<path class="st2" d="M291.9,288.9h2.1c1.2,0,2.2-0.8,2.4-1.9l7-40.9c0.2-1.4-0.9-2.7-2.3-2.7l-33.4-0.1l-9,45.4h2.1L291.9,288.9
					z"/>
				<path class="st4" d="M291.9,288.9h2.1c1.2,0,2.2-0.8,2.4-1.9l7-40.9c0.2-1.4-0.9-2.7-2.3-2.7l-33.4-0.1l-9,45.4h2.1L291.9,288.9
					z"/>
				<path class="st5" d="M259,286l-0.6,2.9h2.1h31.3h2.1c1.2,0,2.2-0.8,2.4-1.9l0.1-1H259z"/>
				<path class="st2" d="M258.5,288.9h2.1c1.2,0,2.2-0.8,2.3-1.9l6.8-40.9c0.2-1.4-0.9-2.7-2.3-2.7l0,0L258.5,288.9z"/>
				<path class="st6" d="M258.5,288.9h2.1c1.2,0,2.2-0.8,2.3-1.9l6.8-40.9c0.2-1.4-0.9-2.7-2.3-2.7l0,0L258.5,288.9z"/>
			</g>
		</g>
	</g>
	<rect x="-34.1" y="-19.9" class="st7" width="580" height="554"/>
</g>
<g id="Background_Complete">
	<rect x="416.8" y="398.5" class="st8" width="33.1" height="0.2"/>
	<rect x="322.5" y="401.2" class="st8" width="8.7" height="0.2"/>
	<rect x="396.6" y="389.2" class="st8" width="19.2" height="0.2"/>
	<rect x="52.5" y="390.9" class="st8" width="43.2" height="0.2"/>
	<rect x="104.6" y="390.9" class="st8" width="6.3" height="0.2"/>
	<rect x="131.5" y="395.1" class="st8" width="93.7" height="0.2"/>
	<g>
		<path class="st8" d="M238.4,337.8H45.3c-3.1,0-5.7-2.6-5.7-5.7V60.7c0-3.1,2.6-5.7,5.7-5.7h193.1c3.1,0,5.7,2.6,5.7,5.7v271.4
			C244.1,335.2,241.5,337.8,238.4,337.8z M45.3,55.2c-3,0-5.5,2.4-5.5,5.5v271.4c0,3,2.4,5.5,5.5,5.5h193.1c3,0,5.5-2.4,5.5-5.5
			V60.7c0-3-2.4-5.5-5.5-5.5H45.3z"/>
		<path class="st8" d="M454.7,337.8H261.6c-3.1,0-5.7-2.6-5.7-5.7V60.7c0-3.1,2.6-5.7,5.7-5.7h193.1c3.1,0,5.7,2.6,5.7,5.7v271.4
			C460.4,335.2,457.8,337.8,454.7,337.8z M261.6,55.2c-3,0-5.5,2.4-5.5,5.5v271.4c0,3,2.4,5.5,5.5,5.5h193.1c3,0,5.5-2.4,5.5-5.5
			V60.7c0-3-2.4-5.5-5.5-5.5H261.6z"/>
	</g>
	<rect y="382.4" class="st8" width="500" height="0.2"/>
	<g>
		<g>
			<path class="st9" d="M404.4,149.1h-26.9c-8.5,0-15.4-6.9-15.4-15.4v-26.9c0-8.5,6.9-15.4,15.4-15.4h26.9
				c8.5,0,15.4,6.9,15.4,15.4v26.9C419.8,142.2,412.9,149.1,404.4,149.1z"/>
			<g>
				<path class="st10" d="M398.2,112c0,4.9-2.5,8.9-7.4,8.9s-7.4-4-7.4-8.9s2.5-8.9,7.4-8.9C395.6,103.1,398.2,107.1,398.2,112z"/>
				<path class="st10" d="M390.7,137.3h13.7v-8.2c0-4.5-6.1-8.2-13.7-8.2s-13.7,3.7-13.7,8.2v8.2H390.7z"/>
			</g>
		</g>
		<g>
			<path class="st11" d="M151.5,151h-18.8c-6,0-10.8-4.8-10.8-10.8v-18.8c0-6,4.8-10.8,10.8-10.8h18.8c6,0,10.8,4.8,10.8,10.8v18.8
				C162.3,146.2,157.4,151,151.5,151z"/>
			<g>
				<path class="st10" d="M141.3,133c0.5-0.7,1.2-1.5,2.1-2.3c0.7-0.6,1.2-1.1,1.5-1.5s0.5-0.9,0.5-1.4c0-0.8-0.3-1.3-0.9-1.8
					c-0.6-0.4-1.4-0.7-2.4-0.7s-1.8,0.2-2.5,0.6s-1.4,1-1.9,1.7l-3.7-2.2c0.9-1.3,2-2.3,3.5-3s3.2-1.1,5.2-1.1
					c2.3,0,4.2,0.5,5.6,1.5c1.4,1,2.1,2.4,2.1,4.2c0,0.8-0.1,1.6-0.4,2.2c-0.3,0.6-0.6,1.2-1,1.6c-0.4,0.4-0.9,0.9-1.5,1.5
					c-0.8,0.7-1.3,1.2-1.6,1.7s-0.5,1-0.5,1.7h-4.6C140.6,134.6,140.8,133.7,141.3,133z M140.8,142.5c-0.6-0.5-0.8-1.2-0.8-2
					s0.3-1.4,0.8-1.9s1.3-0.8,2.1-0.8c0.9,0,1.6,0.3,2.1,0.8s0.8,1.2,0.8,1.9c0,0.8-0.3,1.4-0.8,2c-0.6,0.5-1.3,0.8-2.1,0.8
					S141.3,143.1,140.8,142.5z"/>
			</g>
		</g>
		<path class="st8" d="M416.2,280h-14.5c-4.6,0-8.3-3.7-8.3-8.3v-14.5c0-4.6,3.7-8.3,8.3-8.3h14.5c4.6,0,8.3,3.7,8.3,8.3v14.5
			C424.5,276.3,420.8,280,416.2,280z"/>
		<g>
			<path class="st10" d="M408.3,266.1c0.4-0.5,0.9-1.1,1.6-1.8c0.5-0.5,0.9-0.9,1.1-1.2c0.2-0.3,0.4-0.7,0.4-1.1
				c0-0.6-0.2-1-0.7-1.4c-0.5-0.3-1.1-0.5-1.9-0.5c-0.7,0-1.4,0.2-2,0.5s-1.1,0.7-1.5,1.3l-2.9-1.7c0.7-1,1.6-1.8,2.7-2.3
				c1.1-0.6,2.5-0.8,4-0.8c1.8,0,3.3,0.4,4.4,1.2c1.1,0.8,1.6,1.8,1.6,3.2c0,0.6-0.1,1.2-0.3,1.7c-0.2,0.5-0.5,0.9-0.8,1.2
				c-0.3,0.3-0.7,0.7-1.2,1.2c-0.6,0.5-1,1-1.3,1.3c-0.3,0.4-0.4,0.8-0.4,1.3h-3.6C407.7,267.3,407.9,266.6,408.3,266.1z
				 M407.9,273.4c-0.4-0.4-0.6-0.9-0.6-1.5s0.2-1.1,0.6-1.5s1-0.6,1.6-0.6c0.7,0,1.2,0.2,1.6,0.6s0.6,0.9,0.6,1.5s-0.2,1.1-0.6,1.5
				s-1,0.6-1.6,0.6S408.3,273.8,407.9,273.4z"/>
		</g>
		<g>
			<path class="st8" d="M117.1,211.5H98.3c-6,0-10.8-4.8-10.8-10.8V182c0-6,4.8-10.8,10.8-10.8h18.8c6,0,10.8,4.8,10.8,10.8v18.8
				C127.9,206.7,123.1,211.5,117.1,211.5z"/>
			<path class="st10" d="M107.7,180c-5,0-9.1,4.1-9.1,9.1s4.1,17.1,9.1,17.1s9.1-12.1,9.1-17.1C116.8,184,112.8,180,107.7,180z
				 M107.7,191.8c-1.5,0-2.8-1.2-2.8-2.8c0-1.5,1.2-2.8,2.8-2.8s2.8,1.2,2.8,2.8S109.2,191.8,107.7,191.8z"/>
		</g>
		<path class="st8" d="M111.7,246.4c0.1-0.9,0.2-1.8,0.2-2.8s-0.1-1.9-0.2-2.8l-2.8-0.4c-0.2-1-0.6-2-1-3l2.1-1.9
			c-0.9-1.7-2-3.2-3.3-4.5l-2.5,1.4c-0.8-0.7-1.6-1.3-2.5-1.8l0.5-2.8c-1.6-0.8-3.4-1.4-5.3-1.7l-1.2,2.6c-0.5-0.1-1-0.1-1.6-0.1
			c-0.5,0-1.1,0-1.6,0.1l-1.2-2.6c-1.9,0.3-3.7,0.9-5.3,1.7l0.5,2.8c-0.9,0.5-1.7,1.1-2.5,1.8l-2.5-1.4c-1.3,1.3-2.4,2.8-3.3,4.5
			l2.1,1.9c-0.4,0.9-0.8,1.9-1,3l-2.8,0.4c-0.1,0.9-0.2,1.8-0.2,2.8s0.1,1.9,0.2,2.8l2.8,0.4c0.2,1,0.6,2,1,3l-2.1,1.9
			c0.9,1.7,2,3.2,3.3,4.5l2.5-1.4c0.8,0.7,1.6,1.3,2.5,1.8l-0.5,2.8c1.6,0.8,3.4,1.4,5.3,1.7l1.2-2.6c0.5,0.1,1,0.1,1.6,0.1
			c0.5,0,1.1,0,1.6-0.1l1.2,2.6c1.9-0.3,3.7-0.9,5.3-1.7l-0.5-2.8c0.9-0.5,1.7-1.1,2.5-1.8l2.5,1.4c1.3-1.3,2.4-2.8,3.3-4.5
			l-2.1-1.9c0.4-0.9,0.8-1.9,1-3L111.7,246.4z M94.1,249.9c-3.4,0-6.2-2.8-6.2-6.2s2.8-6.2,6.2-6.2c3.4,0,6.2,2.8,6.2,6.2
			C100.4,247.1,97.6,249.9,94.1,249.9z"/>
		<path class="st12" d="M120.8,266.6c0.1-0.5,0.1-0.9,0.1-1.4s0-0.9-0.1-1.4l-1.4-0.2c-0.1-0.5-0.3-1-0.5-1.5l1-1
			c-0.4-0.8-1-1.6-1.6-2.3l-1.2,0.7c-0.4-0.3-0.8-0.7-1.3-0.9l0.3-1.4c-0.8-0.4-1.7-0.7-2.7-0.9l-0.6,1.3c-0.3,0-0.5,0-0.8,0
			s-0.5,0-0.8,0l-0.6-1.3c-0.9,0.1-1.8,0.4-2.7,0.9l0.3,1.4c-0.5,0.3-0.9,0.6-1.3,0.9l-1.2-0.7c-0.7,0.7-1.2,1.4-1.6,2.3l1,1
			c-0.2,0.5-0.4,1-0.5,1.5l-1.4,0.2c-0.1,0.5-0.1,0.9-0.1,1.4s0,0.9,0.1,1.4l1.4,0.2c0.1,0.5,0.3,1,0.5,1.5l-1,1
			c0.4,0.8,1,1.6,1.6,2.3l1.2-0.7c0.4,0.3,0.8,0.7,1.3,0.9l-0.3,1.4c0.8,0.4,1.7,0.7,2.7,0.9l0.6-1.3c0.3,0,0.5,0,0.8,0s0.5,0,0.8,0
			l0.6,1.3c0.9-0.1,1.8-0.4,2.7-0.9l-0.3-1.4c0.5-0.3,0.9-0.6,1.3-0.9l1.2,0.7c0.7-0.7,1.2-1.4,1.6-2.3l-1-1c0.2-0.5,0.4-1,0.5-1.5
			L120.8,266.6z M112,268.3c-1.7,0-3.1-1.4-3.1-3.1s1.4-3.1,3.1-3.1s3.1,1.4,3.1,3.1S113.7,268.3,112,268.3z"/>
		<path class="st9" d="M429.7,246.4c0.4-0.3,0.7-0.6,1.1-0.9c0.3-0.3,0.6-0.7,0.9-1.1l-0.9-1.1c0.3-0.4,0.5-0.9,0.7-1.4h1.4
			c0.3-0.9,0.4-1.8,0.4-2.8l-1.4-0.4c0-0.5-0.1-1-0.2-1.5l1.2-0.8c-0.3-0.9-0.7-1.7-1.3-2.5l-1.3,0.5c-0.2-0.2-0.3-0.4-0.5-0.6
			c-0.2-0.2-0.4-0.4-0.6-0.5l0.5-1.3c-0.8-0.6-1.6-1-2.5-1.3l-0.8,1.2c-0.5-0.1-1-0.2-1.5-0.2l-0.4-1.4c-0.9,0-1.9,0.1-2.8,0.4v1.4
			c-0.5,0.2-1,0.4-1.4,0.7l-1.1-0.9c-0.4,0.3-0.7,0.6-1.1,0.9c-0.3,0.3-0.6,0.7-0.9,1.1l0.9,1.1c-0.3,0.4-0.5,0.9-0.7,1.4H416
			c-0.3,0.9-0.4,1.8-0.4,2.8l1.4,0.4c0,0.5,0.1,1,0.2,1.5l-1.2,0.8c0.3,0.9,0.7,1.7,1.3,2.5l1.3-0.5c0.2,0.2,0.3,0.4,0.5,0.6
			c0.2,0.2,0.4,0.4,0.6,0.5l-0.5,1.3c0.8,0.6,1.6,1,2.5,1.3l0.8-1.2c0.5,0.1,1,0.2,1.5,0.2l0.4,1.4c0.9,0,1.9-0.1,2.8-0.4v-1.4
			c0.5-0.2,1-0.4,1.4-0.7L429.7,246.4z M422.3,241.4c-1.2-1.2-1.2-3.2,0-4.4s3.2-1.2,4.4,0c1.2,1.2,1.2,3.2,0,4.4
			C425.5,242.6,423.5,242.6,422.3,241.4z"/>
	</g>
</g>
<g id="Background_Simple" class="st13">
	<g class="st14">
		<path class="st0" d="M78.4,159.4c22-57.8,89.4-83.6,129.9-60.9C254,124,254,161.3,276,169.9c18.6,7.2,33.6-20.4,76.2-22.4
			c30.8-1.4,92.9,31.1,82,101.9c-12.6,81.9-89.4,111.5-145.9,117.3c-67.5,7-130.4-9.9-171.7-45.8C78.2,287.7,54.9,221,78.4,159.4z"
			/>
		<path class="st15" d="M78.4,159.4c22-57.8,89.4-83.6,129.9-60.9C254,124,254,161.3,276,169.9c18.6,7.2,33.6-20.4,76.2-22.4
			c30.8-1.4,92.9,31.1,82,101.9c-12.6,81.9-89.4,111.5-145.9,117.3c-67.5,7-130.4-9.9-171.7-45.8C78.2,287.7,54.9,221,78.4,159.4z"
			/>
	</g>
</g>
<g id="Shadow">
	<ellipse id="_x3C_Path_x3E__1_" class="st16" cx="250" cy="412.4" rx="193.9" ry="11.3"/>
</g>
<g id="Graphic">
	<g>
		<g>
			<g>
				<polygon class="st2" points="285.6,113.8 285.6,98.2 293.2,97.1 293.2,112.7 				"/>
				<polygon class="st2" points="260.1,122.4 254.3,113.3 259.2,109.8 265,118.9 				"/>
				<polygon class="st2" points="313.8,112.1 319.5,101.3 324.4,103.5 318.7,114.2 				"/>
			</g>
			<g class="st17">
				<polygon class="st18" points="285.6,113.8 285.6,98.2 293.2,97.1 293.2,112.7 				"/>
				<polygon class="st18" points="260.1,122.4 254.3,113.3 259.2,109.8 265,118.9 				"/>
				<polygon class="st18" points="313.8,112.1 319.5,101.3 324.4,103.5 318.7,114.2 				"/>
			</g>
			<path class="st2" d="M294.3,99.6l-9.8,1.4c-1.6,0.2-2.9-0.9-2.9-2.5l0,0c0-1.6,1.3-3.1,2.9-3.3l9.8-1.4c1.6-0.2,2.9,0.9,2.9,2.5
				l0,0C297.2,97.9,295.9,99.4,294.3,99.6z"/>
			<path class="st2" d="M260.8,109.6l-7.3,5.2c-0.7,0.5-1.7,0.4-2.1-0.3l0,0c-0.4-0.7-0.2-1.6,0.6-2.2l7.3-5.2
				c0.7-0.5,1.7-0.4,2.1,0.3l0,0C261.8,108.1,261.6,109,260.8,109.6z"/>
			<path class="st2" d="M325.2,104.7l-7.3-3.2c-0.7-0.3-1-1.2-0.6-2l0,0c0.4-0.8,1.4-1.2,2.1-0.9l7.3,3.2c0.7,0.3,1,1.2,0.6,2l0,0
				C326.9,104.7,326,105,325.2,104.7z"/>
			<path class="st19" d="M294.3,99.6l-9.8,1.4c-1.6,0.2-2.9-0.9-2.9-2.5l0,0c0-1.6,1.3-3.1,2.9-3.3l9.8-1.4c1.6-0.2,2.9,0.9,2.9,2.5
				l0,0C297.2,97.9,295.9,99.4,294.3,99.6z"/>
			<path class="st19" d="M260.8,109.6l-7.3,5.2c-0.7,0.5-1.7,0.4-2.1-0.3l0,0c-0.4-0.7-0.2-1.6,0.6-2.2l7.3-5.2
				c0.7-0.5,1.7-0.4,2.1,0.3l0,0C261.8,108.1,261.6,109,260.8,109.6z"/>
			<path class="st19" d="M325.2,104.7l-7.3-3.2c-0.7-0.3-1-1.2-0.6-2l0,0c0.4-0.8,1.4-1.2,2.1-0.9l7.3,3.2c0.7,0.3,1,1.2,0.6,2l0,0
				C326.9,104.7,326,105,325.2,104.7z"/>
		</g>
		<path class="st0" d="M289.4,211.3c-26.6,3.7-48.2-14.8-48.2-41.4s21.6-51.3,48.2-55s48.2,14.8,48.2,41.4l6.6-0.9
			c0-30.3-24.5-51.4-54.8-47.1s-54.8,32.2-54.8,62.5s24.5,51.4,54.8,47.1L289.4,211.3L289.4,211.3z"/>
		<g>
			<g>
				<g>
					
						<rect x="265.3" y="200.2" transform="matrix(0.471 -0.8821 0.8821 0.471 -35.0004 343.7086)" class="st2" width="7.6" height="1.6"/>
				</g>
				<g>
					
						<rect x="305.8" y="124.4" transform="matrix(0.471 -0.8821 0.8821 0.471 53.3029 339.3462)" class="st2" width="7.6" height="1.6"/>
				</g>
			</g>
			<g>
				
					<rect x="253.6" y="144.4" transform="matrix(0.4003 -0.9164 0.9164 0.4003 17.1376 321.7135)" class="st2" width="1.6" height="6.8"/>
			</g>
			<g>
				
					<rect x="268.3" y="127.5" transform="matrix(0.8467 -0.532 0.532 0.8467 -28.4072 163.2192)" class="st2" width="1.6" height="6.8"/>
			</g>
			<g>
				<g>
					
						<rect x="250.5" y="187.5" transform="matrix(0.8125 -0.583 0.583 0.8125 -62.088 183.6055)" class="st2" width="7.7" height="1.6"/>
				</g>
				<g>
					
						<rect x="320.6" y="137.1" transform="matrix(0.8125 -0.583 0.583 0.8125 -19.5508 215.0135)" class="st2" width="7.7" height="1.6"/>
				</g>
			</g>
			<g>
				
					<rect x="245.3" y="167" transform="matrix(0.9903 -0.1392 0.1392 0.9903 -21.0338 36.4624)" class="st2" width="9.7" height="3.2"/>
			</g>
			<g>
				<rect x="287.8" y="119" class="st2" width="3.2" height="9.6"/>
			</g>
			<g>
				<rect x="287.8" y="197.6" class="st2" width="3.2" height="9.6"/>
			</g>
		</g>
		<g>
			<path class="st0" d="M277,152.7L277,152.7c-0.8,0.9-0.8,2.1,0,2.8l10.7,9.2l2.8-3.2l-10.7-9.2C279,151.6,277.7,151.8,277,152.7z"
				/>
			<path class="st20" d="M277,152.7L277,152.7c-0.8,0.9-0.8,2.1,0,2.8l10.7,9.2l2.8-3.2l-10.7-9.2C279,151.6,277.7,151.8,277,152.7z
				"/>
		</g>
		<polygon class="st0" points="348.9,153.9 340.9,164.7 332.9,156.2 		"/>
		<g>
			<path class="st2" d="M310.3,202.3l12.5-1.8l-1.1,5.8l-22.5,3.2l0.9-4.6l13.6-12.5c1.6-1.6,2.8-2.8,3.4-3.8s1-2,1-3
				s-0.4-1.7-1.1-2.2c-0.8-0.5-1.8-0.6-3.3-0.4c-1.2,0.2-2.3,0.6-3.4,1.3s-2.1,1.6-2.9,2.7l-4.6-2.7c1.2-1.8,2.9-3.4,5-4.7
				s4.4-2.1,7-2.4c2.1-0.3,3.9-0.2,5.5,0.3s2.8,1.2,3.7,2.3c0.9,1.1,1.3,2.4,1.3,3.9c0,1.8-0.5,3.6-1.5,5.4c-1,1.8-2.8,3.8-5.3,6.1
				L310.3,202.3z"/>
			<path class="st2" d="M352.6,195.7l-4.9,0.7l-1.2,6.4l-6.7,0.9l1.3-6.4l-16,2.3l0.9-4.8l17.5-21.3l7.5-1.1l-16.3,20.2l7.8-1.1
				l1.1-5.7l6.4-0.9l-1.1,5.7l4.9-0.7L352.6,195.7z"/>
			<path class="st2" d="M372.2,163.4l6.2-0.9l-21.8,43.1l-6.2,0.9L372.2,163.4z"/>
			<path class="st2" d="M400.6,165.4l-0.9,4.6l-15.9,27.5l-7.7,1.1l15.3-26.3l-9.6,1.4l-1,5l-6.1,0.9l2.1-10.7L400.6,165.4z"/>
			<path class="st2" d="M302.6,239c-1.1-0.2-2-0.5-2.7-0.9l1.5-3c0.7,0.4,1.5,0.7,2.4,0.9s1.8,0.2,2.7,0c1-0.1,1.8-0.4,2.4-0.8
				c0.6-0.4,0.9-0.9,0.9-1.5c0-0.5-0.2-0.8-0.7-1s-1.2-0.3-2.2-0.5s-1.8-0.3-2.5-0.5c-0.6-0.2-1.2-0.5-1.7-1s-0.7-1.2-0.7-2.1
				c0-1,0.3-2,0.9-2.9s1.4-1.6,2.5-2.2c1.1-0.6,2.3-1,3.7-1.2c1.1-0.1,2-0.2,3-0.1c0.9,0.1,1.7,0.3,2.4,0.6l-1.4,2.9
				c-0.6-0.3-1.2-0.5-2-0.6c-0.7-0.1-1.5-0.1-2.3,0c-1,0.1-1.8,0.4-2.4,0.9c-0.6,0.4-0.9,0.9-0.9,1.5c0,0.3,0.1,0.6,0.4,0.8
				s0.6,0.3,1,0.4c0.4,0.1,0.9,0.2,1.6,0.3c1,0.1,1.8,0.3,2.4,0.5s1.2,0.5,1.6,1c0.5,0.5,0.7,1.1,0.7,2c0,1.1-0.3,2-0.9,2.9
				s-1.4,1.6-2.5,2.2c-1.1,0.6-2.3,1-3.8,1.2C304.9,239.2,303.7,239.2,302.6,239z"/>
			<path class="st2" d="M320.9,224l-0.7,3.5l7.2-1l-0.6,2.9l-7.2,1l-0.7,3.7l8.5-1.2l-0.6,3l-12,1.7l3.1-16l11.7-1.6l-0.6,3
				L320.9,224z"/>
			<path class="st2" d="M344,226.5c-0.8,1.1-1.9,2-3.3,2.7l2.7,4.4l-3.8,0.5l-2.4-4l-3.1,0.4l-0.9,4.5l-3.6,0.5l3.1-16l6.3-0.9
				c1.9-0.3,3.4-0.1,4.5,0.6c1.1,0.7,1.6,1.8,1.6,3.3C345.2,224,344.8,225.3,344,226.5z M340.6,225.9c0.7-0.6,1-1.5,1-2.5
				c0-0.7-0.3-1.3-0.8-1.6s-1.2-0.4-2.2-0.3l-2.8,0.4l-1.1,5.5l3.1-0.4C339,226.9,339.9,226.5,340.6,225.9z"/>
			<path class="st2" d="M364,215.1l-9.8,16.9l-3.5,0.5l-3.6-15l3.7-0.5l2.5,10.7l7-12.1L364,215.1z"/>
			<path class="st2" d="M365.3,214.9l3.6-0.5l-3.1,16l-3.6,0.5L365.3,214.9z"/>
			<path class="st2" d="M373.6,228.7c-1.2-0.4-2.1-1.1-2.7-2s-0.9-2.1-0.9-3.4c0-1.8,0.4-3.4,1.2-4.9c0.8-1.5,1.9-2.8,3.4-3.8
				s3.1-1.7,5-1.9c1.4-0.2,2.6-0.1,3.7,0.2s1.9,0.9,2.4,1.7l-2.6,2.5c-0.8-1.1-2.1-1.5-3.7-1.3c-1.1,0.2-2.1,0.6-3,1.2
				c-0.9,0.7-1.5,1.5-2,2.5s-0.7,2-0.7,3.2s0.4,2.1,1.1,2.7c0.8,0.6,1.8,0.8,3.2,0.6c1.6-0.2,3-1,4.1-2.4l2.1,1.9
				c-1.5,2-3.7,3.2-6.6,3.6C376.1,229.2,374.8,229.1,373.6,228.7z"/>
			<path class="st2" d="M391.9,214.1l-0.7,3.5l7.2-1l-0.6,2.9l-7.2,1l-0.7,3.7l8.5-1.2l-0.6,3l-12,1.7l3.1-16l11.7-1.6l-0.6,3
				L391.9,214.1z"/>
		</g>
		<path class="st0" d="M307.7,141.9L307.7,141.9c-0.8-0.7-2-0.5-2.8,0.4l-14.5,16.6c-1.4-0.2-3,0.3-4.2,1.6c-1.6,1.9-1.6,4.5,0,6
			c1.6,1.4,4.3,1,6-0.8c1.1-1.3,1.5-3,1-4.3l14.5-16.6C308.4,143.9,308.4,142.6,307.7,141.9z"/>
	</g>
</g>
<g id="Speech_bubble">
	<g>
		<path class="st0" d="M196.5,144.5c-10.7,0-19.4,6.3-19.4,14.1c0,5.7,4.6,10.5,11.2,12.8c-0.7,3.3-1.9,6.4-3.6,9.2
			c5-0.7,9.2-3.7,11.5-7.9c0.1,0,0.1,0,0.2,0c10.7,0,19.4-6.3,19.4-14.1C215.8,150.8,207.2,144.5,196.5,144.5z"/>
		<path class="st19" d="M196.5,144.5c-10.7,0-19.4,6.3-19.4,14.1c0,5.7,4.6,10.5,11.2,12.8c-0.7,3.3-1.9,6.4-3.6,9.2
			c5-0.7,9.2-3.7,11.5-7.9c0.1,0,0.1,0,0.2,0c10.7,0,19.4-6.3,19.4-14.1C215.8,150.8,207.2,144.5,196.5,144.5z"/>
		<g>
			<circle class="st2" cx="187.9" cy="159.3" r="2"/>
			<path class="st2" d="M198.3,159.3c0,1.1-0.9,2-2,2s-2-0.9-2-2s0.9-2,2-2C197.4,157.3,198.3,158.2,198.3,159.3z"/>
			<circle class="st2" cx="204.7" cy="159.3" r="2"/>
		</g>
	</g>
</g>
<g id="Chair">
	<g>
		<g>
			<g>
				<rect x="161.3" y="317.6" class="st2" width="6.6" height="43.2"/>
				<rect x="161.3" y="317.6" class="st21" width="6.6" height="43.2"/>
			</g>
			<path class="st2" d="M184.5,393.1l-15.4-2.8v-30.9c0-1-0.8-1.7-1.7-1.7h-5.7c-1,0-1.7,0.8-1.7,1.7v30.9l-15.4,2.8
				c-2.2,0.4-3.9,2.3-3.9,4.6l23.8-2.2l23.8,2.2C188.4,395.5,186.8,393.5,184.5,393.1z"/>
			<g>
				<path class="st0" d="M145.8,402.4c0,2.8-2.2,5-5,5s-5-2.2-5-5s2.2-5,5-5C143.5,397.4,145.8,399.7,145.8,402.4z"/>
				<path class="st0" d="M193.4,402.4c0,2.8-2.2,5-5,5s-5-2.2-5-5s2.2-5,5-5S193.4,399.7,193.4,402.4z"/>
			</g>
			<path class="st0" d="M168.5,402.4c0,2.8-1.1,5-3.9,5c-2.8,0-3.9-2.2-3.9-5s1.1-5,3.9-5C167.3,397.4,168.5,399.7,168.5,402.4z"/>
			<g class="st17">
				<polygon points="169.3,390.4 169.3,396 171.2,396.2 171.2,390.7 				"/>
				<polygon points="158,390.7 158,396.2 159.9,396 159.9,390.4 				"/>
			</g>
		</g>
		<g>
			<path class="st2" d="M121.7,278.3c-1.8,0-3.1,1.6-2.8,3.3l6.1,32.9c0.6,3.1,3.3,5.3,6.4,5.3h29.9h36.4h29.9
				c2.4,0,4.3-1.9,4.3-4.3c0-3.4-2.7-6.1-6.1-6.1h-29.9h-25c-3,0-5.6-2-6.3-4.9l-4.9-19.8c-0.9-3.7-4.2-6.3-8.1-6.3h-29.9
				L121.7,278.3L121.7,278.3z"/>
			<path class="st2" d="M134.7,304.4l-4.9-19.8c-0.9-3.7-4.2-6.3-8.1-6.3l0,0c-1.8,0-3.1,1.6-2.8,3.3l6.1,32.9
				c0.6,3.1,3.3,5.3,6.4,5.3h66.2c2.4,0,4.3-1.9,4.3-4.3l0,0c0-3.4-2.7-6.1-6.1-6.1H141C138,309.4,135.4,307.3,134.7,304.4z"/>
			<path class="st3" d="M134.7,304.4l-4.9-19.8c-0.9-3.7-4.2-6.3-8.1-6.3l0,0c-1.8,0-3.1,1.6-2.8,3.3l6.1,32.9
				c0.6,3.1,3.3,5.3,6.4,5.3h66.2c2.4,0,4.3-1.9,4.3-4.3l0,0c0-3.4-2.7-6.1-6.1-6.1H141C138,309.4,135.4,307.3,134.7,304.4z"/>
		</g>
	</g>
</g>
<g id="Plant">
	<g>
		<g>
			<path class="st22" d="M372,360.1c0,0,0.1-13.4-4.7-11.6C362.4,350.2,372,360.1,372,360.1z"/>
			<path class="st22" d="M377.2,347.7c0,0,6.4-10.7,0.6-12.2C372,334,377.2,347.7,377.2,347.7z"/>
			<path class="st22" d="M402.7,340.1c0,0,13.4-0.7,10.3-5.7C410,329.4,402.7,340.1,402.7,340.1z"/>
			<path class="st22" d="M381.5,343.7c0,0,14-3.2,11.4,4.7C390.3,356.3,381.5,343.7,381.5,343.7z"/>
			<g>
				<path class="st22" d="M371.4,372.1c0,0-5.4-12.1-8.4-7.8C360,368.6,371.4,372.1,371.4,372.1z"/>
				<path class="st22" d="M386.6,341.2c0,0,14.3-3.7,9.8-9C392,326.9,386.6,341.2,386.6,341.2z"/>
				<path class="st22" d="M397.4,339.7c0,0,11.3,5.5,6.1,9.2C398.3,352.5,397.4,339.7,397.4,339.7z"/>
				<path class="st22" d="M373.4,354.7c0,0,7.8-9.4,10.2-2.6C386,358.9,373.4,354.7,373.4,354.7z"/>
			</g>
			<g class="st1">
				<path class="st22" d="M371.4,372.1c0,0-5.4-12.1-8.4-7.8C360,368.6,371.4,372.1,371.4,372.1z"/>
				<path class="st22" d="M386.6,341.2c0,0,14.3-3.7,9.8-9C392,326.9,386.6,341.2,386.6,341.2z"/>
				<path class="st22" d="M397.4,339.7c0,0,11.3,5.5,6.1,9.2C398.3,352.5,397.4,339.7,397.4,339.7z"/>
				<path class="st22" d="M373.4,354.7c0,0,7.8-9.4,10.2-2.6C386,358.9,373.4,354.7,373.4,354.7z"/>
			</g>
			<path class="st22" d="M371.3,366.9c0,0,5.6-12,10.1-6C385.9,367,371.3,366.9,371.3,366.9z"/>
			<g>
				<path class="st22" d="M371.4,379.5c-1.6-7.6-1.6-16.2,0.7-23.6c4.6-15,18.6-18.5,32.8-16.3c1.1,0.2,0.6,1.9-0.5,1.7
					c-7.5-1.2-16-1.3-22.6,3.2c-4.7,3.3-7.4,8.5-8.6,14c-1.5,6.6-1.5,13.9-0.1,20.5C373.3,380.2,371.6,380.6,371.4,379.5
					L371.4,379.5z"/>
			</g>
			<g class="st23">
				<path class="st22" d="M371.4,379.5c-1.6-7.6-1.6-16.2,0.7-23.6c4.6-15,18.6-18.5,32.8-16.3c1.1,0.2,0.6,1.9-0.5,1.7
					c-7.5-1.2-16-1.3-22.6,3.2c-4.7,3.3-7.4,8.5-8.6,14c-1.5,6.6-1.5,13.9-0.1,20.5C373.3,380.2,371.6,380.6,371.4,379.5
					L371.4,379.5z"/>
			</g>
		</g>
		<g>
			<path class="st24" d="M360.2,356c0,0-7-16.3-11.5-12.1C344.1,348.2,360.2,356,360.2,356z"/>
			<path class="st24" d="M359.6,338.6c0,0,1.7-15.8-5.8-15.1C346.4,324.2,359.6,338.6,359.6,338.6z"/>
			<path class="st24" d="M384.6,318.4c0,0,14.9-6.7,8.8-11.4C387.3,302.1,384.6,318.4,384.6,318.4z"/>
			<path class="st24" d="M362.4,331.9c0,0,14.3-10,15.5,0.8C379,343.4,362.4,331.9,362.4,331.9z"/>
			<g>
				<path class="st24" d="M365.9,370.9c0,0-12.6-12.4-13.7-5.8C351.1,371.6,365.9,370.9,365.9,370.9z"/>
				<path class="st24" d="M366.9,326.6c0,0,14.3-10.8,6.4-15.2C365.4,306.9,366.9,326.6,366.9,326.6z"/>
				<path class="st24" d="M378.4,320.1c0,0,15.8,1.8,11.8,8.5C386.1,335.3,378.4,320.1,378.4,320.1z"/>
				<path class="st24" d="M359,348.8c0,0,3.9-14.9,10.3-7.6C375.7,348.5,359,348.8,359,348.8z"/>
			</g>
			<g class="st1">
				<path class="st24" d="M365.9,370.9c0,0-12.6-12.4-13.7-5.8C351.1,371.6,365.9,370.9,365.9,370.9z"/>
				<path class="st24" d="M366.9,326.6c0,0,14.3-10.8,6.4-15.2C365.4,306.9,366.9,326.6,366.9,326.6z"/>
				<path class="st24" d="M378.4,320.1c0,0,15.8,1.8,11.8,8.5C386.1,335.3,378.4,320.1,378.4,320.1z"/>
				<path class="st24" d="M359,348.8c0,0,3.9-14.9,10.3-7.6C375.7,348.5,359,348.8,359,348.8z"/>
			</g>
			<path class="st24" d="M363.1,364.6c0,0,0-17.1,8.3-11.7C379.8,358.4,363.1,364.6,363.1,364.6z"/>
			<g>
				<path class="st24" d="M369.9,379.9c-5.9-8.6-10.4-19-11.7-29.1c-2.7-20.2,11.4-30.7,28.8-34.1c1.4-0.3,1.7,2,0.3,2.3
					c-9.2,1.8-19,5.4-24,13.8c-3.6,6.1-3.9,13.6-2.4,20.8c1.7,8.7,5.7,17.6,10.8,25C372.4,379.9,370.7,381.2,369.9,379.9
					L369.9,379.9z"/>
			</g>
			<g class="st23">
				<path class="st24" d="M369.9,379.9c-5.9-8.6-10.4-19-11.7-29.1c-2.7-20.2,11.4-30.7,28.8-34.1c1.4-0.3,1.7,2,0.3,2.3
					c-9.2,1.8-19,5.4-24,13.8c-3.6,6.1-3.9,13.6-2.4,20.8c1.7,8.7,5.7,17.6,10.8,25C372.4,379.9,370.7,381.2,369.9,379.9
					L369.9,379.9z"/>
			</g>
		</g>
		<g>
			<path class="st25" d="M358.6,360.3c0,0,3.3-11.1,6.9-8.4C369,354.6,358.6,360.3,358.6,360.3z"/>
			<path class="st25" d="M357.4,348.7c0,0-2.6-10.5,2.6-10.2C365.2,338.7,357.4,348.7,357.4,348.7z"/>
			<path class="st25" d="M338.3,335.9c0,0-10.9-4-7.1-7.4C335,325.2,338.3,335.9,338.3,335.9z"/>
			<path class="st25" d="M354.9,344.3c0,0-10.8-6.2-10.6,1C344.4,352.5,354.9,344.3,354.9,344.3z"/>
			<g>
				<path class="st25" d="M356,370.4c0,0,7.6-8.6,8.9-4.3S356,370.4,356,370.4z"/>
				<path class="st25" d="M351.3,340.9c0,0-10.8-6.8-5.8-10C350.6,327.8,351.3,340.9,351.3,340.9z"/>
				<path class="st25" d="M342.8,336.9c0,0-10.7,1.7-7.4,6C338.8,347.3,342.8,336.9,342.8,336.9z"/>
				<path class="st25" d="M358.8,355.5c0,0-4-9.8-7.8-4.7C347.2,355.8,358.8,355.5,358.8,355.5z"/>
			</g>
			<g class="st1">
				<path class="st25" d="M356,370.4c0,0,7.6-8.6,8.9-4.3S356,370.4,356,370.4z"/>
				<path class="st25" d="M351.3,340.9c0,0-10.8-6.8-5.8-10C350.6,327.8,351.3,340.9,351.3,340.9z"/>
				<path class="st25" d="M342.8,336.9c0,0-10.7,1.7-7.4,6C338.8,347.3,342.8,336.9,342.8,336.9z"/>
				<path class="st25" d="M358.8,355.5c0,0-4-9.8-7.8-4.7C347.2,355.8,358.8,355.5,358.8,355.5z"/>
			</g>
			<path class="st25" d="M357.4,366.1c0,0-1.5-11.4-6.8-7.5C345.3,362.4,357.4,366.1,357.4,366.1z"/>
			<g>
				<path class="st25" d="M354.1,376.5c3.3-5.9,5.5-13,5.5-19.7c0.1-13.6-10.6-20.1-22.9-21.9c-1-0.1-1,1.4,0,1.5
					c6.5,0.9,13.6,3,17.8,8.5c3,3.9,3.9,8.9,3.5,13.8c-0.4,5.8-2.3,11.9-5.2,17C352.3,376.6,353.6,377.4,354.1,376.5L354.1,376.5z"
					/>
			</g>
			<g class="st23">
				<path class="st25" d="M354.1,376.5c3.3-5.9,5.5-13,5.5-19.7c0.1-13.6-10.6-20.1-22.9-21.9c-1-0.1-1,1.4,0,1.5
					c6.5,0.9,13.6,3,17.8,8.5c3,3.9,3.9,8.9,3.5,13.8c-0.4,5.8-2.3,11.9-5.2,17C352.3,376.6,353.6,377.4,354.1,376.5L354.1,376.5z"
					/>
			</g>
		</g>
		<path class="st26" d="M385.2,373.7l-3.9,29.2c-0.5,3.8-3.7,6.6-7.5,6.6h-24.1c-3.8,0-7-2.8-7.5-6.6l-3.9-29.2H385.2z"/>
		<path class="st6" d="M385.2,373.7l-3.9,29.2c-0.5,3.8-3.7,6.6-7.5,6.6h-24.1c-3.8,0-7-2.8-7.5-6.6l-3.9-29.2H385.2z"/>
	</g>
</g>
<g id="Character">
	<g>
		<path class="st2" d="M175.3,184.2c0,0,10.9,3.3,5.8,11.3l-4.8-6.9L175.3,184.2z"/>
		<polygon class="st27" points="214.7,226 219.5,218.9 224.2,220.5 225,222.4 219.2,230.8 		"/>
		<path class="st0" d="M221.8,227.8c-4.8,7.5-12.3,18.4-15.2,17.8c-8.5-1.9-20.1-9.9-26.1-18.7c-1.9-2.8-1.3-6.5,1.3-8.6v-0.1
			c2.7-2.2,6.8-1.8,9,0.9c0.1,0.1,0.2,0.3,0.3,0.4c5.3,7.6,12,14.8,13.1,15.4c1.3,0.7,4.6-2.4,11.7-11.4L221.8,227.8z"/>
		<path class="st4" d="M221.8,227.8c-4.8,7.5-12.3,18.4-15.2,17.8c-8.5-1.9-20.1-9.9-26.1-18.7c-1.9-2.8-1.3-6.5,1.3-8.6v-0.1
			c2.7-2.2,6.8-1.8,9,0.9c0.1,0.1,0.2,0.3,0.3,0.4c5.3,7.6,12,14.8,13.1,15.4c1.3,0.7,4.6-2.4,11.7-11.4L221.8,227.8z"/>
		<path class="st27" d="M221.9,221.7l9.4,1.9l-4.4-7.9c0,0-5.7,0-7.5,3.3L221.9,221.7z"/>
		<path class="st5" d="M194.5,240.1c-6.8-4.7-7.8-15.7-7.8-15.7l-3.9-1.8l-1.8,4.9C184.4,232.3,189.4,236.8,194.5,240.1z"/>
		<polygon class="st27" points="238,220.2 234,213.8 226.9,215.7 231.3,223.6 		"/>
		<path class="st0" d="M185.5,264.1l-33.5,2.2c0,0-0.2-9-1.4-17.3c-0.4-2.9-0.9-5.7-1.7-8.5c-0.9-2.9-2-6.1-3.3-9.8
			c-0.2-0.5-0.3-0.9-0.5-1.4c-0.4-1.2-0.9-2.4-1.4-3.6v-0.1c-1-2.6,0.3-5.4,2.9-6.4c0.2-0.1,0.5-0.2,0.7-0.2
			c2.1-0.5,4.3-0.9,6.5-1.2l1.9-0.3c5-0.7,10.1-1.2,15.2-1.4c2.6,0,5.4,0.1,7.8,0.2l2,0.1c2.5,0.2,4.3,0.3,4.3,0.3s1.1,0.2,1.7,6.1
			c0,0.3,0.1,0.6,0.1,1c0.1,1.2,0.2,2.8,0.2,4.6C187,236.1,186.6,248.8,185.5,264.1z"/>
		<path class="st4" d="M185.5,264.1l-33.5,2.2c0,0-0.2-9-1.4-17.3c-0.4-2.9-0.9-5.7-1.7-8.5c-0.9-2.9-2-6.1-3.3-9.8
			c-0.2-0.5-0.3-0.9-0.5-1.4c-0.4-1.2-0.9-2.4-1.4-3.6v-0.1c-1-2.6,0.3-5.4,2.9-6.4c0.2-0.1,0.5-0.2,0.7-0.2
			c2.1-0.5,4.3-0.9,6.5-1.2l1.9-0.3c5-0.7,10.1-1.2,15.2-1.4c2.6,0,5.4,0.1,7.8,0.2l2,0.1c2.5,0.2,4.3,0.3,4.3,0.3s1.1,0.2,1.7,6.1
			c0,0.3,0.1,0.6,0.1,1c0.1,1.2,0.2,2.8,0.2,4.6C187,236.1,186.6,248.8,185.5,264.1z"/>
		<path class="st0" d="M156.7,217.4l8.4,11.1l6-5.1l7.8,3.8l-4.2-10.9c-1.3,0-2.6-0.1-3.9-0.1C166.1,216.3,161.4,216.7,156.7,217.4z
			"/>
		<path class="st15" d="M156.7,217.4l8.4,11.1l6-5.1l7.8,3.8l-4.2-10.9c-1.3,0-2.6-0.1-3.9-0.1C166.1,216.3,161.4,216.7,156.7,217.4
			z"/>
		<polygon class="st27" points="230.7,398.6 223.6,398.6 226.9,344.8 240.2,344.8 		"/>
		<path class="st2" d="M222.8,397.9c-0.1-0.7,8.4-1.3,8.4-1.3s5.9,4.6,11.1,5c5.2,0.5,2.8,3.9-2.8,4.7l-13.9,1.9
			C221.6,408.8,223.6,405,222.8,397.9z"/>
		<path class="st0" d="M235.5,398.2c-1.1-0.1-2.2-0.3-3.2-0.6c0,0-0.1,0-0.1-0.1l0,0l0,0c0-0.1,0-0.1,0-0.2s0.5-2.2,1.6-2.8
			c0.3-0.2,0.7-0.2,1.1-0.1c0.5,0.2,0.7,0.5,0.7,0.7c0,0.4-0.4,0.9-1,1.4c0.6-0.2,1.2-0.2,1.7,0c0.3,0.1,0.5,0.3,0.6,0.5
			c0.2,0.3,0.1,0.7-0.1,1C236.4,398.1,236,398.3,235.5,398.2z M233.2,397.3c1.3,0.3,2.8,0.5,3.1,0.2c0.1-0.1,0.1-0.2,0-0.4
			c0-0.1-0.1-0.2-0.3-0.2C235.1,396.7,234.1,396.9,233.2,397.3z M234.4,394.8c-0.1,0-0.3,0-0.4,0.1c-0.6,0.5-1,1.2-1.2,1.9
			c1.1-0.6,2.2-1.4,2.2-1.8c0-0.1-0.1-0.1-0.3-0.2C234.6,394.8,234.5,394.8,234.4,394.8z"/>
		<polygon class="st5" points="226.3,354.2 238.5,354.5 240.2,344.8 226.9,344.8 		"/>
		<polygon class="st27" points="196.5,399.5 189.7,398.6 200.5,339 214,342.8 		"/>
		<path class="st2" d="M188.8,397.6c0-0.7,8.5,0,8.5,0s5.2,5.4,10.2,6.6c5.1,1.2,2.2,4.3-3.5,4.2l-14.1-0.2
			C185.9,408.2,188.5,404.8,188.8,397.6z"/>
		<path class="st0" d="M201.8,399.8c-1.2-0.2-2.5-0.5-3.6-1.1l-0.1-0.1l0,0v-0.1c0-0.1,0-0.1,0-0.2s0.8-2.1,2-2.6
			c0.4-0.2,0.7-0.2,1.1,0c0.5,0.3,0.6,0.5,0.6,0.8c0,0.4-0.5,0.8-1.2,1.2c0.6-0.1,1.2,0,1.7,0.3c0.2,0.1,0.4,0.3,0.5,0.6
			c0.1,0.3,0,0.7-0.2,0.9C202.3,399.8,202.1,399.9,201.8,399.8z M199.1,398.6c1.2,0.5,2.7,1,3,0.7c0.1-0.1,0.1-0.2,0-0.4
			c0-0.1-0.1-0.2-0.2-0.3C201,398.3,200,398.3,199.1,398.6z M200.5,396.3c-0.1,0-0.2,0-0.3,0.1c-0.6,0.4-1.1,1-1.4,1.7
			c1.2-0.5,2.4-1.1,2.4-1.4c0-0.1-0.1-0.2-0.3-0.2C200.8,396.3,200.7,396.3,200.5,396.3L200.5,396.3z"/>
		<polygon class="st5" points="214,342.8 200.5,339 198.4,350.7 210.9,353 		"/>
		<path class="st0" d="M223.3,349.4l17.2,0.9c4.4-20.2,8.8-42.5,7.9-47.4c-1.6-9.4-14.4-18.9-63.8-27l-23,34.6
			c0,0,33.6-1.6,64.3-1.6C225.9,308.9,224.2,328.1,223.3,349.4z"/>
		<path class="st28" d="M223.3,349.4l17.2,0.9c4.4-20.2,8.8-42.5,7.9-47.4c-1.6-9.4-14.4-18.9-63.8-27l-23,34.6
			c0,0,33.6-1.6,64.3-1.6C225.9,308.9,224.2,328.1,223.3,349.4z"/>
		<polygon class="st0" points="222.2,346.7 222.7,351.2 241.5,351.8 242.4,347.7 		"/>
		<path class="st27" d="M173.6,216.2c-1,0-1.9,0-2.9,0c-4.2,0.1-8.3,0.5-12.4,1c1.8,2.1,7.4,5.5,11.2,5.5
			C174.7,222.7,173.5,218.8,173.6,216.2z"/>
		<path class="st0" d="M196.7,345.9l17.5,2.9c7.1-19.9,14.2-41.1,14.1-45.9c-0.2-9.5-2.3-14.5-36.8-22.1c0,0-1.8-2.7-6-16.5
			l-33.5,2.2c0,0-15.3,28.2-3.5,40.2c2.6,2.7,7.8,3.9,13,3.8c0,0,12.1,0.1,42-1.3C203.5,309.1,200,326.2,196.7,345.9z"/>
		<polygon class="st0" points="196,342.8 216.3,346.3 214.4,350.5 195.9,347.5 		"/>
		<polygon class="st28" points="222.2,346.7 222.7,351.2 241.5,351.8 242.4,347.7 		"/>
		<path class="st27" d="M171.1,213.3c-0.4,2.5-0.3,5,0.3,7.4l-9.2-1.3c-0.8-0.1-1.3-1-1-1.8c1.3-2.9,1.8-8.6,2.1-11.3
			c0.2-1.6,0.2-3.1,0.3-4.1s0-1.4,0-1.4l4.1,1.9l6.7,3.1C172.8,208.1,171.7,210.6,171.1,213.3z"/>
		<path class="st5" d="M174.4,205.8c-1.6,2.3-2.7,4.8-3.3,7.5c-3.4-1.3-6.1-3.8-7.8-7c0.2-1.6,0.2-3.1,0.3-4.1
			c1.5,0.1,2.8,0.3,4.1,0.5L174.4,205.8z"/>
		<g>
			<path class="st0" d="M174.9,199.2c-0.3,3.1,1.3,5.6,3.5,5.6s4.2-2.5,4.5-5.6s-1.3-5.6-3.5-5.6
				C177.1,193.7,175.1,196.1,174.9,199.2z"/>
			<path class="st29" d="M174.5,199.2c-0.3,3.1,1.3,5.6,3.5,5.6s4.2-2.5,4.5-5.6s-1.3-5.6-3.5-5.6
				C176.7,193.7,174.7,196.1,174.5,199.2z"/>
		</g>
		<path class="st27" d="M159.1,193.8c1.6,7.5,2.2,12,6.7,15.4c6.7,5.2,15.5,0.6,16.2-7.2c0.6-7-2.2-18.1-10.1-20.3
			C164,179.7,157.4,186.3,159.1,193.8z"/>
		<path class="st27" d="M157.3,201.7c1.3,1.6,3.2,2.6,4.8,2.8c2.4,0.4,2.9-1.8,1.7-3.9c-1.1-1.9-3.6-4.4-5.7-3.9
			C156,197.3,155.8,199.8,157.3,201.7z"/>
		<path class="st2" d="M170.9,194.6c0.1,0.6,0.5,1.1,0.9,1c0.4,0,0.7-0.6,0.6-1.2c-0.1-0.6-0.5-1.1-0.9-1
			C171.1,193.4,170.8,193.9,170.9,194.6z"/>
		<path class="st2" d="M177.9,193.7c0.1,0.6,0.5,1.1,0.9,1c0.4,0,0.7-0.6,0.6-1.2c-0.1-0.6-0.5-1.1-0.9-1S177.9,193.1,177.9,193.7z"
			/>
		<path class="st30" d="M175.8,194.3c0,0,2,3.4,3.8,4.9c-0.9,1.1-2.9,0.9-2.9,0.9L175.8,194.3z"/>
		<path class="st2" d="M168.4,192.6c-0.1,0-0.1,0-0.2,0c-0.2-0.1-0.2-0.3-0.1-0.5c1-1.8,2.7-1.9,2.7-1.9c0.2,0,0.4,0.1,0.4,0.3
			s-0.1,0.4-0.3,0.4c-0.1,0-1.4,0.1-2.1,1.5C168.7,192.5,168.6,192.6,168.4,192.6z"/>
		<path class="st2" d="M180.6,191c-0.1,0-0.2-0.1-0.3-0.2c-0.9-1.4-2.3-1.4-2.3-1.4c-0.2,0-0.4-0.2-0.4-0.4s0.2-0.4,0.4-0.4l0,0
			c0.1,0,1.8,0,2.9,1.7c0.1,0.2,0.1,0.4-0.1,0.5C180.7,191,180.7,191,180.6,191z"/>
		<path class="st2" d="M160.5,203.7c0,0,4.8-4.9,2.4-16.9c0,0,3.8,3.3,12.8,0.9c0,0-5.3,0.5-7.7-2c0,0,4.9,2.3,12.9,0
			c0,0-1.4-8.1-10-8.5c0,0,2.8-2.3,5.4-1.9c0,0-2.7-2.4-9.7,2.2l-2.7,1.1c0,0-7.7-2.8-12,3.8C148.6,187.6,150.3,203.9,160.5,203.7z"
			/>
		<g>
			<path class="st2" d="M178.1,201.5c0,0-2.4-0.6-9.2-0.8c0.8,2.1,2.2,3.8,5.7,3.8C178,204.6,178.1,201.5,178.1,201.5z"/>
			<path class="st31" d="M173,202.9c1.7,0,2.9,0.4,3.8,1.1c-0.5,0.3-1.2,0.6-2.2,0.6c-1.7,0-2.9-0.4-3.8-1.1
				C171.3,203.1,172,202.9,173,202.9z"/>
			<path class="st18" d="M177.8,201.4c-0.2,0.4-0.4,0.9-1.1,1c-1.4,0.1-5.1-0.4-6-0.6c-0.6-0.1-1.2-0.3-1.5-1
				C174.4,200.9,176.9,201.3,177.8,201.4z"/>
		</g>
		<g>
			<path class="st0" d="M156.8,196.4v-8.1c0-5,3.3-9.3,7.9-10.6l2.7-0.5c-4.7,1.4-8.1,5.8-8.1,10.9v8.3L156.8,196.4L156.8,196.4z"/>
			<path class="st0" d="M163.1,200.3c0.3,3.1-1.3,5.6-3.5,5.6s-4.2-2.5-4.5-5.6s1.3-5.6,3.5-5.6
				C160.8,194.8,162.8,197.2,163.1,200.3z"/>
			<path class="st29" d="M163.1,200.3c0.3,3.1-1.3,5.6-3.5,5.6s-4.2-2.5-4.5-5.6s1.3-5.6,3.5-5.6
				C160.8,194.8,162.8,197.2,163.1,200.3z"/>
			<path class="st0" d="M161.8,200.3c0.3,3.1-1.3,5.6-3.5,5.6s-4.2-2.5-4.5-5.6s1.3-5.6,3.5-5.6
				C159.5,194.8,161.5,197.2,161.8,200.3z"/>
			<path class="st6" d="M159,201.1l-0.2-1.6h0.3c-0.4-1.6-1.5-2.8-2.7-2.8s-2.1,1.2-2.3,2.8h0.2l0.2,1.6h-0.2
				c0.4,1.6,1.5,2.8,2.7,2.8s2.1-1.2,2.3-2.8H159z"/>
		</g>
		<g>
			<g>
				<g>
					<path class="st27" d="M144.6,201l4.4-8.6l3.5,8.3c0,0-3.5,4.5-7.2,3.8L144.6,201z"/>
					<polygon class="st27" points="155.8,189.2 158.4,196.4 152.5,200.7 149,192.4 					"/>
				</g>
				<polygon class="st27" points="145.8,210.3 150,203.2 149.5,200.3 145.8,199 140.6,207.2 				"/>
			</g>
			<path class="st0" d="M148.8,205.9l-7.7,16.9c0,0,3.7-3.3,5.8-3.8c3.3-0.8,13.2,2.2,3.1,13.1c0,0-19.9,12.4-23.9,7.6
				c-3.1-3.7,10.2-26.5,16.4-36.4L148.8,205.9z"/>
			<path class="st4" d="M148.8,205.9l-7.7,16.9c0,0,3.7-3.3,5.8-3.8c3.3-0.8,13.2,2.2,3.1,13.1c0,0-19.9,12.4-23.9,7.6
				c-3.1-3.7,10.2-26.5,16.4-36.4L148.8,205.9z"/>
			<path class="st5" d="M141.1,222.7l-2.2,6.6l6.3-9.7C143.3,220.8,141.1,222.7,141.1,222.7z"/>
		</g>
		<g>
			<g>
				<g>
					<path class="st0" d="M169.9,207.8c-1,0-1.9,0-2.5-0.2c-1.7-0.4-6-2.7-6.2-2.8l0.4-0.7c0,0,4.4,2.4,6,2.8c1.5,0.3,6.4,0,6.4,0
						l0.1,0.8C173.9,207.6,171.8,207.8,169.9,207.8z"/>
				</g>
				<path class="st0" d="M170.8,207.9l4-0.3c0,0-0.1-1.2-2-1.2C170.9,206.5,170.8,207.9,170.8,207.9z"/>
			</g>
			<g class="st17">
				<g>
					<path d="M169.9,207.8c-1,0-1.9,0-2.5-0.2c-1.7-0.4-6-2.7-6.2-2.8l0.4-0.7c0,0,4.4,2.4,6,2.8c1.5,0.3,6.4,0,6.4,0l0.1,0.8
						C173.9,207.6,171.8,207.8,169.9,207.8z"/>
				</g>
				<path d="M170.8,207.9l4-0.3c0,0-0.1-1.2-2-1.2C170.9,206.5,170.8,207.9,170.8,207.9z"/>
			</g>
		</g>
	</g>
</g>
</svg>
