<?xml version="1.0" encoding="utf-8"?>
<!-- Generator: Adobe Illustrator 25.2.1, SVG Export Plug-In . SVG Version: 6.00 Build 0)  -->
<svg version="1.1" id="Layer_1" xmlns="http://www.w3.org/2000/svg" xmlns:xlink="http://www.w3.org/1999/xlink" x="0px" y="0px"
	 viewBox="0 0 500 500" style="enable-background:new 0 0 500 500;" xml:space="preserve">
<style type="text/css">
	.st0{fill:#EDF9F8;stroke:#000000;stroke-miterlimit:10;}
	.st1{fill:#EBEBEB;}
	.st2{fill:#DBDBDB;}
	.st3{fill:#C7C7C7;}
	.st4{fill:#263238;}
	.st5{fill:#455A64;}
	.st6{fill:#EB9481;}
	.st7{fill:#FFFFFF;}
	.st8{fill:#FF98B9;}
	.st9{fill:#FFC727;}
	.st10{opacity:0.1;enable-background:new    ;}
	.st11{opacity:0.1;}
	.st12{opacity:0.3;enable-background:new    ;}
</style>
<g id="freepik--background-complete--inject-4">
	<rect x="-33" y="-32" class="st0" width="600" height="568"/>
	<path class="st1" d="M108.3,87.9c-51.8,0-51.9,73.7,0,73.7S160.2,87.9,108.3,87.9z"/>
	<path class="st2" d="M139.8,131.6c-2.8,12.7-13.3,23.7-31.5,23.7c-43.1,0-43-61.2,0-61.2c0.3,0,0.6,0,0.8,0
		c-40.5,0.7-40.3,58.7,0.8,58.7C126.7,152.8,136.7,143.1,139.8,131.6z"/>
	<path class="st2" d="M108.6,102.2c0.7,0,1.3,0.5,1.3,1.2v2c3.6,0.2,7.1,1.5,10,3.6c0.5,0.4,0.8,0.7,0.8,1.2
		c-0.1,0.8-0.7,1.3-1.4,1.3c-0.4,0-0.7-0.1-1-0.4c-2.4-1.9-5.4-3-8.4-3.3v14.4c8.5,1.6,12.1,4.6,12.1,9.6c0,5.4-5,9.3-12,9.5v4
		c-0.1,0.7-0.7,1.3-1.5,1.2c-0.7-0.1-1.2-0.6-1.2-1.2v-4c-4.6-0.3-9-2-12.6-5c-0.4-0.2-0.6-0.6-0.6-1.1c0.1-0.7,0.7-1.3,1.4-1.3
		c0.4,0,0.7,0.1,1,0.4c3,2.7,6.9,4.3,10.9,4.7v-14.6c-8.4-1.7-11.9-4.5-11.9-9.6s4.9-9.1,11.8-9.3v-2
		C107.3,102.7,107.9,102.2,108.6,102.2z M107.4,121.7v-14c-5.4,0.1-9,3.1-9,6.8C98.4,118,100.2,120.1,107.4,121.7z M109.8,124.8V139
		c5.6-0.1,9.2-3.1,9.2-7C119.1,128.5,117.1,126.3,109.8,124.8z"/>
	<path class="st2" d="M401.3,308.3c-46.7,8.4-34.3,77.5,12.4,69.1S448,299.9,401.3,308.3z"/>
	<path class="st1" d="M405.6,307.5c-44.5,8-32.1,77.1,12.4,69.1S450.2,299.5,405.6,307.5z"/>
	<path class="st2" d="M440,343.6c-0.2,12.3-7.4,24.2-23.1,27c-37,6.6-47.2-50.7-10.3-57.4c0.2-0.1,0.5-0.1,0.7-0.1
		c-34.6,6.9-24.7,61.2,10.6,54.9C432.4,365.5,439.3,354.9,440,343.6z"/>
	<path class="st2" d="M414.5,320.8c0.6,0.1,1.1,0.7,1,1.3l-0.2,1.9c3.1,0.6,6,2.2,8.2,4.4c0.4,0.3,0.6,0.7,0.5,1.2
		c-0.1,0.7-0.7,1.2-1.4,1.1c-0.3,0-0.6-0.2-0.8-0.4c-1.9-2-4.3-3.4-6.9-4l-1.6,13.6c7.2,2.4,10,5.5,9.4,10.3
		c-0.6,5.1-5.4,8.3-11.4,7.8l-0.5,3.8c-0.1,0.6-0.7,1.1-1.3,1s-1.1-0.7-1-1.3l0,0l0.5-3.8c-4-0.8-7.7-2.9-10.4-6
		c-0.5-0.4-0.6-1.2-0.1-1.7c0.3-0.3,0.7-0.5,1.1-0.4c0.3,0,0.6,0.2,0.8,0.4c2.3,2.8,5.4,4.8,9,5.5l1.7-13.8
		c-7.1-2.5-9.8-5.5-9.2-10.3s5.3-8.1,11.2-7.6l0.2-1.8C413.3,321.2,413.9,320.8,414.5,320.8z M411.3,339.1l1.5-13.2
		c-4.7-0.5-8.1,2-8.6,5.5C403.9,334.7,405.2,336.9,411.3,339.1L411.3,339.1z M413.1,342.4l-1.6,13.4c4.9,0.5,8.4-2,8.8-5.7
		C420.7,346.8,419.2,344.5,413.1,342.4L413.1,342.4z"/>
	<path class="st1" d="M414.8,284.9l13.4-0.3l6.6-0.1c2.2,0,4.4,0,6.5-0.1l-0.4,0.5l-0.1-11.2l0.5,0.5l-13.3-0.1
		c-4.4,0-8.8-0.1-13.2-0.2l0.3-0.3c0,1.8-0.1,3.7-0.1,5.5L414.8,284.9z M414.8,284.9l-0.1-5.5c0-1.9-0.1-3.8-0.1-5.6v-0.3h0.3
		c4.4,0,8.8-0.2,13.2-0.2l13.2-0.1h0.5v0.5v11.2v0.5h-0.5c-2.2,0-4.5,0-6.7-0.1l-6.7-0.1L414.8,284.9z"/>
	<path class="st1" d="M429.6,299l13.4-0.3l6.6-0.1c2.2,0,4.4,0,6.5-0.1l-0.4,0.5l0-11.2l0.5,0.5l-13.2-0.1c-4.4,0-8.8-0.1-13.2-0.2
		l0.3-0.3c0,1.8-0.1,3.7-0.1,5.5L429.6,299z M429.6,299l-0.1-5.5c0-1.9-0.1-3.8-0.1-5.6v-0.3h0.3c4.4,0,8.8-0.2,13.2-0.2l13.2-0.1
		h0.5v0.5l-0.1,11.2v0.5H456c-2.2,0-4.5,0-6.7-0.1l-6.7-0.1L429.6,299z"/>
	<path class="st1" d="M400,299l13.4-0.3l6.6-0.1c2.2,0,4.4,0,6.5-0.1L426,299l0-11.2l0.5,0.5l-13.2-0.1c-4.4,0-8.8-0.1-13.2-0.2
		l0.3-0.3c0,1.8-0.1,3.7-0.1,5.5L400,299z M400,299l-0.1-5.5c0-1.9-0.1-3.8-0.1-5.6v-0.3h0.3c4.4,0,8.8-0.2,13.2-0.2l13.2-0.1h0.5
		v0.5l0,11.2v0.5h-0.4c-2.2,0-4.5,0-6.7-0.1l-6.7-0.1L400,299z"/>
	<path class="st1" d="M58.7,299l13.4-0.3l6.6-0.1c2.2,0,4.4,0,6.6-0.1l-0.4,0.5l-0.1-11.2l0.5,0.5L72,288.2c-4.4,0-8.8-0.1-13.2-0.2
		l0.3-0.3c0,1.8-0.1,3.7-0.1,5.5L58.7,299z M58.7,299l-0.2-5.5c0-1.9-0.1-3.8-0.1-5.6v-0.3h0.3c4.4,0,8.8-0.2,13.2-0.2l13.2-0.1h0.5
		v0.5L85.7,299v0.5h-0.4c-2.2,0-4.5,0-6.7-0.1l-6.7-0.1L58.7,299z"/>
	<path class="st1" d="M58.7,47.8l13.4-0.3l6.6-0.1c2.2,0,4.4,0,6.6,0l-0.4,0.5l-0.1-11.2l0.5,0.5L72,37c-4.4,0-8.8-0.1-13.2-0.2
		l0.3-0.3c0,1.8-0.1,3.7-0.1,5.5L58.7,47.8z M58.7,47.8l-0.2-5.5c0-1.9-0.1-3.8-0.1-5.7v-0.3h0.3c4.4,0,8.8-0.2,13.2-0.2l13.2-0.1
		h0.5v0.5l-0.1,11.2v0.4h-0.4c-2.2,0-4.5,0-6.7,0L71.8,48L58.7,47.8z"/>
	<path class="st1" d="M44,61.9l13.3-0.3l6.6-0.1c2.2,0,4.4,0,6.6,0L70,61.9V50.7l0.5,0.5l-13.3-0.1c-4.4,0-8.8-0.1-13.2-0.1l0.3-0.3
		c0,1.8-0.1,3.7-0.1,5.5L44,61.9z M44,61.9l-0.2-5.5c0-1.9-0.1-3.8-0.1-5.7v-0.3H44c4.4,0,8.8-0.2,13.2-0.2l13.2-0.1H71v0.5
		l-0.1,11.2v0.4h-0.4c-2.2,0-4.5,0-6.7,0l-6.7-0.1L44,61.9z"/>
	<path class="st1" d="M429.6,47.8l13.4-0.3l6.6-0.1c2.2,0,4.4,0,6.5-0.1l-0.4,0.5l0-11.2l0.5,0.5L442.8,37c-4.4,0-8.8-0.1-13.2-0.2
		l0.3-0.3c0,1.8-0.1,3.7-0.1,5.5L429.6,47.8z M429.6,47.8l-0.1-5.5c0-1.9-0.1-3.8-0.1-5.7v-0.3h0.3c4.4,0,8.8-0.2,13.2-0.2l13.2-0.1
		h0.5v0.5l0,11.2v0.5H456c-2.2,0-4.5,0-6.7,0l-6.7-0.1L429.6,47.8z"/>
	<path class="st1" d="M286.2,122.8l-13.4,0.3l-6.6,0.1c-2.2,0-4.4,0-6.5,0.1l0.5-0.4l0,11.2l-0.5-0.5l13.2,0.1
		c4.4,0,8.8,0.1,13.2,0.2l-0.3,0.3c0-1.8,0.1-3.7,0.1-5.5L286.2,122.8z M286.2,122.8l0.1,5.5c0,1.9,0.1,3.8,0.1,5.6v0.3h-0.3
		c-4.4,0-8.8,0.1-13.2,0.2l-13.2,0.1h-0.5V134l0.1-11.2v-0.4h0.4c2.2,0,4.5,0,6.7,0l6.7,0.1L286.2,122.8z"/>
	<path class="st1" d="M271.4,108.7l-13.4,0.3l-6.6,0.1c-2.2,0-4.4,0-6.6,0.1l0.4-0.4l0.1,11.2l-0.5-0.5l13.2,0.1
		c4.4,0,8.8,0.1,13.2,0.2l-0.3,0.3c0-1.8,0.1-3.7,0.1-5.5L271.4,108.7z M271.4,108.7l0.1,5.5c0,1.9,0.1,3.8,0.1,5.7v0.3h-0.3
		c-4.4,0-8.8,0.2-13.2,0.2l-13.2,0.1h-0.5v-0.5l0.1-11.2v-0.4h0.5c2.2,0,4.5,0,6.7,0l6.7,0.1L271.4,108.7z"/>
	<rect x="423" class="st3" width="1" height="119.2"/>
	<polygon class="st1" points="382.1,159.1 385.5,166.4 461.6,166.4 464.9,159.1 432.5,136.7 414.5,136.7 	"/>
	<polygon class="st2" points="412.3,115.1 414.5,136.7 432.5,136.7 434.8,115.1 	"/>
	<polygon class="st2" points="382.1,159.1 385.5,166.5 461.6,166.5 464.9,159.1 	"/>
	<rect x="334.1" class="st3" width="1" height="95.6"/>
	<polygon class="st1" points="293.2,135.5 296.6,142.8 372.7,142.8 376,135.5 343.6,113.1 325.6,113.1 	"/>
	<polygon class="st2" points="323.4,91.5 325.6,113.1 343.6,113.1 345.9,91.5 	"/>
	<polygon class="st2" points="293.2,135.5 296.6,142.8 372.7,142.8 376,135.5 	"/>
</g>
<g id="freepik--Desk--inject-4">
	<polygon class="st4" points="45.3,401 96.5,400.8 147.6,400.7 250,400.5 352.4,400.7 403.5,400.8 454.7,401 403.5,401.2 
		352.4,401.3 250,401.5 147.6,401.3 96.5,401.2 	"/>
</g>
<g id="freepik--Shadow--inject-4">
	<ellipse class="st1" cx="250" cy="431.6" rx="184.8" ry="13.7"/>
</g>
<g id="freepik--Character--inject-4">
	<path class="st4" d="M290,321v0.1c0,0,0,0.1,0,0.1s0,0.2,0,0.3v0.2c0,0.1-0.1,0.3-0.1,0.4c0,0.1,0,0.2,0,0.3s-0.1,0.4-0.1,0.7
		s-0.1,0.8-0.2,1.3l-0.5,2.4c0,0.3-0.1,0.5-0.1,0.8s-0.1,0.8-0.2,1.2s-0.2,0.9-0.2,1.4l0,0c-0.1,0.3-0.1,0.7-0.2,1
		c-0.2,1.1-0.4,2.2-0.6,3.4c0,0,0,0.1,0,0.1c-0.2,1.4-0.5,2.8-0.8,4.4c-0.1,0.4-0.1,0.8-0.2,1.2s-0.2,0.8-0.2,1.3l0,0
		c0,0.3-0.1,0.5-0.1,0.8l0,0c-0.4,2.1-0.8,4.4-1.2,6.8c-0.1,0.8-0.3,1.6-0.4,2.4c-0.3,1.6-0.6,3.2-0.9,4.9c-0.1,0.4-0.1,0.8-0.2,1.2
		c-0.5,2.4-0.9,5-1.4,7.6c-0.1,0.3-0.1,0.5-0.1,0.8c-0.2,1.2-0.5,2.5-0.7,3.8c0,0.1,0,0.2-0.1,0.3l-0.3,1.8
		c-0.4,2.4-0.9,4.9-1.4,7.5c-0.1,0.6-0.2,1.3-0.4,1.9c-0.2,1.3-0.5,2.6-0.7,3.9c-0.3,1.6-0.6,3.3-0.9,4.9s-0.6,3.3-0.9,5
		c-0.2,0.9-0.3,1.7-0.5,2.5c-0.2,1-0.4,2-0.5,3.1h-86.4c10.7-44.3,19.6-80,19.6-80L290,321z"/>
	<path class="st4" d="M276.9,331c-4.3,23.3-8.7,46.7-13.1,70h-1.2c4.6-23.4,9.3-46.7,14-70.1C276.7,330.7,277,330.8,276.9,331z"/>
	<path class="st5" d="M290,321c0,0,0,0,0,0.1s0,0.1,0,0.1s0,0.2,0,0.3v0.2c0,0.1-0.1,0.3-0.1,0.4c0,0.1,0,0.2,0,0.3
		s-0.1,0.4-0.1,0.7s-0.1,0.8-0.2,1.3c-0.1,0.7-0.3,1.5-0.5,2.4c0,0.3-0.1,0.5-0.1,0.8s-0.1,0.8-0.2,1.2s-0.2,0.9-0.2,1.4l0,0
		c-0.1,0.3-0.1,0.7-0.2,1c-0.2,1.1-0.4,2.2-0.6,3.4c0,0,0,0.1,0,0.1c-0.2,1.4-0.5,2.8-0.8,4.3c-0.1,0.4-0.1,0.8-0.2,1.2
		s-0.2,0.8-0.2,1.3l0,0c-0.1,0.3-0.1,0.5-0.1,0.8l0,0c-0.4,2.1-0.8,4.4-1.2,6.8c-0.1,0.8-0.3,1.6-0.4,2.4c-0.3,1.6-0.6,3.2-0.9,4.9
		c-0.1,0.4-0.1,0.8-0.2,1.2c-0.5,2.5-0.9,5-1.4,7.6c-0.1,0.3-0.1,0.5-0.1,0.8c-0.2,1.2-0.5,2.5-0.7,3.8c0,0.1,0,0.2-0.1,0.3
		l-0.3,1.8c-0.5,2.4-0.9,4.9-1.4,7.5c-0.1,0.6-0.2,1.3-0.4,1.9c-0.2,1.3-0.5,2.6-0.7,3.9c-0.3,1.6-0.6,3.3-0.9,4.9s-0.6,3.3-0.9,5
		c-0.2,0.9-0.3,1.7-0.5,2.5c-0.2,1-0.4,2-0.6,3.1h-43.4l-3.5-35.5l-0.1-1.3l-0.1-1.4l0,0l-0.7-7l0,0l-0.6-6l-2.8-28.8H290z"/>
	<path class="st4" d="M339.1,401h-93.2c-0.2-8.6-0.3-16.9-0.5-24.7l0,0c0-0.2,0-0.4,0-0.6c0,0-10.9-6.4-16.7-11.5
		c-1-0.8-1.9-1.7-2.7-2.7l0,0l0,0c-3.8-4.8-7.5-23.2-15.3-40.5h114C343.1,357,341.8,385.9,339.1,401z"/>
	<path class="st5" d="M223.2,360.2c5.5,2.3,10.5,5.8,15.4,9.1c5.1,3.5,9.8,7.5,14.7,11.3c0.2,0.1,0,0.5-0.2,0.3
		c-5.2-3.3-10.6-6.2-15.8-9.6c-5-3.3-10.2-6.5-14.5-10.7C222.7,360.5,222.9,360.1,223.2,360.2z"/>
	<path class="st5" d="M222.5,328.2c0.7,3.5,1.5,7.1,2.3,10.6c0.7,3.3,1.2,6.7,2.1,10c0.7,3.2,2.3,6.1,4.6,8.3
		c1.3,1.2,2.7,2.3,4.1,3.4c0.8,0.6,1.6,1.2,2.3,1.8c-0.1-0.5-0.2-1-0.3-1.4l-0.7-4c-0.5-3-1-6-1.4-9c-0.9-5.9-1.7-11.8-3-17.7
		c0-0.1,0.1-0.2,0.2-0.2c0.1,0,0.2,0,0.2,0.1c1.5,5.8,3.1,11.5,4.4,17.3c0.6,2.9,2.9,17,3,18s0.2,2.1,0.2,3.1c0.1,1.1,0.1,2.1,0,3.2
		c-0.1,0.1-0.2,0.2-0.3,0.1c-0.1,0-0.1-0.1-0.1-0.1l0,0c-0.4-1-0.7-2-0.9-3.1c-0.3-1-0.5-2-0.7-3.1c-0.1-0.4-0.1-0.7-0.2-1.1
		c-1.4-0.9-2.7-2-4-2.9s-2.8-2-4.1-3.1c-2.5-2.1-4.2-4.8-5.1-7.9c-0.9-3.3-1.4-6.7-1.7-10.1c-0.4-4-0.8-8-1.3-12
		C222.1,328,222.4,327.9,222.5,328.2z"/>
	<path class="st5" d="M317.3,352.9c-1.5-0.8-7.2,0.6-17.8-1.2c-2.1-0.3-4-1.1-5.7-2.3c-2.7-2.2-4.8-5.8-6.5-8.9
		c-2-3.5-3.5-7.2-4.5-11c0-0.2-0.4-0.1-0.3,0.1c0.4,2.2,0.6,4.3,1.2,6.5c0.6,2,1.3,4,2.2,5.9c1.6,3.6,3.4,7.4,6.6,9.8
		c3.4,2.5,8,3,12.1,3.3c2.3,0.2,11.5-0.1,12.8-1.4C317.6,353.4,317.6,353.1,317.3,352.9C317.3,352.9,317.3,352.9,317.3,352.9z"/>
	<path class="st6" d="M230.6,192.8c-9.6,14.2-76.3,99.7-85.9,101.4c-24.6,4.4-47.1-4-37.8-25.2c10.8-24.7,71-73.6,111.1-95.2
		C246.6,158.3,240,178.8,230.6,192.8z"/>
	<path class="st5" d="M198,239.9l-52.3-24c0,0,48.4-33.6,71-43.9c23.6-10.7,33.2-4.4,13,23.3C209.9,222.6,198,239.9,198,239.9z"/>
	<path class="st7" d="M173.6,197.3c-0.1,0.1-0.2,0.1-0.3,0.2l40.7,19.9l0.2-0.3L173.6,197.3z M162.3,204.6c-0.1,0.1-0.2,0.1-0.3,0.2
		l45.2,22l0.2-0.3L162.3,204.6z M151.2,212.1l-0.3,0.2l49.5,24.2c0.1-0.1,0.1-0.2,0.2-0.3L151.2,212.1z"/>
	<path class="st4" d="M198.6,229.3c-1.2-0.7-2.4-1.3-3.7-1.9l-3.8-1.9c-2.6-1.3-5.2-2.5-7.8-3.7c-5.2-2.4-10.4-4.8-15.6-7.1
		c-1.4-0.6-2.9-1.3-4.3-1.9s-3.1-1.2-4.6-1.8c-0.1,0-0.1,0.1-0.1,0.1c1.3,0.6,2.5,1.4,3.8,2s2.6,1.3,3.9,1.9
		c2.6,1.2,5.2,2.4,7.8,3.6c5.1,2.3,10.3,4.7,15.4,6.9c1.4,0.6,2.9,1.2,4.4,1.9s3,1.4,4.6,1.9C198.7,229.4,198.7,229.3,198.6,229.3z"
		/>
	<path class="st4" d="M229.8,195.3c-19.9,27.3-31.8,44.6-31.8,44.6l-16.7-7.7l57.3-64C243,171.2,240.9,180,229.8,195.3z"/>
	<path class="st5" d="M200.2,340.2h134.9c0,0-20.6-128.7-70.3-172.7c-6.1-5.4-20-4.2-29,0.3c-3.2,1.6-14.8,17.8-18.1,33.2
		S199.9,339.7,200.2,340.2z"/>
	<path class="st4" d="M322.9,285.2L263,166.1c0.6,0.4,1.2,0.8,1.8,1.3C293,192.4,311.8,244.7,322.9,285.2z"/>
	<path class="st7" d="M259,164.6h-13.7c0.6-0.1,1.3-0.2,1.9-0.3h10.2C257.9,164.3,258.4,164.4,259,164.6z M273.1,175.8h-44.3
		c-0.1,0.1-0.1,0.2-0.2,0.3h44.7L273.1,175.8z M282,187.4h-59.7l-0.1,0.3h60.1L282,187.4z M289.3,198.9h-71.2c0,0.1-0.1,0.2-0.1,0.3
		h71.5L289.3,198.9z M295.5,210.5H216c0,0.1,0,0.2-0.1,0.3h79.7C295.6,210.7,295.6,210.6,295.5,210.5z M301,222.1h-86.6
		c0,0.1,0,0.2,0,0.3h86.8C301.1,222.3,301,222.2,301,222.1z M305.9,233.7h-93c0,0.1,0,0.2,0,0.3H306
		C306,233.9,305.9,233.8,305.9,233.7L305.9,233.7z M310.3,245.2h-98.9c0,0.1,0,0.2,0,0.3h99C310.4,245.4,310.3,245.3,310.3,245.2
		L310.3,245.2z M314.3,256.8H209.9c0,0.1,0,0.2,0,0.3h104.5C314.4,257,314.4,256.9,314.3,256.8L314.3,256.8z M318,268.4H208.5
		c0,0.1,0,0.2,0,0.3h109.6C318.1,268.6,318,268.5,318,268.4z M321.4,279.9H207.1c0,0.1,0,0.2,0,0.3h114.4L321.4,279.9z M324.5,291.5
		H205.7c0,0.1,0,0.2,0,0.3h119C324.6,291.7,324.6,291.6,324.5,291.5L324.5,291.5z M327.4,303.1H204.3c0,0.1,0,0.2,0,0.3h123.2
		C327.5,303.3,327.5,303.2,327.4,303.1L327.4,303.1z M330.1,314.6H203c0,0.1,0,0.2,0,0.3h127.2C330.1,314.9,330.1,314.8,330.1,314.6
		L330.1,314.6z M332.5,326.2H201.6c0,0.1,0,0.2,0,0.3h131L332.5,326.2z M334.7,337.8H200.4v0.3h134.4
		C334.8,338,334.7,337.9,334.7,337.8L334.7,337.8z"/>
	<path class="st6" d="M288.2,170.7c34,12.6,117.7,45.9,122,65.4c3.1,14.4-60.8,23.3-62.6,20.9c-1.4-1.8-60.8-48.1-81.7-72.9
		C247.8,162.5,277.3,166.6,288.2,170.7z"/>
	<path class="st5" d="M313.9,229.5l44.8-31c0,0-53.5-24.7-77.6-30.8c-25.1-6.4-33.4,1.4-8.7,25.2
		C296.7,216.3,313.9,229.5,313.9,229.5z"/>
	<path class="st7" d="M325.5,183.9l-34.7,26.1c0.1,0.1,0.2,0.1,0.2,0.2l34.8-26.2L325.5,183.9z M337.8,189.2l-38.1,28.7l0.2,0.2
		l38.2-28.7C338.1,189.3,338,189.2,337.8,189.2L337.8,189.2z M350,194.5l-41.1,31c0.1,0.1,0.2,0.1,0.3,0.2l41.2-31
		C350.2,194.7,350.1,194.6,350,194.5z"/>
	<path class="st4" d="M346.3,196.4c-1.2,0.7-2.3,1.5-3.5,2.3s-2.3,1.6-3.5,2.4c-2.4,1.6-4.7,3.2-7.1,4.9c-4.7,3.3-9.4,6.6-14,9.9
		c-1.3,0.9-2.5,1.9-3.8,2.8s-2.6,2.1-3.9,3.1c-0.1,0.1,0,0.2,0.1,0.1c1.2-0.8,2.4-1.5,3.6-2.2s2.4-1.6,3.6-2.4
		c2.4-1.6,4.7-3.3,7-4.9c4.6-3.3,9.2-6.5,13.7-9.9l3.8-2.8c1.3-1,2.7-1.9,4-3C346.5,196.4,346.4,196.3,346.3,196.4z"/>
	<path class="st4" d="M309.7,225.9c-1.3-1.1-2.4-2.2-3.6-3.3s-2.5-2.2-3.7-3.3c-2.4-2.1-4.9-4.2-7.3-6.4c-4.9-4.3-9.8-8.7-14.6-13.1
		c-2.8-2.5-5.5-5.1-8.3-7.5 M272.1,192.4c2.2,2.4,4.6,4.7,7,6.9c-0.5-0.3-1-0.6-1.5-1s-1.1-0.8-1.6-1.2s-1-0.9-1.6-1.2
		c-0.1-0.1-0.2,0.1-0.1,0.1c0.9,1.1,2,2,3.1,2.7c0.6,0.4,1.2,0.7,1.8,1.1l0.7,0.3c2.1,2,4.3,4,6.4,6c4.8,4.4,9.7,8.8,14.7,13
		c1.4,1.2,2.8,2.3,4.2,3.4s2.9,2.2,4.4,3.4c0.1,0.1,0.2,0,0.1-0.1L272.1,192.4z"/>
	<path class="st6" d="M240.1,192.4c7.9,1,20-12.2,24.2-22.3c0.3-0.7-1.4-7.5-3.2-15.9c-1-5.1-2-10.8-2.6-16.1
		c-0.1-1.1-32.2,11.5-32.2,11.5s4.4,10.7,5.3,19.9c0.1,0.7,0.1,1.5,0,2.2c0,0.1,0,0.2,0,0.4C231.4,176.2,232.4,191.4,240.1,192.4z"
		/>
	<path class="st4" d="M235.1,171.9c-1.1,0.2-2.3,0.2-3.4,0.2c0-0.1,0-0.3,0-0.4c0.1-0.7,0.1-1.5,0-2.2c-0.9-9.2-5.3-19.9-5.3-19.9
		s26-10.2,31.3-11.4C257.3,144.4,254.5,169.4,235.1,171.9z"/>
	<path class="st6" d="M255,97.3c6.6,10.3,9.9,44.8,3.9,54.3c-8.7,13.9-27.5,20.3-40.5,8.8c-12.6-11.1-16-56.1-8.8-65.2
		C220,81.7,245.2,82,255,97.3z"/>
	<path class="st4" d="M233.6,127.4c0-0.1,0.2,0.1,0.2,0.2c0.2,2.3,0.7,5,2.9,5.5c0.1,0,0.1,0.1,0,0.1
		C234.1,133.1,233.4,129.6,233.6,127.4z"/>
	<path class="st4" d="M235.5,124.8c3.7-0.7,4.7,6.8,1.3,7.4S232.4,125.3,235.5,124.8z"/>
	<path class="st4" d="M219.4,129c0-0.1-0.2,0.1-0.1,0.2c0.4,2.3,0.4,5-1.5,6.1c-0.1,0,0,0.1,0,0.1
		C220.3,134.7,220.2,131.1,219.4,129z"/>
	<path class="st4" d="M217.1,126.9c-3.7,0.2-3,7.7,0.5,7.5S220.2,126.7,217.1,126.9z"/>
	<path class="st4" d="M237.9,121c-1-0.2-2-0.4-3-0.6c-1.1-0.1-2.2-0.5-3-1.2c-0.4-0.6-0.4-1.4,0-1.9c1-1.2,2.5-1.2,3.9-1
		c1.4,0.2,2.7,0.9,3.6,2c0.6,0.7,0.5,1.8-0.2,2.4C238.9,120.9,238.4,121.1,237.9,121z"/>
	<path class="st4" d="M213.7,123.6c1-0.3,1.9-0.7,2.9-1.2c1.1-0.3,2-0.9,2.7-1.8c0.3-0.6,0.2-1.4-0.4-1.9c-1.2-0.9-2.6-0.7-4-0.2
		c-1.4,0.5-2.5,1.4-3.2,2.7c-0.4,0.8,0,1.9,0.8,2.3C212.8,123.7,213.3,123.7,213.7,123.6z"/>
	<path class="st4" d="M238.4,147.8c-0.5,0.6-0.9,1.4-1.8,1.6c-0.9,0.1-1.7,0-2.6-0.2c0,0-0.1,0-0.1,0.1c0,0,0,0.1,0,0.1
		c0.8,0.8,2,1.2,3.1,0.9c0.9-0.4,1.5-1.3,1.5-2.3C238.7,147.7,238.5,147.7,238.4,147.8z"/>
	<path class="st4" d="M235.1,141.2c-0.9,2-2.6,3.5-4.8,4.2c-0.9,0.3-1.9,0.5-2.8,0.5c-0.2,0-0.4,0-0.6,0h-0.5
		c-0.3,0-0.5-0.2-0.5-0.4l0,0c0-0.1,0-0.2,0-0.2l0,0V145c-0.3-1.8-0.5-4.5-0.5-4.5c-0.6,0.4-3.7,2.4-3.8,1.4
		c-0.6-7.7-1.3-16.3-0.2-24.2c0-0.1,0.1-0.2,0.3-0.2c0.1,0,0.2,0.1,0.2,0.2c0.9,7.4,0.4,14.9,1.2,22.4c1.1-0.7,2.3-1.3,3.6-1.6
		c0.3,0,0.3,5.3,0.5,6.1c0,0,0,0.1,0,0.1c3,0,5.2-1.2,7.8-3.6C235,140.9,235.2,141,235.1,141.2z"/>
	<path class="st4" d="M228.4,144.9c1.2,1.1,2.6,1.9,4.1,2.4c0.9,0.2,1.8,0.1,2.6-0.2c1.8-0.7,1.6-2.4,1.1-3.8
		c-0.3-0.7-0.7-1.4-1.1-2.1C233.3,143.1,231,144.4,228.4,144.9z"/>
	<path class="st8" d="M232.6,147.3c0.9,0.2,1.8,0.1,2.6-0.2c1.8-0.7,1.6-2.4,1.1-3.8C234.2,143.7,232.5,145.3,232.6,147.3z"/>
	<path class="st4" d="M260.1,123.5c-6.1,1.6-10.1-13.2-10.1-13.2s-9.6,1.3-18-9.7c0,0-9.3,11.1-19.7,12.4
		c-16.2,2.1-22.2-17.9-17.8-23.8c6.3-8.4,23.5-4.6,23.5-4.6s20-13.2,31.2-0.4c0,0,9.9-2.7,14.1,7.9S264.6,122.4,260.1,123.5z"/>
	<path class="st4" d="M252.6,111.4c-4.7,0.7-9.4-0.3-13.5-2.6c-4.2-2.5-7.6-7.3-7.8-12.3c0-0.3-0.4-0.2-0.4,0
		c0.5,5.4,2.5,10.5,7.1,13.8c4.3,3.1,9.9,3.7,14.7,1.5c0.1-0.1,0.1-0.2,0-0.3C252.7,111.4,252.6,111.4,252.6,111.4z"/>
	<path class="st4" d="M262,85.5c-4.2-2.9-9.1-2-13.6-0.3c-0.2,0.1-0.1,0.5,0.1,0.4c4.3-2,9.8-0.4,13.3,2.5s4.4,7.6,4.7,11.8
		c0.7,8.2-1.7,16.5-6.6,23.1c-0.1,0.1,0.1,0.2,0.2,0.1c5.9-7,8.7-16.2,7.6-25.4C267.2,93.3,265.9,88.1,262,85.5z"/>
	<path class="st4" d="M218.7,85.1c-2.9-2.5-6.7-3.8-10.5-3.8c-4.6,0.2-9,2.1-12.3,5.4c-2.6,2.7-3.6,6.7-2.5,10.3
		c1.1,4.2,4.3,7.5,7.6,10c0,0,0.1,0,0.1,0c0,0,0-0.1,0-0.1c0,0,0,0,0,0c-2.9-2.5-5.5-5.5-6.4-9.3c-1.1-3.6,0-7.5,2.8-10
		c5.4-4.8,14.8-7.3,20.9-2.2c0.1,0,0.2,0,0.3-0.1C218.8,85.3,218.8,85.2,218.7,85.1z"/>
	<path class="st6" d="M255.7,127.1c0,0,4.7-12.6,10.2-11.2s3.9,18.3-1.2,21.9c-2.6,2.1-6.4,1.6-8.4-1c0,0-0.1-0.1-0.1-0.1
		L255.7,127.1z"/>
	<path class="st4" d="M265.4,120.8C265.4,120.8,265.4,120.8,265.4,120.8c0.1,0.1,0.1,0.1,0.1,0.1c-3.6,2.7-4.7,6.9-5.2,11.1
		c0.8-1.8,2.2-3,4.5-2.1c0.1,0,0.1,0.1,0,0.2c0,0-0.1,0.1-0.1,0.1c-1.5-0.1-3,0.8-3.6,2.2c-0.5,1.2-0.8,2.4-1,3.6
		c-0.1,0.4-0.8,0.4-0.8-0.1c0,0,0-0.1,0-0.1C257.9,130.8,260,122.7,265.4,120.8z"/>
	<path class="st6" d="M394.4,319.3c-9.5,33.2-36.7,60.1-42.3,63.7c-4.7,3-7.2,4.5-7.2,4.5c-8.4,5.6-14.2,4.1-14.2,4.1
		s-7.8,9.3-14.2,5.5c-7.2-4.2,5.2-16.5,7.8-27.4c6.1-25,7.9-62.2,8.9-69.6L394.4,319.3z"/>
	<path class="st4" d="M349.1,348.1c-2,7.3-3.7,14.6-6.6,21.6c-3.2,7.7-7.6,14.6-11.9,21.7c0,0.1,0,0.2,0.1,0.3c0.1,0,0.2,0,0.2,0
		c9.8-11.6,17-28.3,18.8-43.3C349.8,347.9,349.2,347.7,349.1,348.1z"/>
	<path class="st4" d="M364.8,349.6c-2.3,7-6.4,19.3-20.1,37.8c0,0.1,0,0.1,0.1,0.1c10.3-10.4,17.4-23.4,20.7-37.6
		C365.6,349.4,364.9,349.1,364.8,349.6z"/>
	<path class="st6" d="M329.8,339.2c-0.5-3.6-2.4-3.3-5.6,2.2s-11.4,30.2-19.7,26.6s3.6-38.1,9.7-46.9s19-20.9,19-20.9
		C332.2,307.3,331.5,325,329.8,339.2z"/>
	<path class="st6" d="M410.2,236.1c6.7,20.9-10.9,67.7-15.8,83.2c-2.1,6.8-63.9-11.3-61.6-18.5c4.7-14.8,17-41.7,14.8-43.7
		C345.9,255.5,404.1,217.1,410.2,236.1z"/>
	<path class="st4" d="M364.5,244.5c-0.8,0.3-1.6,0.6-2.4,1s-1.6,0.8-2.4,1.2c-1.5,0.9-3,1.8-4.4,2.9c-1.4,1.1-2.7,2.2-3.9,3.5
		c-0.6,0.6-1.3,1.3-1.9,2c-0.6,0.6-1.1,1.3-1.6,2.1c0,0.1,0,0.2,0,0.2c0,0,0,0.1,0.1,0.1c0.3,0.1,0.4-0.1,0.6-0.3l0.9-0.9
		c0.7-0.6,1.3-1.3,2-1.9c1.3-1.2,2.7-2.4,4.2-3.5s2.9-2.2,4.4-3.2c0.8-0.5,1.5-1,2.2-1.5s1.5-1,2.3-1.4
		C364.8,244.7,364.7,244.4,364.5,244.5z"/>
	<path class="st6" d="M141,234.2c-10,7-40.4,34.3-34.3,49.2s29.6,14.5,62.4,8.6L141,234.2z"/>
	<path class="st6" d="M140.1,234.8c13.4-11.2,32.9-24.8,40.9-24.4c8.4,0.4,37.8,3.2,44.4,6.1s25.7,21.4,27.6,27.5
		c1.6,4.9-8.1,9.6-20.4,1.7c-11.5-7.4-13.9-9.7-17.6-11s-18.5,1.5-20.3,7.1c-1.1,3.3,3.2,12.1,9.1,14s12-1.6,20.3-1.2
		s16.3,8.7,14.7,11.4s-5.3,1.2-16.7,5c-7.3,2.5-16,6.9-28.4,14.1c-12.7,7.5-31,7.3-31,7.3L140.1,234.8z"/>
	<path class="st9" d="M233.2,247.1c20,6.3,10.8,35.9-9.3,29.6S213.2,240.8,233.2,247.1z"/>
	<path class="st10" d="M233.2,247.1c20,6.3,10.8,35.9-9.3,29.6S213.2,240.8,233.2,247.1z"/>
	<path class="st9" d="M231.3,246.5c19.1,6,9.8,35.6-9.3,29.6S212.2,240.6,231.3,246.5z"/>
	<path class="st10" d="M214.2,260.5c-0.6,5.4,1.9,11,8.6,13.1c15.9,5,23.5-19.6,7.7-24.6l-0.3-0.1c14.8,5,7.4,28.2-7.7,23.5
		C217.2,271,213.7,266,214.2,260.5z"/>
	<g class="st11">
		<path d="M229.6,252.1c0.3,0.1,0.4,0.4,0.3,0.7l-0.3,0.8c1.3,0.6,2.3,1.6,3,2.8c0.1,0.2,0.2,0.4,0.1,0.6c-0.1,0.3-0.4,0.4-0.7,0.3
			c-0.1,0-0.2-0.1-0.3-0.3c-0.6-1.1-1.4-1.9-2.5-2.5l-2.2,5.7c2.8,1.8,3.7,3.5,2.9,5.5c-0.8,2.1-3.2,3-5.8,2.1l-0.6,1.6
			c-0.1,0.3-0.4,0.4-0.7,0.3s-0.4-0.4-0.3-0.7l0.6-1.6c-1.6-0.8-3-2.1-3.8-3.7c-0.1-0.1-0.1-0.3-0.1-0.5c0.1-0.3,0.4-0.4,0.7-0.3
			c0.1,0.1,0.2,0.2,0.3,0.3c0.7,1.5,1.8,2.6,3.2,3.4l2.2-5.7c-2.8-1.8-3.6-3.4-2.8-5.4s3.2-2.9,5.6-2l0.3-0.8
			C228.9,252.2,229.2,252,229.6,252.1C229.5,252.1,229.5,252.1,229.6,252.1z M226.1,259.6l2.1-5.5c-2-0.7-3.7-0.1-4.3,1.4
			C223.4,257,223.8,258,226.1,259.6z M226.6,261.2l-2.2,5.6c2,0.7,3.8,0.1,4.4-1.5S229,262.8,226.6,261.2z"/>
	</g>
	<path class="st6" d="M181.1,210.5c9.9-2.7,30.8-4.7,44.7,0.7c9.4,3.7,22.8,37.2,17.9,41.2s-9,0.2-14.4-6c-2-2.3-9.8-17.1-14.1-16.5
		c-6.1,0.9-20.7,9.6-20.7,9.6L181.1,210.5z"/>
	<path class="st4" d="M244.7,250c1.5-7.6-2.6-16.2-7.2-24.1c-0.1-0.1-0.3,0-0.2,0.1c1.2,2,7.3,16.5,7.3,24.1
		C244.5,250.1,244.7,250.1,244.7,250z"/>
	<path class="st6" d="M181.1,210.5c9.9-2.7,30.8-4.7,44.7,0.7c9.4,3.7,14.8,35.9,9.9,39.9s-11.1-1.1-15.5-9.2
		c-1.4-2.6-4-14-8.2-13.4c-6.1,0.9-21,3.3-21,3.3L181.1,210.5z"/>
	<path class="st4" d="M199.9,230c1.6-0.4,2.1-0.6,3.7-0.9s3.1-0.7,4.8-1c1.4-0.3,2.8-0.4,4.2-0.3c1.3,0.3,2.5,1,3.4,2.1
		c2.1,2.3,2.8,5.6,3.7,8.4c1,3.2,3.6,9.2,7.4,11.9c1,0.8,2.1,1.4,3.3,1.7c0.9,0.3,1.8,0.4,2.8,0.2c3.8-1.2,4.5-5.7,4.5-9.4
		c-0.1-7-2.3-14-4.8-20.4c-0.6-1.6-1.3-3.1-1.9-4.7c-0.6-1.8-1.7-3.5-3-4.9c-2.4-2.2-8.4-3.3-10.3-3.7c-0.1,0-0.1-0.2,0.1-0.2
		c2.3,0.4,8.5,0.7,12.2,4.4c1.3,1.3,2,3.2,2.7,4.9s1.6,3.6,2.3,5.4c1.4,3.5,2.5,7.2,3.4,10.9c0.8,3.5,1.4,7.4,0.8,11
		c-0.5,3.1-2.7,6.2-5.8,7.2c-2.6,0.8-5.2-0.8-6.4-1.6c-1.1-0.8-2.1-1.7-3-2.8c-1.8-2.5-3.4-5.1-4.8-7.9c-1.3-2.7-1.9-5.8-3.4-8.4
		c-0.7-1.3-1.9-2.2-3.3-2.6c-1.4-0.2-2.8-0.2-4.2,0c-2.7,0.1-5.4,0.5-8,1.1C199.4,230.6,199.2,230.1,199.9,230z"/>
	<path class="st6" d="M173.4,212.4c2.6-1.6,17.7-11,23.6-12.7s29.1-4.9,33.7,0.4c5.8,6.6-11.6,12.2-19.3,13.9s-14.6,10.4-14.6,10.4
		L173.4,212.4z"/>
	<path class="st4" d="M223.4,210.4c-2.6,0.5-5.2,1.1-7.7,1.8c-2.5,0.5-4.9,1.2-7.2,2.1c-2.3,1.1-4.3,2.5-6.1,4.2
		c-0.9,0.8-1.8,1.7-2.6,2.6s-1.7,2.1-2.6,3c-0.1,0.1,0,0.3,0.1,0.2c1.8-1.7,3.6-3.3,5.6-4.7c2-1.6,4.2-2.9,6.5-3.9
		c4.6-2,9.6-3,14.2-5C223.7,210.6,223.6,210.3,223.4,210.4z"/>
	<path class="st4" d="M234.5,251.5c1.8,1,3.8,2,5.9,1.9c0.9,0,1.8-0.3,2.5-0.8c0.4-0.3,0.7-0.6,1-1c0.3-0.4,0.5-0.9,0.5-1.4
		c0-0.1,0.2-0.1,0.2,0c0,0.3-0.1,0.6-0.1,0.9c0,0.2-0.1,0.5-0.2,0.7c-0.2,0.4-0.4,0.9-0.8,1.2c-0.7,0.8-1.7,1.2-2.8,1.4
		c-2.5,0.3-4.7-1-6.4-2.6c0,0-0.1-0.1,0-0.1C234.4,251.4,234.4,251.4,234.5,251.5z"/>
	<path class="st4" d="M194.4,227.5c-2.2,3.1-4.1,6.4-5.9,9.8c-1.7,3.4-2.9,7-3.5,10.7c-0.6,4-0.3,8-0.2,12.1c0.1,1.9,0,3.9-0.2,5.8
		c-0.2,1.7-0.7,3.3-1.3,4.9c-1.4,3.5-3.7,6.7-6.7,9.1c-0.1,0.1,0,0.3,0.2,0.2c5.7-3.9,9.3-10.1,9.9-17c0.4-4.1-0.3-8.3,0-12.4
		c0.3-3.8,1.2-7.5,2.5-11.1c1.4-4.2,3.2-8.2,5.4-12C194.5,227.5,194.5,227.5,194.4,227.5C194.4,227.5,194.4,227.5,194.4,227.5z"/>
	<path class="st4" d="M157.8,221.3c-7.8,4.7-15.2,10.1-22.1,15.9c-7,5.8-13.4,12.3-19,19.5c-3.1,4.1-5.8,8.4-8.1,13
		c-0.1,0.1,0.1,0.2,0.1,0.1c2.3-3.9,4.9-7.6,7.7-11.1c2.8-3.5,5.8-6.9,8.9-10.1c6.4-6.4,13.4-12.4,20.7-17.8c4.1-3.1,7.9-6.1,12-9.2
		C158.5,221.3,158.3,221,157.8,221.3z"/>
	<path class="st1" d="M273.4,412.5c-0.1,0.4-0.1,0.8-0.2,1.2C273.2,413.3,273.3,412.9,273.4,412.5L273.4,412.5z"/>
</g>
<g id="freepik--Plant--inject-4">
	<path class="st9" d="M114.7,301.9c-13.5,18.3-27.6,39.5-31,62.5c0,0.3,0.5,0.5,0.6,0.1c1.6-6.3,3.6-12.4,6-18.4
		c8.9-2.5,17.6-4.5,22.3-13.3c4.8-9.1,4.2-20.9,3.2-30.7C115.7,301.6,115,301.6,114.7,301.9z"/>
	<path class="st4" d="M90.4,346c6.1-13.6,13.9-27.3,23.8-38.5c0.1-0.1,0.2,0,0.1,0.1c-6.5,8-11.4,16.7-16.2,25.5
		c4.5-4.5,9.4-8.6,13.6-13.4c0.1-0.1,0.2,0,0.1,0.1c-4.2,5-8.8,10.5-14.3,14.3c-1.5,2.7-3,5.4-4.5,8.1c0.4-0.2,0.8-0.4,1.1-0.6
		c0.1,0,0.1,0.1,0.1,0.1c-0.4,0.2-0.8,0.4-1.3,0.6c-0.7,1.3-1.4,2.6-2.2,3.9C90.7,346.5,90.3,346.2,90.4,346z"/>
	<path class="st4" d="M94.9,341.2c3.6-2,7.1-4.3,10.4-6.9c0.1-0.1,0.2,0,0.1,0.1c-3.2,2.7-6.6,5.1-10.3,7
		C94.9,341.5,94.8,341.3,94.9,341.2z"/>
	<path class="st9" d="M82.2,361c0,0.3,0.5,0.3,0.5,0c0.1-7.6,0-15.1,0.1-22.7c1.9-3.9,6.1-6.1,9-9.2c2.1-2.3,3.9-4.8,5.4-7.5
		c3.5-6.5,5.6-13.5,6.2-20.8c0.8-8.1-2.3-34.7-5.7-33.8c-1.8,0.5-7.5,13.7-9,18.1c-2.5,7.2-4.3,14.6-5.4,22.1
		C80.6,324.8,80.8,343.1,82.2,361z"/>
	<path class="st4" d="M82.1,328.4L82.1,328.4c0.4-9.6,2.6-19.2,4.6-28.5c2.2-10,4.7-19.4,9.8-28.3c0.1-0.2,0.3,0,0.3,0.1
		c-3.4,6.9-6.1,14.2-7.9,21.7c0.3-0.5,0.8-1,1.1-1.6c0.1-0.2,0.5,0,0.3,0.2c-0.5,0.8-1,1.6-1.6,2.3c0,0,0,0-0.1,0
		c-1.8,7.1-3,14.4-4.1,21.7l0.2-0.3c0,0,0.1,0,0.1,0c0,0,0,0,0,0.1c-0.1,0.2-0.3,0.5-0.4,0.7c-0.6,3.7-1.1,7.4-1.6,11
		c6.6-5.7,12.2-12.3,15.4-20.4c0,0,0.1,0,0.1,0c-3.1,8.5-8,16-15.5,21.1l-0.4,3c0,0.2-0.3,0.1-0.3,0c0-0.9,0-1.7,0.1-2.6
		C82,328.6,82,328.5,82.1,328.4z"/>
	<path class="st4" d="M85.2,314.5c5-7.5,9.7-14.8,13.4-23.1c0-0.1,0.2,0,0.2,0.1c-3.1,8.2-7.4,16.6-13.3,23.2
		C85.3,314.9,85.1,314.7,85.2,314.5z"/>
	<path class="st4" d="M91.9,289.6c2.1-3.7,4.3-7.3,6.2-11c0.1-0.1,0.2,0,0.2,0.1c-1.6,3.9-3.6,7.7-6.1,11.1
		C92.1,290,91.8,289.8,91.9,289.6z"/>
	<path class="st4" d="M91.1,291.2C91.1,291.2,91,291.2,91.1,291.2L91.1,291.2z"/>
	<path class="st9" d="M77,339.1c-0.1,5-0.7,10-1.7,14.9c0.1,0.5,0.2,1.1,0.2,1.6c1.5-5.4,2.4-11,2.7-16.6c0.1-0.2,0.1-0.4,0-0.5l0,0
		c0.2-7.5-0.3-15.1-1.7-22.5c-2.3-13.9-7.4-27.2-17.1-37.6c-0.3-0.2-0.7-0.2-1,0.1c0,0-0.1,0.1-0.1,0.1c-3.9,9.9-2.5,21.8,0.8,31.7
		c1.8,5.4,4.4,10.4,7.7,15.1C70.1,330.1,74.3,334,77,339.1z"/>
	<path class="st4" d="M60.5,283.1c9.2,14.9,15.6,32.5,16.3,50.1c0,0.3-0.5,0.4-0.6,0.1c-0.2-1.6-0.5-3.1-0.7-4.7l0,0
		c-3.8-3.6-7.7-7.5-10.4-12c0-0.1,0.1-0.2,0.1-0.1c3.2,3.9,6.5,7.5,10.1,11c-0.7-3.9-1.4-7.7-2.3-11.5c-0.2-0.3-0.5-0.6-0.7-0.9
		s0.1-0.5,0.3-0.3s0.2,0.2,0.2,0.2c-1.3-5.2-2.9-10.3-4.8-15.2c-2.3-2.8-5-5.2-6.7-8.5c0-0.1,0.1-0.1,0.1-0.1
		c1.4,1.9,2.7,3.9,4.2,5.6c0.6,0.7,1.3,1.4,1.9,2.1c-2.1-5.4-4.6-10.6-7.5-15.7c0-0.1,0-0.2,0.1-0.3C60.4,283,60.5,283,60.5,283.1z"
		/>
	<path class="st4" d="M62.4,301.4c3,4,6.3,7.8,9.1,11.9c0.1,0.1-0.1,0.2-0.2,0.1c-3.5-3.3-6.5-7.9-9.1-12
		C62.1,301.4,62.3,301.3,62.4,301.4z"/>
	<path class="st4" d="M71.9,314.3l0.1,0.1c0.1,0.1-0.1,0.2-0.1,0.1l-0.1-0.1C71.7,314.3,71.8,314.2,71.9,314.3z"/>
	<path class="st9" d="M46.2,311.7c0.7,7.7,4.8,16.8,9.7,22.7c2.2,2.6,4.8,4.7,7.8,6.1c3.4,1.7,7,3.6,10.5,5
		c1.7,4.3,2.9,8.7,3.7,13.2c0.1-0.4,0.2-0.8,0.3-1.2c-2.3-19.4-14.8-36-30.9-46.6c-0.4-0.2-0.8-0.1-1.1,0.2
		C46.2,311.3,46.1,311.5,46.2,311.7z"/>
	<path class="st4" d="M51.7,317.4c-0.1-0.1,0-0.3,0.2-0.2c8.8,6.6,15.9,15.2,20.5,25.2c0.1,0.3-0.2,0.5-0.4,0.2
		c-0.8-1.3-1.5-2.6-2.3-3.8l0,0c-3.7-0.7-7.1-3.3-9.9-5.7c-0.1-0.1,0-0.2,0.1-0.1c1.4,1.3,3,2.4,4.6,3.2c1.5,0.8,3.1,1.2,4.7,1.9
		c-1.4-2.2-2.8-4.2-4.2-6.2c-4-1.5-7.7-3.6-11-6.2c-0.1-0.1,0-0.2,0.1-0.2c3.3,2,6.7,3.8,10.2,5.5c-2.3-3-4.7-5.8-7.3-8.4
		c-1.2-0.7-2.5-1.3-3.7-2c-0.1,0,0-0.2,0.1-0.2c1,0.4,2,0.8,2.8,1.4C54.8,320.3,53.3,318.8,51.7,317.4z"/>
	<path class="st4" d="M52,324.1c0.2,0.1,0.4,0.3,0.6,0.4c0.1,0,0,0.1-0.1,0.1c-0.2-0.1-0.4-0.2-0.6-0.4
		C51.8,324.2,51.9,324.1,52,324.1z"/>
	<polygon class="st5" points="103.3,400.7 59.3,400.7 62.8,360.7 63.6,351.8 99,351.8 99.7,360.7 	"/>
	<polygon class="st4" points="99.7,360.7 62.8,360.7 63.6,351.8 99,351.8 	"/>
	<rect x="61.5" y="345.7" class="st5" width="39.5" height="8.8"/>
</g>
<g id="freepik--piggy-bank--inject-4">
	<path class="st9" d="M167.5,324.2c0.3-1.7,0.5-3.2,0.7-4.8s0.2-3.2,0.2-4.9c0-1.7-0.1-3.4-0.4-5.1c-0.3-1.9-1.1-3.8-2.3-5.3
		c-0.7-0.9-1.7-1.6-2.7-2c-0.5-0.2-1.1-0.4-1.6-0.5c-0.5-0.1-1.1-0.1-1.6-0.1c-2,0.2-3.9,0.9-5.4,2.2c-1.4,1.1-2.5,2.4-3.4,4
		c-0.9,1.5-1.6,3.1-1.9,4.9c-0.2,1-0.1,2.1,0.2,3.1c0.2,0.6,0.7,1.2,1.2,1.6c0.5,0.4,1.2,0.6,1.8,0.6c0.7,0,1.3-0.1,1.9-0.5
		c0.5-0.3,0.9-0.7,1.2-1.2c0.5-0.8,0.8-1.7,1-2.6c0.3-1.6,0.3-3.3,0-4.9c-0.3-1.6-0.8-3.2-1.8-4.6c-0.5-0.7-1.1-1.3-1.9-1.8
		c-0.8-0.4-1.7-0.6-2.6-0.4c-1.6,0.4-3,1.2-4.1,2.4c-2.1,2.3-3.7,4.9-4.9,7.8c1.4-2.7,3.2-5.2,5.4-7.2c1-1,2.3-1.6,3.8-1.9
		c1.3,0,2.5,0.7,3,1.9c0.6,1.2,1,2.6,1.1,4c0.1,1.4,0,2.8-0.4,4.1c-0.1,0.6-0.4,1.1-0.8,1.6c-0.1,0.1-0.3,0.3-0.4,0.3
		c-0.1,0-0.2,0-0.3,0c-0.1,0-0.3-0.1-0.3-0.2c0-0.1-0.1-0.1-0.1-0.2c-0.1-0.5,0-0.9,0.1-1.4c0.8-2.5,2.4-4.6,4.5-6.1
		c0.9-0.6,1.9-1,3-1c0.2,0,0.5,0,0.7,0.1c0.2,0,0.4,0.1,0.5,0.2c0.3,0.2,0.6,0.4,0.8,0.8c0.5,1,0.8,2,0.9,3.1c0.1,1.3,0.1,2.7,0,4
		c-0.1,1.4-0.3,2.8-0.6,4.2c-0.3,1.4-0.6,2.9-1,4.1L167.5,324.2z"/>
	<path class="st10" d="M167.5,324.2c0.3-1.7,0.5-3.2,0.7-4.8s0.2-3.2,0.2-4.9c0-1.7-0.1-3.4-0.4-5.1c-0.3-1.9-1.1-3.8-2.3-5.3
		c-0.7-0.9-1.7-1.6-2.7-2c-0.5-0.2-1.1-0.4-1.6-0.5c-0.5-0.1-1.1-0.1-1.6-0.1c-2,0.2-3.9,0.9-5.4,2.2c-1.4,1.1-2.5,2.4-3.4,4
		c-0.9,1.5-1.6,3.1-1.9,4.9c-0.2,1-0.1,2.1,0.2,3.1c0.2,0.6,0.7,1.2,1.2,1.6c0.5,0.4,1.2,0.6,1.8,0.6c0.7,0,1.3-0.1,1.9-0.5
		c0.5-0.3,0.9-0.7,1.2-1.2c0.5-0.8,0.8-1.7,1-2.6c0.3-1.6,0.3-3.3,0-4.9c-0.3-1.6-0.8-3.2-1.8-4.6c-0.5-0.7-1.1-1.3-1.9-1.8
		c-0.8-0.4-1.7-0.6-2.6-0.4c-1.6,0.4-3,1.2-4.1,2.4c-2.1,2.3-3.7,4.9-4.9,7.8c1.4-2.7,3.2-5.2,5.4-7.2c1-1,2.3-1.6,3.8-1.9
		c1.3,0,2.5,0.7,3,1.9c0.6,1.2,1,2.6,1.1,4c0.1,1.4,0,2.8-0.4,4.1c-0.1,0.6-0.4,1.1-0.8,1.6c-0.1,0.1-0.3,0.3-0.4,0.3
		c-0.1,0-0.2,0-0.3,0c-0.1,0-0.3-0.1-0.3-0.2c0-0.1-0.1-0.1-0.1-0.2c-0.1-0.5,0-0.9,0.1-1.4c0.8-2.5,2.4-4.6,4.5-6.1
		c0.9-0.6,1.9-1,3-1c0.2,0,0.5,0,0.7,0.1c0.2,0,0.4,0.1,0.5,0.2c0.3,0.2,0.6,0.4,0.8,0.8c0.5,1,0.8,2,0.9,3.1c0.1,1.3,0.1,2.7,0,4
		c-0.1,1.4-0.3,2.8-0.6,4.2c-0.3,1.4-0.6,2.9-1,4.1L167.5,324.2z"/>
	<path class="st9" d="M172.6,398.5c4.4,6.2,3.5,25.3,6.2,27.9s30,2.4,31.9,0.8s1-8.3,3-9.4C214.5,417.4,172.6,398.5,172.6,398.5z"/>
	<path class="st10" d="M172.6,398.5c4.4,6.2,3.5,25.3,6.2,27.9s30,2.4,31.9,0.8s1-8.3,3-9.4C214.5,417.4,172.6,398.5,172.6,398.5z"
		/>
	<path class="st9" d="M289.4,398.8c-5.5,8-2.5,25-5.2,27.6s-30,2.4-31.9,0.8s-1-8.6-2.1-10C249.6,416.5,289.4,398.8,289.4,398.8z"/>
	<path class="st10" d="M289.4,398.8c-5.5,8-2.5,25-5.2,27.6s-30,2.4-31.9,0.8s-1-8.6-2.1-10C249.6,416.5,289.4,398.8,289.4,398.8z"
		/>
	<path class="st12" d="M213.6,417.8c-0.6,0.5-1.1,1.2-1.2,2c-12.6-1.5-25-4.8-36.6-9.8c-0.6-4.6-1.6-9.1-3.3-11.5
		C172.6,398.5,214.5,417.4,213.6,417.8z"/>
	<path class="st12" d="M289.4,398.8c-2,3-2.9,7.2-3.4,11.5c-11.2,5-23.1,8.2-35.2,9.7c0-1-0.2-1.9-0.6-2.8
		C249.6,416.5,289.4,398.8,289.4,398.8z"/>
	<path class="st9" d="M229.1,283.4c-55,0-76.1,43.1-76.1,68.3c0,24.9,16,67.2,76.1,67.2s80.1-35.8,80.1-67.7
		S284.8,283.4,229.1,283.4z"/>
	<path class="st10" d="M229.1,283.4c-55,0-76.1,43.1-76.1,68.3c0,24.9,16,67.2,76.1,67.2s80.1-35.8,80.1-67.7
		S284.8,283.4,229.1,283.4z"/>
	<path class="st9" d="M244.7,286.6c0,0,25.1-19.3,52.4-17c9.4,0.8-6.2,21.1-6.5,37L244.7,286.6z"/>
	<path class="st10" d="M244.7,286.6c0,0,25.1-19.3,52.4-17c9.4,0.8-6.2,21.1-6.5,37L244.7,286.6z"/>
	<path class="st12" d="M280.1,298.8c-0.2,1,8.5,4.7,9.4,4.1s1.8-13.1,8.9-26.4C299.4,274.6,281.7,288,280.1,298.8z"/>
	<path class="st12" d="M285.5,348.3c1.7-0.3,3.1-1.5,3.6-3.1c-0.2,2-1.2,3.9-2.9,5c-0.1,0.1-0.1,0.3,0.1,0.3
		c4.8-1.8,4.3-8.6,2.6-12.9c-0.1-0.2-0.2-0.5-0.3-0.7c-1.1-2.5-3-4.3-5.3-4C275.5,333.9,278.3,349.3,285.5,348.3z"/>
	<path class="st9" d="M304,326.3c1.2,3.6,12.1,0.7,14.9,3c4.3,3.6,3.1,48.2-0.8,51.8c-2.2,2-14.6-0.1-18.1,2.3S304,326.3,304,326.3z
		"/>
	<path class="st10" d="M304,326.3c1.2,3.6,12.1,0.7,14.9,3c4.3,3.6,3.1,48.2-0.8,51.8c-2.2,2-14.6-0.1-18.1,2.3S304,326.3,304,326.3
		z"/>
	<path class="st12" d="M319.5,354.1c0,10.9-0.9,19.7-2,19.7s-2-8.8-2-19.7s0.9-19.7,2-19.7S319.5,343.2,319.5,354.1z"/>
	<path class="st12" d="M207.8,297.7c0.2-0.1,18.7-6.1,36-1.4l1.7-6.3c-19.2-5.3-39,1.2-39.8,1.5L207.8,297.7l-1-3.1L207.8,297.7z"/>
	<path class="st7" d="M182,392.4c-24.8-28.5-9.6-61.6-8.9-63c0.9-2.1,0-4.5-2.1-5.4c-1.9-0.9-4.2-0.1-5.2,1.8
		c-3.3,7.5-5.3,15.5-5.9,23.8c-1.2,18.1,4.8,34.8,19,46.1C183.2,399.1,185.2,396.1,182,392.4z"/>
	<path class="st7" d="M171.2,316.8c0,2.5,2,4.4,4.4,4.4c2.5,0,4.4-2,4.4-4.4s-2-4.4-4.4-4.5c0,0,0,0,0,0
		C173.2,312.3,171.2,314.3,171.2,316.8z"/>
</g>
<g id="freepik--Coins--inject-4">
	<rect x="360.1" y="421.6" class="st9" width="31.4" height="6.9"/>
	<g class="st11">
		<path d="M361.4,422.2c0.7,1.8,0.7,3.8,0,5.5C360.8,426,360.8,424,361.4,422.2z"/>
		<path d="M363.8,422.2c0.7,1.8,0.7,3.8,0,5.5C363.1,426,363.1,424,363.8,422.2z"/>
		<path d="M364.9,422.2c0.7,1.8,0.7,3.8,0,5.5C364.2,426,364.2,424,364.9,422.2z"/>
		<path d="M371.2,422.2c0.7,1.8,0.7,3.8,0,5.5C370.5,426,370.5,424,371.2,422.2z"/>
		<path d="M372.9,422.2c0.3,0.9,0.5,1.8,0.5,2.8c0,0.9-0.2,1.9-0.5,2.8c-0.4-0.9-0.5-1.8-0.5-2.8C372.3,424,372.5,423.1,372.9,422.2
			z"/>
		<path d="M379.9,422.2c0.7,1.8,0.7,3.8,0,5.5C379.2,426,379.2,424,379.9,422.2z"/>
		<path d="M381.5,422.2c0.7,1.8,0.7,3.8,0,5.5C380.8,426,380.8,424,381.5,422.2z"/>
		<path d="M384.5,422.2c0.7,1.8,0.7,3.8,0,5.5C383.8,426,383.8,424,384.5,422.2z"/>
		<path d="M378.5,422.2c0.3,0.9,0.5,1.8,0.5,2.8c0,0.9-0.1,1.9-0.5,2.8c-0.3-0.9-0.5-1.8-0.5-2.8C378,424,378.2,423.1,378.5,422.2z"
			/>
		<path d="M367,422.2c0.7,1.8,0.7,3.8,0,5.5C366.3,426,366.3,424,367,422.2z"/>
		<path d="M375.1,422.2c0.7,1.8,0.7,3.8,0,5.5c-0.4-0.9-0.5-1.8-0.5-2.8C374.6,424,374.7,423.1,375.1,422.2z"/>
		<path d="M376.3,422.2c0.7,1.8,0.7,3.8,0,5.5C375.6,426,375.6,424,376.3,422.2z"/>
		<path d="M388.3,422.2c0.3,0.9,0.5,1.8,0.5,2.8c0,0.9-0.2,1.9-0.5,2.8c-0.4-0.9-0.5-1.8-0.5-2.8C387.8,424,388,423.1,388.3,422.2z"
			/>
		<path d="M390.1,422.2c0.3,0.9,0.5,1.8,0.5,2.8c0,0.9-0.1,1.9-0.5,2.8c-0.3-0.9-0.5-1.8-0.5-2.8C389.6,424,389.7,423.1,390.1,422.2
			z"/>
		<path d="M385.8,422.2c0.7,1.8,0.7,3.8,0,5.5C385.2,426,385.2,424,385.8,422.2z"/>
		<path d="M369.8,422.2c0.3,0.9,0.5,1.8,0.5,2.8c0,0.9-0.1,1.9-0.5,2.8C369.1,426,369.1,424,369.8,422.2z"/>
	</g>
	<polygon class="st10" points="391.5,421.6 391.5,423 360.1,424 360.1,421.6 	"/>
	<rect x="357.5" y="414.6" class="st9" width="31.4" height="6.9"/>
	<g class="st11">
		<path d="M387.5,420.8c-0.7-1.8-0.7-3.8,0-5.5C388.1,417.1,388.1,419,387.5,420.8z"/>
		<path d="M385.1,420.8c-0.3-0.9-0.5-1.8-0.5-2.8c0-0.9,0.1-1.9,0.5-2.8c0.3,0.9,0.5,1.8,0.5,2.8C385.6,419,385.5,419.9,385.1,420.8
			z"/>
		<path d="M384,420.8c-0.7-1.8-0.7-3.8,0-5.5C384.7,417.1,384.7,419,384,420.8z"/>
		<path d="M377.7,420.8c-0.7-1.8-0.7-3.8,0-5.5C378.4,417.1,378.4,419,377.7,420.8z"/>
		<path d="M376,420.8c-0.3-0.9-0.5-1.8-0.5-2.8c0-0.9,0.2-1.9,0.5-2.8c0.4,0.9,0.5,1.8,0.5,2.8C376.5,419,376.3,419.9,376,420.8z"/>
		<path d="M369,420.8c-0.7-1.8-0.7-3.8,0-5.5C369.7,417.1,369.7,419,369,420.8z"/>
		<path d="M367.4,420.8c-0.3-0.9-0.5-1.8-0.5-2.8c0-0.9,0.1-1.9,0.5-2.8C368.1,417.1,368.1,419,367.4,420.8L367.4,420.8z"/>
		<path d="M364.4,420.8c-0.7-1.8-0.7-3.8,0-5.5C365.1,417.1,365.1,419,364.4,420.8z"/>
		<path d="M370.4,420.8c-0.3-0.9-0.5-1.8-0.5-2.8c0-0.9,0.1-1.9,0.5-2.8c0.3,0.9,0.5,1.8,0.5,2.8C370.9,419,370.7,419.9,370.4,420.8
			z"/>
		<path d="M381.9,420.8c-0.3-0.9-0.5-1.8-0.5-2.8c0-0.9,0.1-1.9,0.5-2.8C382.6,417.1,382.6,419,381.9,420.8L381.9,420.8z"/>
		<path d="M373.8,420.8c-0.7-1.8-0.7-3.8,0-5.5C374.5,417.1,374.5,419,373.8,420.8z"/>
		<path d="M372.6,420.8c-0.7-1.8-0.7-3.8,0-5.5C373.3,417.1,373.3,419,372.6,420.8z"/>
		<path d="M360.6,420.8c-0.7-1.8-0.7-3.8,0-5.5c0.4,0.9,0.5,1.8,0.5,2.8C361.1,419,360.9,419.9,360.6,420.8z"/>
		<path d="M358.8,420.8c-0.3-0.9-0.5-1.8-0.5-2.8c0-0.9,0.2-1.9,0.5-2.8c0.4,0.9,0.5,1.8,0.5,2.8C359.3,419,359.2,419.9,358.8,420.8
			z"/>
		<path d="M363.1,420.8c-0.7-1.8-0.7-3.8,0-5.5C363.7,417.1,363.7,419,363.1,420.8z"/>
		<path d="M379.1,420.8c-0.3-0.9-0.5-1.8-0.5-2.8c0-0.9,0.1-1.9,0.5-2.8c0.3,0.9,0.5,1.8,0.5,2.8C379.6,419,379.4,419.9,379.1,420.8
			z"/>
	</g>
	<polygon class="st10" points="388.9,414.6 388.9,416.1 357.5,417.1 357.5,414.6 	"/>
	<rect x="359.9" y="407.8" class="st9" width="31.4" height="6.9"/>
	<g class="st11">
		<path d="M361.2,408.4c0.7,1.8,0.7,3.8,0,5.5C360.6,412.2,360.6,410.2,361.2,408.4z"/>
		<path d="M363.6,408.4c0.3,0.9,0.5,1.8,0.5,2.8c0,0.9-0.1,1.9-0.5,2.8C362.9,412.2,362.9,410.2,363.6,408.4z"/>
		<path d="M364.7,408.4c0.7,1.8,0.7,3.8,0,5.5C364,412.2,364,410.2,364.7,408.4z"/>
		<path d="M371,408.4c0.7,1.8,0.7,3.8,0,5.5C370.3,412.2,370.3,410.2,371,408.4z"/>
		<path d="M372.7,408.4c0.3,0.9,0.5,1.8,0.5,2.8c0,0.9-0.2,1.9-0.5,2.8c-0.4-0.9-0.5-1.8-0.5-2.8
			C372.1,410.2,372.3,409.3,372.7,408.4z"/>
		<path d="M379.7,408.4c0.7,1.8,0.7,3.8,0,5.5C379,412.2,379,410.2,379.7,408.4z"/>
		<path d="M381.3,408.4c0.7,1.8,0.7,3.8,0,5.5C380.6,412.2,380.6,410.2,381.3,408.4z"/>
		<path d="M384.2,408.4c0.7,1.8,0.7,3.8,0,5.5C383.6,412.2,383.6,410.2,384.2,408.4z"/>
		<path d="M378.3,408.4c0.3,0.9,0.5,1.8,0.5,2.8c0,0.9-0.1,1.9-0.5,2.8c-0.3-0.9-0.5-1.8-0.5-2.8C377.8,410.2,378,409.3,378.3,408.4
			z"/>
		<path d="M366.8,408.4c0.7,1.8,0.7,3.8,0,5.5C366.1,412.2,366.1,410.2,366.8,408.4z"/>
		<path d="M374.9,408.4c0.7,1.8,0.7,3.8,0,5.5C374.2,412.2,374.2,410.2,374.9,408.4z"/>
		<path d="M376.1,408.4c0.7,1.8,0.7,3.8,0,5.5C375.4,412.2,375.4,410.2,376.1,408.4z"/>
		<path d="M388.1,408.4c0.7,1.8,0.7,3.8,0,5.5c-0.4-0.9-0.5-1.8-0.5-2.8C387.6,410.2,387.8,409.3,388.1,408.4z"/>
		<path d="M389.9,408.4c0.3,0.9,0.5,1.8,0.5,2.8c0,0.9-0.2,1.9-0.5,2.8c-0.4-0.9-0.5-1.8-0.5-2.8
			C389.4,410.2,389.5,409.3,389.9,408.4z"/>
		<path d="M385.6,408.4c0.7,1.8,0.7,3.8,0,5.5C385,412.2,385,410.2,385.6,408.4z"/>
		<path d="M369.6,408.4c0.3,0.9,0.5,1.8,0.5,2.8c0,0.9-0.1,1.9-0.5,2.8c-0.3-0.9-0.5-1.8-0.5-2.8
			C369.1,410.2,369.3,409.3,369.6,408.4z"/>
	</g>
	<polygon class="st10" points="391.3,407.8 391.3,409.2 359.9,410.2 359.9,407.8 	"/>
	<rect x="130.9" y="417.4" class="st9" width="31.4" height="6.9"/>
	<g class="st11">
		<path d="M132.1,418c0.7,1.8,0.7,3.8,0,5.5C131.5,421.8,131.5,419.8,132.1,418z"/>
		<path d="M134.5,418c0.3,0.9,0.5,1.8,0.5,2.8c0,1-0.2,1.9-0.5,2.8c-0.4-0.9-0.5-1.8-0.5-2.8C134,419.8,134.1,418.9,134.5,418z"/>
		<path d="M135.6,418c0.3,0.9,0.5,1.8,0.5,2.8c0,1-0.1,1.9-0.5,2.8c-0.3-0.9-0.5-1.8-0.5-2.8C135.1,419.8,135.3,418.9,135.6,418z"/>
		<path d="M141.9,418c0.7,1.8,0.7,3.8,0,5.5C141.2,421.8,141.2,419.8,141.9,418z"/>
		<path d="M143.6,418c0.7,1.8,0.7,3.8,0,5.5C142.9,421.8,142.9,419.8,143.6,418z"/>
		<path d="M150.6,418c0.3,0.9,0.5,1.8,0.5,2.8c0,1-0.1,1.9-0.5,2.8C149.9,421.8,149.9,419.8,150.6,418z"/>
		<path d="M152.2,418c0.3,0.9,0.5,1.8,0.5,2.8c0,1-0.1,1.9-0.5,2.8c-0.3-0.9-0.5-1.8-0.5-2.8C151.7,419.8,151.9,418.9,152.2,418z"/>
		<path d="M155.2,418c0.3,0.9,0.5,1.8,0.5,2.8c0,1-0.1,1.9-0.5,2.8C154.5,421.8,154.5,419.8,155.2,418z"/>
		<path d="M149.2,418c0.7,1.8,0.7,3.8,0,5.5c-0.4-0.9-0.5-1.8-0.5-2.8C148.7,419.8,148.9,418.9,149.2,418z"/>
		<path d="M137.7,418c0.3,0.9,0.5,1.8,0.5,2.8c0,1-0.2,1.9-0.5,2.8c-0.4-0.9-0.5-1.8-0.5-2.8C137.2,419.8,137.3,418.9,137.7,418z"/>
		<path d="M145.8,418c0.7,1.8,0.7,3.8,0,5.5C145.1,421.8,145.1,419.8,145.8,418z"/>
		<path d="M147,418c0.7,1.8,0.7,3.8,0,5.5C146.3,421.8,146.3,419.8,147,418z"/>
		<path d="M159.1,418c0.7,1.8,0.7,3.8,0,5.5C158.4,421.8,158.4,419.8,159.1,418z"/>
		<path d="M160.8,418c0.7,1.8,0.7,3.8,0,5.5C160.1,421.8,160.1,419.8,160.8,418z"/>
		<path d="M156.6,418c0.3,0.9,0.5,1.8,0.5,2.8c0,1-0.1,1.9-0.5,2.8C155.9,421.8,155.9,419.8,156.6,418z"/>
		<path d="M140.5,418c0.3,0.9,0.5,1.8,0.5,2.8c0,1-0.2,1.9-0.5,2.8c-0.4-0.9-0.5-1.8-0.5-2.8C140,419.8,140.2,418.9,140.5,418z"/>
	</g>
	<polygon class="st10" points="162.2,417.4 162.2,418.9 130.9,419.9 130.9,417.4 	"/>
	<rect x="128.7" y="410.5" class="st9" width="31.4" height="6.9"/>
	<g class="st11">
		<path d="M130,411.1c0.3,0.9,0.5,1.8,0.5,2.8c0,0.9-0.1,1.9-0.5,2.8c-0.4-0.9-0.5-1.8-0.5-2.8C129.5,412.9,129.7,412,130,411.1z"/>
		<path d="M132.3,411.1c0.7,1.8,0.7,3.8,0,5.5C131.7,414.9,131.7,412.9,132.3,411.1z"/>
		<path d="M133.5,411.1c0.7,1.8,0.7,3.8,0,5.5C132.8,414.9,132.8,412.9,133.5,411.1z"/>
		<path d="M139.7,411.1c0.7,1.8,0.7,3.8,0,5.5c-0.4-0.9-0.5-1.8-0.5-2.8C139.2,412.9,139.4,412,139.7,411.1z"/>
		<path d="M141.4,411.1c0.7,1.8,0.7,3.8,0,5.5C140.8,414.9,140.8,412.9,141.4,411.1z"/>
		<path d="M148.4,411.1c0.7,1.8,0.7,3.8,0,5.5C147.8,414.9,147.8,412.9,148.4,411.1z"/>
		<path d="M150.1,411.1c0.7,1.8,0.7,3.8,0,5.5C149.4,414.9,149.4,412.9,150.1,411.1z"/>
		<path d="M153,411.1c0.7,1.8,0.7,3.8,0,5.5C152.3,414.9,152.3,412.9,153,411.1z"/>
		<path d="M147.1,411.1c0.7,1.8,0.7,3.8,0,5.5C146.4,414.9,146.4,412.9,147.1,411.1z"/>
		<path d="M135.6,411.1c0.7,1.8,0.7,3.8,0,5.5C134.9,414.9,134.9,412.9,135.6,411.1z"/>
		<path d="M143.7,411.1c0.3,0.9,0.5,1.8,0.5,2.8c0,0.9-0.1,1.9-0.5,2.8c-0.3-0.9-0.5-1.8-0.5-2.8C143.1,412.9,143.3,412,143.7,411.1
			z"/>
		<path d="M144.8,411.1c0.7,1.8,0.7,3.8,0,5.5c-0.4-0.9-0.5-1.8-0.5-2.8C144.3,412.9,144.5,412,144.8,411.1z"/>
		<path d="M156.9,411.1c0.3,0.9,0.5,1.8,0.5,2.8c0,0.9-0.1,1.9-0.5,2.8C156.2,414.9,156.2,412.9,156.9,411.1z"/>
		<path d="M158.6,411.1c0.7,1.8,0.7,3.8,0,5.5C158,414.9,158,412.9,158.6,411.1z"/>
		<path d="M154.4,411.1c0.7,1.8,0.7,3.8,0,5.5C153.7,414.9,153.7,412.9,154.4,411.1z"/>
		<path d="M138.4,411.1c0.7,1.8,0.7,3.8,0,5.5C137.7,414.9,137.7,412.9,138.4,411.1z"/>
	</g>
	<polygon class="st10" points="160.1,410.5 160.1,412 128.7,412.9 128.7,410.5 	"/>
	<rect x="133.6" y="396.7" class="st9" width="31.4" height="6.9"/>
	<g class="st11">
		<path d="M134.8,397.3c0.7,1.8,0.7,3.8,0,5.5C134.2,401.1,134.2,399.1,134.8,397.3z"/>
		<path d="M137.2,397.3c0.3,0.9,0.5,1.8,0.5,2.8c0,0.9-0.2,1.9-0.5,2.8c-0.4-0.9-0.5-1.8-0.5-2.8
			C136.7,399.1,136.8,398.2,137.2,397.3z"/>
		<path d="M138.3,397.3c0.3,0.9,0.5,1.8,0.5,2.8c0,0.9-0.2,1.9-0.5,2.8c-0.4-0.9-0.5-1.8-0.5-2.8C137.8,399.1,138,398.2,138.3,397.3
			z"/>
		<path d="M144.6,397.3c0.3,0.9,0.5,1.8,0.5,2.8c0,0.9-0.1,1.9-0.5,2.8C143.9,401.1,143.9,399.1,144.6,397.3z"/>
		<path d="M146.3,397.3c0.7,1.8,0.7,3.8,0,5.5C145.6,401.1,145.6,399.1,146.3,397.3z"/>
		<path d="M153.3,397.3c0.3,0.9,0.5,1.8,0.5,2.8c0,0.9-0.1,1.9-0.5,2.8c-0.3-0.9-0.5-1.8-0.5-2.8
			C152.8,399.1,152.9,398.2,153.3,397.3z"/>
		<path d="M154.9,397.3c0.3,0.9,0.5,1.8,0.5,2.8c0,0.9-0.2,1.9-0.5,2.8c-0.4-0.9-0.5-1.8-0.5-2.8
			C154.4,399.1,154.6,398.2,154.9,397.3z"/>
		<path d="M157.9,397.3c0.3,0.9,0.5,1.8,0.5,2.8c0,0.9-0.1,1.9-0.5,2.8C157.2,401.1,157.2,399.1,157.9,397.3z"/>
		<path d="M151.9,397.3c0.7,1.8,0.7,3.8,0,5.5C151.3,401.1,151.3,399.1,151.9,397.3z"/>
		<path d="M140.4,397.3c0.3,0.9,0.5,1.8,0.5,2.8c0,0.9-0.2,1.9-0.5,2.8c-0.4-0.9-0.5-1.8-0.5-2.8C139.9,399.1,140,398.2,140.4,397.3
			z"/>
		<path d="M148.5,397.3c0.7,1.8,0.7,3.8,0,5.5C147.8,401.1,147.8,399.1,148.5,397.3z"/>
		<path d="M149.7,397.3c0.7,1.8,0.7,3.8,0,5.5C149,401.1,149,399.1,149.7,397.3z"/>
		<path d="M161.8,397.3c0.7,1.8,0.7,3.8,0,5.5C161.1,401.1,161.1,399.1,161.8,397.3z"/>
		<path d="M163.5,397.3c0.7,1.8,0.7,3.8,0,5.5C162.8,401.1,162.8,399.1,163.5,397.3z"/>
		<path d="M159.2,397.3c0.3,0.9,0.5,1.8,0.5,2.8c0,0.9-0.1,1.9-0.5,2.8c-0.3-0.9-0.5-1.8-0.5-2.8
			C158.7,399.1,158.9,398.2,159.2,397.3z"/>
		<path d="M143.2,397.3c0.3,0.9,0.5,1.8,0.5,2.8c0,0.9-0.2,1.9-0.5,2.8c-0.4-0.9-0.5-1.8-0.5-2.8
			C142.7,399.1,142.9,398.2,143.2,397.3z"/>
	</g>
	<polygon class="st10" points="164.9,396.7 164.9,398.1 133.6,399.1 133.6,396.7 	"/>
	<rect x="132.8" y="389.8" class="st9" width="31.4" height="6.9"/>
	<g class="st11">
		<path d="M162.7,395.9c-0.7-1.8-0.7-3.8,0-5.5C163.4,392.2,163.4,394.1,162.7,395.9z"/>
		<path d="M160.4,395.9c-0.3-0.9-0.5-1.8-0.5-2.8c0-0.9,0.2-1.9,0.5-2.8c0.4,0.9,0.5,1.8,0.5,2.8C160.9,394.1,160.7,395,160.4,395.9
			z"/>
		<path d="M159.2,395.9c-0.3-0.9-0.5-1.8-0.5-2.8c0-0.9,0.1-1.9,0.5-2.8c0.3,0.9,0.5,1.8,0.5,2.8C159.7,394.1,159.6,395,159.2,395.9
			z"/>
		<path d="M153,395.9c-0.7-1.8-0.7-3.8,0-5.5C153.7,392.2,153.7,394.1,153,395.9z"/>
		<path d="M151.3,395.9c-0.7-1.8-0.7-3.8,0-5.5C151.9,392.2,151.9,394.1,151.3,395.9z"/>
		<path d="M144.3,395.9c-0.3-0.9-0.5-1.8-0.5-2.8c0-0.9,0.1-1.9,0.5-2.8C144.9,392.2,144.9,394.1,144.3,395.9L144.3,395.9z"/>
		<path d="M142.6,395.9c-0.3-0.9-0.5-1.8-0.5-2.8c0-0.9,0.1-1.9,0.5-2.8c0.3,0.9,0.5,1.8,0.5,2.8C143.2,394.1,143,395,142.6,395.9z"
			/>
		<path d="M139.7,395.9c-0.7-1.8-0.7-3.8,0-5.5C140.3,392.2,140.3,394.1,139.7,395.9z"/>
		<path d="M145.6,395.9c-0.3-0.9-0.5-1.8-0.5-2.8c0-0.9,0.2-1.9,0.5-2.8c0.4,0.9,0.5,1.8,0.5,2.8C146.1,394.1,146,395,145.6,395.9z"
			/>
		<path d="M157.2,395.9c-0.3-0.9-0.5-1.8-0.5-2.8c0-0.9,0.1-1.9,0.5-2.8c0.3,0.9,0.5,1.8,0.5,2.8C157.7,394.1,157.5,395,157.2,395.9
			z"/>
		<path d="M149,395.9c-0.7-1.8-0.7-3.8,0-5.5C149.7,392.2,149.7,394.1,149,395.9z"/>
		<path d="M147.9,395.9c-0.7-1.8-0.7-3.8,0-5.5C148.5,392.2,148.5,394.1,147.9,395.9z"/>
		<path d="M135.8,395.9c-0.7-1.8-0.7-3.8,0-5.5C136.5,392.2,136.5,394.1,135.8,395.9z"/>
		<path d="M134.1,395.9c-0.7-1.8-0.7-3.8,0-5.5C134.7,392.2,134.7,394.1,134.1,395.9z"/>
		<path d="M138.3,395.9c-0.7-1.8-0.7-3.8,0-5.5C139,392.2,139,394.1,138.3,395.9z"/>
		<path d="M154.3,395.9c-0.3-0.9-0.5-1.8-0.5-2.8c0-0.9,0.2-1.9,0.5-2.8c0.4,0.9,0.5,1.8,0.5,2.8C154.8,394.1,154.7,395,154.3,395.9
			z"/>
	</g>
	<polygon class="st10" points="164.1,389.8 164.1,391.2 132.8,392.2 132.8,389.8 	"/>
	<rect x="130.9" y="382.8" class="st9" width="31.4" height="6.9"/>
	<g class="st11">
		<path d="M132.1,383.5c0.7,1.8,0.7,3.8,0,5.5C131.5,387.2,131.5,385.2,132.1,383.5z"/>
		<path d="M134.5,383.5c0.3,0.9,0.5,1.8,0.5,2.8c0,0.9-0.2,1.9-0.5,2.8c-0.4-0.9-0.5-1.8-0.5-2.8C134,385.3,134.1,384.3,134.5,383.5
			z"/>
		<path d="M135.6,383.5c0.3,0.9,0.5,1.8,0.5,2.8c0,0.9-0.1,1.9-0.5,2.8c-0.3-0.9-0.5-1.8-0.5-2.8
			C135.1,385.3,135.3,384.3,135.6,383.5z"/>
		<path d="M141.9,383.5c0.7,1.8,0.7,3.8,0,5.5C141.2,387.2,141.2,385.2,141.9,383.5z"/>
		<path d="M143.6,383.5c0.7,1.8,0.7,3.8,0,5.5C142.9,387.2,142.9,385.2,143.6,383.5z"/>
		<path d="M150.6,383.5c0.7,1.8,0.7,3.8,0,5.5C149.9,387.2,149.9,385.2,150.6,383.5z"/>
		<path d="M152.2,383.5c0.3,0.9,0.5,1.8,0.5,2.8c0,0.9-0.1,1.9-0.5,2.8c-0.3-0.9-0.5-1.8-0.5-2.8
			C151.7,385.3,151.9,384.3,152.2,383.5z"/>
		<path d="M155.2,383.5c0.7,1.8,0.7,3.8,0,5.5C154.5,387.2,154.5,385.2,155.2,383.5z"/>
		<path d="M149.2,383.5c0.3,0.9,0.5,1.8,0.5,2.8c0,0.9-0.2,1.9-0.5,2.8c-0.4-0.9-0.5-1.8-0.5-2.8
			C148.7,385.3,148.9,384.3,149.2,383.5z"/>
		<path d="M137.7,383.5c0.3,0.9,0.5,1.8,0.5,2.8c0,0.9-0.1,1.9-0.5,2.8c-0.3-0.9-0.5-1.8-0.5-2.8
			C137.2,385.3,137.3,384.3,137.7,383.5z"/>
		<path d="M145.8,383.5c0.7,1.8,0.7,3.8,0,5.5C145.1,387.2,145.1,385.2,145.8,383.5z"/>
		<path d="M147,383.5c0.7,1.8,0.7,3.8,0,5.5C146.3,387.2,146.3,385.2,147,383.5z"/>
		<path d="M159.1,383.5c0.7,1.8,0.7,3.8,0,5.5C158.4,387.2,158.4,385.2,159.1,383.5z"/>
		<path d="M160.8,383.5c0.7,1.8,0.7,3.8,0,5.5C160.1,387.2,160.1,385.2,160.8,383.5z"/>
		<path d="M156.6,383.5c0.7,1.8,0.7,3.8,0,5.5C155.9,387.2,155.9,385.2,156.6,383.5z"/>
		<path d="M140.5,383.5c0.3,0.9,0.5,1.8,0.5,2.8c0,0.9-0.2,1.9-0.5,2.8c-0.4-0.9-0.5-1.8-0.5-2.8C140,385.3,140.2,384.3,140.5,383.5
			z"/>
	</g>
	<polygon class="st10" points="162.2,382.8 162.2,384.3 130.9,385.3 130.9,382.8 	"/>
	<rect x="130.9" y="403.6" class="st9" width="31.4" height="6.9"/>
	<g class="st11">
		<path d="M160.8,409.8c-0.7-1.8-0.7-3.8,0-5.5C161.5,406,161.5,408,160.8,409.8z"/>
		<path d="M158.5,409.8c-0.7-1.8-0.7-3.8,0-5.5C159.1,406,159.1,408,158.5,409.8z"/>
		<path d="M157.3,409.8c-0.7-1.8-0.7-3.8,0-5.5c0.4,0.9,0.5,1.8,0.5,2.8C157.8,408,157.7,408.9,157.3,409.8z"/>
		<path d="M151.1,409.8c-0.3-0.9-0.5-1.8-0.5-2.8c0-0.9,0.1-1.9,0.5-2.8c0.3,0.9,0.5,1.8,0.5,2.8C151.6,408,151.4,408.9,151.1,409.8
			z"/>
		<path d="M149.4,409.8c-0.7-1.8-0.7-3.8,0-5.5C150,406,150,408,149.4,409.8z"/>
		<path d="M142.4,409.8c-0.3-0.9-0.5-1.8-0.5-2.8c0-0.9,0.2-1.9,0.5-2.8c0.4,0.9,0.5,1.8,0.5,2.8C142.9,408,142.7,408.9,142.4,409.8
			z"/>
		<path d="M140.7,409.8c-0.7-1.8-0.7-3.8,0-5.5c0.4,0.9,0.5,1.8,0.5,2.8C141.3,408,141.1,408.9,140.7,409.8z"/>
		<path d="M137.8,409.8c-0.3-0.9-0.5-1.8-0.5-2.8c0-0.9,0.1-1.9,0.5-2.8c0.3,0.9,0.5,1.8,0.5,2.8C138.3,408,138.1,408.9,137.8,409.8
			z"/>
		<path d="M143.7,409.8c-0.7-1.8-0.7-3.8,0-5.5C144.4,406,144.4,408,143.7,409.8z"/>
		<path d="M155.2,409.8c-0.7-1.8-0.7-3.8,0-5.5c0.4,0.9,0.5,1.8,0.5,2.8C155.8,408,155.6,408.9,155.2,409.8z"/>
		<path d="M147.1,409.8c-0.7-1.8-0.7-3.8,0-5.5C147.8,406,147.8,408,147.1,409.8z"/>
		<path d="M146,409.8c-0.3-0.9-0.5-1.8-0.5-2.8c0-0.9,0.1-1.9,0.5-2.8c0.3,0.9,0.5,1.8,0.5,2.8C146.5,408,146.3,408.9,146,409.8z"/>
		<path d="M133.9,409.8c-0.7-1.8-0.7-3.8,0-5.5C134.6,406,134.6,408,133.9,409.8z"/>
		<path d="M132.1,409.8c-0.7-1.8-0.7-3.8,0-5.5C132.8,406,132.8,408,132.1,409.8z"/>
		<path d="M136.4,409.8c-0.3-0.9-0.5-1.8-0.5-2.8c0-0.9,0.1-1.9,0.5-2.8c0.4,0.9,0.5,1.8,0.5,2.8C136.9,408,136.7,408.9,136.4,409.8
			z"/>
		<path d="M152.4,409.8c-0.7-1.8-0.7-3.8,0-5.5C153.1,406,153.1,408,152.4,409.8z"/>
	</g>
	<polygon class="st10" points="162.2,403.6 162.2,405.1 130.9,406.1 130.9,403.6 	"/>
	<path class="st9" d="M128.2,400.2c20.6,3.7,15.2,34.3-5.5,30.6S107.6,396.5,128.2,400.2z"/>
	<path class="st10" d="M128.2,400.2c20.6,3.7,15.2,34.3-5.5,30.6S107.6,396.5,128.2,400.2z"/>
	<path class="st9" d="M126.3,399.8c19.7,3.5,14.2,34.1-5.5,30.6S106.6,396.3,126.3,399.8z"/>
	<path class="st10" d="M111.1,415.8c0.1,5.5,3.3,10.7,10.2,12c16.4,2.9,20.9-22.5,4.6-25.4l-0.3,0c15.3,3.1,10.9,27.1-4.7,24.3
		C115.4,425.9,111.3,421.3,111.1,415.8z"/>
	<g class="st11">
		<path d="M125.3,405.6c0.3,0.1,0.4,0.4,0.4,0.6l-0.2,0.8c1.3,0.4,2.5,1.3,3.4,2.4c0.1,0.1,0.2,0.4,0.2,0.6
			c-0.1,0.3-0.4,0.5-0.7,0.4c-0.1,0-0.3-0.1-0.3-0.2c-0.7-1-1.7-1.7-2.8-2.1l-1.5,5.9c3,1.5,4.1,3,3.6,5c-0.6,2.2-2.8,3.3-5.5,2.8
			l-0.4,1.6c0,0.3-0.3,0.5-0.6,0.5s-0.5-0.3-0.5-0.6c0,0,0-0.1,0-0.1l0.4-1.7c-1.7-0.6-3.2-1.7-4.2-3.2c-0.1-0.1-0.2-0.3-0.1-0.5
			c0.1-0.3,0.4-0.5,0.7-0.4c0.1,0,0.3,0.1,0.3,0.2c0.8,1.4,2.1,2.4,3.6,2.9l1.5-6c-3-1.5-4-3-3.5-5s2.8-3.3,5.3-2.7l0.2-0.8
			C124.7,405.7,125,405.5,125.3,405.6z M122.8,413.4l1.4-5.7c-2-0.5-3.7,0.4-4.1,1.9S120.3,412.1,122.8,413.4L122.8,413.4z
			 M123.4,414.9l-1.4,5.8c2.1,0.5,3.8-0.4,4.2-2S126,416.2,123.4,414.9L123.4,414.9z"/>
	</g>
</g>
</svg>
