<?xml version="1.0" encoding="utf-8"?>
<!-- Generator: Adobe Illustrator 25.2.1, SVG Export Plug-In . SVG Version: 6.00 Build 0)  -->
<svg version="1.1" id="Layer_1" xmlns="http://www.w3.org/2000/svg" xmlns:xlink="http://www.w3.org/1999/xlink" x="0px" y="0px"
	 viewBox="0 0 500 500" style="enable-background:new 0 0 500 500;" xml:space="preserve">
<style type="text/css">
	.st0{fill:#EDF9F8;}
	.st1{fill:#EBEBEB;}
	.st2{fill:#C7C7C7;}
	.st3{fill:#DBDBDB;}
	.st4{opacity:0.2;enable-background:new    ;}
	.st5{fill:#A6A6A6;}
	.st6{opacity:0.6;fill:#FFFFFF;enable-background:new    ;}
	.st7{opacity:0.4;fill:#FFFFFF;enable-background:new    ;}
	.st8{opacity:0.1;enable-background:new    ;}
	.st9{fill:#263238;}
	.st10{fill:#FFC727;}
	.st11{fill:#37474F;}
	.st12{fill:#FFFFFF;}
	.st13{fill:#455A64;}
	.st14{opacity:0.3;fill:#FFFFFF;enable-background:new    ;}
	.st15{opacity:0.2;}
	.st16{fill:#D3766A;}
	.st17{fill:#FF9BBC;}
</style>
<rect x="-22.8" y="-16.2" class="st0" width="573" height="540"/>
<g id="freepik--background-complete--inject-2">
	<path class="st1" d="M92.7,317.9l-13.1,0.3l-6.7,0.1c-2.2,0-4.5,0-6.7,0h-0.4v-0.5v-11.2v-0.5h0.5l13.2,0.1c4.4,0,8.8,0.1,13.2,0.2
		H93v0.3c0,1.9-0.1,3.8-0.1,5.6L92.7,317.9z M92.7,317.9l-0.2-5.7c0-1.9-0.1-3.7-0.1-5.5l0.3,0.3c-4.4,0-8.8,0.2-13.2,0.2l-13.2,0.1
		l0.5-0.5L66.7,318l-0.4-0.4c2.2,0,4.3,0,6.5,0l6.6,0.1L92.7,317.9z"/>
	<path class="st1" d="M77.9,332l-13.1,0.3l-6.7,0.1c-2.2,0-4.5,0-6.7,0H51V332v-11.2v-0.5h0.5l13.2,0.1c4.4,0,8.8,0.1,13.2,0.2h0.3
		v0.3c0,1.9-0.1,3.8-0.1,5.6L77.9,332z M77.9,332l-0.1-5.6c0-1.9-0.1-3.7-0.1-5.5l0.3,0.3c-4.4,0-8.8,0.2-13.2,0.2l-13.2,0.1
		l0.5-0.5l-0.2,11l-0.5-0.4c2.2,0,4.4,0,6.5,0l6.6,0.1L77.9,332z"/>
	<path class="st1" d="M108.2,332L95,332.3l-6.7,0.1c-2.2,0-4.5,0-6.7,0h-0.4V332l-0.1-11.2v-0.5h0.5l13.2,0.1
		c4.4,0,8.8,0.1,13.2,0.2h0.3v0.3c0,1.9-0.1,3.8-0.1,5.6L108.2,332z M108.2,332l-0.1-5.6c0-1.9-0.1-3.7-0.1-5.5l0.3,0.3
		c-4.4,0-8.8,0.2-13.2,0.2l-13.2,0.1l0.5-0.5l-0.3,11l-0.4-0.4c2.2,0,4.4,0,6.6,0l6.6,0.1L108.2,332z"/>
	<path class="st1" d="M372.4,226.9l-13.1,0.3l-6.7,0.1c-2.2,0-4.5,0-6.7,0h-0.4v-0.4l-0.1-11.2v-0.5h0.5l13.2,0.1
		c4.4,0,8.8,0.1,13.2,0.2h0.3v0.3c0,1.9-0.1,3.8-0.1,5.6L372.4,226.9z M372.4,226.9l-0.1-5.6c0-1.9-0.1-3.7-0.1-5.5l0.3,0.3
		c-4.4,0-8.8,0.2-13.2,0.2l-13.2,0.1l0.5-0.5v11.2l-0.5-0.4c2.2,0,4.4,0,6.5,0.1l6.6,0.1L372.4,226.9z"/>
	<path class="st1" d="M448.8,332l-13.1,0.3l-6.7,0.1c-2.2,0-4.5,0-6.7,0h-0.4V332l-0.1-11.2v-0.5h0.5l13.2,0.1
		c4.4,0,8.8,0.1,13.2,0.2h0.3v0.3c0,1.9-0.1,3.8-0.1,5.6L448.8,332z M448.8,332l-0.1-5.6c0-1.9-0.1-3.7-0.1-5.5l0.3,0.3
		c-4.4,0-8.8,0.2-13.2,0.2l-13.2,0.1l0.5-0.5v11.2l-0.5-0.4c2.2,0,4.4,0,6.5,0l6.6,0.1L448.8,332z"/>
	<path class="st1" d="M434,64.2l-13.1,0.3l-6.7,0.1c-2.2,0-4.5,0-6.7,0.1h-0.4v-0.4L407,53v-0.5h0.5l13.2,0.1
		c4.4,0,8.8,0.1,13.2,0.2h0.3V53c0,1.9-0.1,3.8-0.1,5.7L434,64.2z M434,64.2l-0.1-5.7c0-1.9-0.1-3.7-0.1-5.5l0.3,0.3
		c-4.4,0-8.8,0.2-13.2,0.2l-13.2,0.1L408,53v11.2l-0.5-0.5c2.2,0,4.4,0,6.5,0.1l6.6,0.1L434,64.2z"/>
	<path class="st1" d="M448.8,78.3l-13.1,0.3l-6.6,0.1c-2.2,0-4.5,0-6.7,0.1H422v-0.4l-0.1-11.2v-0.5h0.5l13.2,0.1
		c4.4,0,8.8,0.1,13.2,0.2h0.3v0.3c0,1.9-0.1,3.8-0.1,5.7L448.8,78.3z M448.8,78.3l-0.1-5.7c0-1.9-0.1-3.7-0.1-5.5l0.3,0.3
		c-4.4,0-8.8,0.2-13.2,0.2l-13.2,0.1l0.5-0.5v11.2l-0.5-0.4c2.2,0,4.4,0,6.5,0.1l6.6,0.1L448.8,78.3z"/>
	<path class="st1" d="M192.8,150.3l-13.1,0.3l-6.7,0.1c-2.2,0-4.5,0-6.7,0.1h-0.4v-0.4l-0.1-11.2v-0.5h0.5l13.2,0.1
		c4.4,0,8.8,0.1,13.2,0.2h0.3v0.3c0,1.9-0.1,3.8-0.1,5.7L192.8,150.3z M192.8,150.3l-0.1-5.6c0-1.9-0.1-3.7-0.1-5.5l0.3,0.3
		c-4.4,0.1-8.8,0.2-13.2,0.2l-13.2,0.1l0.5-0.5v11.2l-0.4-0.4c2.2,0,4.4,0,6.6,0.1l6.6,0.1L192.8,150.3z"/>
	<path class="st1" d="M207.6,164.4l-13.1,0.3l-6.7,0.1c-2.2,0.1-4.5,0-6.7,0.1h-0.4v-0.4l-0.1-11.2v-0.5h0.5l13.2,0.1
		c4.4,0,8.8,0.1,13.2,0.2h0.3v0.3c0,1.9-0.1,3.8-0.1,5.7L207.6,164.4z M207.6,164.4l-0.1-5.6c0-1.9-0.1-3.7-0.1-5.5l0.3,0.3
		c-4.4,0-8.8,0.2-13.2,0.2l-13.2,0.1l0.5-0.5l-0.1,11.2l-0.4-0.4c2.2,0,4.4,0,6.5,0l6.6,0.1L207.6,164.4z"/>
	<path class="st1" d="M77.9,64.2l-13.1,0.3l-6.7,0.1c-2.2,0-4.5,0-6.7,0.1H51v-0.4V53v-0.5h0.5l13.2,0.1c4.4,0,8.8,0.1,13.2,0.2h0.3
		V53c0,1.9-0.1,3.8-0.1,5.7L77.9,64.2z M77.9,64.2l-0.1-5.7c0-1.9-0.1-3.7-0.1-5.5l0.3,0.3c-4.4,0-8.8,0.2-13.2,0.2l-13.2,0.1L52,53
		l-0.1,11.2l-0.5-0.5c2.2,0,4.4,0,6.5,0.1l6.6,0.1L77.9,64.2z"/>
	<rect x="84" class="st2" width="0.8" height="93.8"/>
	<polygon class="st1" points="117.4,125.6 114.7,131.4 54.1,131.4 51.5,125.6 77.3,107.7 91.6,107.7 	"/>
	<polygon class="st3" points="93.3,90.5 91.6,107.7 77.3,107.7 75.5,90.5 	"/>
	<polygon class="st3" points="117.4,125.6 114.7,131.4 54.1,131.4 51.5,125.6 	"/>
	<rect x="154.8" class="st2" width="0.8" height="75"/>
	<polygon class="st1" points="188.1,106.8 185.5,112.6 124.9,112.6 122.2,106.8 148,88.9 162.3,88.9 	"/>
	<polygon class="st3" points="164.1,71.7 162.3,88.9 148,88.9 146.2,71.7 	"/>
	<polygon class="st3" points="188.1,106.8 185.5,112.6 124.8,112.6 122.2,106.8 	"/>
	<path class="st1" d="M86.1,191.6c-38.8,0-38.9,55.2,0,55.2S124.9,191.6,86.1,191.6z"/>
	<path class="st3" d="M109.7,224.4c-2.1,9.5-9.9,17.7-23.6,17.7c-32.2,0-32.2-45.8,0-45.8h0.6c-30.3,0.6-30.2,43.9,0.6,43.9
		C99.8,240.2,107.3,233,109.7,224.4z"/>
	<path class="st3" d="M86.3,202.3c0.5,0,1,0.4,1,0.9v1.5c2.7,0.2,5.3,1.1,7.5,2.7c0.4,0.3,0.6,0.5,0.6,0.9c0,0.6-0.4,1-1,1h-0.1
		c-0.3,0-0.6-0.1-0.8-0.3c-1.8-1.4-4-2.3-6.3-2.5v10.7c6.4,1.2,9.1,3.4,9.1,7.2c0,4.1-3.7,7-9,7.1v3c0,0.6-0.4,1-1,1s-1-0.4-1-1v-3
		c-3.5-0.2-6.8-1.5-9.4-3.7c-0.3-0.2-0.5-0.5-0.5-0.8c0-0.6,0.5-1,1.1-1c0.3,0,0.5,0.1,0.8,0.3c2.3,2,5.2,3.2,8.2,3.5v-11
		c-6.3-1.3-8.9-3.4-8.9-7.2s3.7-6.8,8.8-7v-1.5C85.3,202.7,85.8,202.3,86.3,202.3z M85.4,216.9v-10.5c-4.1,0.1-6.8,2.3-6.8,5.1
		C78.6,214.1,80,215.7,85.4,216.9z M87.2,219.3v10.6c4.2-0.1,6.9-2.3,6.9-5.2C94.2,222,92.7,220.4,87.2,219.3L87.2,219.3z"/>
	<path class="st3" d="M409.7,59.8c-34.9,6.3-25.7,58,9.3,51.8S444.7,53.5,409.7,59.8z"/>
	<path class="st1" d="M412.9,59.2c-33.3,6-24.1,57.7,9.3,51.8S446.3,53.2,412.9,59.2z"/>
	<path class="st3" d="M438.7,86.3c-0.2,9.2-5.5,18.2-17.3,20.3c-27.7,5-35.4-38-7.7-43l0.5-0.1c-25.9,5.2-18.5,45.8,7.9,41.1
		C432.9,102.7,438.1,94.8,438.7,86.3z"/>
	<path class="st3" d="M419.6,69.2c0.5,0.1,0.8,0.5,0.8,1l-0.2,1.4c2.3,0.5,4.5,1.6,6.2,3.3c0.3,0.2,0.4,0.5,0.4,0.9
		c-0.1,0.5-0.5,0.8-1,0.8c-0.2,0-0.5-0.1-0.6-0.3c-1.4-1.5-3.2-2.5-5.2-3l-1.2,10.2c5.4,1.8,7.5,4.2,7.1,7.7c-0.5,3.8-4,6.2-8.6,5.8
		l-0.3,2.8c-0.1,0.5-0.6,0.8-1,0.7c-0.4-0.1-0.7-0.5-0.7-0.9l0.3-2.9c-3-0.6-5.7-2.2-7.8-4.5c-0.4-0.3-0.4-0.9-0.1-1.3
		c0.2-0.2,0.5-0.3,0.8-0.3c0.2,0,0.4,0.1,0.5,0.3c1.7,2.1,4.1,3.6,6.7,4.1l1.3-10.3c-5.3-1.8-7.3-4.1-6.9-7.7s4-6.1,8.4-5.7l0.2-1.4
		C418.7,69.6,419.1,69.2,419.6,69.2z M417.2,83l1.2-10c-3.5-0.3-6.1,1.5-6.4,4.1C411.6,79.6,412.6,81.3,417.2,83z M418.5,85.4
		l-1.2,10c3.6,0.4,6.3-1.5,6.6-4.2C424.2,88.7,423.1,87,418.5,85.4L418.5,85.4z"/>
	<path class="st1" d="M439.3,310.5c-0.1,1.1-0.4,2.2-1,3.1c0-0.2-0.1-0.4-0.1-0.6s-0.1-0.4-0.2-0.7c-0.5-1.5-1.3-2.9-2.4-4.1
		l-0.4-0.4l-0.1-0.1l0,0c-0.1-0.1-0.1-0.1-0.2-0.2c-9.7-12.2-18.9,7.6-19.1,8.1l0,0c0,0-0.5-19.8,10-20.4
		C434.2,294.8,439.8,304.4,439.3,310.5z"/>
	<path class="st1" d="M438.3,313.6c-0.2,0.3-0.5,0.7-0.9,0.9c-5,3.9-20.5,1.2-21.5,1l0,0c14.5,1.4,18.5-3.9,19.2-7.9l0.1,0.1
		l0.4,0.4c1,1.2,1.9,2.6,2.4,4.1c0.1,0.2,0.1,0.5,0.2,0.7S438.3,313.4,438.3,313.6z"/>
	<path class="st4" d="M438.3,313.6c-0.2,0.3-0.5,0.7-0.9,0.9c-5,3.9-20.5,1.2-21.5,1l0,0c14.5,1.4,18.5-3.9,19.2-7.9l0.1,0.1
		l0.4,0.4c1,1.2,1.9,2.6,2.4,4.1c0.1,0.2,0.1,0.5,0.2,0.7S438.3,313.4,438.3,313.6z"/>
	<path class="st1" d="M392.1,312.8c0.1,1.1,0.6,2.1,1.3,3c0-0.2,0-0.4,0.1-0.6c0-0.2,0.1-0.4,0.1-0.7c0.4-1.6,1.1-3,2-4.3l0.3-0.5
		l0.1-0.1l0,0l0.1-0.2c8.5-13.1,19.5,5.8,19.8,6.2l0,0c0,0-1.4-19.8-11.9-19.3C395.7,296.6,391.1,306.8,392.1,312.8z"/>
	<path class="st1" d="M393.4,315.8c0.3,0.3,0.6,0.6,1,0.8c5.4,3.4,20.5-0.8,21.5-1l0,0c-14.4,2.8-18.8-2.1-19.9-6l-0.1,0.1l-0.3,0.5
		c-0.9,1.3-1.6,2.8-2,4.3c0,0.2-0.1,0.5-0.1,0.7S393.4,315.5,393.4,315.8z"/>
	<path class="st4" d="M393.4,315.8c0.3,0.3,0.6,0.6,1,0.8c5.4,3.4,20.5-0.8,21.5-1l0,0c-14.4,2.8-18.8-2.1-19.9-6l-0.1,0.1l-0.3,0.5
		c-0.9,1.3-1.6,2.8-2,4.3c0,0.2-0.1,0.5-0.1,0.7S393.4,315.5,393.4,315.8z"/>
	<polygon class="st3" points="444.2,381.4 387.9,381.4 392.6,317.9 438.6,319.9 	"/>
	<polygon class="st5" points="457.2,381.4 439.7,381.4 437.3,319.9 454.1,321.3 	"/>
	<polygon class="st2" points="387.2,317.9 387.2,330.3 437.3,328.8 437.3,314.6 	"/>
	<polygon class="st3" points="456.1,330.3 437.3,328.8 437.3,314.6 457.2,317.9 	"/>
	<polygon class="st1" points="420.2,381.4 408.4,381.4 407.2,316.6 421.1,315.6 	"/>
	<polygon class="st1" points="446.9,381.4 450.9,381.4 450.6,316.8 445,315.9 	"/>
	<path class="st3" d="M395.3,339.1c-0.2,1-0.6,2-1.3,2.8c0-0.2,0-0.4,0-0.6s-0.1-0.4-0.1-0.6c-0.3-1.5-0.9-2.9-1.8-4.1l-0.3-0.4
		l-0.1-0.1l0,0l-0.1-0.2c-7.6-12.5-18.4,4.9-18.7,5.3l0,0c0,0,1.7-18.5,11.6-17.8C392.4,323.8,396.5,333.5,395.3,339.1z"/>
	<path class="st5" d="M394,341.9c-0.3,0.3-0.6,0.5-0.9,0.8c-5.1,3-19.2-1.2-20.1-1.5l0,0c13.4,3,17.7-1.5,18.8-5.2l0.1,0.1l0.3,0.4
		c0.8,1.2,1.4,2.6,1.8,4.1c0,0.2,0.1,0.4,0.1,0.6S394,341.6,394,341.9z"/>
	<path class="st3" d="M351.1,335.9c0,1,0.3,2,0.9,2.9c0-0.2,0.1-0.4,0.1-0.6c0.1-0.2,0.1-0.4,0.2-0.6c0.5-1.4,1.3-2.7,2.3-3.8
		l0.3-0.4l0.1-0.1l0,0l0.2-0.2c9.4-11.3,17.5,7.6,17.7,8l0,0c0,0,1-18.6-8.9-19.3C356.3,321.2,350.8,330.1,351.1,335.9z"/>
	<path class="st5" d="M352,338.8c0.2,0.3,0.5,0.6,0.8,0.9c4.6,3.7,19.2,1.6,20.1,1.5l0,0c-13.7,1-17.3-4.1-17.9-7.9l-0.1,0.1
		l-0.3,0.4c-1,1.1-1.8,2.4-2.3,3.8c-0.1,0.2-0.1,0.4-0.2,0.6C352.1,338.4,352,338.6,352,338.8z"/>
	<polygon class="st1" points="347.4,381.2 399.5,381.2 397.6,344.3 352.6,342.7 	"/>
	<polygon class="st6" points="347.4,381.2 399.5,381.2 397.6,344.3 352.6,342.7 	"/>
	<polygon class="st1" points="336.7,381.2 351.5,381.2 353.8,342.7 338.5,345.5 	"/>
	<polygon class="st1" points="400.2,342.8 400.2,355.7 353.8,354.1 353.8,339.4 	"/>
	<polygon class="st7" points="400.2,342.8 400.2,355.7 353.8,354.1 353.8,339.4 	"/>
	<polygon class="st1" points="336.3,355.7 353.8,354.1 353.8,339.4 335.3,342.8 	"/>
	<polygon class="st8" points="336.3,355.7 353.8,354.1 353.8,339.4 335.3,342.8 	"/>
	<polygon class="st3" points="385.2,341.7 384.8,381.2 372.5,381.2 372.3,340.8 	"/>
	<polygon class="st3" points="346.4,340.8 341.8,341.6 341.8,381.2 345.7,381.2 	"/>
	<path class="st3" d="M102.8,339.1c-0.2,1-0.6,2-1.3,2.8c0-0.2,0-0.4,0-0.6s-0.1-0.4-0.1-0.6c-0.3-1.5-0.9-2.9-1.8-4.1
		c-0.1-0.1-0.2-0.3-0.3-0.4l-0.1-0.1l0,0c0-0.1-0.1-0.1-0.1-0.2c-7.6-12.5-18.4,4.9-18.7,5.3l0,0c0,0,1.8-18.5,11.7-17.8
		C99.8,323.8,103.9,333.5,102.8,339.1z"/>
	<path class="st5" d="M101.5,341.9c-0.3,0.3-0.6,0.5-0.9,0.8c-5.1,3-19.3-1.2-20.1-1.5l0,0c13.4,3,17.7-1.5,18.8-5.2l0.1,0.1
		c0.1,0.1,0.2,0.3,0.3,0.4c0.8,1.2,1.4,2.6,1.8,4.1c0,0.2,0.1,0.4,0.1,0.6C101.5,341.5,101.5,341.6,101.5,341.9z"/>
	<path class="st3" d="M58.6,335.9c0,1,0.3,2,0.8,2.9c0-0.2,0.1-0.4,0.1-0.6s0.1-0.4,0.2-0.6c0.5-1.4,1.3-2.7,2.3-3.8l0.3-0.4
		l0.1-0.1l0,0l0.2-0.2c9.4-11.3,17.5,7.6,17.7,8l0,0c0,0,1-18.6-8.9-19.3C63.8,321.2,58.3,330.1,58.6,335.9z"/>
	<path class="st5" d="M59.5,338.8c0.2,0.3,0.5,0.6,0.8,0.9c4.6,3.7,19.2,1.6,20.1,1.5l0,0c-13.7,1-17.3-4.1-17.9-7.9l-0.1,0.1
		l-0.3,0.4c-1,1.1-1.8,2.4-2.3,3.8c-0.1,0.2-0.1,0.4-0.2,0.6S59.5,338.6,59.5,338.8z"/>
	<polygon class="st1" points="54.8,381.2 107,381.2 105.1,344.3 60,342.7 	"/>
	<polygon class="st6" points="54.8,381.2 107,381.2 105.1,344.3 60,342.7 	"/>
	<polygon class="st1" points="44.2,381.2 59,381.2 61.3,342.7 46,345.5 	"/>
	<polygon class="st1" points="107.7,342.8 107.7,355.7 61.3,354.1 61.3,339.4 	"/>
	<polygon class="st7" points="107.7,342.8 107.7,355.7 61.3,354.1 61.3,339.4 	"/>
	<polygon class="st1" points="43.8,355.7 61.3,354.1 61.3,339.4 42.8,342.8 	"/>
	<polygon class="st8" points="43.8,355.7 61.3,354.1 61.3,339.4 42.8,342.8 	"/>
	<polygon class="st3" points="92.7,341.7 92.3,381.2 80,381.2 79.8,340.8 	"/>
	<polygon class="st3" points="53.9,340.8 49.3,341.6 49.3,381.2 53.2,381.2 	"/>
</g>
<g id="freepik--Floor--inject-2">
	<polygon class="st9" points="41.5,381.3 93.6,381.1 145.7,381 250,380.8 354.3,381 406.4,381.1 458.5,381.3 406.4,381.6 
		354.3,381.7 250,381.8 145.7,381.7 93.6,381.6 	"/>
</g>
<g id="freepik--Shadow--inject-2">
	<ellipse class="st1" cx="250" cy="429.5" rx="172.3" ry="15.9"/>
</g>
<g id="freepik--Plant--inject-2">
	<path class="st9" d="M80.2,289.6c0.2-4.1,0.8-8.2,1.7-12.2c0.7-3.7,2.2-7.2,4.3-10.3c2-2.8,5.1-4.8,8.5-5.3c3.3-0.4,6.5,1.1,9,3.2
		c3.1,2.6,5.5,6,7.7,9.4c2.4,3.7,4.7,7.6,6.6,11.6c0,0.1,0,0.1,0,0.2s-0.1,0-0.2,0c-1.7-3.4-3.7-6.6-5.9-9.7c-2-3-4.3-5.7-6.8-8.3
		c-2.3-2.2-5.2-4.3-8.5-4.4c-3.3,0-6.4,1.6-8.3,4.3c-2.2,2.8-3.3,6.4-4.2,9.9c-0.9,3.8-1.4,7.7-1.7,11.6c-0.7,8-0.8,16.1-1,24.1
		c-0.1,4.5-0.2,9.1-0.2,13.6c0,2.3,0,4.6,0,6.9c0.1,2.2,0,4.5-0.3,6.7c-0.1,0.5-0.8,0.4-0.9,0c-0.3-2.1-0.4-4.2-0.3-6.3
		c0-2.2,0-4.4-0.1-6.5c0-4.2-0.1-8.5-0.1-12.8C79.5,306.7,79.6,298.1,80.2,289.6z"/>
	<path class="st10" d="M91.6,283.5c0.4-2.3,1.2-5.2,2.5-7c2.3-3.2,4.8-1.8,2.5,1.7c-1.7,2.6-2.8,5.5-3.2,8.6c0,0,3.9,5.6,8.6,8.3
		c-0.2-2.1-0.8-5.4-0.4-8.6c0.9-6.9,5.1-6.5,4-1c-0.8,3.6-1.1,7.3-1,11.1c1.6,1,3.2,1.8,5,2.5c-0.3-0.8-0.6-1.8-0.9-2.9
		c-1.7-6.2,2.4-8.1,2.6-4.6c0.3,3,0.8,5.9,1.6,8.8c2.3,0.8,4.1,1.3,5.3,1.7c3,1.1,5.6,2.9,7.7,5.3c2.1-1.9,3.9-4.2,5.3-6.8
		c-1.4-1.2-3.7-3.1-6.9-5.3c-5.9-4.2-3.9-9.5,0.8-6.2c3.4,2.4,6,6.8,7.2,9c1.6-3.9,2.5-8.1,2.7-12.3c-4.6-4.4-16.2-10.4-12.7-10.4
		c3.1,0,10.1,4.6,12.7,6.3c-0.1-1.2-0.2-2.4-0.4-3.6c-4.4-2.9-18.6-7.3-16.3-8.6c2.5-1.4,12.4,3.2,15.4,4.6
		c-0.6-1.9-1.5-3.8-2.6-5.4c-6.1-8.1-17-10.9-21.7-9.4c-3.4,1.1-2.4,9.6-3.1,9.4C92.8,263.1,86.7,267,91.6,283.5z M124.8,282.6
		c1-1.2,5.4,2.2,4.1,4.1S123.6,284.1,124.8,282.6z M101.6,275.3c1.2,0.8-0.6,5.1-2.4,3.8C97.7,278,100.4,274.6,101.6,275.3
		L101.6,275.3z"/>
	<path class="st8" d="M91.6,283.5c0.4-2.3,1.2-5.2,2.5-7c2.3-3.2,4.8-1.8,2.5,1.7c-1.7,2.6-2.8,5.5-3.2,8.6c0,0,3.9,5.6,8.6,8.3
		c-0.2-2.1-0.8-5.4-0.4-8.6c0.9-6.9,5.1-6.5,4-1c-0.8,3.6-1.1,7.3-1,11.1c1.6,1,3.2,1.8,5,2.5c-0.3-0.8-0.6-1.8-0.9-2.9
		c-1.7-6.2,2.4-8.1,2.6-4.6c0.3,3,0.8,5.9,1.6,8.8c2.3,0.8,4.1,1.3,5.3,1.7c3,1.1,5.6,2.9,7.7,5.3c2.1-1.9,3.9-4.2,5.3-6.8
		c-1.4-1.2-3.7-3.1-6.9-5.3c-5.9-4.2-3.9-9.5,0.8-6.2c3.4,2.4,6,6.8,7.2,9c1.6-3.9,2.5-8.1,2.7-12.3c-4.6-4.4-16.2-10.4-12.7-10.4
		c3.1,0,10.1,4.6,12.7,6.3c-0.1-1.2-0.2-2.4-0.4-3.6c-4.4-2.9-18.6-7.3-16.3-8.6c2.5-1.4,12.4,3.2,15.4,4.6
		c-0.6-1.9-1.5-3.8-2.6-5.4c-6.1-8.1-17-10.9-21.7-9.4c-3.4,1.1-2.4,9.6-3.1,9.4C92.8,263.1,86.7,267,91.6,283.5z M124.8,282.6
		c1-1.2,5.4,2.2,4.1,4.1S123.6,284.1,124.8,282.6z M101.6,275.3c1.2,0.8-0.6,5.1-2.4,3.8C97.7,278,100.4,274.6,101.6,275.3
		L101.6,275.3z"/>
	<path class="st9" d="M103.4,276.6c0.6-1.2,1.2-2.4,1.9-3.6c0.6-1.2,1.4-2.2,2.2-3.2c-0.2-0.2-0.4-0.5-0.6-0.7s0.1-0.2,0.1-0.1
		c0.2,0.3,0.4,0.5,0.7,0.8l0.1,0.1c0.8,1,1.6,2,2.4,3.1c1.3,0.3,2.6,0.7,3.9,1.1c1.3,0.5,2.6,0.9,3.9,1.5c0.1,0.1,0.1,0.3-0.1,0.2
		c-1.3-0.6-2.6-1.1-3.9-1.6s-2.5-0.8-3.8-1.1c0.4,0.6,0.8,1.2,1.2,1.8c2.4,0.8,4.7,1.7,6.9,2.8c2.3,1.1,4.6,2.4,6.8,3.7
		c0.1,0.1,0,0.3-0.1,0.2c-2.2-1.3-4.5-2.5-6.8-3.5c-2.2-1-4.4-1.9-6.6-2.8c5.5,8.6,8.8,18.6,13.3,27.8c0.1,0.1-0.2,0.2-0.2,0.1
		c-1.4-3.2-2.9-6.4-4.4-9.6c-1.3-2.9-2.6-5.7-3.9-8.6c-0.4-0.8-0.8-1.7-1.2-2.5c0.2,4.6,0.1,9.3,0.9,13.8c0,0.1,0,0.1-0.1,0.1
		s-0.1,0-0.1-0.1c-0.3-4.9-1.2-9.8-1.2-14.7c0,0,0,0,0-0.1c-0.9-1.9-1.9-3.7-3-5.5c-1.8,4.3-3.8,8.7-4.6,13.3c0,0.1-0.3,0.1-0.2-0.1
		c1.2-4.6,2.4-9.3,4.6-13.6c-1.2-2-2.5-3.8-3.9-5.6c-0.6,1.1-1.4,2.2-2.1,3.3s-1.4,2.1-2,3.2c-1.4,2.3-2.5,4.8-3.4,7.3
		c0,0.1-0.3,0.1-0.2-0.1C101.1,281.5,102.2,279,103.4,276.6z"/>
	<path class="st9" d="M59.8,287.1c3.5-3.6,7.7-8.2,13.1-8.2c5.3,0,9.2,4.3,11.4,8.7c2.3,4.6,3.2,9.8,3.8,14.9
		c0.8,6.1,1.2,12.2,1.4,18.3c0.1,3.4,0.1,6.8,0,10.2c0,3.4-0.3,6.9-0.8,10.3c-0.1,0.5-1,0.6-1,0c-0.2-2.9,0-5.7,0-8.6s0-5.6-0.1-8.4
		c-0.2-5.7-0.6-11.4-1.3-17c-0.6-4.9-1.1-10-2.5-14.8c-1.3-4.3-3.8-9.2-8.2-11.1c-6-2.6-11.8,2.1-15.7,6.1
		C59.9,287.4,59.7,287.2,59.8,287.1z"/>
	<path class="st10" d="M41.7,295.1L41.7,295.1c0,0.7,0.1,1.5,0.1,2.1c1.7-1.3,3.7-2.1,5.8-2.4c5-0.5,4.7,3.3,1.3,3.5
		c-2.4,0-4.7,0.5-6.9,1.4c0.8,6.6,2.6,12,2.9,12c4.5-0.2,8.9-0.8,13.3-1.7c-1.2-2.7-4.1-6.2-2.7-6.5s3,2.9,3.8,6.2
		c3.3-0.6,6.5-1.5,9.7-2.7c-2.2-1.9-5.6-4.3-4.3-5.3s4,2.3,5.7,4.8c1.5-0.6,2.9-1.4,4.2-2.3c-3-4.4-10.2-5.3-9.3-8.4
		s7.8,1.2,10.8,7.1c3.6-3.7,4.6-9,4.3-13.5c-3.1-0.4-9.1,0.3-8.7-2s4.8-1.8,8.3-0.5c-0.3-1.8-1-3.5-2.1-4.9
		c-3.3-4.2-13.3,1.1-13.3,1.1s1.1-10.1-2.8-11.8c-2.2-1-6.1-1-10,1.3c2.2,0.2,4.8,0.9,5.9,2.4c1.4,1.9-0.8,3-2.2,2.1
		c-1-0.6-2.8-2.6-6-2.9c-1.4,1.2-2.6,2.5-3.6,4c-0.4,0.6-0.7,1.1-1,1.7c3.8-1.7,8.1-1.6,11.8,0.2c4.3,2.2,1.9,6.7-1.8,4.9
		s-7.3-3.5-11.3-2.5c-1.4,3.6-2.1,7.4-1.9,11.3c1.9-1.4,4.1-2.5,6.5-3.1c4.3-1.1,5.6,1.5,0.9,1.9C46.5,293,44,293.8,41.7,295.1z
		 M47,288.1c-0.3-1.4,2.8-1.8,3.3-0.7C50.7,288.4,47.3,289.5,47,288.1z M73.3,295.9c0.3-0.8,2.3,0.1,2.2,1.1
		C75.2,298.2,73,296.7,73.3,295.9L73.3,295.9z M58.8,300.8c1.5-0.6,3.8,3.1,2.2,4S57.5,301.3,58.8,300.8L58.8,300.8z"/>
	<path class="st9" d="M45.6,311c2.2-3.8,4.5-7.6,6.8-11.3c1.1-1.7,2.3-3.4,3.5-5.1c-0.2,0-0.4-0.1-0.5-0.1l-0.9-0.2
		c-0.7-0.1-1.4-0.2-2.1-0.3s-1.3-0.1-2-0.1s-1.4,0-2.1,0.1h-0.1v-0.1l0,0c0.7,0,1.4-0.1,2.1-0.1s1.4,0,2.1,0c0.6,0,1.3,0.1,1.9,0.2
		l1,0.2c0.2,0,0.4,0.1,0.6,0.1c1.2-1.7,2.5-3.3,3.8-4.9c-3.9-1.9-8.1-3.2-12.4-3.9c-0.1,0,0-0.1,0-0.1c4.4,0.6,8.6,1.9,12.5,3.8
		c0.7-0.9,1.5-1.8,2.2-2.6s1.7-1.9,2.4-3c0-0.1,0.2,0,0.1,0.1c-1,1.1-2,2.3-2.9,3.5l0,0c1.6,1.1,3.1,2.4,4.6,3.7
		c1.5,1.3,3,2.7,4.4,4.1c0.1,0,0,0.1-0.1,0.1c-1.4-1.4-2.9-2.7-4.4-4s-3.1-2.4-4.7-3.7l0,0l-1,1.4l-0.5,0.7l0,0
		c-0.6,0.8-1.2,1.5-1.8,2.3c0.7,1,1.3,2,1.7,3.1c0.5,1.1,1,2.2,1.3,3.3c0.8,2.3,1.4,4.7,1.9,7.1v0.1h-0.1l0,0
		c-0.5-2.4-1.1-4.7-2-6.9c-0.4-1.2-0.9-2.3-1.5-3.4s-1-2-1.5-3c-0.5,0.7-1,1.4-1.5,2l-0.4,0.6v0.1l0,0l0,0c-1.5,2.2-3,4.4-4.5,6.6
		c0.1,0.2,0.2,0.3,0.2,0.5c0.1,0.3,0.2,0.5,0.3,0.8c0.2,0.6,0.3,1.1,0.4,1.7c0.1,0.5,0.2,1.1,0.2,1.6c0,0.6,0.1,1.2,0.1,1.8
		c0,0.1-0.1,0.1-0.1,0c0-0.6,0-1.1-0.1-1.7s-0.2-1.2-0.3-1.7s-0.3-1-0.4-1.5c-0.1-0.3-0.2-0.5-0.2-0.8l-0.2-0.4
		c-0.7,1-1.3,2.1-2,3.2c-1.3,2.1-2.6,4.2-3.9,6.3C45.7,311.1,45.5,311,45.6,311z"/>
	<path class="st9" d="M80.4,339.9c0.1-2.1,0.4-4.3,0.6-6.4s0.5-4.3,0.7-6.4c0.3-4.2,0.8-8.3,1.7-12.4c0.7-3.5,2.5-6.7,5-9.2
		c1.3-1.3,3.1-2.2,4.9-2.4c1.9-0.1,3.7,0.5,5.2,1.6c1.7,1.3,3.2,2.8,4.4,4.6c1.3,1.8,2.4,3.6,3.4,5.6c0,0.1-0.1,0.1-0.1,0
		c-1.9-3.2-4.4-6.1-7.4-8.3c-1.3-1.1-3-1.8-4.7-2c-1.7,0-3.3,0.6-4.5,1.8c-2.4,2.3-4.1,5.2-4.8,8.5c-0.9,3.8-1.5,7.6-1.8,11.4
		c-0.3,2.3-0.6,4.5-0.9,6.8s-0.5,4.6-1,6.8c-0.1,0.2-0.3,0.3-0.5,0.2C80.5,340.1,80.4,340,80.4,339.9z"/>
	<path class="st10" d="M90.9,323.3c0.7,0.9,1.4,1.7,2.3,2.4c-0.3-2.1-0.8-5.8,0.3-7.8c1.6-3.1,3.6-1.5,2.6,1.1c-1,2.4-1.5,5-1.6,7.5
		c2.2,1.4,4.6,2.5,7.1,3.4c-0.3-1.2-0.3-2.4-0.2-3.6c0.3-3.3,2.8-3.2,2.2,0.2c-0.2,1.3-0.4,2.7-0.3,4c3.6,1.1,7.3,2,11.1,2.5
		c1.9-2.5,3.5-5.2,4.6-8.1c-2.7-0.7-8.1-0.8-8-2.7c0.2-2.6,5.4-0.6,8.4,1.3c0.7-2.2,1-4.6,0.9-6.9c-2.4-0.7-4.9-1.1-7.4-1.2
		c-5.5-0.5-5.2-3.6-1.2-3.5c2.9,0,6.7,1.9,8.4,2.8c-1.2-7.5-6.8-12.3-11.4-12.4c-7.7-0.3-4.9,9.2-4.9,9.2s-5.2-3.7-10.1-3.6
		S85.7,316,90.9,323.3z M111.4,309.5c-0.2-1.1,3.3-1.3,3.4,0C115.1,311.1,111.6,310.6,111.4,309.5z M117,320.7
		c-0.1-0.7,1.4-0.8,1.7,0.1C118.9,321.3,117,321.4,117,320.7z M98.6,321.4c1.2,0.2,1.8,4.3-0.2,4.2
		C96.8,325.5,97.5,321.2,98.6,321.4L98.6,321.4z"/>
	<path class="st8" d="M90.9,323.3c0.7,0.9,1.4,1.7,2.3,2.4c-0.3-2.1-0.8-5.8,0.3-7.8c1.6-3.1,3.6-1.5,2.6,1.1c-1,2.4-1.5,5-1.6,7.5
		c2.2,1.4,4.6,2.5,7.1,3.4c-0.3-1.2-0.3-2.4-0.2-3.6c0.3-3.3,2.8-3.2,2.2,0.2c-0.2,1.3-0.4,2.7-0.3,4c3.6,1.1,7.3,2,11.1,2.5
		c1.9-2.5,3.5-5.2,4.6-8.1c-2.7-0.7-8.1-0.8-8-2.7c0.2-2.6,5.4-0.6,8.4,1.3c0.7-2.2,1-4.6,0.9-6.9c-2.4-0.7-4.9-1.1-7.4-1.2
		c-5.5-0.5-5.2-3.6-1.2-3.5c2.9,0,6.7,1.9,8.4,2.8c-1.2-7.5-6.8-12.3-11.4-12.4c-7.7-0.3-4.9,9.2-4.9,9.2s-5.2-3.7-10.1-3.6
		S85.7,316,90.9,323.3z M111.4,309.5c-0.2-1.1,3.3-1.3,3.4,0C115.1,311.1,111.6,310.6,111.4,309.5z M117,320.7
		c-0.1-0.7,1.4-0.8,1.7,0.1C118.9,321.3,117,321.4,117,320.7z M98.6,321.4c1.2,0.2,1.8,4.3-0.2,4.2
		C96.8,325.5,97.5,321.2,98.6,321.4L98.6,321.4z"/>
	<path class="st9" d="M100.1,326c0.2-0.5,0.4-1,0.5-1.6C100.4,324.9,100.3,325.5,100.1,326C100.2,326.1,100.1,326.1,100.1,326z"/>
	<path class="st9" d="M102.1,319.3c0.4-1.1,0.8-2.1,1.2-3.1c0.2-0.6,0.4-1.1,0.7-1.7c0.2-0.5,0.4-0.9,0.7-1.4
		c-0.2-0.4-0.4-0.9-0.6-1.3c0,0,0-0.1,0.1,0c0.6,0.7,1.1,1.5,1.5,2.3c0.2,0.4,0.4,0.7,0.6,1.1c0.4,0,0.9,0.1,1.3,0.2l1.4,0.3
		l1.4,0.3c0.5,0.1,0.9,0.3,1.4,0.3c0.1,0,0.1,0.2,0,0.1c-0.5-0.2-1-0.3-1.4-0.4s-0.9-0.2-1.3-0.2s-0.9-0.1-1.3-0.2l-1-0.1
		c0.2,0.3,0.4,0.6,0.6,1c0,0.1,0,0.1,0.1,0.1c0.4,0,0.7,0,1.1,0.1l1.2,0.2c0.8,0.2,1.6,0.4,2.4,0.6c1.7,0.5,3.3,1,4.9,1.5
		c0.1,0,0,0.2-0.1,0.1c-1.6-0.5-3.3-1-5-1.4l-2.4-0.5l-1.2-0.2c-0.3,0-0.6-0.1-0.9-0.2c0.8,1.6,1.6,3.1,2.4,4.8
		c1.6,3.5,2.9,7.1,4.3,10.8c0,0.1-0.1,0.1-0.1,0.1c-1.3-3.6-2.9-7.2-4.6-10.6c-0.3-0.6-0.6-1.2-0.9-1.9c0,0.1-0.1,0.2-0.1,0.4
		c-0.1,0.4-0.2,0.9-0.2,1.3c-0.1,0.9-0.3,1.7-0.4,2.6c-0.4,1.8-0.6,3.5-0.6,5.3c0,0.1-0.2,0.1-0.2,0c0.1-0.9,0.2-1.7,0.2-2.6
		c0.1-0.9,0.1-1.8,0.2-2.7s0.2-1.7,0.3-2.6c0.1-0.4,0.2-0.9,0.2-1.3c0-0.3,0.1-0.6,0.2-0.9l-1.3-2.7c-0.4-0.9-0.9-1.7-1.3-2.5
		l-0.6-1.1c-0.1,0.4-0.3,0.9-0.5,1.3l-0.6,1.5c-0.4,1.1-0.8,2.1-1.3,3.2c-0.6,1.5-1.2,3.1-1.7,4.7
		C101.2,322.5,101.6,320.9,102.1,319.3z"/>
	<path class="st9" d="M100.6,324.4c0-0.1,0.1-0.2,0.1-0.4C100.7,324.1,100.7,324.3,100.6,324.4z"/>
	<polygon class="st11" points="67.6,335.8 68.1,347.2 69.5,376.7 99.9,376.7 101.3,347.2 101.8,335.8 	"/>
	<polygon class="st9" points="67.6,335.8 68.1,347.2 101.3,347.2 101.8,335.8 	"/>
	<rect x="65.4" y="331.1" class="st11" width="38.6" height="9.2"/>
	<rect x="92.1" y="376.7" class="st11" width="5.3" height="4.8"/>
	<rect x="92.1" y="376.7" class="st9" width="5.3" height="2.4"/>
	<rect x="71.9" y="376.7" class="st11" width="5.3" height="4.8"/>
	<rect x="71.9" y="376.7" class="st9" width="5.3" height="2.4"/>
</g>
<g id="freepik--label-2--inject-2">
	<path class="st9" d="M270.1,133.6l-0.3,0.4c-0.4,0.5-10,13.3-16.4,11.9c-2-0.4-3.2-1.5-3.2-3c-0.1-2.9,3.8-6.5,8.6-7.9
		c3.6-0.9,7.2-1.4,10.9-1.4H270.1z M251.4,140.6c-0.5,0.7-0.7,1.5-0.8,2.3c0,1.3,1,2.1,2.8,2.5c5.4,1.2,13.8-9,15.6-11.3
		c-3.4,0-6.9,0.5-10.2,1.4C255.9,136.3,253.3,138.1,251.4,140.6L251.4,140.6z"/>
	<path class="st12" d="M306.1,75.6c-0.6-0.7-1.7-0.7-2.4-0.1l0,0l-41.3,37.8c-0.4,0.4-0.6,0.9-0.5,1.4l1.3,16.6v0.2v0.4v0.2l0.5,6.3
		c0.1,0.8,0.6,1.4,1.4,1.5l6.3,1.1l0.6,0.1l16.7,2.8c0.5,0.1,1.1-0.1,1.4-0.4l41.3-37.8c0.7-0.6,0.7-1.7,0.1-2.4l0,0L306.1,75.6z"/>
	<path class="st1" d="M306.1,75.6c-0.4-0.4-0.9-0.6-1.5-0.5c-0.3,0-0.5,0.1-0.8,0.3c-0.2,0.2-0.4,0.4-0.6,0.5l-2.4,2.2l-4.8,4.4
		l-9.6,8.8l-19.1,17.6l-4.8,4.4c-0.4,0.3-0.6,0.8-0.6,1.3l0.1,1.6l0.3,3.2l1.1,13l0.3,3.2l0.1,1.6l0.1,0.8v0.4c0,0.1,0,0.2,0.1,0.3
		c0.2,0.5,0.5,0.8,1,0.9c0.5,0.1,1,0.2,1.6,0.3l3.2,0.5l12.8,2.1l3.2,0.6l1.6,0.3l0.8,0.1l0.4,0.1c0.1,0,0.2,0,0.4,0
		c0.2,0,0.5-0.1,0.7-0.2c0.1-0.1,0.2-0.1,0.3-0.2l0.3-0.3l1.2-1.1l2.4-2.2l9.6-8.8l19.2-17.5l4.8-4.4l2.4-2.2l1.2-1.1
		c0.2-0.2,0.4-0.4,0.5-0.6s0.2-0.5,0.2-0.7c0-0.3,0-0.5-0.1-0.8c-0.1-0.2-0.3-0.4-0.5-0.6l-1.1-1.2l-2.2-2.4l-4.4-4.8L306.1,75.6z
		 M306.1,75.6l17.6,19.1l4.4,4.8l2.2,2.4l1.1,1.2c0.2,0.2,0.4,0.4,0.5,0.7c0.1,0.3,0.2,0.6,0.2,0.8c0,0.3-0.1,0.6-0.2,0.8
		c-0.1,0.2-0.3,0.5-0.6,0.6l-1.2,1.1l-2.4,2.2l-4.8,4.4l-19.1,17.6l-9.6,8.8l-2.4,2.2l-1.2,1.1l-0.3,0.3c-0.1,0.1-0.2,0.2-0.4,0.3
		c-0.3,0.2-0.6,0.2-0.9,0.3c-0.1,0-0.3,0-0.5,0l-0.4-0.1l-0.8-0.1l-1.6-0.3l-3.2-0.5l-12.8-2.3l-3.2-0.6c-0.5-0.1-1-0.2-1.6-0.3
		c-0.6-0.2-1.1-0.6-1.3-1.2c0-0.1-0.1-0.3-0.1-0.4v-0.4l-0.1-0.8l-0.1-1.6l-0.2-3.2l-1-12.9l-0.2-3.2l-0.1-1.6
		c0-0.6,0.3-1.2,0.7-1.5l4.8-4.4l19.2-17.5l9.5-8.7l4.8-4.4l2.4-2.2c0.2-0.2,0.4-0.4,0.6-0.5c0.2-0.2,0.5-0.3,0.8-0.3
		C305.1,75,305.7,75.2,306.1,75.6z"/>
	<path class="st12" d="M268.9,132.2c0.1-0.2,0.2-0.3,0.4-0.5l0,0l0,0c1-0.7,2.4-0.5,3.1,0.5c0.6,0.9,0.6,2-0.1,2.8l0,0
		c-0.1,0.1-0.2,0.2-0.3,0.2l-0.2,0.1c-1.1,0.5-2.5,0-3-1.1C268.5,133.7,268.5,132.9,268.9,132.2L268.9,132.2z"/>
	<path class="st1" d="M268.9,132.2c0.1-0.2,0.2-0.3,0.4-0.5l0,0l0,0l0,0c0.4-0.4,1-0.6,1.6-0.6s1.2,0.2,1.7,0.7
		c0.9,0.9,0.9,2.5,0,3.4l-0.1,0.1l0,0l-0.2,0.1l-0.2,0.1l0,0c-0.5,0.3-1,0.4-1.6,0.3c-0.5-0.1-1-0.4-1.4-0.8
		C268.5,134.3,268.4,133.1,268.9,132.2z M268.9,132.2c-0.3,0.4-0.3,0.9-0.3,1.4c0.2,1,1,1.7,1.9,1.8c0.4,0,0.9-0.1,1.3-0.3l0,0
		l0.2-0.1l0.2-0.1l0,0c0.4-0.4,0.6-0.9,0.6-1.4s-0.1-1.1-0.5-1.5s-0.9-0.7-1.4-0.8c-0.6-0.1-1.2,0.1-1.6,0.5l0,0l0,0l0,0
		C269.2,131.9,269,132,268.9,132.2z"/>
	<path class="st9" d="M303.2,79.1l-38,34.8c-0.4,0.4-0.6,0.9-0.6,1.4l0.9,16v0.5l0.3,4.8c0,0.8,0.6,1.4,1.4,1.5l21.1,3.1
		c0.5,0.1,1-0.1,1.4-0.4l38-34.8c0.7-0.6,0.8-1.7,0.2-2.4l-22.4-24.4C305,78.5,303.9,78.4,303.2,79.1
		C303.3,79.1,303.3,79.1,303.2,79.1z M305.4,79.3l22.3,24.4c0.5,0.6,0.5,1.4-0.1,1.9c0,0,0,0-0.1,0.1l-38,34.8
		c-0.3,0.3-0.7,0.4-1.2,0.4l-21.1-3.1c-0.3,0-0.6-0.2-0.8-0.4c-0.2-0.2-0.3-0.5-0.3-0.8l-0.3-4.8v-0.5l-0.9-16
		c0-0.4,0.2-0.8,0.5-1.1l38-34.8C304,78.8,304.9,78.8,305.4,79.3z"/>
</g>
<g id="freepik--label-1--inject-2">
	<path class="st9" d="M171,265.3c4.6,0,9.1,0.6,13.5,1.7c5.9,1.7,10.7,6.1,10.6,9.8c-0.1,1.9-1.5,3.2-4,3.8
		c-7.9,1.7-19.9-14-20.4-14.7l-0.4-0.5L171,265.3z M184.3,267.7c-4.1-1.1-8.4-1.7-12.7-1.7c2.2,2.8,12.6,15.4,19.3,14
		c2.2-0.5,3.4-1.6,3.5-3.1c0-1-0.4-2-0.9-2.9C191.2,270.9,188,268.6,184.3,267.7L184.3,267.7z"/>
	<path class="st12" d="M125.8,193.5c0.8-0.9,2.1-0.9,3-0.2l0,0l51.2,46.8c0.5,0.4,0.7,1.1,0.7,1.7l-1.6,20.6v0.3l-0.1,0.5v0.2
		l-0.6,7.8c-0.1,1-0.8,1.7-1.7,1.9l-7.8,1.3l-0.7,0.1l-20.6,3.5c-0.6,0.1-1.3-0.1-1.8-0.5l-51.2-46.8c-0.9-0.8-0.9-2.1-0.1-3l0,0
		L125.8,193.5z"/>
	<path class="st1" d="M104.1,217.3l-5.4,5.9l-2.7,3l-1.3,1.5c-0.2,0.2-0.4,0.5-0.6,0.8c-0.1,0.3-0.2,0.6-0.2,0.9
		c0,0.3,0.1,0.6,0.3,0.9c0.2,0.3,0.4,0.5,0.7,0.7l1.5,1.4l3,2.7l6,5.4l23.7,21.7l12,10.8l3,2.7l1.5,1.4l0.4,0.3
		c0.1,0.1,0.2,0.2,0.4,0.3c0.2,0.1,0.5,0.2,0.8,0.2c0.1,0,0.3,0,0.4,0l0.5-0.1l1-0.2l2-0.3l4-0.7l15.9-2.7l4-0.7
		c0.6-0.1,1.4-0.2,2-0.3c0.6-0.2,1-0.6,1.2-1.1c0-0.1,0.1-0.3,0.1-0.4v-0.5l0.1-1l0.2-2l0.3-4l1.3-16l0.3-4l0.2-2
		c0-0.6-0.3-1.2-0.8-1.6l-5.9-5.4l-24-22L138.2,202l-5.9-5.4l-3-2.7c-0.2-0.2-0.5-0.5-0.8-0.7s-0.6-0.3-0.9-0.4
		c-0.7-0.1-1.4,0.2-1.8,0.7L104.1,217.3z M127.6,192.8c0.3,0,0.7,0.2,0.9,0.4c0.3,0.2,0.5,0.4,0.8,0.7l3,2.7l6,5.4l11.9,10.8
		l23.8,21.7l6,5.4c0.6,0.5,0.9,1.2,0.9,1.9l-0.1,2l-0.3,4l-1.3,16.1l-0.3,4l-0.2,2l-0.1,1v0.5c0,0.2-0.1,0.4-0.1,0.5
		c-0.3,0.7-0.8,1.3-1.6,1.5c-0.7,0.1-1.3,0.2-2,0.4l-4,0.7l-15.9,2.7l-4,0.7l-2,0.3l-1,0.2l-0.5,0.1c-0.2,0-0.4,0-0.6,0
		c-0.4,0-0.8-0.1-1.1-0.3c-0.2-0.1-0.3-0.2-0.4-0.3l-0.4-0.3l-1.5-1.4l-3-2.7l-11.9-10.9L105,240.7l-5.9-5.4l-3-2.7l-1.5-1.4
		c-0.3-0.2-0.5-0.5-0.7-0.8s-0.3-0.6-0.3-1c0-0.3,0.1-0.7,0.2-1c0.2-0.3,0.4-0.6,0.6-0.8l1.4-1.5l2.7-3l5.5-5.9l21.8-23.7
		C126.2,193,126.9,192.7,127.6,192.8z"/>
	<path class="st12" d="M171.8,263.6c-0.1-0.2-0.3-0.4-0.5-0.6l0,0l0,0c-1.1-1-2.9-1-3.9,0.2s-1,2.9,0.2,3.9l0,0
		c0.1,0.1,0.3,0.2,0.4,0.3c0.1,0.1,0.2,0.1,0.3,0.1c1.4,0.7,3,0.1,3.7-1.3C172.4,265.3,172.3,264.3,171.8,263.6L171.8,263.6z"/>
	<path class="st1" d="M171.5,267c-0.4,0.5-1,0.8-1.7,0.9s-1.4,0-2-0.3l0,0l-0.3-0.2l-0.2-0.2l0,0l0,0c-0.6-0.5-1-1.3-1-2.1
		c0-0.8,0.3-1.6,0.9-2.1c0.6-0.6,1.3-0.9,2.1-0.9c0.7,0,1.5,0.3,2,0.8l0,0h0.1l0,0c0.2,0.2,0.3,0.4,0.4,0.6
		C172.4,264.7,172.3,266.1,171.5,267z M171.3,263L171.3,263L171.3,263L171.3,263c-0.6-0.5-1.3-0.8-2.1-0.7c-0.7,0.1-1.3,0.4-1.8,1
		c-0.4,0.5-0.6,1.2-0.6,1.9c0.1,0.7,0.3,1.3,0.8,1.7l0,0l0.2,0.2l0.2,0.1l0,0c1,0.6,2.3,0.5,3.1-0.3c0.4-0.4,0.7-0.9,0.8-1.5
		s0-1.2-0.3-1.8C171.7,263.4,171.5,263.2,171.3,263z"/>
	<path class="st9" d="M126.3,197.8L98.7,228c-0.8,0.9-0.7,2.2,0.2,2.9L146,274c0.5,0.4,1.1,0.6,1.8,0.5l26.1-3.9
		c0.9-0.1,1.6-0.9,1.7-1.9l0.4-6v-0.6l1.1-19.8c0-0.6-0.2-1.3-0.7-1.7l-47.1-43.1C128.4,196.9,127.1,197,126.3,197.8z M129,198
		l47.1,43.1c0.4,0.4,0.6,0.9,0.6,1.4l-1.1,19.8v0.6l-0.3,6c0,0.4-0.2,0.7-0.4,1c-0.3,0.3-0.6,0.5-1,0.5l-26.1,3.9
		c-0.5,0.1-1.1-0.1-1.5-0.5l-47-43.1c-0.7-0.6-0.8-1.7-0.2-2.4l27.7-30.2C127.3,197.4,128.3,197.4,129,198z"/>
</g>
<g id="freepik--label-text-2--inject-2">
	<path class="st13" d="M286.8,122.2c1.8,2.1,1.5,5.2-0.6,7c-1.8,1.6-4.5,1.6-6.4,0l0,0c-0.3-0.3-0.5-0.5-0.8-0.8
		c-1-1-1.7-2.2-2.3-3.6c-0.6-1.4-0.7-2.9-0.4-4.3c0.3-1.1,0.8-2,1.6-2.8c0.4-0.4,1.2-0.4,1.6,0l0,0c0.4,0.5,0.4,1.2,0,1.6
		c-0.5,0.5-0.8,1.1-1,1.7c-0.1,0.6-0.1,1.3,0,1.9c0,0.2,0.1,0.4,0.2,0.6c0.3-0.6,0.7-1.2,1.2-1.6
		C281.9,120.1,284.9,120.3,286.8,122.2z M285.1,123.8c-1-1.1-2.7-1.2-3.8-0.2c-1.1,1-1.2,2.7-0.2,3.8l0,0c1,1.1,2.7,1.2,3.8,0.2
		C286,126.5,286.1,124.8,285.1,123.8z"/>
	<path class="st13" d="M287.6,118.5c-1.2-1.3-2-2.8-2.3-4.5c-0.6-2.3,0.8-4.6,3.1-5.2c0.8-0.2,1.7-0.2,2.5,0.1
		c3.3,1,5.9,3.7,6.6,7.2c0.6,2.3-0.8,4.6-3.1,5.2c-0.8,0.2-1.7,0.2-2.5-0.1C290.3,120.7,288.8,119.7,287.6,118.5z M293.5,113
		c-0.8-1-1.9-1.6-3.2-2c-0.8-0.3-1.6-0.1-2.2,0.4c-0.6,0.6-0.8,1.4-0.6,2.2c0.3,1.3,0.9,2.4,1.7,3.3c0.8,1,1.9,1.6,3.1,2
		c0.8,0.3,1.6,0.1,2.3-0.4c0.5-0.6,0.7-1.4,0.5-2.2C295,115.1,294.4,113.9,293.5,113L293.5,113z"/>
	<path class="st13" d="M295.7,106.2L295.7,106.2c-1.4-1.3-1.4-3.5-0.2-4.8c0-0.1,0.1-0.1,0.2-0.2c1.4-1.2,3.5-1.1,4.8,0.3l0.1,0.1
		l0,0c1.4,1.3,1.5,3.4,0.2,4.8s-3.4,1.5-4.8,0.2C295.9,106.5,295.8,106.3,295.7,106.2L295.7,106.2z M299.3,102.9L299.3,102.9
		c-0.6-0.8-1.7-1-2.5-0.5l0,0c-0.7,0.6-0.5,1.7,0.2,2.5l0,0c0.6,0.8,1.7,1,2.6,0.5l0,0C300.3,104.8,300,103.7,299.3,102.9z
		 M303.8,111.6l-1.7-15.7c-0.1-0.3,0-0.6,0.3-0.7c0.3-0.3,0.8-0.3,1.1,0c0.1,0.1,0.2,0.3,0.2,0.5l1.7,15.7c0,0.3-0.1,0.6-0.3,0.8
		c-0.3,0.3-0.8,0.3-1.1,0l0,0C303.9,112,303.9,111.8,303.8,111.6z M307,105.8L307,105.8c-1.3-1.3-1.4-3.4-0.1-4.8
		c1.3-1.3,3.4-1.4,4.8-0.1c0.1,0.1,0.2,0.2,0.3,0.3l0,0c1.4,1.3,1.4,3.5,0.1,4.9l-0.1,0.1c-1.4,1.2-3.6,1.1-4.8-0.3
		C307.1,105.8,307,105.8,307,105.8L307,105.8z M310.6,102.4L310.6,102.4c-0.6-0.8-1.7-1-2.5-0.5l0,0c-0.7,0.6-0.5,1.7,0.2,2.5l0,0
		c0.6,0.8,1.7,1,2.6,0.5l0,0C311.5,104.3,311.3,103.2,310.6,102.4L310.6,102.4z"/>
</g>
<g id="freepik--label-text-1--inject-2">
	<path class="st11" d="M128.3,226.7c0.1,1.7-0.5,3.3-1.7,4.6c-1.2,1.2-2.7,1.9-4.4,2c-1.7,0.1-3.3-0.5-4.6-1.7l0,0
		c-1.2-1.1-2-2.7-2-4.4c-0.1-0.8,0.5-1.5,1.3-1.5h0.1c0.8,0,1.5,0.6,1.5,1.4l0,0c0.1,1.9,1.6,3.4,3.5,3.3c0,0,0,0,0.1,0
		c0.9,0,1.8-0.4,2.4-1.1c0.6-0.7,1-1.6,0.9-2.5c0-0.9-0.4-1.8-1.1-2.4c-0.7-0.6-1.6-1-2.5-0.9c-0.8,0-1.5-0.6-1.5-1.4
		c0-0.1,0-0.3,0-0.4s0-0.1,0-0.1v-0.1c0-0.1,0.1-0.1,0.1-0.1s0,0,0-0.1c0.1-0.1,0.2-0.2,0.3-0.3l5.1-4.4c0.3-0.3,0.8-0.4,1.2-0.3
		h0.1h0.1c0.2,0.1,0.4,0.2,0.6,0.3l5.6,5.1c0.6,0.6,0.6,1.5,0.1,2.1c-0.6,0.6-1.5,0.6-2.1,0.1l-4.7-4.3l-1.9,1.7
		c0.5,0.3,1,0.6,1.4,1C127.4,223.4,128.2,225,128.3,226.7z"/>
	<path class="st11" d="M131.4,232.3c1.4-1.6,3.3-2.8,5.4-3.3c2.8-1,5.9,0.5,6.9,3.3c0.3,1,0.4,2.1,0.1,3.1c-0.4,2.1-1.4,4.1-2.9,5.7
		c-1.4,1.6-3.3,2.8-5.4,3.4c-2.8,1-5.9-0.5-6.9-3.4c-0.3-1-0.4-2.1-0.1-3.1C129,235.8,130,233.8,131.4,232.3z M138.9,239.1
		c1.1-1.2,1.9-2.6,2.2-4.2c0.2-1,0-2-0.7-2.8c-0.8-0.6-1.9-0.8-2.9-0.5c-3.1,1-5.5,3.5-6.2,6.7c-0.2,1,0,2.1,0.7,2.8
		c0.8,0.6,1.9,0.8,2.8,0.4C136.5,241.2,137.9,240.3,138.9,239.1z"/>
	<path class="st11" d="M141.8,251.9l19.6-3.9c0.3-0.1,0.7,0,0.9,0.2c0.4,0.4,0.5,1,0.1,1.4l0,0c-0.2,0.2-0.4,0.3-0.6,0.3l-19.6,3.9
		c-0.4,0.1-0.7,0-1-0.3c-0.4-0.4-0.4-1-0.1-1.4l0,0C141.3,252,141.6,251.9,141.8,251.9z M147.7,241.1L147.7,241.1
		c1.5-1.9,4.2-2.1,6.1-0.6c0.1,0,0.1,0.1,0.1,0.1c1.7,1.6,1.8,4.3,0.2,6c-0.1,0.1-0.1,0.1-0.2,0.2l0,0c-1.5,1.9-4.2,2.1-6.1,0.6
		l-0.1-0.1c-1.7-1.6-1.8-4.4-0.1-6.1C147.7,241.2,147.7,241.1,147.7,241.1L147.7,241.1z M149.5,255.2L149.5,255.2
		c1.4-1.9,4.1-2.2,6-0.8s2.2,4.1,0.8,6c-0.2,0.2-0.3,0.4-0.5,0.6l0,0c-1.5,1.9-4.3,2.1-6.1,0.6l-0.1-0.1c-1.7-1.6-1.8-4.4-0.1-6.1
		C149.4,255.3,149.5,255.2,149.5,255.2L149.5,255.2z M152.3,245.3L152.3,245.3c1-1.1,1.2-2.5,0.3-3.3s-2.2-0.4-3.1,0.6l0,0
		c-1,1.1-1.2,2.5-0.3,3.3S151.4,246.3,152.3,245.3L152.3,245.3z M154.1,259.4L154.1,259.4c1-1,1.2-2.5,0.3-3.3s-2.2-0.4-3.2,0.6l0,0
		c-1,1.1-1.2,2.5-0.3,3.3S153.1,260.4,154.1,259.4z"/>
</g>
<g id="freepik--Coupon--inject-2">
	<path class="st10" d="M368,366.7c0,13.9,11.3,25.3,25.2,25.3v32.4H106.8V392c14,0.3,25.5-10.8,25.8-24.8s-10.8-25.5-24.8-25.8
		c-0.3,0-0.7,0-1,0v-62.7h286.5v62.7C379.3,341.4,368,352.8,368,366.7z"/>
	<path class="st14" d="M393.2,392v32.4H106.8V392c14,0,25.3-11.3,25.3-25.3H368C368,380.7,379.3,392,393.2,392z"/>
	<g class="st15">
		<path d="M134.1,367.7h-2c-0.6,0-1-0.4-1-1s0.4-1,1-1h2c0.6,0,1,0.4,1,1S134.6,367.7,134.1,367.7z"/>
		<path d="M356.9,367.7h-4c-0.6,0-1-0.4-1-1s0.4-1,1-1h4c0.6,0,1,0.4,1,1S357.4,367.7,356.9,367.7z M343.8,367.7h-4
			c-0.6,0-1-0.4-1-1s0.4-1,1-1h4c0.6,0,1,0.4,1,1S344.3,367.7,343.8,367.7z M330.7,367.7h-4c-0.6,0-1-0.4-1-1s0.4-1,1-1h4
			c0.6,0,1,0.4,1,1S331.2,367.7,330.7,367.7z M317.6,367.7h-4c-0.6,0-1-0.4-1-1s0.4-1,1-1h4c0.6,0,1,0.4,1,1
			S318.1,367.7,317.6,367.7z M304.5,367.7h-4c-0.6,0-1-0.4-1-1s0.4-1,1-1h4c0.6,0,1,0.4,1,1S305,367.7,304.5,367.7z M291.3,367.7h-4
			c-0.6,0-1-0.4-1-1s0.4-1,1-1h4c0.6,0,1,0.4,1,1S291.9,367.7,291.3,367.7z M278.2,367.7h-4c-0.6,0-1-0.4-1-1s0.4-1,1-1h4
			c0.6,0,1,0.4,1,1S278.8,367.7,278.2,367.7z M265.1,367.7h-4c-0.6,0-1-0.4-1-1s0.4-1,1-1h4c0.6,0,1,0.4,1,1
			S265.7,367.7,265.1,367.7z M252,367.7h-4c-0.6,0-1-0.4-1-1s0.4-1,1-1h4c0.6,0,1,0.4,1,1S252.6,367.7,252,367.7z M238.9,367.7h-4
			c-0.6,0-1-0.4-1-1s0.4-1,1-1h4c0.6,0,1,0.4,1,1S239.5,367.7,238.9,367.7z M225.8,367.7h-4c-0.6,0-1-0.4-1-1s0.4-1,1-1h4
			c0.6,0,1,0.4,1,1S226.4,367.7,225.8,367.7z M212.7,367.7h-4c-0.6,0-1-0.4-1-1s0.4-1,1-1h4c0.6,0,1,0.4,1,1
			S213.2,367.7,212.7,367.7z M199.6,367.7h-4c-0.6,0-1-0.4-1-1s0.4-1,1-1h4c0.6,0,1,0.4,1,1S200.1,367.7,199.6,367.7z M186.5,367.7
			h-4c-0.6,0-1-0.4-1-1s0.4-1,1-1h4c0.6,0,1,0.4,1,1S187,367.7,186.5,367.7z M173.4,367.7h-4c-0.6,0-1-0.4-1-1s0.4-1,1-1h4
			c0.6,0,1,0.4,1,1S173.9,367.7,173.4,367.7z M160.3,367.7h-4c-0.6,0-1-0.4-1-1s0.4-1,1-1h4c0.6,0,1,0.4,1,1
			S160.8,367.7,160.3,367.7z M147.2,367.7h-4c-0.6,0-1-0.4-1-1s0.4-1,1-1h4c0.6,0,1,0.4,1,1S147.7,367.7,147.2,367.7z"/>
		<path d="M368,367.7h-2c-0.6,0-1-0.4-1-1s0.4-1,1-1h2c0.6,0,1,0.4,1,1S368.6,367.7,368,367.7z"/>
	</g>
</g>
<g id="freepik--Symbol--inject-2">
	<path class="st9" d="M217.5,336.8v-0.2c0-9,6.2-16.5,15.3-16.5s15.1,7.5,15.1,16.3v0.2c0,8.9-6.1,16.5-15.3,16.5
		C223.6,353.1,217.5,345.6,217.5,336.8z M239.6,336.8v-0.2c0-5.1-2.9-9.4-7.1-9.4c-4.3,0-6.9,4.2-6.9,9.2v0.2c0,5.2,3,9.4,7.1,9.4
		C237.1,346,239.6,341.8,239.6,336.8z M228.1,379.8l42.2-57.7c0.7-1.1,1.9-1.7,3.1-1.6c2,0,3.6,1.5,3.7,3.5c0,0,0,0,0,0.1
		c0,0.9-0.3,1.7-0.8,2.4L234,384.1c-0.7,1.1-1.9,1.7-3.2,1.6c-1.9,0-3.6-1.5-3.6-3.5v-0.1C227.2,381.3,227.5,380.5,228.1,379.8
		L228.1,379.8z M256.4,369.8v-0.2c0-9,6.2-16.5,15.3-16.5s15.1,7.5,15.1,16.3v0.2c0,8.9-6.2,16.5-15.3,16.5S256.4,378.6,256.4,369.8
		L256.4,369.8z M278.6,369.8v-0.2c0-5.1-3-9.4-7.1-9.4c-4.3,0-6.9,4.2-6.9,9.2v0.2c0,5.2,2.9,9.4,7.1,9.4
		C276,379,278.6,374.7,278.6,369.8L278.6,369.8z"/>
</g>
<g id="freepik--Character--inject-2">
	<path class="st16" d="M402.3,285.2c-0.7-2-36-48.7-38.4-49.6c-0.3-0.1-16.1,11.1-16.1,11.1c-0.6,0.9-30.7-5.5-30.7-5.5l-0.3,36.2
		l54.7-1.2c0,0,7.4,4.3,14.1,7.9l0,0c2.9,1.6,5.8,3.1,8.9,4.3C397.3,289.2,403,287.2,402.3,285.2z"/>
	<path class="st12" d="M394.6,288.5c-3.1-1.2-6-2.7-8.9-4.3l0,0c-6.8-3.5-14.1-7.9-14.1-7.9l-12.2,0.3l-19-30.7
		c4.2,0.7,7.3,1.2,7.5,0.9c0,0,15.8-11.2,16.1-11.1c2.4,0.9,37.7,47.6,38.4,49.6S397.3,289.2,394.6,288.5z"/>
	<path class="st5" d="M402.6,285.3c-0.7-2-36.2-48.7-38.7-49.6c-0.9-0.4-8.7,4.4-16.1,11.1l22.9,30c0,0,21.1,11.2,24,11.9
		S403.3,287.3,402.6,285.3z"/>
	<path class="st9" d="M400.2,286c-6.1-7.7-30.2-39.2-35.7-47.3c0-0.1,0-0.1,0,0c6.2,7.5,30,39.2,35.8,47.2
		C400.5,286.1,400.4,286.2,400.2,286z"/>
	<path class="st9" d="M390.7,287c-1.4-1.7-2-3.9-1.6-6.1c0.3-1.9,1.3-3.7,2.9-4.9c0,0,0.1,0,0.1,0.1c-2.8,3-3.2,7.4-1.2,10.9
		C390.8,287,390.8,287,390.7,287C390.8,287,390.7,287,390.7,287L390.7,287z"/>
	<path class="st9" d="M373.4,278.7c-2.4-3.1-4.1-7.6-3-11.5c0-0.1,0.2-0.1,0.3,0c0.6,3.8,1.7,7.6,3.1,11.2c0.1,0.1,0,0.3-0.1,0.4
		S373.5,278.8,373.4,278.7z"/>
	<path class="st9" d="M376.2,280.4c-2.4-3.1-4.1-7.6-3-11.5c0-0.1,0.2-0.1,0.3,0c0.6,3.8,1.7,7.6,3.1,11.2c0.1,0.1,0,0.3-0.1,0.4
		S376.2,280.5,376.2,280.4z"/>
	<path class="st9" d="M378.9,282.1c-2.4-3.1-4.1-7.6-3-11.5c0-0.1,0.2-0.1,0.3,0c0.6,3.8,1.7,7.6,3.1,11.2c0.1,0.1,0,0.3-0.1,0.4
		S379,282.2,378.9,282.1z"/>
	<path class="st9" d="M381.7,283.8c-2.4-3.1-4.1-7.6-3-11.5c0-0.1,0.2-0.1,0.3,0c0.6,3.8,1.7,7.6,3.1,11.2c0.1,0.1,0,0.3-0.1,0.4
		S381.8,283.9,381.7,283.8z"/>
	<path class="st9" d="M358.6,246.4c-2.7-3.5,2.8-7.7,5.5-4.1S361.3,249.9,358.6,246.4z"/>
	<path class="st9" d="M372,284.7c0.9-3.4,0.3-7,0.1-10.4c0-0.4-0.4-0.5-0.7-0.4c0,0-0.1-0.1-0.1,0l0,0c-2.7,2.4-4.7,5.5-5.8,8.9
		c-0.6,2-0.4,5,2.1,5.6S371.5,286.6,372,284.7z M369.5,286.8c-3.6,2.3-3.4-2.8-2.8-4.2c0.3-0.9,0.8-1.9,1.2-2.7
		c1-1.8,2.1-3.6,3.3-5.3c0,1.7,0.1,3.3,0.1,5C371.4,281.5,371.5,285.5,369.5,286.8z"/>
	<path class="st9" d="M360.9,264.3c-1.9,1.8-0.5,4.5,1,5.9c2.7,2.4,6.1,4,9.6,4.6c0.1,0,0.1,0,0.1-0.1c0.3,0,0.5-0.2,0.5-0.5
		c0-0.1,0-0.1-0.1-0.2c-1.6-3-3-6.4-5.5-8.8C365.1,263.8,362.6,262.6,360.9,264.3z M368.6,270c0.8,1.5,1.6,2.9,2.5,4.4
		c-1.9-0.9-3.7-1.8-5.5-2.8c-0.9-0.5-1.7-1.1-2.5-1.7c-1.2-1-4-5.2,0.2-5.1C365.7,264.8,367.6,268.3,368.6,270L368.6,270z"/>
	<path class="st11" d="M315.5,230.2H291c0,0-25.7-12.3-46.4-7.4c-23.7,5.7-26.7,35.5-9,46c22.5,13.3,122.4,10.8,122.4,10.8
		L336.3,243c0,0-33.2-7-63.4-6l42.5,5.8v-12.6H315.5z"/>
	<path class="st9" d="M337.8,245.3c0-0.1,0-0.1,0-0.2V245l-0.1-0.4c-0.1-0.2-0.2-0.5-0.2-0.7s-0.2-0.5-0.3-0.7
		c-0.1-0.2-0.3-0.4-0.4-0.6c0,0,0,0-0.1,0l0,0l0,0l0,0c-3.7-0.7-28.5-4.2-32.2-4.6s-7.5-0.8-11.2-1.1c-7.4-0.6-14.9-0.9-22.4-0.8
		c-0.7,0-1.4,0-2.1,0.1c-0.1-0.1-0.3-0.1-0.5-0.1c-0.4-0.1-0.7-0.2-1.1-0.2c-0.7-0.1-1.4-0.2-2-0.3c-1.4-0.2-2.8-0.4-4.2-0.6
		c0,0-0.1,0-0.1,0.1c0,0,0,0.1,0.1,0.1c1.4,0.3,2.8,0.7,4.2,1l1.2,0.3c-2.7,0.1-5.5,0.4-8.2,0.6c-0.1,0-0.1,0.1,0,0.1
		c3.7-0.2,7.5-0.2,11.2-0.2s7.4,0.1,11.1,0.4c7.5,0.4,15,1.1,22.4,1.9c4.2,0.4,29.5,4.1,33.7,4.3l0,0c0,0.1,0.1,0.2,0.1,0.3
		c0.1,0.2,0.2,0.4,0.4,0.7s0.2,0.4,0.4,0.6l0.2,0.3L337.8,245.3l0.1,0.1C337.9,245.4,337.8,245.4,337.8,245.3z"/>
	<path class="st9" d="M350.1,277.4c-1.3-2.1-2.5-4.4-3.7-6.6s-2.5-4.4-3.7-6.6c-2.5-4.4-11.3-19.2-12.1-20.3c0,0-0.1-0.1-0.1,0
		c0,0-0.1,0.1,0,0.1c0.4,1.1,5.9,11,7.2,13.2c2.5,4.4,5.2,8.7,7.8,13c0.8,1.2,1.5,2.5,2.3,3.7s1.6,2.4,2.3,3.7
		C350.1,277.5,350.2,277.4,350.1,277.4z"/>
	<path class="st9" d="M330.4,247.5c-2.2-0.5-4.5-0.9-6.7-1.3L317,245c-4.5-0.8-8.9-1.6-13.4-2.4c-8.9-1.5-17.9-2.8-26.9-3.6
		c-5.1-0.5-10.2-0.8-15.3-1.2c-0.1,0-0.1,0.2,0,0.2c9.1,0.4,18.2,1.6,27.2,2.9s17.8,2.7,26.7,4.2c2.5,0.4,5,0.9,7.5,1.3
		c2.5,0.4,5.1,1,7.6,1.3C330.4,247.7,330.5,247.5,330.4,247.5z"/>
	<path class="st16" d="M355.8,404.3c-2.1-0.2-55.7-24.3-57.1-26.5c-0.6-0.8,2.5-8.8,6.4-18.4c0.9-2.1,1.8-4.2,2.7-6.4
		c6-14,12.6-28.7,12.6-28.7l35.9,16l-13.6,28.3l-3,6.2c0,0,16.4,18.4,17.7,21S357.9,404.5,355.8,404.3z"/>
	<path class="st12" d="M355.8,404.3c-2.1-0.2-55.7-24.3-57.1-26.5c-0.7-1,4-12.6,9.1-24.7l34.9,15.5l-3,6.2c0,0,16.4,18.4,17.7,21
		S357.9,404.5,355.8,404.3z"/>
	<path class="st5" d="M355.8,404.3c-2.1-0.2-55.7-24.3-57.1-26.5c-0.6-0.8,2.5-8.8,6.4-18.4l34.5,15.4c0,0,16.4,18.4,17.7,21
		S357.9,404.5,355.8,404.3z"/>
	<path class="st9" d="M355.9,401.8c-8.9-4.2-45.1-20.6-54.1-24.1c-0.1,0-0.1,0,0,0.1c8.7,4.4,45,20.4,54.1,24.2
		C356.1,402.1,356.1,401.9,355.9,401.8z"/>
	<path class="st9" d="M354.8,392.4c-2-1-4.3-1-6.4-0.2c-1.8,0.7-3.3,2.1-4.2,3.9c0,0,0.1,0.1,0.1,0
		C346.6,392.7,350.8,391.2,354.8,392.4C354.8,392.5,354.8,392.4,354.8,392.4z"/>
	<path class="st9" d="M342.7,377.3c-3.6-1.7-8.3-2.3-11.9-0.3c-0.1,0.1,0,0.3,0.1,0.3c3.9-0.2,7.8-0.1,11.6,0.5
		c0.1,0,0.3-0.1,0.3-0.2C342.8,377.5,342.8,377.4,342.7,377.3z"/>
	<path class="st9" d="M345,379.6c-3.6-1.7-8.3-2.3-11.9-0.3c-0.1,0.1,0,0.3,0.1,0.3c3.9-0.2,7.8-0.1,11.6,0.5c0.1,0,0.3-0.1,0.3-0.2
		S345.1,379.7,345,379.6z"/>
	<path class="st9" d="M347.3,382c-3.6-1.7-8.3-2.3-11.9-0.3c-0.1,0.1,0,0.3,0.1,0.3c3.9-0.2,7.8,0,11.6,0.5c0.1,0,0.3-0.1,0.3-0.2
		C347.4,382.1,347.4,382,347.3,382z"/>
	<path class="st9" d="M349.5,384.3c-3.6-1.7-8.3-2.3-11.9-0.3c-0.1,0.1,0,0.3,0.1,0.3c3.9-0.2,7.8-0.1,11.6,0.5
		c0.1,0,0.3-0.1,0.3-0.2C349.7,384.4,349.6,384.3,349.5,384.3z"/>
	<path class="st9" d="M307.9,370.2c-4-1.8-6.8,4.5-2.8,6.3S312,372,307.9,370.2z"/>
	<path class="st9" d="M350.9,369.5c-1.1-2.3-4.1-1.9-5.9-0.8c-3.1,1.9-5.6,4.5-7.4,7.7v0.1l0,0c0,0.3,0.2,0.6,0.5,0.6
		c3.4-0.6,7-0.9,10.1-2.5C350,373.7,352,371.7,350.9,369.5z M343,375.1c-1.6,0.4-3.3,0.6-4.9,1c1.4-1.5,2.8-3.1,4.4-4.4
		c0.8-0.7,1.6-1.3,2.4-1.8c1.3-0.8,6.2-2.2,4.8,1.8C349,374,345,374.7,343,375.1z"/>
	<path class="st9" d="M328,373.7c2.9,1.9,6.5,2.5,9.8,3.4c0.3,0.1,0.6-0.2,0.6-0.5c0.1,0,0.1-0.1,0.1-0.1l0,0
		c-1.5-3.3-3.8-6.2-6.7-8.3c-1.7-1.2-4.6-1.9-6,0.3S326.4,372.6,328,373.7z M326.8,370.7c-1-4.2,3.7-2.3,4.9-1.4
		c0.8,0.6,1.5,1.3,2.2,2c1.5,1.5,2.7,3.1,4,4.8c-1.6-0.5-3.2-1-4.8-1.4C331.3,374.1,327.4,373,326.8,370.7L326.8,370.7z"/>
	<path class="st11" d="M308.5,349.8l40.3,18.2c0,0,48-92.1,49.2-120.3c1.1-24-15.6-33.3-69.6-17.7l-13.2,0.2v9.1
		c5.8,0.8,21.3,3.2,21.3,3.2c11.3,4.2,14.9,6,14.7,6.4C323.2,305.6,308.5,349.8,308.5,349.8z"/>
	<path class="st9" d="M357.9,238.8c-1.6,2.2-3.1,4.4-4.6,6.7c-8.8-3.8-18-6.2-27.5-7.2c-2.6-0.3-5.3-0.6-8-0.7c-0.1,0-0.1,0.2,0,0.2
		c9.5,0.7,18.9,2.4,28,5.3c2.5,0.8,5,1.7,7.5,2.6c-1.7,2.8-3.4,5.6-4.9,8.5c-2.9,5.3-5.6,10.8-7.9,16.5c-1.3,3.1-2.5,6.2-3.7,9.4
		c0,0.1,0.1,0.1,0.1,0.1c4.9-11,10.3-21.7,16.1-32.2c1.6-3,3.4-5.9,5-8.9C358.1,238.8,357.9,238.7,357.9,238.8z"/>
	<path class="st9" d="M349.8,358.3c-2.4-0.9-4.6-2.1-6.9-3.1l-6.9-3.1c-4.6-2.1-20.5-8.7-21.9-9c-0.1,0-0.1,0.1-0.1,0.2
		c1,0.7,11.3,5.2,13.6,6.2c4.6,2,9.4,3.8,14,5.7c1.3,0.5,2.7,1,4,1.6s2.7,1,4,1.6C349.8,358.5,349.8,358.3,349.8,358.3z"/>
	<path class="st9" d="M357.7,242.9c-3.2,6-5.9,12.4-8.6,18.6s-5.4,12.5-8,18.8c-5.2,12.5-10,25.2-14.5,38
		c-2.5,7.2-4.9,14.5-7.2,21.8c0,0.1,0.1,0.1,0.2,0c4.3-12.9,8.9-25.7,13.7-38.5s9.9-25.3,15.4-37.7c1.5-3.5,3.1-7,4.6-10.5
		c1.6-3.5,3.2-6.9,4.7-10.4c0-0.1,0-0.1-0.1-0.2C357.8,242.8,357.7,242.9,357.7,242.9L357.7,242.9z"/>
	<path class="st16" d="M320.7,172.8c9.7,18.1,21.9,37.4,30.2,39c6.5,1.3,33.1-3.4,43.7-14.1c2.4-2.4-17.2-18.2-19.1-16.9
		c-5.8,3.7-21.1,6.9-22,6.1c-1.2-1-14.6-13.8-23.9-22C317,154.1,315.6,163.5,320.7,172.8z"/>
	<path class="st16" d="M401.2,195.8c-3.9,3.8-15,8.3-18.1,8.3s-11.4-18.5-9.9-21.3s15.8-14.4,21.3-14.9S405.3,191.9,401.2,195.8z"/>
	<path class="st16" d="M375.3,180.5c1.8-4,3.1-8.2,3.7-12.6c0.5-5.2,0.7-13,3.5-12.8c5.8,0.4,5.3,19.8,5.3,19.8s-1.6,8.6-7.4,8.7
		C378.3,183.6,376.3,182.4,375.3,180.5z"/>
	<path class="st16" d="M386.1,170.4c0.7,2.8,3,2.1,3,2.1l15.8-2.8c0,0,11.3-5.2,10.3-8.4c-1.8-5.4-25.4,5.4-27.6,6.1
		C386.4,167.9,385.8,169.2,386.1,170.4z"/>
	<path class="st2" d="M395.9,167c0,0,1.1-5.7,1.6-7s14.5-19.3,20.6-24.8c1.5-1.4,2.3-1.9,3-1.8c0,0-18.4,25.7-20.3,28.2
		c-1.1,1.4-2.2,5.9-2.2,5.9L395.9,167z"/>
	<path class="st10" d="M381.3,160.3L381.3,160.3c-2.1,0.3-7.3,0.2-9.1,1.6c-1.9,1.3-2.7,3.7-2.1,5.9c0.1,0.2,0.2,0.5,0.3,0.7
		c0.4,0.9,1.1,1.6,2,2l0.4,0.2c0.8,0.4,1.6,0.6,2.5,0.7c0.8,0.1,1.6,0.1,2.4,0.2c0.5,0.1,0.9,0.2,1.4,0.3l1.2-0.6
		c0.4-1.2,1-2.3,1.9-3.3c1.6-1.7,7.2-3.7,9.3-4.5c0.3-0.1,0.5-0.2,0.8-0.4c0-0.1,0.1-0.2,0.1-0.3v-0.1v-0.1l0,0c0-0.1,0-0.2,0-0.3
		v-0.1c-0.1-0.3-0.1-0.7-0.2-1v-0.1c-0.1-0.4-0.2-0.7-0.3-0.9s-0.1-0.3-0.2-0.4l0,0l0,0C390.9,159.4,383.5,160,381.3,160.3z
		 M380.8,163.5c0.3,0.3,0.5,0.6,0.5,1c0.2,1-0.7,2.9-4,4.2l-0.2,0.1l-0.2,0.1h-0.1l-0.2,0.1l-0.6,0h-0.3c-0.3,0-0.6,0-0.9,0h-0.1
		l-0.4-0.1h-0.2l0,0H374l0,0l0,0l0,0l-0.1-0.1l-0.2-0.1l-0.1-0.1l0,0l-0.1-0.1l0,0l-0.1-0.1l-0.1-0.1l0,0l-0.1-0.1
		c-0.2-0.2-0.3-0.3-0.5-0.5l0,0c-0.1-0.1-0.2-0.3-0.2-0.4c-0.2-0.4-0.2-0.8-0.2-1.3c0-1.1,0.6-2.1,1.6-2.6c0.7-0.4,1.6-0.7,2.4-0.8
		C378.8,162.3,380.1,162.8,380.8,163.5z"/>
	<path class="st8" d="M380.8,163.5c1,0.8,1.4,2.1,0.9,3.3c-0.7,2.2-5,3.7-7.7,3c-1.3-0.3-2.1-1.5-2-2.8c0-0.3,0-0.6,0.1-0.9
		c0,0.4,0,0.9,0.2,1.3c0.1,0.1,0.1,0.3,0.2,0.4l0,0c0.1,0.2,0.3,0.4,0.5,0.5l0.1,0.1l0,0l0.1,0.1l0.1,0.1l0,0l0.1,0.1l0,0l0.1,0.1
		l0.2,0.1l0.1,0.1l0,0h0.1l0,0h0.1l0,0h0.2l0.4,0.1h0.1c0.3,0,0.6,0,0.9,0h0.3l0.4-0.1l0.2-0.1h0.1l0.2-0.1l0.2-0.1
		c3.4-1.3,4.2-3.2,4-4.2C381.1,164.1,381,163.8,380.8,163.5z"/>
	<path class="st8" d="M391.2,159.6c0.2,0.2,1.2,3.1,0.9,3.4c-0.2,0.1-0.5,0.3-0.8,0.4c-0.1-0.9-0.5-1.7-1.2-2.3
		c-1.1-1-8.5-0.9-8.7-0.9C383.5,160,390.9,159.4,391.2,159.6z"/>
	<path class="st10" d="M395.9,167L395.9,167c-0.4,0-0.6,0-0.7,0c-0.5,0.6-3.8,4.8-5,6.5c-0.3,0.4-0.8,1.1-1.3,1.8l0,0
		c-1.5,2.1-3.6,5.1-3.7,7.1c-0.1,2.6,1.6,4.1,4.2,3.6c3.6-0.7,6.5-6.5,7.6-9.4c0.8-2.2,1.3-4.5,1.7-6.9c0.2-0.7,0.2-1.4,0.2-2.1
		c-0.2-0.1-0.3-0.1-0.5-0.2C397.6,167.2,396.8,167.1,395.9,167z M395.7,172.6c0.6,0.4,1,0.8,0.5,2.6c-0.8,2.4-2.1,4.6-3.6,6.5
		l-0.8,1c-0.1,0.2-0.2,0.3-0.4,0.4c-1.4,1.5-3.5,2-4.2,0.2c-0.9-2.1,4.1-8.8,5.3-10S394.9,172.1,395.7,172.6L395.7,172.6z"/>
	<path class="st8" d="M399,167.6c0,0.7-0.1,1.4-0.2,2.1c-0.2-1.2-1.8-1.6-2.9-1.3c-1.2,0.4-6.8,6.7-7,6.9c0.5-0.7,1-1.3,1.3-1.8
		c1.3-1.8,4.5-5.9,5-6.5C395.5,166.8,398.8,167.4,399,167.6z"/>
	<path class="st3" d="M428.9,143.8c0,0,0.3,0.7-0.9,1.6s-14.8,9.2-23.1,13.7l-0.5,0.2l-0.8,0.4l-0.8,0.4c-0.6,0.3-1.2,0.6-1.7,0.8
		l0,0c-1.5,0.6-3,0.9-4.5,1.1c-0.5,0.1-1.1,0.1-1.8,0.2l0,0c-0.8,0.1-1.7,0.2-2.8,0.3l-0.7-2.5l2.2-0.4c0.7-0.1,1.5-0.3,2.2-0.4
		c0.6-0.1,1.2-0.3,1.8-0.4c0.1-0.1,1.2-0.6,2.8-1.4l2.6-1.2l0.7-0.3l0.4-0.2L428.9,143.8z"/>
	<path class="st2" d="M399.8,159c0.4,0.1,0.6,0.5,0.5,0.8l0,0c-0.1,0.4-0.5,0.6-0.8,0.5s-0.6-0.5-0.5-0.8
		C399,159.1,399.4,158.9,399.8,159z"/>
	<path class="st1" d="M399.8,159.2c0.3,0.1,0.5,0.3,0.4,0.6s-0.3,0.5-0.6,0.4l0,0c-0.3-0.1-0.4-0.3-0.4-0.6
		C399.2,159.3,399.5,159.2,399.8,159.2C399.7,159.2,399.7,159.2,399.8,159.2z"/>
	<path class="st16" d="M389.1,172.5c0,0-5.1,2.3-4.8,5.5s4.8,2.1,5.1,2c-0.3,0.1-4.9,2.4-4.2,5.5s5,1.5,5.2,1.4
		c-0.2,0.2-3,2.8-2,5.1c1.8,3.9,9.2-2.6,12.7-2.3c0,0,0.1,5.9,0.1,6.1c0,0,7.2-6.1,7.4-10.8c0.1-1.4-0.8-2.7-2.2-3.1
		c0,0,2.5-1.7,2.1-4.2c-0.2-1.3-2.5-2.1-2.5-2.1c1.1-0.9,1.7-2.3,1.4-3.7c-0.3-1.3-1.3-2.2-2.6-2.4
		C399.8,168.5,389.1,172.5,389.1,172.5z"/>
	<path class="st9" d="M404.5,169.6C404.6,169.6,404.6,169.5,404.5,169.6c-5.4-0.7-10.9,0.3-15.7,2.9c-0.1,0.1-0.5,0.8-0.3,0.7
		C392.9,171.1,399,169.9,404.5,169.6z"/>
	<path class="st9" d="M406.1,175.6c0.1,0,0.1-0.1,0-0.1c-6-0.6-12,0.9-16.9,4.3c-0.2,0.1-0.2,0.4,0,0.3
		C392.7,178,401.1,175.8,406.1,175.6z"/>
	<path class="st9" d="M390.2,187.2c4.9-3.3,10.3-4.7,16-5.3c0.1,0,0.1-0.1,0-0.1c-2.9-0.4-6.5,0.3-9.3,1.2c-2.6,0.7-4.9,2.2-6.8,4.1
		C390,187.1,390.1,187.3,390.2,187.2z"/>
	<path class="st9" d="M389,172.5c-0.2,0.1,0.4,0.3,0.2,0.4c-1.9,1.2-5.2,3.5-4.6,5.3c0.5,1.4,2.8,1.7,3.7,1.5l2.3-0.6l-2,1.3
		c-0.9,0.6-1.7,1.3-2.3,2.1c-0.6,0.7-1,1.7-0.8,2.7c0.1,0.9,0.9,1.6,1.8,1.7c1,0.1,2-0.1,2.9-0.6l2.6-1.1l-2,1.9
		c-0.6,0.5-1.1,1.1-1.5,1.8c-0.4,0.6-0.7,1.3-0.7,2.1c0,0.7,0.4,1.3,1,1.6c0.7,0.2,1.5,0.2,2.2,0c1.6-0.4,3.1-0.9,4.6-1.6
		c0.8-0.3,1.5-0.6,2.3-0.9c0.8-0.3,1.6-0.5,2.4-0.4c-0.8,0.1-1.6,0.3-2.3,0.6c-0.8,0.3-1.5,0.7-2.2,1c-1.5,0.8-3,1.4-4.6,1.9
		c-0.9,0.3-1.8,0.3-2.6,0.1c-0.9-0.4-1.6-1.3-1.6-2.3c0-0.9,0.3-1.8,0.8-2.6c0.5-0.7,1-1.4,1.6-2l0.5,0.8c-1.1,0.5-2.3,0.8-3.5,0.7
		c-0.7-0.1-1.3-0.3-1.8-0.8s-0.8-1.1-0.9-1.7c-0.2-1.2,0.2-2.5,1-3.4c0.7-0.9,1.6-1.7,2.6-2.3l0.3,0.8c-1.2,0.2-3.7,0.2-4.8-1.9
		C382.8,175.6,388,172.9,389,172.5z"/>
	<path class="st10" d="M372.6,181.6l11.7,27.1c0,0-26.7,6.8-35.1,3.4s-23.5-26.2-29.6-41c-6.3-15.1,3.3-13,9.7-6.8
		s23.9,21.8,24.5,21.9S372.6,181.6,372.6,181.6z"/>
	<path class="st4" d="M324.9,181.5c-0.2-0.4-0.5-0.7-0.8-0.8l0.9,1.7C325,182,325,181.7,324.9,181.5z M338,176
		c-0.3-0.8-1.2-1.2-2-0.9s-1.2,1.2-0.9,2c0.3,0.8,1.2,1.2,2,0.9c0,0,0,0,0.1,0C337.9,177.7,338.3,176.8,338,176z M337,177.6
		c-0.6,0.2-1.2,0-1.4-0.6c-0.2-0.6,0-1.2,0.6-1.4s1.2,0,1.4,0.6C337.8,176.7,337.5,177.4,337,177.6z M327.4,168.9
		c-0.3-0.8-1.3-1.2-2.1-0.9c-0.8,0.3-1.2,1.3-0.8,2.1s1.3,1.2,2.1,0.8C327.3,170.6,327.7,169.7,327.4,168.9z M326.3,170.5
		c-0.5,0.2-1.2,0-1.4-0.6c-0.2-0.6,0-1.2,0.6-1.4s1.2,0,1.4,0.6C327.1,169.6,326.9,170.3,326.3,170.5L326.3,170.5L326.3,170.5z
		 M346.3,195.9c-0.3-0.8-1.2-1.2-2-0.9s-1.2,1.2-0.9,2c0.3,0.8,1.2,1.2,2,0.9C346.2,197.6,346.6,196.7,346.3,195.9L346.3,195.9z
		 M345.3,197.5c-0.6,0.2-1.2,0-1.4-0.6c-0.2-0.6,0-1.2,0.6-1.4l0,0c0.5-0.2,1.2,0,1.4,0.6l0,0C346.1,196.6,345.9,197.3,345.3,197.5
		L345.3,197.5L345.3,197.5z M359.4,190.5c-0.3-0.8-1.2-1.2-2-0.9s-1.2,1.2-0.9,2c0.3,0.8,1.2,1.2,2,0.9h0.1
		C359.3,192.1,359.7,191.3,359.4,190.5L359.4,190.5z M358.4,192.1c-0.5,0.2-1.2,0-1.4-0.6c-0.2-0.5,0-1.2,0.6-1.4
		c0.5-0.2,1.2,0,1.4,0.6l0,0C359.2,191.3,358.9,191.9,358.4,192.1c-0.1,0-0.1,0-0.1,0H358.4z M372.6,185.1c-0.3-0.8-1.2-1.2-2-0.9
		s-1.2,1.2-0.9,2c0.3,0.8,1.2,1.2,2,0.9S372.9,185.8,372.6,185.1c-0.1-0.1-0.1-0.1-0.1-0.1L372.6,185.1z M371.5,186.7
		c-0.5,0.2-1.2,0-1.4-0.6c-0.2-0.5,0-1.2,0.6-1.4c0.5-0.2,1.2,0,1.4,0.6l0,0c0.2,0.6-0.1,1.2-0.7,1.3L371.5,186.7z M335.7,188.9
		c-0.3-0.8-1.2-1.2-2.1-0.9c-0.8,0.3-1.2,1.2-0.9,2.1c0.3,0.8,1.2,1.2,2.1,0.9l0,0C335.7,190.5,336,189.6,335.7,188.9
		c-0.1,0-0.1-0.1-0.1-0.1L335.7,188.9z M334.7,190.5c-0.5,0.2-1.2,0-1.4-0.6s0-1.2,0.6-1.4c0.5-0.2,1.2,0,1.4,0.6
		C335.4,189.6,335.1,190.2,334.7,190.5c-0.1-0.1-0.1-0.1-0.1-0.1L334.7,190.5z M348.8,183.5c-0.3-0.8-1.3-1.2-2.1-0.9
		c-0.8,0.3-1.2,1.3-0.9,2.1c0.3,0.8,1.3,1.2,2.1,0.9C348.8,185.2,349.2,184.3,348.8,183.5z M347.8,185.1c-0.5,0.2-1.2,0-1.4-0.6
		c-0.2-0.6,0-1.2,0.6-1.4l0,0c0.5-0.2,1.2,0,1.4,0.6l0,0c0.2,0.6-0.1,1.2-0.7,1.4H347.8z M367.7,210.5c-0.3-0.8-1.3-1.2-2.1-0.9
		c-0.8,0.3-1.2,1.3-0.9,2.1c0.2,0.4,0.5,0.7,0.9,0.8l0,0l1.5-0.2c0.6-0.5,0.7-1.3,0.4-1.9L367.7,210.5z M366.7,212.1
		c-0.6,0.2-1.2,0-1.4-0.6s0-1.2,0.6-1.4l0,0c0.6-0.2,1.2,0,1.4,0.6S367.3,211.8,366.7,212.1L366.7,212.1z M380.9,205.1
		c-0.3-0.8-1.2-1.2-2-0.9s-1.2,1.2-0.9,2c0.3,0.8,1.2,1.2,2,0.9c0,0,0,0,0.1,0c0.8-0.4,1.1-1.3,0.7-2.1l0,0L380.9,205.1z
		 M379.8,206.7c-0.6,0.2-1.2,0-1.4-0.6s0-1.2,0.6-1.4s1.2,0,1.4,0.6l0,0c0.1,0.5-0.2,1.1-0.7,1.3L379.8,206.7z M357,203.2
		c-0.3-0.8-1.2-1.2-2-0.9s-1.2,1.2-0.9,2c0.3,0.8,1.2,1.2,2,0.9C356.9,205,357.3,204.1,357,203.2C357,203.3,357,203.3,357,203.2z
		 M356,204.9c-0.5,0.2-1.2,0-1.4-0.6c-0.2-0.6,0-1.2,0.6-1.4s1.2,0,1.4,0.6C356.8,204,356.5,204.6,356,204.9z M370.1,197.9
		c-0.3-0.8-1.2-1.2-2-0.9s-1.2,1.2-0.9,2c0.3,0.8,1.2,1.2,2,0.9c0,0,0,0,0.1,0C370.1,199.5,370.4,198.6,370.1,197.9L370.1,197.9z
		 M369.1,199.4c-0.5,0.2-1.2,0-1.4-0.5c-0.2-0.5,0-1.2,0.5-1.4s1.2,0,1.4,0.5l0,0C369.9,198.6,369.6,199.2,369.1,199.4L369.1,199.4z
		"/>
	<path class="st9" d="M372,196.1c-0.8-1.9-1.5-3.7-2.3-5.6s-1.5-3.8-2.4-5.6c0-0.1-0.2,0-0.2,0c0.5,1.9,1.3,3.7,2,5.5
		s1.5,3.9,2.2,5.8c1.5,3.8,3.1,7.5,4.8,11.2c0,0.1,0.2,0,0.1-0.1C374.9,203.6,373.5,199.8,372,196.1z"/>
	<path class="st8" d="M319.5,171.2c6.2,14.7,21.2,37.6,29.6,41c2.7,0.8,5.5,1.1,8.3,0.9l-35.6-53.2C318,159,315.5,161.6,319.5,171.2
		z"/>
	<path class="st10" d="M280.7,229.9c0.1,0.2,57.8,1.4,58.4,0.8c0.8-0.8-4.5-55-12.9-68.4c-2.1-3.4-11.9-5.9-16.3-1.3
		C292.8,178.7,280.2,229.3,280.7,229.9z"/>
	<path class="st4" d="M330.8,214.1c-0.3-0.8-1.2-1.2-2.1-0.9c-0.8,0.3-1.2,1.2-0.9,2.1c0.3,0.8,1.2,1.2,2.1,0.9l0,0
		C330.7,215.8,331.1,214.9,330.8,214.1z M329.8,215.7c-0.5,0.2-1.2,0-1.4-0.6c-0.2-0.6,0-1.2,0.6-1.4c0.5-0.2,1.2,0,1.4,0.6
		C330.6,214.9,330.3,215.5,329.8,215.7L329.8,215.7L329.8,215.7z M317.7,219.6c-0.3-0.8-1.2-1.2-2-0.9s-1.2,1.2-0.9,2
		c0.3,0.8,1.2,1.2,2,0.9c0,0,0,0,0.1,0C317.6,221.2,318,220.4,317.7,219.6L317.7,219.6z M316.6,221.2c-0.6,0.2-1.2,0-1.4-0.6
		s0-1.2,0.6-1.4s1.2,0,1.4,0.6l0,0C317.5,220.3,317.2,220.9,316.6,221.2C316.7,221.2,316.7,221.2,316.6,221.2L316.6,221.2z
		 M304.6,225c-0.3-0.8-1.2-1.2-2-0.9s-1.2,1.2-0.9,2c0.3,0.8,1.2,1.2,2,0.9c0,0,0,0,0.1,0C304.5,226.7,304.9,225.8,304.6,225z
		 M303.6,226.6c-0.6,0.2-1.2,0-1.4-0.6c-0.2-0.6,0-1.2,0.6-1.4l0,0c0.6-0.2,1.2,0,1.4,0.6C304.4,225.7,304.1,226.4,303.6,226.6z
		 M289.5,229.6c-0.3,0.1-0.5,0.3-0.7,0.6h0.7c0.1-0.1,0.1-0.1,0.2-0.1c0.4-0.1,0.8-0.1,1.1,0.2h0.7
		C291,229.5,290.1,229.3,289.5,229.6L289.5,229.6z M338.5,221.4c-0.1,0.4-0.1,0.8,0,1.1c0,0.1,0.1,0.1,0.1,0.2
		C338.6,222.2,338.5,221.8,338.5,221.4L338.5,221.4z M328.4,226.7c-0.3-0.8-1.3-1.2-2.1-0.8c-0.8,0.3-1.2,1.3-0.8,2.1
		c0.3,0.8,1.2,1.2,2,0.9C328.3,228.4,328.7,227.5,328.4,226.7L328.4,226.7z M327.4,228.3c-0.6,0.2-1.2,0-1.4-0.6
		c-0.2-0.6,0-1.2,0.6-1.4s1.2,0,1.4,0.6C328.2,227.5,327.9,228.1,327.4,228.3C327.3,228.3,327.3,228.3,327.4,228.3L327.4,228.3z
		 M334.4,190.5c-0.6,0-1.1-0.4-1.1-1c0-0.5,0.2-0.9,0.6-1.1h0.1l-0.1-0.5c-0.1,0-0.1,0-0.2,0.1c-0.8,0.3-1.2,1.3-0.8,2.1
		c0.3,0.6,0.9,1,1.6,0.9c-0.1-0.2-0.2-0.4-0.2-0.5H334.4z M322.6,194.2c-0.3-0.8-1.2-1.2-2.1-0.9c-0.8,0.3-1.2,1.2-0.9,2.1
		c0.3,0.8,1.2,1.2,2.1,0.9l0,0c0.8-0.4,1.1-1.3,0.7-2L322.6,194.2z M321.6,195.8c-0.5,0.2-1.2,0-1.4-0.6s0-1.2,0.6-1.4
		c0.5-0.2,1.2,0,1.4,0.6C322.4,195,322.2,195.6,321.6,195.8c-0.1,0-0.1,0-0.2,0H321.6z M309.6,199.7c-0.3-0.8-1.2-1.2-2-0.9
		s-1.2,1.2-0.9,2c0.3,0.8,1.2,1.2,2,0.9c0,0,0,0,0.1,0C309.5,201.3,309.8,200.5,309.6,199.7L309.6,199.7z M308.5,201.3
		c-0.6,0.2-1.2,0-1.4-0.6c-0.2-0.6,0-1.2,0.6-1.4s1.2,0,1.4,0.6C309.3,200.4,309,201,308.5,201.3c-0.1,0-0.1,0-0.2,0H308.5z
		 M296.5,205.1c-0.3-0.8-1.2-1.2-2-0.9s-1.2,1.2-0.9,2c0.3,0.8,1.2,1.2,2,0.9c0,0,0,0,0.1,0C296.4,206.7,296.7,205.8,296.5,205.1
		L296.5,205.1z M295.5,206.7c-0.6,0.2-1.2,0-1.4-0.6c-0.2-0.6,0-1.2,0.6-1.4s1.2,0,1.4,0.6C296.3,205.8,296,206.5,295.5,206.7z
		 M333.4,201.4c-0.3-0.8-1.2-1.2-2-0.9s-1.2,1.2-0.9,2c0.3,0.8,1.2,1.2,2,0.9c0,0,0,0,0.1,0c0.7-0.4,1-1.3,0.6-2H333.4z M332.4,203
		c-0.5,0.2-1.2,0-1.4-0.6c-0.2-0.6,0-1.2,0.6-1.4s1.2,0,1.4,0.6S332.9,202.7,332.4,203C332.4,202.9,332.4,202.9,332.4,203z
		 M320.3,206.8c-0.3-0.8-1.2-1.2-2-0.9s-1.2,1.2-0.9,2c0.3,0.8,1.2,1.2,2,0.9c0.7-0.4,1-1.3,0.6-2H320.3z M319.3,208.4
		c-0.6,0.2-1.2,0-1.4-0.6c-0.2-0.6,0-1.2,0.6-1.4s1.2,0,1.4,0.6l0,0C320,207.6,319.7,208.2,319.3,208.4c-0.1,0-0.2,0-0.3,0H319.3z
		 M307,212.2c-0.3-0.8-1.2-1.2-2.1-0.9c-0.8,0.3-1.2,1.2-0.9,2.1c0.3,0.8,1.2,1.2,2.1,0.9l0,0C307,214,307.3,213.1,307,212.2z
		 M306,213.9c-0.6,0.2-1.2,0-1.4-0.6c-0.2-0.6,0-1.2,0.6-1.4s1.2,0,1.4,0.6l0,0C306.8,213,306.5,213.6,306,213.9
		C305.9,213.8,305.9,213.8,306,213.9L306,213.9z M293.9,217.7c-0.3-0.8-1.2-1.2-2-0.9s-1.2,1.2-0.9,2c0.3,0.8,1.2,1.2,2,0.9
		S294.2,218.5,293.9,217.7L293.9,217.7z M292.9,219.3c-0.5,0.2-1.2,0-1.4-0.6c-0.2-0.5,0-1.2,0.6-1.4c0.5-0.2,1.2,0,1.4,0.6l0,0
		C293.7,218.4,293.4,219.1,292.9,219.3c-0.1,0-0.1,0-0.1,0H292.9z M327.5,168.9c-0.3-0.8-1.3-1.2-2.1-0.9c-0.8,0.3-1.2,1.3-0.8,2.1
		s1.3,1.2,2.1,0.8C327.4,170.6,327.8,169.7,327.5,168.9z M326.4,170.5c-0.5,0.2-1.2,0-1.4-0.6c-0.2-0.6,0-1.2,0.6-1.4s1.2,0,1.4,0.6
		l0,0C327.2,169.7,326.9,170.3,326.4,170.5c-0.1,0-0.1,0-0.1,0H326.4z M314.4,174.3c-0.3-0.8-1.3-1.2-2.1-0.9
		c-0.8,0.3-1.2,1.3-0.8,2.1s1.3,1.2,2.1,0.8C314.4,176.1,314.8,175.1,314.4,174.3z M313.4,175.9c-0.6,0.2-1.2,0-1.4-0.6
		c-0.2-0.6,0-1.2,0.6-1.4s1.2,0,1.4,0.6C314.2,175.1,313.9,175.7,313.4,175.9c-0.1,0-0.2,0-0.2,0H313.4z M301.4,179.8
		c-0.3-0.8-1.2-1.2-2.1-0.9c-0.8,0.3-1.2,1.2-0.9,2.1c0.3,0.8,1.2,1.2,2.1,0.9l0,0c0.7-0.4,1-1.3,0.7-2.1H301.4z M300.3,181.4
		c-0.6,0.2-1.2,0-1.4-0.6c-0.2-0.6,0-1.2,0.6-1.4s1.2,0,1.4,0.6C301.1,180.5,300.9,181.2,300.3,181.4L300.3,181.4z M325.1,181.5
		c-0.3-0.8-1.2-1.2-2-0.9s-1.2,1.2-0.9,2c0.3,0.8,1.2,1.2,2,0.9c0,0,0,0,0.1,0c0.7-0.4,1-1.3,0.6-2H325.1z M324.1,183.1
		c-0.5,0.2-1.2,0-1.4-0.6c-0.2-0.5,0-1.2,0.6-1.4l0,0c0.6-0.2,1.2,0,1.4,0.6C324.9,182.2,324.7,182.8,324.1,183.1L324.1,183.1z
		 M312,186.9c-0.3-0.8-1.2-1.2-2-0.9s-1.2,1.2-0.9,2c0.3,0.8,1.2,1.2,2,0.9c0.7-0.4,1-1.3,0.6-2.1L312,186.9z M311,188.5
		c-0.6,0.2-1.2,0-1.4-0.6c-0.2-0.6,0-1.2,0.6-1.4s1.2,0,1.4,0.6c0.2,0.6-0.1,1.2-0.7,1.4h-0.1H311z M298.9,192.4
		c-0.3-0.8-1.3-1.2-2.1-0.8c-0.8,0.3-1.2,1.3-0.8,2.1c0.3,0.8,1.3,1.2,2.1,0.8l0,0c0.7-0.4,1-1.3,0.6-2.1H298.9z M297.9,194
		c-0.5,0.2-1.2,0-1.4-0.6c-0.2-0.6,0-1.2,0.6-1.4s1.2,0,1.4,0.6S298.5,193.7,297.9,194C297.9,193.9,297.9,193.9,297.9,194z
		 M316.9,161.6c-0.3-0.8-1.2-1.2-2-0.9s-1.2,1.2-0.9,2c0.3,0.8,1.2,1.2,2,0.9c0,0,0,0,0.1,0c0.7-0.4,0.9-1.3,0.5-2H316.9z
		 M315.9,163.2c-0.5,0.2-1.2,0-1.4-0.6c-0.2-0.5,0-1.2,0.6-1.4l0,0c0.6-0.2,1.2,0,1.4,0.6C316.7,162.3,316.5,162.9,315.9,163.2
		L315.9,163.2L315.9,163.2z"/>
	<path class="st16" d="M315.7,169.4c-15.7,12.6-38.8,21.6-45,20.1c-8.3-2-23.5-15.2-30.8-22.8c-2.1-2.2,15.5-18.5,17.8-16.1
		c2.8,2.9,16.8,18,17.2,18.1c0.8,0.4,30.9-6.8,36.4-8.2C320.2,158.3,322.8,163.6,315.7,169.4z"/>
	<path class="st16" d="M229.5,154.8c2.1,4.7,10.2,12.5,12.9,13.7s16.5-12.2,16.2-15.1s-8.7-18.1-13.4-20.5S227.3,149.9,229.5,154.8z
		"/>
	<polygon class="st10" points="175.7,184.8 220.6,212.4 242.1,162.6 210.3,143.1 	"/>
	<polygon class="st10" points="210.3,143.1 187.2,191.9 175.7,184.8 	"/>
	<polygon class="st8" points="210.3,143.1 187.2,191.9 175.7,184.8 	"/>
	<path class="st9" d="M231.2,160.3l1.6,0.6c0,0,1.6-4.4,3.1-8.8c1.4-4.4-0.8-9.1-5.1-10.8c-2.8-1.2-6.9-0.9-9.1,3.7
		c-2.4,4.9-3.3,7.3-3.4,7.4l1.6,0.6c0,0,1-2.4,3.3-7.3c1.7-3.5,4.7-3.8,7-2.8c3.4,1.4,5.3,5.2,4.1,8.7
		C232.7,155.9,231.2,160.2,231.2,160.3z"/>
	<path class="st12" d="M186.8,191.2c-0.5-1.2-1.1-2.4-1.7-3.6s-1.2-2.4-1.9-3.5l-0.1-0.2H183c-1.1,0.1-2.2,0.2-3.3,0.4
		s-2.2,0.3-3.3,0.5c1.1,0,2.2,0,3.4-0.1s2.2-0.1,3.3-0.2l-0.3-0.1c0.6,1.2,1.3,2.3,1.9,3.5S186.1,190.1,186.8,191.2z"/>
	<path class="st12" d="M183,184.2c2-2.8,3.9-5.6,5.9-8.5s3.8-5.7,5.7-8.5s3.8-5.7,5.6-8.6l2.8-4.3c0.9-1.4,1.8-2.9,2.7-4.4
		c-1,1.4-2,2.8-2.9,4.2l-2.9,4.2c-1.9,2.8-3.8,5.7-5.7,8.5s-3.8,5.7-5.6,8.6S184.8,181.3,183,184.2z"/>
	<path class="st9" d="M230.1,159.4c-0.6,1.1-0.3,2.4,0.7,3.1s2.4,0.3,3.1-0.7c0.6-1.1,0.3-2.4-0.7-3.1l0,0
		C232.1,158,230.7,158.3,230.1,159.4z"/>
	<path class="st9" d="M217.2,151.5c-0.7,1.1-0.3,2.4,0.7,3.1c1.1,0.7,2.4,0.3,3.1-0.7c0.7-1.1,0.3-2.4-0.7-3.1l0,0
		C219.3,150.1,217.9,150.5,217.2,151.5z"/>
	<path class="st16" d="M251.7,137.9c-0.3,2.7-3.3,0.8-3.3,0.8s3.7,3.8,2.2,6.5s-4.9,0.1-5.2-0.1c0.2,0.2,3.5,3.8,1.8,6.3
		s-4.9-0.4-5.1-0.6c0.1,0.2,1.7,3.6-0.1,5.2c-3,2.8-7.1-5.6-10.3-6.5c0,0-2.1,5.2-2.2,5.3s-4.1-7.9-2.7-12.1c0.4-1.3,1.7-2.1,3-1.9
		c0,0-1.6-2.4-0.4-4.4c0.6-1,2.9-0.9,2.9-0.9c-0.7-1.1-0.7-2.6,0-3.7c1-1.4,3.1-1.1,3.1-1.1s-0.3-2.4,1.2-3.5
		C239.6,124.9,252.4,132.1,251.7,137.9z"/>
	<path class="st9" d="M235.8,130.6L235.8,130.6c4.9,1.3,9.4,4.1,12.6,8.1c0.1,0.1-0.1,0.4-0.2,0.2
		C244.6,135.6,240.4,132.8,235.8,130.6z"/>
	<path class="st9" d="M232.4,135.3c-0.1,0,0-0.1,0-0.1c5.5,1.6,10.2,5,13.3,9.8c0.1,0.2,0,0.4-0.1,0.2
		C243.3,142.1,236.6,137.3,232.4,135.3z"/>
	<path class="st9" d="M242.2,151.1c-3.1-4.6-7.3-7.7-12.2-10.3c-0.1,0,0-0.1,0-0.1c2.7,0.6,5.6,2.6,7.8,4.3c2,1.6,3.6,3.6,4.5,6
		C242.4,151.1,242.3,151.2,242.2,151.1z"/>
	<path class="st9" d="M248.4,138.6c0.6,0.8,1.2,1.6,1.7,2.5c0.5,0.8,0.8,1.8,0.8,2.8c0,0.5-0.2,0.9-0.5,1.2s-0.7,0.5-1.2,0.7
		c-0.9,0.2-1.8-0.1-2.6-0.6l-1.8-1.3l1.3,1.8c0.6,0.8,1,1.7,1.3,2.7c0.3,0.9,0.2,1.8-0.2,2.7c-0.4,0.8-1.3,1.1-2.2,0.9
		c-0.9-0.3-1.7-0.8-2.4-1.5l-1.9-1.9l1.1,2.4c0.3,0.7,0.5,1.4,0.7,2.1c0.1,0.7,0.1,1.4-0.1,2c-0.3,0.6-0.8,1-1.4,1
		c-0.7-0.1-1.4-0.3-1.9-0.8c-1.2-0.9-2.4-1.9-3.4-3c-0.6-0.5-1.1-1.1-1.7-1.6c-0.6-0.6-1.3-1-2-1.2c0.7,0.3,1.3,0.8,1.8,1.4
		c0.5,0.6,1,1.1,1.6,1.7c1,1.2,2.1,2.3,3.4,3.3c0.6,0.6,1.4,0.9,2.3,1c0.9,0,1.8-0.5,2.2-1.4c0.3-0.8,0.4-1.7,0.2-2.5
		c-0.1-0.8-0.4-1.6-0.7-2.3l-0.7,0.5c0.8,0.8,1.7,1.5,2.8,1.9c0.6,0.2,1.2,0.2,1.8-0.1s1-0.7,1.4-1.2c0.6-1,0.7-2.3,0.3-3.4
		c-0.3-1-0.8-2-1.4-2.9l-0.6,0.6c0.9,0.7,2.1,0.9,3.2,0.6c0.5-0.2,1-0.5,1.4-0.9s0.6-1,0.6-1.6c0-1.1-0.4-2.1-1-3
		C249.7,140.2,249.1,139.4,248.4,138.6z"/>
	<path class="st16" d="M257.6,150.4c0,0-0.5-21.8-8.9-17.4c-2.5,1.3-11.2,9.6-9.6,11.4c2.1,2.3,6.4-0.5,8.8-2.7c0,0-0.9,7.4,4.1,9.6
		C253.9,152.1,256.1,151.8,257.6,150.4z"/>
	<path class="st9" d="M249.4,132.7c-1,0.4-2,0.9-2.9,1.6c-0.9,0.7-1.8,1.4-2.6,2.1c-1.6,1.5-3.1,3.2-4.5,4.9c-0.4,0.5-0.7,1-0.9,1.6
		c-0.1,0.3-0.2,0.7-0.1,1c0,0.2,0.1,0.4,0.1,0.5c0.1,0.2,0.2,0.3,0.3,0.5c0.5,0.5,1.1,0.8,1.7,0.9c0.6,0.1,1.2,0,1.8-0.2
		c1.1-0.3,2.2-0.8,3.1-1.5c0.9-0.6,1.8-1.3,2.6-2.1l-0.6-0.3c-0.1,0.9-0.1,1.7,0,2.6c0.1,0.8,0.3,1.7,0.5,2.5
		c0.3,0.8,0.6,1.6,1.1,2.3s1.1,1.3,1.8,1.7c-0.6-0.5-1.1-1.2-1.6-1.9c-0.4-0.7-0.7-1.5-0.9-2.2c-0.2-0.8-0.3-1.6-0.4-2.4
		c0-0.8,0-1.6,0.1-2.4l0.1-1l-0.8,0.6c-0.8,0.7-1.7,1.4-2.6,1.9c-0.9,0.6-1.8,1-2.8,1.3c-0.9,0.3-1.9,0.2-2.6-0.4
		c-0.5-0.5,0-1.6,0.6-2.4c0.6-0.9,1.3-1.7,2-2.6c0.7-0.8,1.4-1.7,2.2-2.5C245.8,135.2,247.5,133.8,249.4,132.7z"/>
	<path class="st10" d="M263.3,153l-23.7,17.6c0,0,19.7,19.3,28.7,20.6s33.5-10.9,46.2-20.6c13-9.9,3.7-12.9-5-10.8
		s-31.6,6.9-32.2,6.7S263.3,153,263.3,153z"/>
	<path class="st4" d="M299.1,178.9c-0.7,0.3-1.1,1.1-0.9,1.9l0.5-0.2l0,0c-0.1-0.6,0.2-1.1,0.8-1.3c0.3-0.1,0.7,0,1,0.3l0.5-0.3
		C300.4,178.8,299.7,178.7,299.1,178.9z M288.2,185.8c0-0.2,0-0.4-0.1-0.6c-0.3-0.8-1.3-1.2-2.1-0.9c-0.8,0.3-1.2,1.3-0.9,2.1
		c0.1,0.2,0.2,0.4,0.4,0.5l0.5-0.2c-0.2-0.1-0.3-0.3-0.4-0.5c-0.2-0.5,0-1.2,0.6-1.4l0,0c0.5-0.2,1.2,0,1.4,0.6
		c0.1,0.2,0.1,0.4,0.1,0.6L288.2,185.8z M272.9,189.8c-0.5,0.2-0.9,0.7-1,1.3c0.2,0,0.3,0,0.5-0.1c0.1-0.3,0.3-0.6,0.6-0.8
		c0.5-0.2,1,0,1.3,0.4l0.5-0.1C274.5,189.8,273.6,189.5,272.9,189.8L272.9,189.8z M279.4,166.2c-0.1,0.6-0.7,0.9-1.3,0.8
		c-0.3-0.1-0.5-0.2-0.6-0.5c-0.1,0-0.1,0-0.2,0c-0.2-0.1-0.3-0.2-0.5-0.4c0,0.1,0,0.3,0.1,0.4c0.3,0.8,1.3,1.2,2.1,0.8l0,0
		c0.5-0.2,0.9-0.7,1-1.3L279.4,166.2z M266.7,170.8c-0.3-0.8-1.2-1.2-2-0.9s-1.2,1.2-0.9,2c0.3,0.8,1.2,1.2,2,0.9c0,0,0,0,0.1,0
		C266.6,172.4,267,171.5,266.7,170.8L266.7,170.8z M265.7,172.3c-0.5,0.2-1.2,0-1.4-0.6c-0.2-0.5,0-1.2,0.6-1.4s1.2,0,1.4,0.6l0,0
		C266.5,171.5,266.2,172.1,265.7,172.3C265.7,172.4,265.7,172.4,265.7,172.3L265.7,172.3z M253.6,176.2c-0.3-0.8-1.2-1.2-2-0.9
		s-1.2,1.2-0.9,2s1.2,1.2,2,0.9c0,0,0,0,0.1,0C253.5,177.8,253.9,177,253.6,176.2L253.6,176.2z M252.6,177.8c-0.5,0.2-1.2,0-1.4-0.6
		c-0.2-0.5,0-1.2,0.6-1.4c0.5-0.2,1.2,0,1.4,0.6l0,0C253.4,176.9,253.1,177.6,252.6,177.8L252.6,177.8L252.6,177.8z M316.7,161.6
		c-0.3-0.8-1.2-1.2-2-0.9s-1.2,1.2-0.9,2c0.3,0.8,1.2,1.2,2,0.9c0,0,0,0,0.1,0C316.6,163.2,316.9,162.3,316.7,161.6L316.7,161.6z
		 M315.7,163.1c-0.5,0.2-1.2,0-1.4-0.6c-0.2-0.5,0-1.2,0.6-1.4l0,0c0.6-0.2,1.2,0,1.4,0.6C316.5,162.3,316.2,162.9,315.7,163.1
		L315.7,163.1z M303.5,167c-0.3-0.8-1.3-1.2-2.1-0.9c-0.8,0.3-1.2,1.3-0.9,2.1c0.3,0.8,1.2,1.2,2,0.9
		C303.5,168.7,303.9,167.8,303.5,167z M302.5,168.6c-0.5,0.2-1.2,0-1.4-0.6c-0.2-0.5,0-1.2,0.6-1.4c0.5-0.2,1.2,0,1.4,0.6l0,0
		C303.3,167.7,303,168.4,302.5,168.6L302.5,168.6z M290.4,172.4c-0.3-0.8-1.3-1.2-2.1-0.8c-0.8,0.3-1.2,1.3-0.8,2.1
		c0.3,0.8,1.3,1.2,2.1,0.8l0,0C290.4,174.2,290.7,173.2,290.4,172.4L290.4,172.4z M289.4,174c-0.5,0.2-1.2,0-1.4-0.6
		c-0.2-0.6,0-1.2,0.6-1.4s1.2,0,1.4,0.6l0,0C290.2,173.2,290,173.8,289.4,174L289.4,174L289.4,174z M277.4,177.9
		c-0.3-0.8-1.2-1.2-2.1-0.9c-0.8,0.3-1.2,1.2-0.9,2.1c0.3,0.8,1.2,1.2,2.1,0.9l0,0C277.3,179.6,277.7,178.7,277.4,177.9L277.4,177.9
		z M276.3,179.5c-0.5,0.2-1.2,0-1.4-0.6l0,0c-0.2-0.5,0-1.2,0.6-1.4s1.2,0,1.4,0.6C277.1,178.6,276.9,179.3,276.3,179.5z
		 M264.3,183.3c-0.3-0.8-1.2-1.2-2-0.9s-1.2,1.2-0.9,2c0.3,0.8,1.2,1.2,2,0.9h0.1C264.2,185,264.5,184.1,264.3,183.3L264.3,183.3z
		 M263.3,184.9c-0.5,0.2-1.2,0-1.4-0.6s0-1.2,0.6-1.4c0.5-0.2,1.2,0,1.4,0.6C264,184.1,263.8,184.7,263.3,184.9
		C263.2,184.9,263.2,184.9,263.3,184.9L263.3,184.9z M268.7,158.3c0.2,0.5-0.1,1.1-0.6,1.3c-0.6,0.2-1.2,0-1.4-0.6
		c-0.2-0.5,0-1.2,0.6-1.4l0,0c0.2-0.1,0.5-0.1,0.7-0.1l-0.5-0.5c-0.1,0-0.2,0.1-0.4,0.1c-0.8,0.3-1.2,1.3-0.9,2.1
		c0.3,0.8,1.3,1.2,2.1,0.9c0.5-0.2,0.9-0.7,1-1.2l0,0L268.7,158.3z M256,163.4c-0.3-0.8-1.3-1.2-2.1-0.8c-0.8,0.3-1.2,1.3-0.8,2.1
		c0.3,0.8,1.3,1.2,2.1,0.8l0,0C256,165.2,256.3,164.2,256,163.4z M255,165c-0.6,0.2-1.2,0-1.4-0.6s0-1.2,0.6-1.4s1.2,0,1.4,0.6
		C255.8,164.2,255.5,164.8,255,165L255,165z M242.9,168.9c-0.1-0.2-0.2-0.3-0.3-0.5l-0.4,0.3c0.4,0.4,0.5,1.1,0.1,1.5
		s-1.1,0.5-1.5,0.1c-0.1-0.1-0.2-0.2-0.3-0.3l-0.4,0.3c0.4,0.8,1.3,1.1,2.1,0.7C243,170.6,243.3,169.6,242.9,168.9z"/>
	<path class="st9" d="M256.6,165l4.8-3.7c1.6-1.2,3.2-2.5,4.9-3.6c0.1-0.1,0.2,0,0.1,0.1c-1.4,1.3-3,2.5-4.5,3.8s-3.2,2.6-4.8,3.9
		c-3.2,2.6-6.4,5-9.8,7.3c-0.1,0.1-0.2-0.1-0.1-0.1C250.3,170.1,253.4,167.5,256.6,165z"/>
	<path class="st9" d="M306,177.6c-1,0.2-2,0.5-3,0.8l-0.5,0.2l1.2-0.7c1.4-0.8,2.8-1.6,4.1-2.6c0.1,0,0-0.1-0.1-0.1
		c-1.5,0.7-3,1.5-4.5,2.4c-2.3,1.2-4.5,2.5-6.6,4c-0.1,0.1,0,0.2,0.1,0.1c1.5-0.6,3-1.4,4.5-2.3l0.5-0.1c0.5-0.1,1-0.3,1.4-0.4
		C304.1,178.5,305,178.1,306,177.6C306.1,177.6,306.1,177.6,306,177.6z"/>
	<path class="st16" d="M323.1,170.8c-2.5,0.3-7.9-3.9-10.2-7.6c-0.1-0.3,0.1-3.1,0.3-6.4c0.1-2.1,0.1-4.4,0-6.5l13.4,2.5
		c-0.6,2.7-0.9,5.4-0.9,8.1c0,0.3,0.1,0.6,0.1,0.9v0.1C326.1,163.6,326.9,170.4,323.1,170.8z"/>
	<path class="st9" d="M325.8,161.8v0.1c-0.4,0.1-0.9,0.1-1.4,0.1c-7.6,0.2-10-9.1-10.5-11.6l12.6,2.4c-0.6,2.7-0.9,5.4-0.9,8.1
		C325.6,161.3,325.7,161.5,325.8,161.8z"/>
	<path class="st16" d="M312.1,134.8c-1.6,4.6,0.5,18.2,3.7,21.3c4.7,4.5,12.6,5.2,16.5-0.5c3.8-5.5,0.8-23.2-2.9-26
		C324.1,125.4,314.5,128,312.1,134.8z"/>
	<path class="st9" d="M323,143.1C323,143.1,322.9,143.1,323,143.1c0.2,1,0.3,2.1-0.5,2.5c0,0,0,0.1,0,0
		C323.4,145.3,323.3,143.9,323,143.1z"/>
	<path class="st9" d="M322,142.3c-1.5,0.2-1,3.1,0.3,3S323.2,142.1,322,142.3z"/>
	<path class="st9" d="M328.1,142.1C328.1,142.1,328.2,142.1,328.1,142.1c0.2,1,0.5,2,1.3,2.2v0.1C328.4,144.4,328,143,328.1,142.1z"
		/>
	<path class="st9" d="M328.8,141.1c1.5-0.3,2,2.6,0.7,2.9S327.5,141.3,328.8,141.1z"/>
	<path class="st9" d="M320.6,141.1c0.4-0.2,0.7-0.4,1.1-0.6c0.4-0.1,0.8-0.4,1-0.8c0.1-0.3,0-0.6-0.2-0.8c-0.5-0.3-1.1-0.2-1.6,0.1
		c-0.5,0.2-0.9,0.7-1.2,1.2c-0.1,0.4,0.1,0.7,0.4,0.9C320.3,141.2,320.4,141.2,320.6,141.1z"/>
	<path class="st9" d="M329.7,138.1c-0.4,0-0.8-0.1-1.2-0.1c-0.4,0-0.9-0.1-1.2-0.4c-0.2-0.2-0.2-0.5-0.1-0.8
		c0.4-0.4,0.9-0.6,1.5-0.5c0.6,0,1.1,0.3,1.5,0.7c0.2,0.3,0.2,0.7-0.1,1C330,138,329.9,138.1,329.7,138.1z"/>
	<path class="st9" d="M323.4,151.8c0.2,0.2,0.5,0.4,0.9,0.4c0.3-0.1,0.7-0.2,1-0.4c0,0,0.1,0,0,0c-0.2,0.4-0.6,0.7-1.1,0.7
		C323.8,152.4,323.4,152.2,323.4,151.8C323.3,151.8,323.4,151.7,323.4,151.8z"/>
	<path class="st9" d="M324,148.9c0.6,0.7,1.4,1.1,2.3,1.1c0.4,0,0.8,0,1.1-0.1c0.1,0,0.1,0,0.2-0.1l0.2-0.1c0.1,0,0.2-0.1,0.1-0.2
		l0,0v-0.1l0,0v-0.1c-0.1-0.7-0.3-1.8-0.3-1.8c0.3,0.1,1.7,0.5,1.6,0.1c-0.6-3.2-1.4-6.3-2.6-9.2c0-0.1-0.2-0.1-0.2,0
		c0.5,2.9,1.5,5.8,2.1,8.7c-0.5-0.1-1-0.2-1.5-0.2c-0.1,0,0.5,2,0.5,2.4l0,0c-1.1,0.3-2.4,0.1-3.4-0.5
		C324,148.7,323.9,148.8,324,148.9z"/>
	<path class="st9" d="M326.9,149.5c-0.3,0.6-0.8,1-1.3,1.4c-0.3,0.2-0.7,0.3-1,0.2c-0.8-0.1-0.9-0.8-0.8-1.4c0-0.3,0.1-0.6,0.2-0.9
		C324.8,149.4,325.9,149.6,326.9,149.5z"/>
	<path class="st17" d="M325.6,150.9c-0.3,0.2-0.7,0.3-1,0.2c-0.8-0.1-0.9-0.8-0.8-1.4C324.6,149.7,325.3,150.2,325.6,150.9z"/>
	<path class="st9" d="M311.5,147c2.6-0.8,3.6-9.6,3.6-9.6s0.1,3.7,0.8,3.6s3.4-5.2,3.5-8.8c2.1,1.3,4.3,2.3,6.7,3
		c3.3,0.9,7,0.5,6.9,0c0-1.7-1.7-6-4-7.4c-3.5-2.4-7.9-2.8-11.7-1c-3.7,1.3-6.5,4.5-7.4,8.3C309.3,137.8,310.6,147.3,311.5,147z"/>
	<path class="st16" d="M314.7,145.9c0,0-3-4.4-5-3.3s0.2,7.4,2.5,8.3c1.2,0.6,2.6,0,3.1-1.1v-0.1L314.7,145.9z"/>
	<path class="st9" d="M310.4,144.4L310.4,144.4c1.5,0.8,2.6,2.2,3,3.9c-0.3-0.6-1.1-0.9-1.8-0.5c-0.1,0-0.2,0.1-0.2,0.2v0.1
		c0.6-0.2,1.2,0,1.6,0.5c0.3,0.4,0.6,0.8,0.8,1.3c0.1,0.1,0.3,0.1,0.3-0.1l0,0C314.2,147.6,312.6,144.6,310.4,144.4z"/>
	<path class="st10" d="M326.6,126c-1.7-1-3.5-1.7-5.4-2.2c-2.1-0.5-9-0.5-10.7,0.7s-2.8,7.6-2.9,8.5s-0.2,6.6,1.7,8.2s3-8.1,6.5-11
		S326.6,126,326.6,126z"/>
	<path class="st8" d="M326.6,126c0,0-7.3,1.4-10.8,4.3c-3.5,2.9-4.6,12.5-6.5,11c-0.9-0.8-1.4-2-1.5-3.2c0.7-2.8,2.2-7,4.8-9.9
		c2.4-2.6,6.4-3.7,10.4-3.8C324.3,124.8,325.4,125.4,326.6,126z"/>
	<path class="st10" d="M309.3,147.1c0.4-2.6,3.6-9.2,6.7-12.9s11.3-5.3,12.5-5.1c2.7,0.4,3.1,1.8,3.5,1.6s-1.7-3-2.4-3.6
		s-2.7-1.8-3.9-1.9s-8.6,0-11.5,2.9s-7.5,11.3-7,13.6c0.1,0.6,0.8,1,1,1.7c0.2,1,0.3,2.2,0.6,2.9S309.3,147.3,309.3,147.1z"/>
	<path class="st9" d="M316.8,132.4c-0.6-0.4-1.2-0.9-1.7-1.5c-0.5-0.5-1-1.1-1.4-1.8h-0.1c0.3,0.7,0.7,1.4,1.2,2s1.1,1,1.8,1.4
		C316.8,132.6,316.9,132.5,316.8,132.4z"/>
	<path class="st9" d="M309.5,144.5c0-0.2-0.2-0.4-0.2-0.6c-0.1-0.2-0.2-0.4-0.2-0.7c0-0.4-0.1-0.9-0.2-1.3c-0.1-0.3-0.3-0.6-0.5-0.9
		c-0.2-0.3-0.4-0.7-0.4-1.1c0-0.1-0.1-0.1-0.1,0c0,0.7,0.3,1.4,0.7,2.1c0.1,0.4,0.2,0.9,0.2,1.4
		C308.9,143.9,309.1,144.3,309.5,144.5C309.4,144.6,309.5,144.6,309.5,144.5z"/>
	<path class="st9" d="M310.6,141.8c-0.2-0.3-0.4-0.6-0.6-0.9c-0.2-0.3-0.3-0.7-0.5-1c-0.1-0.3-0.2-0.7-0.4-1s-0.4-0.8-0.5-1.2h-0.1
		c0.1,0.4,0.2,0.9,0.3,1.3c0.1,0.4,0.2,0.7,0.4,1.1c0.1,0.4,0.3,0.7,0.5,1C310,141.4,310.3,141.6,310.6,141.8L310.6,141.8z"/>
	<path class="st9" d="M311.8,139.4c-0.5-0.5-0.9-1.1-1.3-1.7c-0.3-0.6-0.6-1.2-0.9-1.9h-0.1c0.2,0.7,0.4,1.4,0.7,2
		c0.2,0.3,0.4,0.6,0.6,0.9C311.1,138.9,311.4,139.2,311.8,139.4C311.7,139.4,311.8,139.4,311.8,139.4z"/>
	<path class="st9" d="M313,137c-0.3-0.2-0.5-0.5-0.6-0.7c-0.2-0.3-0.4-0.6-0.6-0.9s-0.4-0.6-0.5-0.9c-0.2-0.3-0.3-0.6-0.4-1
		c0-0.1-0.1-0.1-0.1,0c0,0.3,0.1,0.7,0.2,1c0.1,0.4,0.3,0.7,0.5,1.1c0.2,0.3,0.4,0.7,0.6,1C312.4,136.7,312.6,137,313,137
		C313,137.1,313,137.1,313,137L313,137z"/>
	<path class="st9" d="M314,134.1c-0.2-0.2-0.4-0.5-0.6-0.8s-0.4-0.6-0.6-0.8s-0.4-0.6-0.5-0.9c0-0.1-0.1,0-0.1,0
		c0.1,0.3,0.2,0.7,0.4,1c0.2,0.3,0.4,0.6,0.5,0.9c0.2,0.3,0.4,0.5,0.6,0.8s0.5,0.5,0.8,0.7c0,0,0.1,0,0.1-0.1
		C314.4,134.5,314.2,134.3,314,134.1z"/>
	<path class="st9" d="M318.9,131.2c-0.2-0.3-0.5-0.7-0.7-1c-0.3-0.3-0.5-0.6-0.8-0.9c-0.6-0.6-1.2-1.1-1.9-1.5c0,0-0.1,0-0.1,0.1
		C316.6,128.9,317.7,130,318.9,131.2L318.9,131.2z"/>
	<path class="st9" d="M320.6,129.1c-0.2-0.3-0.5-0.6-0.8-0.9c-0.6-0.5-1.3-1-2.1-1.4c0,0-0.1,0,0,0.1c0.6,0.5,1.3,1,1.9,1.5
		c0.3,0.3,0.6,0.5,0.9,0.8s0.5,0.6,0.7,0.9 M321.2,130.1c-0.1-0.4-0.3-0.7-0.5-1L321.2,130.1z"/>
	<path class="st9" d="M322.9,128.3c-0.2-0.3-0.5-0.6-0.7-0.9c-0.5-0.5-1.1-0.9-1.8-1.3c0,0-0.1,0,0,0.1c0.6,0.4,1.1,0.9,1.6,1.4
		c0.3,0.3,0.5,0.5,0.7,0.8s0.5,0.6,0.7,0.9l0,0C323.3,128.9,323.1,128.6,322.9,128.3z"/>
	<path class="st9" d="M324.5,127.1c-0.2-0.2-0.5-0.5-0.8-0.7s-0.5-0.4-0.9-0.6c0,0-0.1,0.1,0,0.1c0.5,0.5,1,0.9,1.5,1.4
		c0.4,0.5,0.8,1,1.1,1.5 M325.5,128.9c-0.1-0.7-0.5-1.3-0.9-1.7L325.5,128.9z"/>
	<path class="st9" d="M326.5,126.9c-0.5-0.5-1-0.9-1.6-1.2c0,0-0.1,0,0,0.1c0.6,0.4,1,0.8,1.5,1.3c0.4,0.5,0.8,1,1.1,1.6h0.1
		C327.3,128,327,127.4,326.5,126.9z"/>
	<path class="st9" d="M328.9,128.3c-0.1-0.1-0.1-0.3-0.2-0.4c-0.1-0.3-0.3-0.5-0.5-0.8c-0.4-0.5-0.9-0.9-1.4-1.2c0,0-0.1,0,0,0.1
		c0.5,0.4,0.9,0.8,1.3,1.3c0.2,0.2,0.3,0.5,0.5,0.7c0.1,0.1,0.1,0.2,0.2,0.4c0,0.1,0.1,0.3,0.2,0.4 M329,128.7c0-0.1,0-0.3-0.1-0.4
		L329,128.7z"/>
	<path class="st9" d="M330.4,128.5c-0.1-0.2-0.3-0.4-0.4-0.6c-0.2-0.2-0.3-0.4-0.5-0.6l-0.5-0.5c0,0-0.1,0-0.1,0.1
		c0.2,0.2,0.3,0.4,0.5,0.6l0.4,0.6c0.1,0.2,0.3,0.4,0.4,0.6c0.1,0.2,0.3,0.4,0.4,0.6h0.1C330.7,129,330.6,128.7,330.4,128.5z"/>
</g>
</svg>
