<?xml version="1.0" encoding="utf-8"?>
<!-- Generator: Adobe Illustrator 25.2.1, SVG Export Plug-In . SVG Version: 6.00 Build 0)  -->
<svg version="1.1" id="Layer_1" xmlns="http://www.w3.org/2000/svg" xmlns:xlink="http://www.w3.org/1999/xlink" x="0px" y="0px"
	 viewBox="0 0 500 500" style="enable-background:new 0 0 500 500;" xml:space="preserve">
<style type="text/css">
	.st0{fill:#EDF9F8;}
	.st1{fill:#EBEBEB;}
	.st2{fill:#663514;}
	.st3{fill:#F0F0F0;}
	.st4{fill:#E0E0E0;}
	.st5{fill:#8CF4F1;}
	.st6{fill:#263238;}
	.st7{fill:#37474F;}
	.st8{fill:#455A64;}
	.st9{fill:#F5F5F5;}
	.st10{fill:#F7E615;}
	.st11{opacity:0.7;fill:#FFFFFF;enable-background:new    ;}
	.st12{opacity:0.2;enable-background:new    ;}
	.st13{opacity:0.6;}
	.st14{fill:#FFFFFF;}
	.st15{opacity:0.5;}
	.st16{opacity:0.1;}
	.st17{opacity:0.8;}
	.st18{fill:#FAFAFA;}
	.st19{opacity:0.3;}
	.st20{opacity:0.45;}
	.st21{opacity:0.15;}
	.st22{opacity:0.25;fill:#FFFFFF;enable-background:new    ;}
	.st23{opacity:0.1;enable-background:new    ;}
	.st24{opacity:0.5;fill:#FFFFFF;enable-background:new    ;}
	.st25{opacity:0.3;fill:#F7E615;enable-background:new    ;}
	.st26{opacity:0.4;fill:#FFFFFF;enable-background:new    ;}
	.st27{opacity:0.1;fill:#FFFFFF;enable-background:new    ;}
	.st28{opacity:0.3;enable-background:new    ;}
	.st29{opacity:0.6;fill:#FFFFFF;enable-background:new    ;}
	.st30{opacity:0.15;enable-background:new    ;}
	.st31{fill:#FFA8A7;}
	.st32{fill:#F28F8F;}
	.st33{opacity:0.4;enable-background:new    ;}
	.st34{fill:#B16668;}
</style>
<g id="freepik--Floor--inject-2">
	<rect x="-15.3" y="-15.5" class="st0" width="547" height="557"/>
</g>
<g id="freepik--Shadows--inject-2">
	<path id="freepik--Shadow--inject-2" class="st1" d="M150,229.1L31.6,297.5c-2.5,1.5-2.5,3.8,0,5.2l274.7,158.8
		c3,1.5,6.3,2,9.6,1.3c52.1-14.3,92.9-38.6,119-68.3c1.6-1.7,1.5-4.3-0.2-5.9c-0.3-0.3-0.6-0.5-1-0.7L159.1,229.1
		C156.2,227.7,152.9,227.7,150,229.1z"/>
	<ellipse id="freepik--shadow--inject-2" class="st1" cx="113.8" cy="376.5" rx="35.1" ry="20.3"/>
	<path id="freepik--shadow--inject-2_1_" class="st1" d="M396.9,275c-13,7.5-13,19.7,0,27.2s34,7.5,47,0s13-19.7,0-27.2
		S409.9,267.5,396.9,275z"/>
</g>
<g id="freepik--Tree--inject-2">
	<g id="freepik--tree--inject-2">
		<path class="st2" d="M438,211.4l-2.6-1.3L422.9,238v-33.5H418v27l-12.8-23.9l-2.5,1.6l15.2,28v50.8c0,0.4,0.3,0.8,0.7,1
			c1.1,0.6,2.4,0.6,3.5,0c0.4-0.2,0.7-0.6,0.7-1v-43.4L438,211.4z"/>
		<circle class="st3" cx="446.6" cy="178.7" r="37.6"/>
		<path class="st4" d="M458.4,169.1c4.9-15.3,10-21.3,6.7-23.1c-18.1-10.2-41-3.9-51.3,14.2c-10.2,18.1-3.9,41,14.2,51.3
			c15.9,9,35.9,5.3,47.6-8.8C464.5,205.9,452.1,188.9,458.4,169.1z"/>
		<path class="st3" d="M413.8,189.4c0,14.6-11.8,26.4-26.5,26.4c-14.6,0-26.4-11.8-26.4-26.4c0-14.6,11.8-26.4,26.4-26.4
			S413.8,174.8,413.8,189.4C413.8,189.4,413.8,189.4,413.8,189.4z"/>
		<path class="st4" d="M387.4,162.9c-5.6,0-11,1.7-15.5,5c-0.7,16.2,13,31.9,9.2,37.2s-13.3,2.1-16.6-2.4
			c7.3,12.6,23.5,16.9,36.2,9.6c12.6-7.3,16.9-23.5,9.6-36.2C405.5,167.9,396.8,162.9,387.4,162.9L387.4,162.9z"/>
		<path class="st3" d="M469,160.9c0,26.8-21.7,48.5-48.5,48.5c-26.8,0-48.5-21.7-48.5-48.5s21.7-48.5,48.5-48.5c0,0,0,0,0,0
			C447.3,112.3,469,134.1,469,160.9z"/>
		<path class="st1" d="M467.7,172c-6.1,26.1-32.2,42.3-58.3,36.1c-26.1-6.1-42.3-32.2-36.1-58.3c1.9-8.2,6-15.8,11.7-22
			c3.4-3.6,3.6-3.8,0.3-0.3c-0.8,3.6-1.3,7.4-1.3,11.1c0,26.8,21.7,48.5,48.5,48.5C445.7,187.2,458.5,181.7,467.7,172z"/>
	</g>
</g>
<g id="freepik--Clouds--inject-2">
	<g id="freepik--clouds--inject-2">
		<path class="st5" d="M82.8,40L75,44.5c0-0.3,0.1-0.7,0.1-1v-2.3c0-4-2.8-5.6-6.3-3.6c-1.5,0.9-2.8,2.1-3.7,3.6
			c-0.6-5-4.5-6.9-9.3-4.1c-5.2,3-9.4,10.2-9.4,16.2v3.3c0,1.3,0.2,2.7,0.8,3.9l-6.4,3.7c-2,1.3-3.3,3.6-3.5,6c0,2.2,1.5,3.1,3.5,2
			l42-24.2c2-1.3,3.3-3.6,3.5-6C86.2,39.8,84.7,38.9,82.8,40z"/>
		<path class="st5" d="M130,56.3l-5.8,3.4c0-0.3,0-0.5,0.1-0.8v-1.7c0-3-2.1-4.2-4.7-2.7c-1.1,0.7-2.1,1.6-2.8,2.7
			c-0.4-3.8-3.4-5.2-7-3.1c-4.2,2.7-6.8,7.3-7.1,12.2v2.5c0,1,0.2,2,0.6,2.9l-4.8,2.8c-1.5,1-2.5,2.7-2.6,4.5c0,1.7,1.2,2.3,2.6,1.5
			L130,62.3c1.5-1,2.5-2.7,2.6-4.5C132.6,56.1,131.4,55.4,130,56.3z"/>
	</g>
</g>
<g id="freepik--Truck--inject-2">
	<g id="freepik--truck--inject-2">
		<g id="freepik--Back--inject-2">
			<path class="st6" d="M109.2,302.7c0.1,3.1-0.5,6.3-1.7,9.1l0,0c-0.9,2.1-2.5,4-4.4,5.2l-0.2,0.1l0,0l-11.1,6.4l0,0l-4.5-9
				l-0.3-0.6c-2.5-2-4.8-4.3-6.8-6.9c-0.5-0.6-1-1.3-1.4-2c-2.8-4-4.9-8.5-6.4-13.1c-1.2-3.5-1.8-7.2-1.9-10.9l-0.1-0.1l-1.1-2.3
				l-2.4-4.6l-1-2l9.9-5.8l0,0l0.7-0.4l0.3-0.2c1.5-0.9,3.2-1.3,5-1.3c2.9,0.1,5.7,0.9,8.1,2.5C100.5,273.1,109.2,289.1,109.2,302.7
				z"/>
			<path class="st7" d="M59,286.7c0,11.7,6.5,25.2,15.2,32.6l0,0c1.3,1.1,2.7,2.2,4.3,3c10.8,6.2,19.5,0.3,19.5-13.3
				c0-10.2-5-21.9-12-29.6c0,0,0,0-0.1-0.1c-2.1-2.4-4.6-4.4-7.4-6.1C67.7,267.3,59,273.2,59,286.7z"/>
			<path class="st8" d="M78.4,281.6c-6.8-4-12.4,0.2-12.4,9.2s5.6,19.5,12.4,23.5s12.4-0.2,12.4-9.2S85.2,285.6,78.4,281.6z"/>
			<path class="st8" d="M59,286.7c0,11.7,6.5,25.2,15.2,32.6c-6-6.8-10.3-15-12.3-23.9c-1.7-7.8-1-19,5.7-21.8s15.5,3.1,18.3,5.9
				c-2.1-2.4-4.6-4.4-7.4-6.1C67.7,267.3,59,273.2,59,286.7z"/>
			<path class="st4" d="M78.4,289.5c-3.6-2-6.4,0.1-6.4,4.8s2.9,10.1,6.4,12.2s6.4-0.1,6.4-4.8S82,291.5,78.4,289.5z"/>
			<path class="st9" d="M76.3,289.4c-0.4-0.3-0.9-0.4-1.4-0.6c-1.8,0.5-3,2.4-3,5.4c0.1,3.6,1.4,7,3.7,9.7c0.2,0.2,0.5,0.4,0.8,0.5
				c3.2,1.8,5.7-0.1,5.7-4.2S79.5,291.2,76.3,289.4z"/>
			<polygon class="st8" points="64.8,259.3 64.8,264 203.7,344.2 203.7,339.5 			"/>
			<path class="st10" d="M107.7,288.7l-7.6-4.4v25.8c0,1.4,1,2,2.2,1.2l6-3.5l-0.6-0.3L107.7,288.7z"/>
			<path class="st11" d="M107.7,288.7l-7.6-4.4v25.8c0,1.4,1,2,2.2,1.2l6-3.5l-0.6-0.3L107.7,288.7z"/>
			<polygon class="st7" points="107.7,288.7 107.7,302.9 142.4,323 142.4,308.8 			"/>
			<polygon class="st6" points="142.4,323 107.7,302.9 105.7,304.1 142.4,325.3 			"/>
			<polygon class="st8" points="105.7,306.5 105.7,304.1 142.4,325.3 142.4,327.7 			"/>
			<polygon class="st7" points="142.4,304.1 142.4,332.4 171.1,348.9 171.1,320.6 			"/>
			<polygon class="st7" points="171.1,320.6 171.1,348.9 199.6,365.4 199.6,337.1 			"/>
			<polygon class="st6" points="199.6,365.4 207.8,360.7 207.8,337.1 203.7,339.5 199.6,337.1 			"/>
			<polygon class="st6" points="170,348.3 170,320 172.1,321.2 172.1,349.5 			"/>
			<polygon class="st4" points="184.3,337.7 184.3,333 186.4,334.1 186.4,338.9 			"/>
			<polygon class="st4" points="155.7,321.2 155.7,316.5 157.8,317.6 157.8,322.4 			"/>
			<polygon class="st12" points="140.4,302.9 140.4,321.8 138.4,322.9 138.4,325.3 142.4,327.7 142.4,304.1 			"/>
			<polygon class="st10" points="56.7,254.6 203.7,339.5 203.8,330.1 56.7,245.1 			"/>
			<g class="st13">
				<polygon class="st14" points="56.7,254.6 203.7,339.5 203.8,330.1 56.7,245.1 				"/>
			</g>
			<polygon class="st10" points="203.7,339.5 207.8,337.1 207.8,327.7 203.7,330 			"/>
			<g class="st15">
				<polygon class="st14" points="203.7,339.5 207.8,337.1 207.8,327.7 203.7,330 				"/>
			</g>
			<g class="st16">
				<polygon points="203.7,339.5 207.8,337.1 207.8,327.7 203.7,330 				"/>
			</g>
			<polygon class="st10" points="158.8,186.1 56.7,245.1 203.7,330 305.9,271.1 			"/>
			<g class="st17">
				<polygon class="st14" points="158.8,186.1 56.7,245.1 203.7,330 305.9,271.1 				"/>
			</g>
		</g>
		<g id="freepik--Gift--inject-2">
			<g id="freepik--Box--inject-2">
				<g id="freepik--box--inject-2">
					<polygon class="st8" points="68.9,129.5 199.6,205 293.6,150.8 162.9,75.3 					"/>
					<polygon class="st7" points="199.6,323 199.6,205 68.9,129.5 68.9,247.5 					"/>
					<polygon class="st6" points="199.6,323 293.6,268.7 293.6,150.8 199.6,205 					"/>
				</g>
				<path class="st4" d="M161.9,286.7c-1.5-1.1-2.4-2.8-2.4-4.6v-7l4.9,2.9l0.3-0.1v0.5l0,0v6.3c0.1,0.8-0.3,1.7-1,2.1
					c-0.2,0.1-0.5,0.2-0.8,0.2C162.6,287,162.2,286.9,161.9,286.7z M162.5,279.2l-0.4,2.5h-1.8v0.5c0,1.5,0.8,3,2,3.9
					c0.3,0.2,0.7,0.3,1.1,0.1c0.4-0.3,0.6-0.9,0.6-1.4v-5.8L162.5,279.2z M161.8,278.5l1.4-0.3l-2.9-1.7v4.3h1.1L161.8,278.5z"/>
				<path class="st4" d="M162.1,292.1c0.2,0,0.4-0.2,0.4-0.4c0,0,0,0,0,0v-5.3c0-0.2-0.2-0.4-0.4-0.4c-0.2,0-0.4,0.2-0.4,0.4
					c0,0,0,0,0,0v5.3C161.7,291.9,161.9,292.1,162.1,292.1C162.1,292.1,162.1,292.1,162.1,292.1z"/>
				<path class="st4" d="M164.4,293.4c0.1,0,0.3-0.1,0.3-0.2c0.1-0.2,0.1-0.4-0.1-0.5c0,0,0,0,0,0L160,290c-0.2-0.1-0.4-0.1-0.5,0.1
					c0,0,0,0,0,0c-0.1,0.2-0.1,0.4,0.1,0.5c0,0,0,0,0,0l4.6,2.6C164.3,293.4,164.3,293.4,164.4,293.4z"/>
				<path class="st4" d="M178.1,301.5c0.2,0,0.3,0,0.4-0.1c0.3-0.2,0.5-0.6,0.5-1v-1.1c0-0.2-0.2-0.4-0.5-0.3
					c-0.2,0-0.3,0.2-0.3,0.3v1.1c0,0.2,0,0.2-0.1,0.3c-0.1,0-0.2,0-0.2-0.1c-0.5-0.5-0.8-1.1-0.7-1.8v-7c0-0.2-0.2-0.4-0.4-0.4
					c0,0,0,0,0,0c-0.2,0-0.4,0.2-0.4,0.4v7c0,1,0.4,1.9,1.1,2.5C177.7,301.5,177.9,301.5,178.1,301.5z"/>
				<path class="st4" d="M171.8,289.4v-0.2c-0.3-1.8,0.9-3.6,2.7-3.9c1-0.2,2,0.1,2.7,0.7c3,1.9,4.9,5.2,5.1,8.8v0.7L171.8,289.4z
					 M173.8,286.4c-0.8,0.6-1.3,1.6-1.2,2.6l8.9,5.1c-0.4-3-2.1-5.7-4.6-7.4c-0.6-0.4-1.3-0.6-2-0.6
					C174.5,286.1,174.1,286.2,173.8,286.4L173.8,286.4z"/>
				<path class="st4" d="M194,310.4c0.2,0,0.4-0.2,0.4-0.4c0,0,0,0,0,0v-13.4c0-0.2-0.2-0.4-0.4-0.4c0,0,0,0,0,0
					c-0.2,0-0.4,0.2-0.4,0.4V310C193.6,310.2,193.8,310.4,194,310.4z"/>
				<path class="st4" d="M195.2,299.6c0.1,0,0.1,0,0.2,0c0.2-0.1,0.3-0.3,0.2-0.5c0,0,0,0,0,0l-1.4-3.2l-1.6,1.8
					c-0.1,0.2-0.1,0.4,0,0.6c0.2,0.1,0.4,0.1,0.6,0l0,0l0.7-0.9l0.9,2.1C194.9,299.6,195,299.6,195.2,299.6z"/>
				<path class="st4" d="M190.4,308.3c0.2,0,0.4-0.2,0.4-0.4v-13.4c0-0.2-0.1-0.4-0.3-0.5c-0.2,0-0.4,0.1-0.5,0.3c0,0,0,0.1,0,0.1
					v13.4C190,308.1,190.1,308.3,190.4,308.3L190.4,308.3z"/>
				<path class="st4" d="M191.5,297.5c0.1,0,0.1,0,0.2,0c0.2-0.1,0.3-0.3,0.2-0.5c0,0,0,0,0,0l-1.4-3.2l-1.6,1.8
					c-0.1,0.2-0.1,0.4,0.1,0.6c0.2,0.1,0.4,0.1,0.5,0l0.7-0.9l0.9,2.1C191.2,297.5,191.4,297.6,191.5,297.5z"/>
				<path class="st18" d="M111.1,239.2v21.6c0,0.8-0.6,1.2-1.3,0.8L76,242.1c-0.8-0.5-1.3-1.3-1.3-2.3v-21.6c0-0.8,0.6-1.2,1.3-0.8
					l33.8,19.5C110.5,237.5,111,238.3,111.1,239.2z"/>
				<polygon class="st8" points="76.8,220.6 77.9,221.2 77.9,240.9 76.8,240.2 				"/>
				<polygon class="st8" points="81.2,223.1 83.1,224.2 83.1,243.9 81.2,242.8 				"/>
				<polygon class="st8" points="85.7,225.7 86.8,226.3 86.8,246 85.7,245.4 				"/>
				<polygon class="st8" points="89,227.6 91.2,228.9 91.2,248.5 89,247.2 				"/>
				<polygon class="st8" points="94.5,230.8 95.6,231.4 95.6,251.1 94.5,250.5 				"/>
				<polygon class="st8" points="97.7,232.6 100.1,234 100.1,253.7 97.7,252.3 				"/>
				<polygon class="st8" points="103.4,235.9 104.5,236.6 104.5,256.2 103.4,255.6 				"/>
				<polygon class="st8" points="105.9,237.4 106.5,237.7 106.5,257.4 105.9,257 				"/>
				<polygon class="st8" points="101.4,234.9 101.9,235.2 101.9,254.8 101.4,254.5 				"/>
				<polygon class="st8" points="92.4,229.6 93,229.9 93,249.6 92.4,249.3 				"/>
				<polygon class="st8" points="87.6,226.8 88.1,227.1 88.1,246.8 87.6,246.5 				"/>
				<polygon class="st8" points="84,224.9 84.6,225.2 84.6,244.9 84,244.5 				"/>
				<polygon class="st8" points="79.3,222 79.8,222.3 79.8,241.9 79.3,241.6 				"/>
				<polygon class="st8" points="107.9,238.5 108.9,239.1 108.9,258.8 107.8,258.2 				"/>
			</g>
			<g id="freepik--Ribbon--inject-2">
				<polygon class="st10" points="142.4,289.9 142.4,172 126.1,162.6 126.1,280.5 				"/>
				<g class="st19">
					<polygon points="142.4,289.9 142.4,172 126.1,162.6 126.1,280.5 					"/>
				</g>
				<polygon class="st10" points="238.5,300.5 238.5,182.6 254.8,173.2 254.8,291.1 				"/>
				<g class="st20">
					<polygon points="238.5,300.5 238.5,182.6 254.8,173.2 254.8,291.1 					"/>
				</g>
				<polygon class="st10" points="126.1,162.6 220.1,108.3 236.4,117.7 142.4,172 				"/>
				<g class="st21">
					<polygon points="126.1,162.6 220.1,108.3 236.4,117.7 142.4,172 					"/>
				</g>
				<g class="st21">
					<polygon points="161.9,141.9 178.4,151.2 181.3,149.6 164.9,140.1 					"/>
				</g>
				<polygon class="st10" points="254.8,173.2 124.1,97.7 107.7,107.1 238.5,182.6 				"/>
				<g class="st21">
					<polygon points="254.8,173.2 124.1,97.7 107.7,107.1 238.5,182.6 					"/>
				</g>
				<g id="freepik--ribbon--inject-2">
					<path class="st12" d="M188.4,139c0,0,23.2,20.3,61.1,15.9c0,0-15.5,11-35.1,8.6c0,0,2.5,10.9,17.8,16.8c0,0-43.5-0.6-51.1-36.4
						L188.4,139z"/>
					<path class="st10" d="M187.5,136.9c0,0,23.2,19.3,61.1,14.9c0,0-16.1,10.5-35.8,8.1c0,0,2.8,7.2,19.4,15.9
						c0,0-41.4,0.4-52.1-34L187.5,136.9z"/>
					<path class="st22" d="M187.5,136.9c0,0,23.2,19.3,61.1,14.9c0,0-16.1,10.5-35.8,8.1c0,0,2.8,7.2,19.4,15.9
						c0,0-41.4,0.4-52.1-34L187.5,136.9z"/>
					<path class="st23" d="M185.8,146.6c8.2,2.2,16.2-1.4,16.2-1.4l0,0l-1.5-0.7l-0.2-0.1l-1.4-0.6l-0.3-0.1l-1.2-0.6l-0.3-0.1
						l-1.1-0.6l-0.3-0.2l-1-0.6c-0.1-0.1-0.2-0.1-0.3-0.2l-0.9-0.6l-0.3-0.1l-0.9-0.5l-0.2-0.1l-0.8-0.5l-0.2-0.1l-0.7-0.4l-0.2-0.1
						l-0.6-0.4l-0.2-0.1l-0.5-0.3l-0.2-0.1l-0.4-0.3l-0.1-0.1l-0.3-0.2l-0.1-0.1l-0.2-0.1l-0.1-0.1h-0.1l-0.1-0.1l0,0l-2.4,1.6
						l-5,3.3c10.7,34.4,52.1,34,52.1,34l0,0C210.9,174.9,188.5,158.7,185.8,146.6z"/>
					<path class="st10" d="M238.9,111.7c0,0-4.6-5.4-18.7-2.9c-8.5,1.5-23,11.4-30.2,28c-0.9,2.1-2.9,2.8-4,4.2
						c-0.3,0.3-0.5,0.6-0.8,0.9h-4.5c0-15.5,8.7-31.1,16.9-40.1s21.7-13.4,31.4-13.8c3.4-0.2,6.8,0.5,9.9,1.9
						C241.5,97.2,242.6,104.4,238.9,111.7z"/>
					<path class="st24" d="M238.9,111.7c0,0-4.6-5.4-18.7-2.9c-8.5,1.5-23,11.4-30.2,28c-0.9,2.1-2.9,2.8-4,4.2
						c-0.3,0.3-0.5,0.6-0.8,0.9h-4.5c0-15.5,8.7-31.1,16.9-40.1s21.7-13.4,31.4-13.8c3.4-0.2,6.8,0.5,9.9,1.9
						C241.5,97.2,242.6,104.4,238.9,111.7z"/>
					<path class="st25" d="M191,134.6L191,134.6c0,0-8.1-2.7-4.7-15.6c-3.5,7.1-5.4,14.9-5.5,22.8h4.5c0.3-0.3,0.6-0.6,0.8-0.9
						c1.1-1.4,3.1-2.1,4-4.2C190.3,136,190.6,135.3,191,134.6z"/>
					<path class="st23" d="M191,134.6L191,134.6c0,0-8.1-2.7-4.7-15.6c-3.5,7.1-5.4,14.9-5.5,22.8h4.5c0.3-0.3,0.6-0.6,0.8-0.9
						c1.1-1.4,3.1-2.1,4-4.2C190.3,136,190.6,135.3,191,134.6z"/>
					<path class="st25" d="M238.9,111.7c0,0,0.7-17-10-23.8c3.4-0.2,6.8,0.5,9.9,1.9C241.5,97.2,242.6,104.4,238.9,111.7z"/>
					<path class="st23" d="M238.9,111.7c0,0,0.7-17-10-23.8c3.4-0.2,6.8,0.5,9.9,1.9C241.5,97.2,242.6,104.4,238.9,111.7z"/>
					<path class="st10" d="M230.7,121.6c3.4-2.7,6.2-6.1,8.2-9.9c3.7-7.3,2.6-14.5,0-21.9c8.3,3.7,13.2,14.4,15.1,23.1
						c1,4.9,1.1,9.1,0.3,11.1c-2.3,5.5-15.9,27.6-74.2,17.8l0.1-6.1C194.7,134.9,220.2,130.4,230.7,121.6z"/>
					<path class="st26" d="M230.7,121.6c3.4-2.7,6.2-6.1,8.2-9.9c3.7-7.3,2.6-14.5,0-21.9c8.3,3.7,13.2,14.4,15.1,23.1
						c1,4.9,1.1,9.1,0.3,11.1c-2.3,5.5-15.9,27.6-74.2,17.8l0.1-6.1C194.7,134.9,220.2,130.4,230.7,121.6z"/>
					<path class="st12" d="M174.1,139c0,0-23.2,20.3-61.1,15.9c0,0,15.5,11,35.1,8.6c0,0-2.5,10.9-17.8,16.8c0,0,43.5-0.6,51.1-36.4
						L174.1,139z"/>
					<path class="st10" d="M175.1,136.9c0,0-23.2,19.3-61.1,14.9c0,0,16.1,10.5,35.8,8.1c0,0-2.8,7.2-19.4,15.9
						c0,0,41.4,0.4,52.1-34L175.1,136.9z"/>
					<path class="st22" d="M175.1,136.9c0,0-23.2,19.3-61.1,14.9c0,0,16.1,10.5,35.8,8.1c0,0-2.8,7.2-19.4,15.9
						c0,0,41.4,0.4,52.1-34L175.1,136.9z"/>
					<path class="st23" d="M176.7,146.6c-8.2,2.2-16.3-1.4-16.3-1.4l0,0l1.5-0.7l0.2-0.1l1.4-0.6l0.3-0.1l1.2-0.6l0.3-0.1l1.1-0.6
						l0.3-0.2l1-0.6l0.3-0.2l0.9-0.6l0.3-0.1l0.9-0.5l0.2-0.1l0.8-0.5l0.2-0.1l0.7-0.4l0.2-0.1l0.6-0.4l0.2-0.1l0.5-0.3l0.1-0.1
						l0.4-0.3l0.1-0.1l0.3-0.2l0.1-0.1l0.2-0.1l0.1-0.1h0.1l0.1-0.1l0,0l2.4,1.6l5,3.3c-10.7,34.4-52.1,34-52.1,34l0,0
						C151.7,174.9,174.1,158.7,176.7,146.6z"/>
					<path class="st10" d="M123.7,111.7c0,0,4.6-5.4,18.7-2.9c8.5,1.5,23,11.4,30.2,28c0.9,2.1,2.9,2.8,4,4.2
						c0.3,0.3,0.5,0.6,0.8,0.9h4.5c0-15.5-8.7-31.1-16.9-40.1s-21.7-13.4-31.4-13.8c-3.4-0.2-6.8,0.5-9.9,1.9
						C121.1,97.2,120,104.4,123.7,111.7z"/>
					<path class="st24" d="M123.7,111.7c0,0,4.6-5.4,18.7-2.9c8.5,1.5,23,11.4,30.2,28c0.9,2.1,2.9,2.8,4,4.2
						c0.3,0.3,0.5,0.6,0.8,0.9h4.5c0-15.5-8.7-31.1-16.9-40.1s-21.7-13.4-31.4-13.8c-3.4-0.2-6.8,0.5-9.9,1.9
						C121.1,97.2,120,104.4,123.7,111.7z"/>
					<path class="st25" d="M171.6,134.6L171.6,134.6c0,0,8-2.7,4.7-15.6c3.5,7.1,5.4,14.9,5.5,22.8h-4.5c-0.3-0.3-0.6-0.6-0.8-0.9
						c-1.1-1.4-3.1-2.1-4-4.2C172.3,136,171.9,135.3,171.6,134.6z"/>
					<path class="st23" d="M171.6,134.6L171.6,134.6c0,0,8-2.7,4.7-15.6c3.5,7.1,5.4,14.9,5.5,22.8h-4.5c-0.3-0.3-0.6-0.6-0.8-0.9
						c-1.1-1.4-3.1-2.1-4-4.2C172.3,136,171.9,135.3,171.6,134.6z"/>
					<path class="st25" d="M123.7,111.7c0,0-0.7-17,10-23.8c-3.4-0.2-6.8,0.5-9.9,1.9C121.1,97.2,120,104.4,123.7,111.7z"/>
					<path class="st23" d="M123.7,111.7c0,0-0.7-17,10-23.8c-3.4-0.2-6.8,0.5-9.9,1.9C121.1,97.2,120,104.4,123.7,111.7z"/>
					<path class="st10" d="M131.9,121.6c-3.4-2.7-6.2-6.1-8.2-9.9c-3.7-7.3-2.6-14.5,0-21.9c-8.3,3.7-13.2,14.4-15.1,23.1
						c-1,4.9-1.1,9.1-0.3,11.1c2.3,5.5,15.9,27.6,74.2,17.8l-0.1-6.1C167.8,134.9,142.4,130.4,131.9,121.6z"/>
					<path class="st26" d="M131.9,121.6c-3.4-2.7-6.2-6.1-8.2-9.9c-3.7-7.3-2.6-14.5,0-21.9c-8.3,3.7-13.2,14.4-15.1,23.1
						c-1,4.9-1.1,9.1-0.3,11.1c2.3,5.5,15.9,27.6,74.2,17.8l-0.1-6.1C167.8,134.9,142.4,130.4,131.9,121.6z"/>
					<path class="st10" d="M189.3,137.8c-0.1-1.2-0.9-2.2-2-2.7c-1.9-0.7-4-1-6-0.9c-2.1-0.1-4.2,0.2-6.2,1c-1,0.5-1.7,1.5-1.8,2.6
						c-0.2,1.8-0.3,4.9,0.9,6.7c2,1.7,4.5,2.6,7.1,2.6c2.6,0.1,5.1-0.9,7.1-2.6C189.6,142.8,189.5,139.7,189.3,137.8z"/>
					<path class="st24" d="M189.3,137.8c-0.1-1.2-0.9-2.2-2-2.7c-1.9-0.7-4-1-6-0.9c-2.1-0.1-4.2,0.2-6.2,1c-1,0.5-1.7,1.5-1.8,2.6
						c-0.2,1.8-0.3,4.9,0.9,6.7c2,1.7,4.5,2.6,7.1,2.6c2.6,0.1,5.1-0.9,7.1-2.6C189.6,142.8,189.5,139.7,189.3,137.8z"/>
					<path class="st25" d="M189.4,140.7c0,0.7-0.8,1.9-2.4,3c-2.7,1.5-5.9,1.8-8.7,0.6c-2.6-0.8-4.6-2.9-5.1-5.6
						c-0.1,1.8-0.1,4.3,0.9,5.8c2,1.7,4.5,2.6,7.1,2.6c2.6,0.1,5.1-0.9,7.1-2.6C189.1,143.4,189.4,142,189.4,140.7z"/>
					<path class="st23" d="M189.4,140.7c0,0.7-0.8,1.9-2.4,3c-2.7,1.5-5.9,1.8-8.7,0.6c-2.6-0.8-4.6-2.9-5.1-5.6
						c-0.1,1.8-0.1,4.3,0.9,5.8c2,1.7,4.5,2.6,7.1,2.6c2.6,0.1,5.1-0.9,7.1-2.6C189.1,143.4,189.4,142,189.4,140.7z"/>
				</g>
			</g>
		</g>
		<g id="freepik--Cab--inject-2">
			<g id="freepik--percentage-box--inject-2">
				<path class="st18" d="M396.2,250.4l7.5-4.4c0.5-0.4,1.2-0.4,1.8-0.2c0.4,0.3,1.3,0.8,1.8,1c0.5,0.4,0.8,1,0.7,1.6v18.1
					c-0.1,1.7-1,3.3-2.5,4.3l-7.5,4.4c-0.5,0.4-1.2,0.4-1.8,0.2c-0.5-0.3-1.3-0.8-1.8-1.1c-0.5-0.4-0.8-1-0.7-1.6v-18.1
					C393.8,252.9,394.7,251.3,396.2,250.4z"/>
				<path class="st4" d="M393.7,254.6v18.1c-0.1,0.6,0.2,1.2,0.7,1.6c0.4,0.2,1.1,0.7,1.7,1c-0.5-0.4-0.7-1-0.7-1.6v-18
					c0-0.9,0.3-1.7,0.7-2.4l-1.8-1.1C394,253,393.8,253.8,393.7,254.6z"/>
				<path class="st3" d="M405.5,270.8l-7.5,4.4c-1.4,0.8-2.5,0.1-2.5-1.4v-18.1c0.1-1.7,1-3.3,2.5-4.3l7.5-4.4
					c1.4-0.8,2.5-0.1,2.5,1.4v18.1C407.9,268.3,407,269.9,405.5,270.8z"/>
			</g>
			<path class="st6" d="M395.8,285.8c-0.2,0-0.4-0.1-0.5-0.3c-0.2-0.3-0.1-0.7,0.2-0.8c0,0,0,0,0,0l5.2-3c0.2-0.1,0.3-0.3,0.3-0.5
				v-19.8c0-0.3,0.2-0.7,0.5-0.7c0.3,0,0.7,0.2,0.7,0.5c0,0.1,0,0.1,0,0.2v19.8c0,0.7-0.4,1.3-0.9,1.6l-5.2,3
				C396,285.8,395.9,285.8,395.8,285.8z"/>
			<path class="st10" d="M239.8,388.2l21.2-9.8c0,0-1.7-20-15.7-15.2S239.8,388.2,239.8,388.2z"/>
			<g class="st15">
				<path d="M239.8,388.2l21.2-9.8c0,0-1.7-20-15.7-15.2S239.8,388.2,239.8,388.2z"/>
			</g>
			<path class="st6" d="M251.5,385.7l-4.5-9.1l10.9-6.3l0,0c3.5-2,8.1-1.8,13.1,1.2c10.8,6.2,19.5,22.2,19.5,35.8
				c0,7.1-2.4,12.1-6.2,14.4l0,0l-0.2,0.1l0,0l-11.1,6.4l-4.8-9.6C258.9,411.6,251.9,397.8,251.5,385.7z"/>
			<path class="st7" d="M240.2,391.3c0,11.7,6.5,25.2,15.2,32.6l0,0c1.3,1.1,2.8,2.2,4.3,3.1c10.8,6.2,19.5,0.3,19.5-13.3
				c0-10.2-5-21.9-12-29.6l-0.1-0.1c-2.1-2.4-4.6-4.4-7.4-6.1C248.9,371.9,240.2,377.8,240.2,391.3z"/>
			<path class="st8" d="M259.6,386.2c-6.8-4-12.4,0.2-12.4,9.2s5.5,19.5,12.4,23.5c6.8,3.9,12.4-0.2,12.4-9.2
				S266.5,390.2,259.6,386.2z"/>
			<path class="st4" d="M259.6,394.1c-3.5-2-6.4,0.1-6.4,4.8s2.9,10.1,6.4,12.2s6.4-0.1,6.4-4.8S263.2,396.1,259.6,394.1z"/>
			<path class="st9" d="M257.6,394c-0.4-0.3-0.9-0.4-1.4-0.6c-1.8,0.5-3,2.4-3,5.4c0.1,3.5,1.4,6.9,3.6,9.7c0.2,0.2,0.5,0.4,0.8,0.5
				c3.2,1.8,5.7-0.1,5.7-4.2S260.8,395.8,257.6,394z"/>
			<path class="st8" d="M240.2,391.3c0,11.7,6.5,25.2,15.2,32.6c-6-6.8-10.3-15-12.3-23.9c-1.6-7.8-1-19,5.7-21.8s15.5,3.1,18.3,5.9
				c-2.1-2.4-4.6-4.4-7.4-6.1C248.9,371.9,240.2,377.8,240.2,391.3z"/>
			<path class="st10" d="M315.3,431.8l-19.2-11.1l-2.5-1.5l-4.9-2.8l0,0l-2.3-1.3c0.1-0.2,0.1-0.4,0.1-0.7c0.1-0.4,0.1-0.7,0.1-1.1
				c0-14.9-10.5-33-23.4-40.4c-1.2-0.7-2.5-1.3-3.8-1.8l0,0c-0.6-0.2-1.1-0.4-1.6-0.6l0,0c-10.2-3.1-17.9,3.1-17.9,15.9v1.9
				l-32-18.5V223.9l0,0l39.8,23l34.7,25.6l15.7,76.5l12.2,17.9l0.6,1l7.5,10.9l0,0l2.4,29.8l0.6,6.5l0.3,2.7l0,0l0.6,6.4l0.3,3
				c0.2,2.7-1.7,5-4.4,5.2C317.2,432.5,316.2,432.3,315.3,431.8z"/>
			<g class="st21">
				<path d="M315.3,431.8l-19.2-11.1l-2.5-1.5l-4.9-2.8l0,0l-2.3-1.3c0.1-0.2,0.1-0.4,0.1-0.7c0.1-0.4,0.1-0.7,0.1-1.1
					c0-14.9-10.5-33-23.4-40.4c-1.2-0.7-2.5-1.3-3.8-1.8l0,0c-0.6-0.2-1.1-0.4-1.6-0.6l0,0c-10.2-3.1-17.9,3.1-17.9,15.9v1.9
					l-32-18.5V223.9l0,0l39.8,23l34.7,25.6l15.7,76.5l12.2,17.9l0.6,1l7.5,10.9l0,0l2.4,29.8l0.6,6.5l0.3,2.7l0,0l0.6,6.4l0.3,3
					c0.2,2.7-1.7,5-4.4,5.2C317.2,432.5,316.2,432.3,315.3,431.8z"/>
			</g>
			<path class="st8" d="M263.2,274.8V322c0,1.7-1.2,2.4-2.7,1.6L221.4,301c-1.6-1-2.6-2.8-2.7-4.7v-49.7c0-1.7,1.2-2.4,2.7-1.6
				l23.5,13.6c1.5,0.9,3.9,2.4,5.2,3.4l10.6,7.8C262.2,271.1,263.1,272.9,263.2,274.8z"/>
			<path class="st8" d="M275.8,332.4c-2.7-1.7-4.4-4.7-4.5-7.8v-41.7c0-2.9,1.1-4.4,2.4-3.4l2.4,1.8c1.8,1.5,3,3.5,3.6,5.8l9.6,50.1
				c0.4,2-0.7,2.8-2.4,1.7L275.8,332.4z"/>
			<g class="st21">
				<path d="M265.2,267.6l-15.8-11.5c-1.2-0.9-3.2-2.2-4.4-2.9L216.9,237c-0.6-0.4-1.4-0.5-2.1-0.2c-0.6,0.4-1,1.2-0.9,1.9V366
					c0.1,1.8,1,3.4,2.5,4.4l18.4,10.6c0.4,0.2,0.8,0.4,1.3,0.4c0.3,0,0.5-0.1,0.8-0.2c0.3-0.2,0.6-0.4,0.8-0.7
					c0.2-0.3,0.4-0.7,0.4-1.1c0.7-3.4,2.7-9.4,9-11.9c3.3-1.2,6.9-1.3,10.3-0.3l0,0c1.8,0.5,3.5,1.1,5.1,1.9c0.7,0.4,1.4,0.7,2,1
					c0.6,0.4,1.4,0.5,2.1,0.2c0.2-0.1,0.4-0.3,0.5-0.5c0.2-0.4,0.4-0.9,0.4-1.4v-96.3C267.4,270.4,266.6,268.7,265.2,267.6z
					 M265.9,369.5c-0.2,0-0.5,0-0.7-0.1l0,0l-0.2-0.1c-2.7-1.6-5.6-2.7-8.6-3.4c-3.2-0.8-6.6-0.5-9.7,0.6c-6.1,2.4-8.4,7.8-9.4,11.5
					l0,0c-0.1,0.4-0.2,0.8-0.3,1.2c0,0.5-0.3,0.9-0.7,1.1c-0.4,0.1-0.8,0.1-1.1-0.2l-18.4-10.6c-1.2-0.8-1.9-2.1-2-3.5V238.7
					c0-0.4,0.1-0.8,0.4-1c0.1-0.1,0.2-0.1,0.3-0.1c0.3,0,0.5,0.1,0.7,0.2l28.1,16.2c1.2,0.7,3.2,2,4.3,2.8l15.8,11.5
					c1.1,0.9,1.8,2.3,1.9,3.7v96.3c0.1,0.4-0.1,0.7-0.3,1C266.1,369.5,266,369.5,265.9,369.5L265.9,369.5z"/>
			</g>
			<path class="st10" d="M423.2,365.9c0,0-14.5,20.1-46.2,39c-26.3,15.7-54.9,19.4-54.9,19.4l-3.7-45.4l101.1-58.4L423.2,365.9z"/>
			<g class="st19">
				<path d="M423.2,365.9c0,0-14.5,20.1-46.2,39c-26.3,15.7-54.9,19.4-54.9,19.4l-3.7-45.4l101.1-58.4L423.2,365.9z"/>
			</g>
			<path class="st10" d="M419.5,320.4c0,0-14.5,20.1-46.2,39c-26.3,15.7-54.9,19.4-54.9,19.4L298.1,349l101.1-58.4L419.5,320.4z"/>
			<path class="st7" d="M425,359.2c-0.2-0.2-0.3-0.2-0.5,0.2c0,0-14.5,20.1-46.2,39c-26.3,15.7-54.9,19.4-54.9,19.4
				c-12.3,1.1-27.3-11.9-27.3-11.9l2.1-1.5c0,0,14.3,10.8,21.5,10.8c6.2,0,28.6-2.8,58.9-20s44-37.9,44-37.9
				C423.7,357.4,424.6,358.1,425,359.2z"/>
			<path class="st8" d="M424.5,359.3c0,0-14.5,20.1-46.2,39c-26.3,15.7-54.9,19.4-54.9,19.4c-12.3,1.1-27.3-11.8-27.3-11.8l0,0v17.3
				c0,0,15,13,27.3,11.8c0,0,28.6-3.7,54.9-19.4c31.6-18.9,46.2-39,46.2-39C427,372.4,425.9,356.8,424.5,359.3z"/>
			<path class="st14" d="M331.8,387.9c4.5-1.1,8.6,2,9.1,6.8c0.5,4.9-2.7,9.4-7.4,10.7c-3.9,1-7.9-1.4-8.9-5.3
				c-0.1-0.5-0.2-1-0.2-1.5C323.9,393.8,327.2,389,331.8,387.9z"/>
			<path class="st14" d="M412.2,341.9c-2.8,2.7-4.5,8.6-3.9,13.1s3.1,5.9,5.8,3.2s4.4-8.6,3.9-13.1S414.9,339.1,412.2,341.9z"/>
			<path class="st7" d="M348.6,382c8.7-2.8,17.1-6.5,25-11.2c1.2-0.7,2.2-0.2,2.2,1.3v1.8c-0.1,1.6-0.9,3.1-2.2,4
				c-7.9,4.7-16.3,8.4-25,11.2c-1,0.4-2-0.1-2.4-1.1c-0.1-0.3-0.1-0.5-0.1-0.8v-1.8C346.2,383.8,347.2,382.5,348.6,382z"/>
			<path class="st7" d="M403,352.3v1.8c-0.1,1.6-0.8,3.2-2,4.3c-6,5-12.2,9.7-18.7,14c-1.2,0.8-2.2,0.2-2.2-1.2v-1.8
				c0.1-1.6,0.9-3.1,2.2-4c6.5-4.3,12.7-9,18.7-14C402.1,350.4,403,350.8,403,352.3z"/>
			<path class="st7" d="M348.6,394.8c8.7-2.7,17.1-6.5,25-11.2c1.2-0.7,2.2-0.2,2.2,1.3v1.8c-0.1,1.6-0.9,3.1-2.2,4
				c-7.9,4.7-16.3,8.4-25,11.2c-1,0.4-2-0.1-2.4-1.1c-0.1-0.3-0.1-0.5-0.1-0.8v-1.8C346.2,396.6,347.2,395.3,348.6,394.8z"/>
			<path class="st7" d="M403,365.1v1.8c-0.1,1.6-0.8,3.2-2,4.3c-6,5-12.2,9.7-18.7,14c-1.2,0.8-2.2,0.3-2.2-1.2v-1.8
				c0.1-1.6,0.9-3.1,2.2-4c6.5-4.3,12.7-9,18.7-14C402.1,363.2,403,363.6,403,365.1z"/>
			<g class="st21">
				<path d="M352.4,330.6c-13.4,7.3-27.4,13.6-41.7,19c-1.1,0.3-1.6,1.5-1.3,2.5c0.1,0.2,0.2,0.4,0.3,0.6l0.1,0.1
					c0.9,1.3,2.5,1.9,4,1.7c6.1-1.3,22.7-5.7,43.4-16.8c1.1-0.6,1.6-2,1-3.1c-0.1-0.1-0.1-0.2-0.2-0.3l-1.9-2.8
					C355.3,330.3,353.7,329.9,352.4,330.6z"/>
			</g>
			<g class="st21">
				<path d="M395.5,300.6c-10.7,9.2-22.2,17.6-34.4,24.9c-1.2,0.7-1.6,2.2-0.9,3.3c0,0.1,0.1,0.1,0.1,0.2l1.9,2.8
					c0.8,1.2,2.5,1.6,3.7,0.8c18.7-11.3,28.7-21.2,33.3-26.6c0.9-1.2,1-2.9,0.2-4.2l-0.5-0.8c-0.7-1-2-1.4-3.1-0.7
					C395.8,300.4,395.7,300.5,395.5,300.6z"/>
			</g>
			<path class="st8" d="M399.2,290.6c0,0-16.7,16.8-44.2,32.8s-56.9,25.5-56.9,25.5l-15.8-76.6l63.2-36.4l29-16.8l8.9-5.1
				L399.2,290.6z"/>
			<path class="st10" d="M383.4,214l-8.9,5.1l-29.1,16.8l-63.2,36.4l15.8,76.6l0,0l1.1-0.4l0.2-0.1l1.1-0.4l0.5-0.1h0.1h0.1l0.8-0.3
				l1.2-0.4l1.2-0.4l0.8-0.3l1-0.4l3.4-1.3l0.8-0.3c2.7-1,5.8-2.3,9.1-3.7l3.3-1.4l0.5-0.2l0.6-0.2c0.7-0.3,1.4-0.6,2.1-0.9l0.6-0.3
				l1.4-0.6l1.6-0.7c1.2-0.5,2.4-1.1,3.6-1.7s2.5-1.2,3.7-1.8c0.9-0.5,1.9-0.9,2.8-1.4l2.3-1.1l0.2-0.1l2.3-1.2l0.2-0.1l2-1.1
				l1.6-0.9c1.3-0.7,2.6-1.4,3.9-2.2l2.6-1.5l2.4-1.5c0.7-0.4,1.3-0.8,2-1.2c0.2-0.1,0.5-0.3,0.8-0.5c0.8-0.5,1.5-0.9,2.2-1.4
				l0.3-0.2l1.1-0.7c0.5-0.3,0.9-0.6,1.4-0.9l1.3-0.9l1.3-0.9c0.5-0.4,1.1-0.7,1.6-1.1c1.1-0.7,2.1-1.5,3.2-2.2l0.2-0.1l1.2-0.8
				c1.6-1.1,3.1-2.2,4.5-3.3l1.1-0.8l1-0.8l1-0.8c0.7-0.5,1.3-1,2-1.5l0.1-0.1l0.8-0.6l1.9-1.5l1.2-0.9c0.2-0.2,0.5-0.4,0.7-0.6
				s0.5-0.4,0.7-0.6l0.7-0.5c0,0,0,0,0,0l1.5-1.2c1.9-1.6,3.4-3,4.7-4.1c0.2-0.2,0.3-0.3,0.5-0.5l0.1-0.1l0.5-0.5l0,0
				c1.5-1.4,2.3-2.1,2.4-2.3l0,0L383.4,214z M349.4,321C349.4,321,349.4,321,349.4,321c0,0.2-0.1,0.4-0.1,0.5v0.1
				c0,0.1-0.1,0.2-0.1,0.4c0,0.1,0,0.1-0.1,0.2c-0.1,0.1-0.1,0.3-0.2,0.4c-0.3,0.5-0.6,0.9-1.1,1.2c-0.1,0.1-0.3,0.2-0.5,0.3
				c-3.7,2-7.4,3.9-11.1,5.7l-1.9,0.9c-1.5,0.7-3,1.4-4.5,2.1l-2.1,1l-3.6,1.6c-0.6,0.3-1.2,0.5-1.7,0.8l-1.7,0.7
				c-2.2,1-4.4,1.8-6.4,2.7l0,0c-1.1,0.4-2.1,0.9-3.1,1.2l-1.5,0.6c-2.4,0.9-4.5,1.7-6.3,2.4c-1.2,0.5-2.6,0-3.2-1.1
				c-0.2-0.3-0.3-0.6-0.3-0.9l-9.7-48.4c-0.3-1.8,0.5-3.6,2.1-4.6l41-23.7c1-0.7,2.4-0.4,3.1,0.6c0.2,0.3,0.3,0.6,0.4,0.9l9.7,40.5
				l2.9,12.3l0,0.2v0.1c0,0.1,0,0.1,0,0.2c0,0.1,0,0.1,0,0.2c0,0.1,0,0.2,0,0.4C349.4,320.7,349.4,320.8,349.4,321z M385.5,298.5
				L385.5,298.5L385.5,298.5l-0.7,0.6c-2.4,1.9-5.1,4-8.1,6.3c-1,0.8-2.1,1.5-3.2,2.3l-1.2,0.9c-1.6,1.1-3.2,2.3-5,3.5l-1.7,1.1
				c-0.6,0.4-1.2,0.8-1.8,1.1s-1.2,0.8-1.8,1.2c-2.1,1.4-4.4,2.8-6.7,4.1c-1,0.7-2.3,0.5-3-0.5c-0.2-0.3-0.3-0.6-0.4-1l-0.1-0.3l0,0
				l-2.9-12.2l-9.6-40.4c-0.3-1.8,0.4-3.6,2-4.6l7.8-4.5l31.6-18.3l1.4-0.8l0.1-0.1c1-0.6,2.3-0.3,2.9,0.7c0.2,0.3,0.3,0.6,0.3,0.9
				l9.7,48c0.2,1.5-0.1,3-0.9,4.2c-0.1,0.2-0.2,0.3-0.4,0.5l0,0c-0.1,0.1-0.2,0.3-0.4,0.4l-0.5,0.5c-0.2,0.2-0.5,0.4-0.7,0.6
				l-2.2,1.9c-0.8,0.7-1.6,1.4-2.5,2.1l-1.9,1.6L385.5,298.5L385.5,298.5z"/>
			<g class="st19">
				<path d="M383.4,214l-8.9,5.1l-29.1,16.8l-63.2,36.4l15.8,76.6l0,0l1.1-0.4l0.2-0.1l1.1-0.4l0.5-0.1h0.1h0.1l0.8-0.3l1.2-0.4
					l1.2-0.4l0.8-0.3l1-0.4l3.4-1.3l0.8-0.3c2.7-1,5.8-2.3,9.1-3.7l3.3-1.4l0.5-0.2l0.6-0.2c0.7-0.3,1.4-0.6,2.1-0.9l0.6-0.3
					l1.4-0.6l1.6-0.7c1.2-0.5,2.4-1.1,3.6-1.7s2.5-1.2,3.7-1.8c0.9-0.5,1.9-0.9,2.8-1.4l2.3-1.1l0.2-0.1l2.3-1.2l0.2-0.1l2-1.1
					l1.6-0.9c1.3-0.7,2.6-1.4,3.9-2.2l2.6-1.5l2.4-1.5c0.7-0.4,1.3-0.8,2-1.2c0.2-0.1,0.5-0.3,0.8-0.5c0.8-0.5,1.5-0.9,2.2-1.4
					l0.3-0.2l1.1-0.7c0.5-0.3,0.9-0.6,1.4-0.9l1.3-0.9l1.3-0.9c0.5-0.4,1.1-0.7,1.6-1.1c1.1-0.7,2.1-1.5,3.2-2.2l0.2-0.1l1.2-0.8
					c1.6-1.1,3.1-2.2,4.5-3.3l1.1-0.8l1-0.8l1-0.8c0.7-0.5,1.3-1,2-1.5l0.1-0.1l0.8-0.6l1.9-1.5l1.2-0.9c0.2-0.2,0.5-0.4,0.7-0.6
					s0.5-0.4,0.7-0.6l0.7-0.5c0,0,0,0,0,0l1.5-1.2c1.9-1.6,3.4-3,4.7-4.1c0.2-0.2,0.3-0.3,0.5-0.5l0.1-0.1l0.5-0.5l0,0
					c1.5-1.4,2.3-2.1,2.4-2.3l0,0L383.4,214z M349.4,321C349.4,321,349.4,321,349.4,321c0,0.2-0.1,0.4-0.1,0.5v0.1
					c0,0.1-0.1,0.2-0.1,0.4c0,0.1,0,0.1-0.1,0.2c-0.1,0.1-0.1,0.3-0.2,0.4c-0.3,0.5-0.6,0.9-1.1,1.2c-0.1,0.1-0.3,0.2-0.5,0.3
					c-3.7,2-7.4,3.9-11.1,5.7l-1.9,0.9c-1.5,0.7-3,1.4-4.5,2.1l-2.1,1l-3.6,1.6c-0.6,0.3-1.2,0.5-1.7,0.8l-1.7,0.7
					c-2.2,1-4.4,1.8-6.4,2.7l0,0c-1.1,0.4-2.1,0.9-3.1,1.2l-1.5,0.6c-2.4,0.9-4.5,1.7-6.3,2.4c-1.2,0.5-2.6,0-3.2-1.1
					c-0.2-0.3-0.3-0.6-0.3-0.9l-9.7-48.4c-0.3-1.8,0.5-3.6,2.1-4.6l41-23.7c1-0.7,2.4-0.4,3.1,0.6c0.2,0.3,0.3,0.6,0.4,0.9l9.7,40.5
					l2.9,12.3l0,0.2v0.1c0,0.1,0,0.1,0,0.2c0,0.1,0,0.1,0,0.2c0,0.1,0,0.2,0,0.4C349.4,320.7,349.4,320.8,349.4,321z M385.5,298.5
					L385.5,298.5L385.5,298.5l-0.7,0.6c-2.4,1.9-5.1,4-8.1,6.3c-1,0.8-2.1,1.5-3.2,2.3l-1.2,0.9c-1.6,1.1-3.2,2.3-5,3.5l-1.7,1.1
					c-0.6,0.4-1.2,0.8-1.8,1.1s-1.2,0.8-1.8,1.2c-2.1,1.4-4.4,2.8-6.7,4.1c-1,0.7-2.3,0.5-3-0.5c-0.2-0.3-0.3-0.6-0.4-1l-0.1-0.3
					l0,0l-2.9-12.2l-9.6-40.4c-0.3-1.8,0.4-3.6,2-4.6l7.8-4.5l31.6-18.3l1.4-0.8l0.1-0.1c1-0.6,2.3-0.3,2.9,0.7
					c0.2,0.3,0.3,0.6,0.3,0.9l9.7,48c0.2,1.5-0.1,3-0.9,4.2c-0.1,0.2-0.2,0.3-0.4,0.5l0,0c-0.1,0.1-0.2,0.3-0.4,0.4l-0.5,0.5
					c-0.2,0.2-0.5,0.4-0.7,0.6l-2.2,1.9c-0.8,0.7-1.6,1.4-2.5,2.1l-1.9,1.6L385.5,298.5L385.5,298.5z"/>
			</g>
			<path class="st8" d="M290.7,284.8l91.2-52.7c1.2-0.8,1.8-2.2,1.6-3.6l-1.7-8.2c-0.1-0.9-0.9-1.5-1.8-1.5c-0.3,0-0.6,0.1-0.8,0.3
				l-91.2,52.7c-1.2,0.8-1.8,2.2-1.6,3.6l1.6,8.2c0.1,0.9,0.9,1.5,1.8,1.5C290.2,285,290.5,284.9,290.7,284.8z"/>
			<path class="st7" d="M349.3,319.6c0.4,1.8-0.4,3.6-2,4.5c-14.1,7.6-28.8,14.2-43.9,19.7c-1.3,0.5-2.9-0.1-3.4-1.4
				c-0.1-0.2-0.1-0.4-0.2-0.6l-0.6-3.2c8.9-6.4,30.4-21.8,46.9-31.4c0.1,0,0.1-0.1,0.2-0.1L349.3,319.6z"/>
			<path class="st7" d="M394.3,290.8c-0.2,0.3-0.5,0.6-0.8,0.9c-11.8,10.5-24.6,19.9-38.1,28c-1,0.7-2.3,0.5-3-0.5
				c-0.2-0.3-0.3-0.6-0.4-1l-3-12.6c12.9-7.1,26.3-13.2,40.1-18.2L394.3,290.8z"/>
			<path class="st27" d="M387.9,280.4l-11.1-6.4c-2.7-1.7-4.4-4.7-4.5-7.9v-23.4l8.5-4.9l1.4-0.8c0,0,0.1-0.1,0.1-0.1l8,41.7
				C390.8,280.6,389.6,281.4,387.9,280.4z"/>
			<path class="st27" d="M364.3,247.4v16.2c0,1.7-1.2,2.4-2.7,1.6l-14-8.1l1.7-1L364.3,247.4z"/>
			<polygon class="st10" points="383.4,214 282.3,272.4 247.6,246.8 207.8,223.9 308.9,165.5 348.7,188.5 			"/>
			<g id="freepik--percentage-box--inject-2_1_">
				<path class="st18" d="M272,321l7.5-4.4c0.5-0.4,1.2-0.4,1.8-0.2l1.8,1.1c0.5,0.4,0.8,1,0.7,1.6v18.1c-0.1,1.7-1,3.3-2.5,4.3
					l-7.5,4.4c-0.5,0.4-1.2,0.4-1.8,0.2c-0.4-0.3-1.3-0.8-1.8-1.1c-0.5-0.4-0.8-1-0.7-1.6v-18.1C269.6,323.6,270.5,322,272,321z"/>
				<path class="st4" d="M269.5,325.3v18.1c-0.1,0.6,0.2,1.2,0.7,1.6c0.4,0.2,1.1,0.7,1.7,1c-0.5-0.4-0.7-1-0.7-1.6v-18
					c0-0.8,0.3-1.7,0.7-2.4l-1.8-1.1C269.8,323.7,269.5,324.5,269.5,325.3z"/>
				<path class="st3" d="M281.3,341.5l-7.5,4.4c-1.4,0.8-2.5,0.1-2.5-1.4v-18.1c0.1-1.7,1-3.3,2.5-4.3l7.5-4.4
					c1.4-0.8,2.5-0.1,2.5,1.4v18.1C283.7,339,282.8,340.6,281.3,341.5z"/>
			</g>
			<path class="st7" d="M288,344.5c1.5,1,2.4,2.6,2.5,4.4c0,1.6-1.1,2.3-2.5,1.5c-1.5-1-2.4-2.6-2.5-4.4
				C285.5,344.4,286.6,343.7,288,344.5z"/>
			<path class="st6" d="M279.1,353c-0.3,0-0.7-0.1-0.9-0.3c-0.6-0.3-0.9-1-0.9-1.6v-18.3c0-0.3,0.2-0.7,0.5-0.7
				c0.3,0,0.7,0.2,0.7,0.5c0,0.1,0,0.1,0,0.2v18.3c0,0.2,0.1,0.4,0.3,0.5c0.2,0.1,0.4,0.1,0.6,0l8.3-4.8c0.3-0.2,0.7-0.1,0.8,0.2
				c0,0,0,0,0,0c0.2,0.3,0.1,0.7-0.2,0.9l-8.3,4.8C279.7,352.9,279.4,353,279.1,353z"/>
		</g>
	</g>
</g>
<g id="freepik--Label--inject-2">
	<g id="freepik--label--inject-2_1_">
		<path class="st7" d="M181.3,135.2c-0.5,0-0.9-0.4-1-0.9c-4.6-33.4,19.8-53.9,44.2-61.8c25.5-8.3,43.4,2.8,44.2,3.2
			c0.5,0.3,0.6,0.9,0.3,1.4c-0.3,0.5-0.9,0.6-1.4,0.3c-0.2-0.1-18-11-42.5-3c-23.6,7.7-47.3,27.4-42.8,59.6c0.1,0.5-0.3,1.1-0.8,1.1
			c0,0,0,0,0,0L181.3,135.2z"/>
		<g id="freepik--label--inject-2">
			<path class="st10" d="M336.1,16.2l-64.2,37l-16.3,33l16.3,14.2l1.8,1.1l64.2-37V17.3L336.1,16.2z M269.7,80.2
				c0.1-2.8,1.6-5.3,3.9-6.8c0.5-0.3,1.1-0.5,1.7-0.5c0.3,0.5,0.4,1.1,0.4,1.7c-0.2,2.8-1.6,5.3-3.9,6.8c-0.5,0.3-1.1,0.5-1.7,0.5
				C269.8,81.4,269.7,80.8,269.7,80.2L269.7,80.2z"/>
			<path class="st10" d="M273.8,54.3l-16.3,33l16.3,14.2l64.2-37V17.3L273.8,54.3z M273.6,82.4c-2.2,1.3-3.9,0.2-3.9-2.3
				c0.1-2.8,1.6-5.3,3.9-6.8c2.2-1.2,3.9-0.2,3.9,2.3C277.4,78.4,275.9,80.9,273.6,82.4z"/>
			<path class="st28" d="M277.5,75.6c-0.1,2.8-1.6,5.3-3.9,6.8c-1.6,0.9-2.9,0.6-3.5-0.5l0,0c0.6,0,1.2-0.2,1.7-0.5
				c2.3-1.5,3.8-4,3.9-6.8c0-0.6-0.1-1.2-0.4-1.7c0.5,0,1.1,0.2,1.5,0.6C277.3,74,277.6,74.8,277.5,75.6z"/>
			<polygon class="st29" points="338,17.3 336.1,16.2 271.9,53.2 273.8,54.3 			"/>
			<polygon class="st30" points="273.8,54.3 257.4,87.3 255.6,86.3 271.9,53.2 			"/>
			<polygon class="st28" points="257.4,87.3 273.8,101.5 271.9,100.4 255.6,86.3 			"/>
		</g>
		<g id="freepik--Text--inject-2">
			<path class="st18" d="M293.6,50.2c0.1-0.1,0.2-0.1,0.3,0c0.1,0.1,0.2,0.3,0.1,0.5v2.9c0,0.2-0.1,0.4-0.1,0.6
				c-0.1,0.2-0.2,0.3-0.3,0.4l-5.4,3.1v3.8l5-2.9c0.1-0.1,0.2-0.1,0.3,0c0.1,0.1,0.2,0.3,0.1,0.4V62c0,0.2-0.1,0.4-0.1,0.6
				c-0.1,0.2-0.2,0.3-0.3,0.4l-5,2.9v6c0,0.2-0.1,0.4-0.1,0.6c-0.1,0.2-0.2,0.3-0.3,0.4l-2.4,1.4c-0.1,0.1-0.2,0.1-0.3,0
				c-0.1-0.1-0.2-0.3-0.1-0.4V56c0-0.2,0.1-0.4,0.1-0.6c0.1-0.2,0.2-0.3,0.3-0.4L293.6,50.2z"/>
			<path class="st18" d="M301.8,45.5c0.6-0.4,1.4-0.7,2.1-0.8c0.5-0.1,1.1,0,1.6,0.2c0.5,0.3,0.8,0.8,1,1.4c0.3,0.8,0.4,1.7,0.4,2.6
				c0,1.3-0.2,2.5-0.6,3.8c-0.3,1.1-0.9,2.1-1.6,3l2.2,5.3c0,0.1,0.1,0.2,0,0.3c0,0.2,0,0.3-0.1,0.5c-0.1,0.1-0.2,0.3-0.3,0.3
				l-2.4,1.4c-0.2,0.1-0.4,0.2-0.5,0c-0.1-0.1-0.2-0.2-0.2-0.4l-2-4.8l-1.6,1v5.9c0,0.2-0.1,0.4-0.1,0.6c-0.1,0.2-0.2,0.3-0.3,0.4
				l-2.4,1.3c-0.1,0.1-0.2,0.1-0.4,0c-0.1-0.1-0.2-0.3-0.1-0.4V49.4c0-0.2,0.1-0.4,0.1-0.6c0.1-0.2,0.2-0.3,0.4-0.4L301.8,45.5z
				 M299.8,55.1l2-1.2c0.5-0.3,0.9-0.7,1.2-1.2c0.3-0.6,0.5-1.2,0.5-1.9c0-0.8-0.2-1.2-0.5-1.3c-0.4-0.1-0.9,0-1.2,0.3l-2,1.2
				L299.8,55.1z"/>
			<path class="st18" d="M318.4,50.9c0.1-0.1,0.2-0.1,0.3,0c0.1,0.1,0.2,0.3,0.1,0.4v2.9c0,0.2-0.1,0.4-0.1,0.6
				c-0.1,0.2-0.2,0.3-0.3,0.4l-8.5,4.9c-0.1,0.1-0.2,0.1-0.3,0c-0.1-0.1-0.2-0.3-0.1-0.4V41.9c0-0.2,0.1-0.4,0.1-0.6
				c0.1-0.2,0.2-0.3,0.3-0.4l8.4-4.8c0.1-0.1,0.2-0.1,0.3,0c0.1,0.1,0.2,0.3,0.1,0.4v2.9c0,0.2,0,0.4-0.1,0.6
				c-0.1,0.2-0.2,0.3-0.3,0.4l-5.5,3.2v3l5.1-3c0.1-0.1,0.2-0.1,0.4,0c0.1,0.1,0.2,0.3,0.1,0.4V47c0,0.2-0.1,0.4-0.1,0.6
				c-0.1,0.2-0.2,0.3-0.4,0.4l-5.1,3v3.1L318.4,50.9z"/>
			<path class="st18" d="M330.3,44c0.1-0.1,0.2-0.1,0.3,0c0.1,0.1,0.2,0.3,0.1,0.4v2.9c0,0.2,0,0.4-0.1,0.6
				c-0.1,0.2-0.2,0.3-0.3,0.4l-8.5,4.9c-0.1,0.1-0.2,0.1-0.3,0c-0.1-0.1-0.2-0.3-0.1-0.4V35c0-0.2,0.1-0.4,0.1-0.6
				c0.1-0.2,0.2-0.3,0.3-0.4l8.4-4.8c0.1-0.1,0.2-0.1,0.3,0c0.1,0.1,0.2,0.3,0.1,0.4v2.9c0,0.2-0.1,0.4-0.1,0.6
				c-0.1,0.2-0.2,0.3-0.3,0.4l-5.5,3.2v3l5.1-3c0.1-0.1,0.2-0.1,0.3,0c0.1,0.1,0.2,0.3,0.1,0.4v2.9c0,0.2-0.1,0.4-0.1,0.6
				c-0.1,0.2-0.2,0.3-0.3,0.4l-5.1,3v3.1L330.3,44z"/>
			<path class="st18" d="M286.9,76.3c0.3-0.2,0.7-0.3,1.1-0.4c0.3,0,0.6,0,0.9,0.2c0.2,0.1,0.4,0.3,0.6,0.6c0.1,0.3,0.2,0.6,0.2,0.8
				c0,0.1,0,0.2-0.1,0.3c0,0.1-0.1,0.1-0.1,0.2l-1.2,0.7c-0.1,0-0.1,0.1-0.2,0.1c-0.1,0-0.1,0-0.2-0.1c0,0-0.1-0.1-0.1-0.1
				c-0.1-0.1-0.3-0.2-0.5-0.1c-0.1,0-0.3,0.1-0.4,0.2c-0.1,0.1-0.2,0.1-0.3,0.2c-0.1,0.1-0.2,0.2-0.3,0.3c-0.1,0.1-0.2,0.2-0.2,0.3
				c-0.1,0.1-0.1,0.3-0.1,0.4c0,0.2,0.1,0.4,0.2,0.4c0.1,0,0.1,0,0.2,0c0.2,0,0.4,0,0.6-0.1c0.2-0.1,0.5-0.1,0.9-0.2
				c0.3-0.1,0.6-0.1,0.9-0.1c0.2,0,0.5,0.1,0.6,0.2c0.2,0.2,0.3,0.4,0.4,0.7c0.1,0.4,0.1,0.7,0.1,1.1c0,0.5-0.1,1-0.2,1.4
				c-0.1,0.5-0.4,0.9-0.6,1.3c-0.5,0.9-1.2,1.6-2.1,2.1c-0.4,0.2-0.8,0.4-1.2,0.4c-0.3,0-0.6,0-0.9-0.2c-0.3-0.1-0.5-0.4-0.6-0.6
				c-0.2-0.3-0.2-0.7-0.2-1c0-0.1,0-0.2,0.1-0.3c0-0.1,0.1-0.1,0.1-0.2l1.2-0.7c0.1,0,0.1-0.1,0.2-0.1c0.1,0,0.1,0,0.1,0.1
				c0,0,0.1,0.1,0.1,0.1c0.1,0.1,0.1,0.1,0.2,0.2c0.1,0,0.2,0.1,0.3,0.1c0.2,0,0.3-0.1,0.5-0.2c0.3-0.2,0.6-0.4,0.8-0.7
				c0.2-0.2,0.3-0.5,0.3-0.8c0-0.1,0-0.2-0.1-0.3c-0.1-0.1-0.2-0.1-0.4-0.1c-0.2,0-0.4,0.1-0.6,0.1c-0.2,0.1-0.6,0.2-0.9,0.2
				c-0.5,0.2-1,0.1-1.4-0.2c-0.4-0.5-0.5-1.1-0.5-1.8c0-0.4,0.1-0.9,0.2-1.3c0.1-0.5,0.3-0.9,0.5-1.3c0.2-0.4,0.5-0.8,0.9-1.2
				C286.1,76.8,286.5,76.5,286.9,76.3z"/>
			<path class="st18" d="M296.4,70.9c0.1,0,0.1,0,0.2,0c0.1,0.1,0.1,0.1,0.1,0.2v9.4c0,0.1,0,0.2-0.1,0.3c0,0.1-0.1,0.2-0.2,0.2
				l-1.2,0.7c-0.1,0-0.1,0-0.2,0c-0.1-0.1-0.1-0.1-0.1-0.2V78l-2.1,1.2v3.6c0,0.1,0,0.2-0.1,0.3c0,0.1-0.1,0.2-0.2,0.2l-1.2,0.7
				c-0.1,0-0.1,0-0.2,0c-0.1-0.1-0.1-0.2-0.1-0.2v-9.4c0-0.1,0-0.2,0.1-0.3c0-0.1,0.1-0.2,0.2-0.2l1.2-0.7c0.1,0,0.1,0,0.2,0
				c0.1,0.1,0.1,0.1,0.1,0.2v3.5l2.1-1.2v-3.5c0-0.1,0-0.2,0.1-0.3c0-0.1,0.1-0.2,0.2-0.2L296.4,70.9z"/>
			<path class="st18" d="M298.5,79.9c-0.1,0-0.1,0-0.2,0c-0.1-0.1-0.1-0.2-0.1-0.2v-9.4c0-0.1,0-0.2,0.1-0.3c0-0.1,0.1-0.2,0.2-0.2
				l1.2-0.7c0.1,0,0.1,0,0.2,0c0.1,0.1,0.1,0.2,0.1,0.2v9.4c0,0.1,0,0.2-0.1,0.3c0,0.1-0.1,0.2-0.2,0.2L298.5,79.9z"/>
			<path class="st18" d="M304.5,66.2c0.3-0.2,0.7-0.3,1.1-0.4c0.3-0.1,0.6,0,0.8,0.2c0.3,0.2,0.4,0.5,0.5,0.8
				c0.1,0.4,0.2,0.9,0.2,1.4c0,0.5-0.1,1.1-0.2,1.6c-0.1,0.5-0.3,0.9-0.5,1.4c-0.2,0.4-0.5,0.8-0.8,1.1c-0.3,0.3-0.7,0.6-1.1,0.8
				l-1.2,0.7v3c0,0.1,0,0.2-0.1,0.3c0,0.1-0.1,0.2-0.2,0.2l-1.2,0.7c-0.1,0-0.1,0-0.2,0c-0.1-0.1-0.1-0.1-0.1-0.2v-9.4
				c0-0.1,0-0.2,0.1-0.3c0-0.1,0.1-0.2,0.2-0.2L304.5,66.2z M303.3,71.5l1.2-0.7c0.6-0.3,0.9-1,0.9-1.7c0-0.4-0.1-0.7-0.3-0.7
				c-0.2-0.1-0.5,0-0.7,0.1l-1.2,0.7V71.5z"/>
			<path class="st18" d="M311.2,62.3c0.3-0.2,0.7-0.3,1.1-0.4c0.3-0.1,0.6,0,0.8,0.2c0.3,0.2,0.4,0.5,0.5,0.8
				c0.1,0.4,0.2,0.9,0.2,1.4c0,0.5-0.1,1.1-0.2,1.6c-0.1,0.5-0.3,0.9-0.5,1.4c-0.2,0.4-0.5,0.8-0.8,1.1c-0.3,0.3-0.7,0.6-1.1,0.8
				l-1.2,0.7v3c0,0.1,0,0.2-0.1,0.3c0,0.1-0.1,0.2-0.2,0.2l-1.2,0.7c-0.1,0-0.1,0-0.2,0c-0.1-0.1-0.1-0.1-0.1-0.2v-9.5
				c0-0.1,0-0.2,0.1-0.3c0-0.1,0.1-0.2,0.2-0.2L311.2,62.3z M310,67.6l1.2-0.7c0.6-0.3,0.9-1,0.9-1.7c0-0.4-0.1-0.7-0.3-0.7
				c-0.2-0.1-0.5,0-0.6,0.1l-1.2,0.7V67.6z"/>
			<path class="st18" d="M315.3,70.2c-0.1,0-0.1,0-0.2,0c-0.1-0.1-0.1-0.2-0.1-0.2v-9.4c0-0.1,0-0.2,0.1-0.3c0-0.1,0.1-0.2,0.2-0.2
				l1.2-0.7c0.1,0,0.1,0,0.2,0c0.1,0.1,0.1,0.1,0.1,0.2V69c0,0.1,0,0.2-0.1,0.3c0,0.1-0.1,0.2-0.2,0.2L315.3,70.2z"/>
			<path class="st18" d="M322.6,66c-0.1,0.1-0.2,0.1-0.3,0c-0.1,0-0.1-0.1-0.1-0.1l-2.2-3.7v4.9c0,0.1,0,0.2-0.1,0.3
				c0,0.1-0.1,0.2-0.2,0.2l-1.2,0.7c-0.1,0-0.1,0-0.2,0c-0.1-0.1-0.1-0.1-0.1-0.2v-9.4c0-0.1,0-0.2,0.1-0.3c0-0.1,0.1-0.2,0.2-0.2
				l1-0.6c0.1-0.1,0.2-0.1,0.3,0c0.1,0,0.1,0.1,0.1,0.1l2.2,3.7v-5c0-0.1,0-0.2,0.1-0.3c0-0.1,0.1-0.2,0.2-0.2l1.2-0.7
				c0.1,0,0.1,0,0.2,0c0.1,0.1,0.1,0.2,0.1,0.2v9.4c0,0.1,0,0.2-0.1,0.3c0,0.1-0.1,0.2-0.2,0.2L322.6,66z"/>
			<path class="st18" d="M328.2,54.8c-0.2,0.1-0.4,0.3-0.5,0.5c-0.1,0.2-0.3,0.4-0.4,0.6c-0.1,0.2-0.2,0.4-0.2,0.7
				c0,0.2-0.1,0.5-0.1,0.7c0,0.1,0,0.3,0,0.5s0,0.5,0,0.7s0,0.5,0,0.7s0,0.4,0,0.5c0,0.2,0,0.4,0.1,0.6c0,0.2,0.1,0.3,0.2,0.4
				c0.1,0.1,0.2,0.2,0.4,0.2c0.2,0,0.4-0.1,0.5-0.2c0.2-0.1,0.3-0.2,0.5-0.3c0.1-0.1,0.3-0.3,0.4-0.5c0.1-0.2,0.2-0.4,0.2-0.6
				c0.1-0.3,0.1-0.5,0.1-0.8l-0.8,0.5c-0.1,0-0.1,0-0.2,0c-0.1-0.1-0.1-0.2-0.1-0.2V57c0-0.1,0-0.2,0.1-0.3c0-0.1,0.1-0.2,0.2-0.2
				l2.3-1.3c0.1,0,0.1,0,0.2,0c0.1,0.1,0.1,0.2,0.1,0.2v1.9c0,0.6-0.1,1.2-0.2,1.8c-0.1,0.6-0.4,1.1-0.6,1.6
				c-0.3,0.5-0.6,0.9-0.9,1.3c-0.3,0.4-0.7,0.7-1.2,1c-0.4,0.2-0.8,0.4-1.2,0.4c-0.3,0-0.7-0.1-0.9-0.3c-0.3-0.2-0.5-0.6-0.6-0.9
				c-0.1-0.4-0.2-0.9-0.2-1.4c0-0.4,0-0.8,0-1.3s0-0.9,0-1.3c0-0.6,0.1-1.1,0.2-1.7c0.1-0.6,0.3-1.1,0.6-1.6c0.2-0.5,0.5-1,0.9-1.4
				c0.4-0.4,0.8-0.7,1.2-1c0.4-0.2,0.8-0.4,1.2-0.4c0.3,0,0.6,0.1,0.9,0.2c0.2,0.2,0.4,0.4,0.6,0.7c0.1,0.3,0.2,0.6,0.2,0.9
				c0,0.1,0,0.2,0,0.3c0,0.1-0.1,0.1-0.1,0.2l-1.2,0.7c-0.1,0-0.2,0-0.2,0l-0.1-0.2c-0.1-0.1-0.2-0.2-0.4-0.3
				C328.6,54.5,328.4,54.6,328.2,54.8z"/>
		</g>
		<path class="st7" d="M264.9,94c-1,0-1.9-0.1-2.8-0.4c-0.6-0.1-0.9-0.7-0.8-1.2c0.1-0.6,0.7-0.9,1.2-0.8c4,1.2,8.2-0.8,9.8-4.6
			c1-2.4,1.1-6-2.2-8.1c-0.5-0.3-0.6-0.9-0.3-1.4s0.9-0.6,1.4-0.3c4.1,2.6,4.4,7.2,3,10.6C272.6,91.6,268.9,94,264.9,94z"/>
	</g>
</g>
<g id="freepik--Character--inject-2">
	<g id="freepik--character--inject-2">
		<g id="freepik--Bottom--inject-2">
			<path class="st6" d="M97.6,371.2c-0.4,0.9-0.6,1.9-0.5,2.9c0.4,1.3,0.5,2.6,0.5,4c-0.2,2-0.6,2.6-0.7,4c-0.2,1.4,0.1,2.8,0.8,4
				c0.9,1.3,2.8,2.3,6.3,2.1c2.9-0.2,4.1-1.8,4.1-3.5L97.6,371.2z"/>
			<path class="st31" d="M99,369.5c1.8,1,4.7-0.2,6.9-1.3l2.3-13.6l-9.9-2.2L99,369.5z"/>
			<path class="st7" d="M98.3,367.1c-0.1,0.4-0.1,0.7-0.1,1.1c-0.1,0.7-0.3,1.3-0.4,2c0,0.2-0.1,0.4-0.1,0.5c-0.1,1.3,0,2.7,0.1,4
				c0,1.6-0.3,3.2-0.7,4.7c-0.5,2.8-0.5,4.6,2,6.4c1.3,0.8,2.8,1.2,4.3,1c1.2,0,2.9-0.3,3.6-1c0.5-0.4,0.9-1,1-1.7
				c0-3-1.2-6.4-1.5-9.3c-0.1-0.8-0.2-1.6-0.2-2.4c0.1-1,0.4-2,0.4-3c0.1-0.4,0-0.7-0.2-1.1c-0.4-0.4-0.8-0.6-1.3-0.5
				c-1.3-0.1-2.6-0.2-3.9-0.2c-0.3,0-0.6,0-0.9,0.2c-0.2,0.2-0.2,0.6-0.3,1s-0.3,0.7-0.6,0.7c-0.2-0.1-0.4-0.2-0.4-0.5
				c0-0.2-0.2-1.9-0.2-2.1C98.9,366.9,98.4,366.8,98.3,367.1z"/>
			<path class="st8" d="M108.2,383.7c0-0.6-0.2-1.2-0.5-1.8c-1.4-2.6-8.7-2.4-10.9,0.3c-0.1,1.5,0.6,2.9,1.8,3.7
				c1.3,0.9,3.2,1.1,4.9,1c1.3,0,2.5-0.4,3.6-1.1C107.8,385.3,108.3,384.5,108.2,383.7z"/>
			<path class="st31" d="M117.7,369.9c1.5,3.3,3.9,2,7-0.1l1.5-19.7l-9.5,2.6L117.7,369.9z"/>
			<path class="st6" d="M137.3,377.4c0.2,0.5,0.1,1.1-0.1,1.6c-0.2,0.5-2.7,1.9-6.1,1.6c-2.5-0.2-4.9-1-6.9-2.4
				c-1.3-0.8-2.8-1.1-4.3-1.1c-1.7-0.1-3.8-0.9-4.2-1.7c-0.2-0.7-0.2-1.4,0.1-2.1L137.3,377.4z"/>
			<path class="st7" d="M125.6,367c0.1,0.2,0.2,0.5,0.3,0.8c0.4,0.9,1,1.7,1.8,2.4c1.1,0.8,2.3,1.6,3.6,2.1c0.8,0.4,1.7,0.5,2.5,0.9
				c0.9,0.3,1.8,0.8,2.7,1.3c1.1,0.8,1.4,2.3,0.6,3.4c-0.2,0.3-0.4,0.5-0.6,0.6c-2.6,1.2-5.5,1.4-8.2,0.6c-1.9-0.5-4.1-2.6-6.6-2.8
				c-1.6-0.1-4.7-0.6-5.7-1.8c-0.3-1.8,0.1-2.3,0.6-3.8c0.2-0.8,0.4-1.7,0.4-2.6c0-0.5-0.2-1.8,0.7-1.9v1c0,0,0.2,0.3,1.2,0.6
				c0.3,0.1,0.6,0.5,0.7,0.9s0.2,0.7,0.6,0.7c0.2,0,0.4-0.2,0.5-0.4c0.1-0.2,0.2-0.4,0.2-0.6c0.3-0.7,0.9-1.2,1.6-1.4
				c0.6-0.2,1.2-0.3,1.8-0.3c0.5,0,0.8-0.2,1.2,0.2C125.4,366.8,125.5,366.9,125.6,367z"/>
			<path class="st8" d="M116.6,369.5c-0.1,0.4-0.1,0.7-0.2,1.1c-0.4,1.5-0.9,2-0.6,3.8c0.8,0.9,2.8,1.4,4.4,1.7
				C120.8,373,118.8,370.7,116.6,369.5z"/>
			<path class="st8" d="M99.7,291.4c-0.4,12.8-0.2,17.9-0.2,41.3c-1.1,3.6-1.7,7.3-1.7,11.1c-0.2,5.9,0.5,18,0.5,18s4.9,3,9,0.6
				c0,0,3.3-17.9,4.6-26c1.1-7.2,2.2-17.7,2.2-17.7l1.6,15c-0.5,3.8-0.5,7.6-0.3,11.4c0.3,3.8,1.3,17.4,1.3,17.4s4.4,3.1,9,0.6
				c0,0,2.2-26.9,2.2-30.4c0.1-4-1.5-44.4-1.5-44.4L99.7,291.4z"/>
			<path class="st6" d="M114.1,318.6l2.4-13.9c0,0,5.2-0.5,8.1-3.4c0,0-0.5,2.9-7.1,4.6l-2.4,14l0.6,13.6L114.1,318.6z"/>
			<path class="st8" d="M136.5,374.4c-0.8-0.4-1.5-0.7-2.4-1c-3.1,0.2-5.4,2.8-5.3,5.9c2.5,0.7,5.2,0.5,7.6-0.6
				c1.2-0.8,1.4-2.5,0.6-3.7C136.9,374.7,136.7,374.5,136.5,374.4z"/>
		</g>
		<g id="freepik--Top--inject-2">
			<g id="freepik--Arm--inject-2">
				<path class="st31" d="M118.1,258.7c2.2-0.1,6.4-0.1,9.4,3.7c2.1,2.7,7.7,9.1,10.9,13.3c2.2-2.2,7.7-7.6,8.6-9.2
					c0.9-1.5,1.6-3.1,2.1-4.7c0.4-1,0.6-1.9,0.8-3c0.2-1.2,0.3-2.5,0.2-3.8c0-1.1,1.7-0.5,2.3,1.3c0.3,1,0.4,2,0.4,3.1l2.7-1.2
					c1-0.4,4.1-1.5,4.4,0.3c0,0.4,0,0.8,0.1,1.2c0.1,0.2,0.2,0.3,0.3,0.5c0.4,0.6,0.5,1.3,0.2,2c-0.2,0.3-0.2,0.6-0.2,0.9
					c0.1,0.3,0.1,0.7,0,1c-0.1,0.3-0.3,0.5-0.4,0.7c-0.2,0.3-0.3,0.7-0.3,1c0,0.3-0.1,0.7-0.3,1c-0.4,0.8-1.3,0.9-2,1.2
					c-1.1,0.3-2.2,0.7-3.3,1.2c-1.8,1.1-6.6,9.5-11.5,14.8c-1.7,1.8-3.1,3-4.7,2.7l0,0c-1.2,0-2.8-1.2-4.2-2.5
					c-4.6-4.2-12.1-12-12.1-12C118.3,268.2,117.7,261.3,118.1,258.7z"/>
				<path class="st8" d="M118.1,258.7c2.2-0.3,4.4,0.1,6.3,1c2,1,2.4,1.6,4.3,3.9c1.9,2.2,4.5,5.6,4.5,5.6s-1.5,6.3-7.6,7.9
					l-8.1-9.4L118.1,258.7z"/>
				<path class="st32" d="M153.9,259.6c-1,0.3-1.2,1-1.2,2.4c0,0.8-0.2,2.4-1.1,3c0.4-0.1,0.8-0.2,1.2-0.5c0.4-0.4,0.5-0.5,0.8-0.2
					c0.2,0.2,0.4,0.3,0.6,0.4c-0.3,0.4-0.3,0.9-0.1,1.3c0.4,0.7,2.4,0.7,4-0.1c0,0-2.6,0.8-3.2,0s0.8-1.9,1.8-2.1
					c0,0-2.5,0.6-2.9-0.2s0.6-1.5,2.1-1.8c0,0-2.1,0.4-2.4-0.3C153.2,260.6,153.4,259.9,153.9,259.6z"/>
			</g>
			<path class="st10" d="M126,268.4c-0.6-4.1-1.1-9.6-7.4-9.8l-8.2-0.4c-2,0.5-11,3.1-11,3.1v13c0,0,0.3,5.4,0.7,12.3
				c0,0-0.7,8-0.7,11.1c5.9,3.7,21.4,2.6,27.6-1.1C127.2,291,126.6,272.5,126,268.4z"/>
			<path class="st10" d="M115.9,245.2l-12.9-0.7c-2.4,1.9-7,6-7,7.1l0,0v0.8l0,0c0,0,0,0.1,0,0.1c0.5,0.9,2.1,1.4,4.7,1.4
				c3,0,7.8-0.4,9-1.5c1.8-1.6,6.2-6.4,6.2-6.4h-0.7L115.9,245.2z"/>
			<path class="st12" d="M115.9,245.2l-12.9-0.7c-2.4,1.9-7,6-7,7.1l0,0v0.8l0,0c0,0,0,0.1,0,0.1c0.5,0.9,2.1,1.4,4.7,1.4
				c3,0,7.8-0.4,9-1.5c1.8-1.6,6.2-6.4,6.2-6.4h-0.7L115.9,245.2z"/>
			<path class="st10" d="M103,245.3c-2.6,2-7.4,6.4-6.9,7.2s2.1,1.4,4.7,1.4c3,0,7.8-0.4,9-1.5c1.8-1.6,6.2-6.4,6.2-6.4L103,245.3z"
				/>
			<path class="st33" d="M103,245.3c-2.6,2-7.4,6.4-6.9,7.2s2.1,1.4,4.7,1.4c3,0,7.8-0.4,9-1.5c1.8-1.6,6.2-6.4,6.2-6.4L103,245.3z"
				/>
			<path class="st10" d="M103,245.3c0,0.4,1.3,1.1,1.3,1.1l-0.4-2.3L103,245.3z"/>
			<path class="st28" d="M103,245.3c0,0.4,1.3,1.1,1.3,1.1l-0.4-2.3L103,245.3z"/>
			<path class="st6" d="M123.3,236.8c-0.6-1.2-1.5-2.2-2.6-2.9c-1.9-1.3-4.4-1.5-6.7-1.4c-1.5,0-2.9,0.3-4.4,0.7
				c-2.7,0.8-4.9,2.9-5.8,5.6c-1.1,3.3-0.7,7,1.2,10c0.8,1.3,1.3,2.6,2,4c0.6,1.1,1,2,1,2l-0.2-3.5l3.3-0.3c1-0.2,1.9-0.2,2.9-0.2
				c0.9,0,1.8-0.2,2.5-0.8c1.6-1,3.1-2.1,4.5-3.3c0.9-0.7,1.7-1.6,2.4-2.6c0.2-0.2,0.3-0.5,0.4-0.7c0.2-0.4,0.4-0.9,0.4-1.3
				c0.1-0.7,0.1-1.3,0.1-2c-0.1-0.7-0.3-1.4-0.6-2C123.8,237.6,123.6,237.2,123.3,236.8z"/>
			<path class="st31" d="M114.7,239.7c-0.8-0.1-1.5-0.3-2.2-0.4h-0.2c-0.6,1.7-2,3-3.7,3.4c0.3,1.4,0.3,2.8,0.1,4.2
				c-0.1,0.3-0.2,0.6-0.3,0.9c-0.2,0.3-0.4,0.4-0.8,0.5c-0.4,0-0.6-0.2-0.7-0.5c-0.2-0.4-0.4-0.8-0.6-1.2c-0.1-0.2-0.2-0.3-0.4-0.5
				c-0.8-0.8-2-0.8-2.8-0.1c-0.2,0.2-0.4,0.5-0.5,0.8c-0.7,2,0.3,4.2,2.2,5.1c2.6,0.7,3.1-1,3.1-1l0.5,9.2c1.4,1.5,6.7,3.5,8.2,5.2
				c0.7-1.2,2.6-4,0.1-5.7l-0.1-2.8c1.1,0.1,2.3,0.2,3.4,0.1c1.9-0.4,2.8-1.9,3.3-4c0.8-3.3,0.7-9.5,0.4-12
				c-0.1-0.9-0.2-1.8-0.4-2.6c0.1,0.2-1.8,1-2,1c-0.8,0.3-1.7,0.5-2.6,0.5c-1,0.1-2,0.1-3,0.1C115.4,239.8,115,239.7,114.7,239.7z"
				/>
			<path class="st32" d="M116.5,256.6c-1.9-0.3-3.8-0.8-5.7-1.4c-0.9-0.4-1.6-1.1-2.1-1.9c0.3,0.8,0.7,1.6,1.2,2.3
				c1.1,1.3,6.6,1.9,6.6,1.9L116.5,256.6z"/>
			<path class="st6" d="M114.7,245.8c0,0.4-0.3,0.8-0.8,0.8c-0.4,0-0.8-0.3-0.8-0.8c0-0.4,0.3-0.8,0.8-0.8
				C114.4,245,114.7,245.3,114.7,245.8C114.7,245.7,114.7,245.7,114.7,245.8z"/>
			<path class="st6" d="M113.7,241.9l-2,0.6c-0.2-0.6,0.2-1.1,0.7-1.3C112.9,241,113.5,241.3,113.7,241.9
				C113.7,241.9,113.7,241.9,113.7,241.9z"/>
			<path class="st34" d="M115,251.2l2.9,1c-0.2,0.8-1.1,1.2-1.9,1c0,0,0,0,0,0C115.2,252.9,114.7,252,115,251.2z"/>
			<path class="st32" d="M115.3,251.8c-0.1,0-0.3,0-0.4,0.1c0.1,0.6,0.4,1.1,1,1.3c0.2,0.1,0.4,0.1,0.6,0.1c0,0,0-0.1,0-0.1
				C116.6,252.4,116.1,251.8,115.3,251.8z"/>
			<path class="st6" d="M123,242.4l-1.9-0.7c0.2-0.5,0.8-0.7,1.3-0.6C122.9,241.3,123.2,241.8,123,242.4
				C123,242.3,123,242.3,123,242.4z"/>
			<path class="st7" d="M110.9,243.1l-6.6,2.2c0.7,0,1.4,0.4,1.9,0.9l4.6-1.8L110.9,243.1z"/>
			<path class="st6" d="M121.9,245.6c0,0.4-0.4,0.8-0.8,0.8c-0.4,0-0.8-0.4-0.8-0.8c0-0.4,0.3-0.8,0.7-0.8
				C121.5,244.8,121.9,245.2,121.9,245.6C121.9,245.6,121.9,245.6,121.9,245.6z"/>
			<path class="st6" d="M125.4,242.8l-0.4-0.1c-1.4-0.2-2.9-0.1-4.3,0.2c-1.4,0.4-1.9,0.9-2.6,0.9s-1.3-0.4-2.8-0.9
				c-1.5-0.2-3.1-0.2-4.6,0c-0.2,0-0.3,0-0.5,0.1c-0.3,0.1-0.6,0.4-0.5,0.8c0,0.3,0.2,0.6,0.4,0.9c0.1,0.1,0.1,0.2,0.1,0.4
				c0.1,0.8,0.3,1.7,0.5,2.5c0.1,0.3,0.3,0.6,0.6,0.9c0.1,0.1,0.2,0.2,0.3,0.2l0.2,0.1c0.2,0.1,0.3,0.2,0.5,0.2h0.1h0.1h0.1
				c0.1,0,0.3,0.1,0.4,0.1h0.4c1.3,0.1,2.6-0.7,3.2-1.9c0.5-0.9,0.4-2.3,1.3-2.3h0.2c0.6,0.1,0.5,1.4,0.9,2.2
				c0.1,0.3,0.4,0.7,0.6,0.9c0,0.1,0.1,0.1,0.1,0.1l0.1,0.1c0,0,0,0.1,0.1,0.1l0.1,0.1l0.1,0.1h0.1h0.1c0.2,0.1,0.5,0.2,0.7,0.3h0.1
				c0.3,0.1,0.6,0.1,0.9,0.1c1.2,0,2.3-0.7,2.7-1.8c0.3-0.8,0.5-1.7,0.6-2.5c0-0.1,0.1-0.2,0.2-0.3c0.2-0.3,0.4-0.6,0.4-0.9
				C125.9,243.1,125.6,242.8,125.4,242.8z M116.3,246.4c-0.1,0.5-0.3,0.9-0.7,1.3l0,0c-0.5,0.5-1.3,0.8-2.1,0.8
				c-0.8,0.1-1.5-0.3-2-0.9l-0.1-0.1c0,0-7077.5,3931.8-0.1-0.2c0,0,0,0,0-0.1v-0.1c0,0,0,0,0-0.1c0,0,0-0.1,0-0.1l0,0
				c0-0.1-0.1-0.2-0.1-0.3l0,0c0,0,0-0.1,0-0.2c0-0.1,0-0.2-0.1-0.3v-0.1c-0.1-0.6-0.3-1.9,0-2.2c0.8-0.5,1.7-0.7,2.6-0.5h0.2
				c0.2,0,0.4,0.1,0.6,0.1l0.2,0.1c0.2,0,0.4,0.1,0.6,0.2l0.2,0.1l0.2,0.1l0,0h0.1c0.2,0.1,0.3,0.2,0.4,0.3
				C116.6,245.1,116.6,245.8,116.3,246.4z M124.5,246c-0.1,0.9-0.6,1.7-1.4,2.1c-0.3,0.1-0.7,0.2-1,0.2c-0.8,0.1-1.6-0.3-2.1-1l0,0
				v-0.1v-0.1l0,0c0,0,0-0.1-0.1-0.1V247V247l0,0c0,0,0,0,0-0.1s0,0,0,0c-0.1-0.2-0.1-0.3-0.1-0.5c-0.2-0.7-0.2-1.4,0.1-2
				c0.6-0.6,1.4-0.9,2.3-1l0.7-0.1h0.6h0.2l0.3,0.1h0.1l0,0h0.1h0.1h0.1l0.2,0.1l0,0c0.1,0.1,0.2,0.1,0.3,0.2
				C124.8,244.1,124.6,245.4,124.5,246L124.5,246z"/>
			<path class="st32" d="M117.8,245.1l0.2,5.4l3-0.9l-2.8-4.6C118,245,117.9,245,117.8,245.1z"/>
			<path class="st10" d="M102.4,242.1c0,1.1,0.3,2.2,0.6,3.2c0.2-0.3,0.5-0.7,0.8-0.9c1.7-1.5,3.6-2.6,5.7-3.4l0,0
				c4.8-2,10.1-2.3,15.1-0.9c-0.1-0.9-0.3-1.8-0.7-2.7c-1.8-4.3-5.2-6.5-10.5-5.8C107.2,232.4,102.1,235.9,102.4,242.1z"/>
			<path class="st6" d="M113.8,238.1c2-0.6,4.1-0.8,6.2-0.6c0.5-0.4,0.9-0.9,1.3-1.5c0.5-0.8,0.3-1.8-0.2-2s-0.5,0.4-2.3,1.4
				c0.2-0.6,0.3-1.2,0.1-1.9c-0.3-0.7-0.9,0.6-2.3,1.5S113.9,236.4,113.8,238.1z"/>
			<path class="st8" d="M116.6,265.1c-1-0.6-3.2-1.7-4.4-0.5s-1.7,1.6-2.5,1.3s-3.1-2.7-4-4c-1-1.5-0.8-2.1-0.8-2.1l1.9-2.5
				c0.5-0.7,0.7-0.8,1.3-0.8l0.1,1.8c0.2,0.9,0.7,1.7,1.4,2.2C111.5,261.8,115.2,262.1,116.6,265.1z"/>
			<path class="st8" d="M116.6,265.1c0.6-0.6,2-2,3-1.7s1.5,0.9,1.5,0.4c-0.3-1.3-0.9-2.5-1.7-3.6c-0.7-1.1-1.6-1.9-2.8-2.4l0.1,1.7
				c0,0,1.2,1.5,1.1,2.4S116.7,264.2,116.6,265.1z"/>
			<g id="freepik--arm--inject-2">
				<polygon class="st6" points="142.6,280.7 120.9,284.4 112.3,310.2 133,306.1 				"/>
				<path class="st30" d="M124.2,299.8c-0.5,1.7-1.8,3.1-3.6,3.5c-1.9,0.4-3.9,0.2-5.8-0.5l0.7-2.1L124.2,299.8z"/>
				<path class="st30" d="M136.1,283.9l0.2-0.8c0.1-0.4-1.1-0.6-2.8-0.3l-3.2,0.5c-1.7,0.3-3.1,0.9-3.3,1.3l-0.2,0.8L136.1,283.9z"
					/>
				<path class="st10" d="M137.8,281c0.1-0.3-0.4-0.4-1.1-0.3l-1.3,0.2c0,0,0.5-1.7-2.3-1.4c-1.5,0.1-2.9,1-3.6,2.3l-1.4,0.3
					c-0.6,0.1-1.1,0.3-1.6,0.7l-0.2,0.5l11.2-1.9C137.7,281.5,137.7,281.3,137.8,281z"/>
				<path class="st28" d="M137.8,281c0.1-0.3-0.4-0.4-1.1-0.3l-1.3,0.2c0,0,0.5-1.7-2.3-1.4c-1.5,0.1-2.9,1-3.6,2.3l-1.4,0.3
					c-0.6,0.1-1.1,0.3-1.6,0.7l-0.2,0.5l11.2-1.9C137.7,281.5,137.7,281.3,137.8,281z"/>
				<path class="st10" d="M127.2,284.8c0.1-0.4,1.1-0.8,2.4-1.1v-0.1c0.1-0.4,0-0.6-0.8-0.5v-0.3l7.7-1.3l-0.3,0.3
					c-1,0.2-1.4,0.2-1.7,0.9l-0.1,0.1c1.2-0.1,2,0,1.9,0.4l-0.2,0.8l-9.2,1.6L127.2,284.8z"/>
				<path class="st33" d="M127.2,284.8c0.1-0.4,1.1-0.8,2.4-1.1v-0.1c0.1-0.4,0-0.6-0.8-0.5v-0.3l7.7-1.3l-0.3,0.3
					c-1,0.2-1.4,0.2-1.7,0.9l-0.1,0.1c1.2-0.1,2,0,1.9,0.4l-0.2,0.8l-9.2,1.6L127.2,284.8z"/>
				<path class="st31" d="M117.1,295.9c2.6,1,5.6,0.7,8.3,0.8c0.3,0,0.6,0,0.7,0.3c0.1,0.2,0,0.5-0.2,0.6c-0.2,0.1-0.4,0.3-0.5,0.5
					c-0.2,0.3-0.1,0.7-0.2,1.1c-0.1,0.5-0.4,1-0.9,1.4c-0.4,0.5-0.9,0.9-1.4,1.2c-1.9,0.9-4.1,1.2-6.2,0.7c-1.3-0.3-2.6-0.7-3.8-1.2
					c-1.2-0.5-8.2-2.7-9-3c-6.2-2.3-14.7-5.2-15.2-8.2s2.1-12.8,3.4-20.3c1.2-7.1,3.9-8,7.9-8.7c2.8,4.1,3.2,9.4,0.9,13.8l-2.6,11.6
					c4.1,2.6,8.3,5,12.6,7.2c0.8,0.1,1.7,0.1,2.5-0.2c1.5-0.4,3-0.6,4.6-0.4"/>
				<path class="st8" d="M100.2,261.1c-4.2,0.5-6.2,1.5-7.2,4.9s-2.6,11.5-2.6,11.5c2.8,2.5,6.5,3,9.7,3.1l1.4-5.7
					C102.5,272.6,104.4,266,100.2,261.1z"/>
			</g>
		</g>
	</g>
</g>
</svg>
