<?xml version="1.0" encoding="utf-8"?>
<!-- Generator: Adobe Illustrator 25.2.1, SVG Export Plug-In . SVG Version: 6.00 Build 0)  -->
<svg version="1.1" id="Layer_1" xmlns="http://www.w3.org/2000/svg" xmlns:xlink="http://www.w3.org/1999/xlink" x="0px" y="0px"
	 viewBox="0 0 1320.5 412" style="enable-background:new 0 0 1320.5 412;" xml:space="preserve">
<style type="text/css">
	.st0{fill:#FFFFFF;}
	.st1{clip-path:url(#SVGID_2_);fill:#FEF0C9;}
	.st2{clip-path:url(#SVGID_4_);fill:#D8EBE4;}
	.st3{clip-path:url(#SVGID_6_);fill:#FEF0C9;}
	.st4{clip-path:url(#SVGID_8_);fill:#FEF0C9;}
	.st5{fill:#F4A031;}
	.st6{fill:#FED049;}
	.st7{fill:none;stroke:#282846;stroke-width:0.6131;stroke-linecap:round;stroke-linejoin:round;stroke-miterlimit:10;}
	.st8{fill:#007580;}
	.st9{opacity:0.5;fill:#FFFFFF;enable-background:new    ;}
	.st10{fill:#D8EBE4;}
	.st11{fill:#282846;}
	.st12{fill:#33A3A8;}
	.st13{fill:#F28033;}
	.st14{fill:#FB7070;}
	.st15{fill:none;stroke:#282846;stroke-width:0.3066;stroke-linecap:round;stroke-linejoin:round;stroke-miterlimit:10;}
	.st16{fill:#1D2338;}
	.st17{fill:none;stroke:#FFFFFF;stroke-width:0.6131;stroke-linecap:round;stroke-linejoin:round;stroke-miterlimit:10;}
	.st18{fill:#FFAF00;}
	.st19{fill:#7C4B29;}
	.st20{fill:none;stroke:#1F253A;stroke-width:0.6131;stroke-linecap:round;stroke-linejoin:round;stroke-miterlimit:10;}
	.st21{fill:none;stroke:#282846;stroke-width:0.5367;stroke-linecap:round;stroke-linejoin:round;stroke-miterlimit:10;}
	.st22{opacity:0.5;}
	.st23{font-family:'ArialMT';}
	.st24{font-size:36.605px;}
	.st25{font-family:'Arial-Black';}
	.st26{font-size:106.8895px;}
	.st27{font-size:62.3166px;}
	.st28{font-size:26.8818px;}
	.st29{fill:none;}
</style>
<g id="BACKGROUND">
	<g>
		<rect class="st0" width="1320.5" height="412"/>
		<g>
			<g>
				<defs>
					<rect id="SVGID_1_" width="1320.5" height="412"/>
				</defs>
				<clipPath id="SVGID_2_">
					<use xlink:href="#SVGID_1_"  style="overflow:visible;"/>
				</clipPath>
				<path class="st1" d="M838.1,94c14,79.6,109.7,150.4,229.5,169.8c74.7,12.1,157.1,4.8,222.4-21.8s111.9-72.3,120.5-122
					c8.7-49.7-22-102-81.4-133.8c-90.2-48.4-239.7-77.8-350.3-45C886.7-31.5,826.5,27.9,838.1,94z"/>
			</g>
			<g>
				<defs>
					<rect id="SVGID_3_" width="1320.5" height="412"/>
				</defs>
				<clipPath id="SVGID_4_">
					<use xlink:href="#SVGID_3_"  style="overflow:visible;"/>
				</clipPath>
				<path class="st2" d="M525.2,141.2c10.4,59.2,81.6,111.8,170.6,126.2c55.5,9,116.8,3.5,165.3-16.2s83.2-53.8,89.6-90.7
					c6.4-36.9-16.3-75.8-60.5-99.5C823.1,25,712,3.2,629.8,27.6C561.3,47.9,516.5,92,525.2,141.2z"/>
			</g>
			<g>
				<defs>
					<rect id="SVGID_5_" width="1320.5" height="412"/>
				</defs>
				<clipPath id="SVGID_6_">
					<use xlink:href="#SVGID_5_"  style="overflow:visible;"/>
				</clipPath>
				<path class="st3" d="M1197.9,376.1c-52.3,14.3-117.6,5.2-156.4-21.6c-24.3-16.7-38.2-39.8-36.5-62.8
					c1.7-22.9,19.6-45.4,48.4-58.8c28.8-13.4,68-17.1,101-8.8c50.1,12.6,101.9,44.9,106.4,81.1
					C1264.6,335.3,1241.4,364.3,1197.9,376.1z"/>
			</g>
			<g>
				<defs>
					<rect id="SVGID_7_" width="1320.5" height="412"/>
				</defs>
				<clipPath id="SVGID_8_">
					<use xlink:href="#SVGID_7_"  style="overflow:visible;"/>
				</clipPath>
				<path class="st4" d="M74.7,455.3c-39.7,10.8-89.2,4-118.7-16.4c-18.4-12.7-29-30.2-27.7-47.6c1.3-17.4,14.9-34.4,36.7-44.6
					c21.8-10.1,51.6-13,76.6-6.7c38,9.6,77.3,34.1,80.8,61.6C125.3,424.4,107.7,446.4,74.7,455.3z"/>
			</g>
		</g>
	</g>
</g>
<g id="OBJECTS">
	<g>
		<g>
			<path class="st0" d="M1207.8,250.6c-6,25.7,0,45.3,0,45.3l-131.9,2.8c-29.3-34.5-2.9-46.7-2.9-46.7L1207.8,250.6z"/>
			<path class="st5" d="M1069.7,246.5l-73.8,2.3c-0.9,0-1.8,0.5-2.3,1.2c-14.9,22.5-5.2,45-2.1,51.1c0.5,0.9,1.5,1.6,2.5,1.6h76.5
				C1070.5,302.7,1062.6,273.7,1069.7,246.5z"/>
			<path class="st6" d="M1218.1,302.7h-147.6l-1.4-1.2c-0.3-0.2-23.2-20.1-0.9-52.8l1.5-2.2l146.5-2.7c1.1,0,2,0.8,2,1.9l0.1,6.2
				c0,1.1-0.8,2-1.9,2l-141.3,2.7c-12.3,19.8-4.1,32.2-0.6,36h143.6c1.1,0,2,0.9,2,2v6.2C1220,301.8,1219.2,302.7,1218.1,302.7z"/>
			<g>
				<line class="st7" x1="1085.3" y1="263.4" x2="1197" y2="262.3"/>
				<line class="st7" x1="1103.8" y1="269.7" x2="1180.6" y2="269.3"/>
				<line class="st7" x1="1196.4" y1="276.7" x2="1086" y2="276.5"/>
				<line class="st7" x1="1102.2" y1="282.5" x2="1180" y2="282.3"/>
				<line class="st7" x1="1195.5" y1="289.1" x2="1085.3" y2="288.3"/>
			</g>
			<path class="st8" d="M1134.2,259.6l0.4,17.6l11.4-4.7l9.3,3.7l0.1-15.9C1155.4,260.2,1145.2,258.5,1134.2,259.6z"/>
			<path class="st6" d="M1028.8,247.8l-12.2,0.4c-11.6,33-1.7,54.5-1.7,54.5h10.6C1025.5,302.7,1016.7,274.3,1028.8,247.8z"/>
			<path class="st9" d="M1047.1,253.1c-3-3.6-48.8-5.7-47.5,8.3C1000.9,275.4,1054,261.2,1047.1,253.1z"/>
		</g>
		<g>
			<path class="st10" d="M933,310.9c7.9,31.1,1.1,54.9,1.1,54.9l160,0.1c34.7-42.6,2.3-56.7,2.3-56.7L933,310.9z"/>
			<path class="st8" d="M1100.6,302.5l91.3,1c23.3,31.8,3.9,65.2,3.9,65.2l-94.8,1.9C1100.9,370.6,1109.9,335.3,1100.6,302.5z"/>
			<path class="st11" d="M1180.6,303.3c16.9,35.6,2.3,65.6,2.3,65.6l-11.5,0.3c7.9-20.5,7.5-42.6-1.4-66L1180.6,303.3z"/>
			<path class="st11" d="M1162.2,303.4c7.4,23.7,8.2,45.8,1.4,66l-16.1,0.4c8.1-20.5,8.9-42.7,2.5-66.7L1162.2,303.4z"/>
			<path class="st12" d="M919.5,374.3l181.4-3.7l1.7-1.5c0.3-0.3,27.6-24.9-0.2-64.1l-1.8-2.6l-180.3,0.5v12.3l173.8-0.5
				c15.4,23.8,5.7,38.9,1.8,43.6L919.4,362L919.5,374.3z"/>
			<g>
				<line class="st7" x1="1082" y1="323.3" x2="946.5" y2="324.9"/>
				<line class="st7" x1="1059.8" y1="331.5" x2="966.7" y2="332.8"/>
				<line class="st7" x1="947.6" y1="342.2" x2="1081.5" y2="339.2"/>
				<line class="st7" x1="1062" y1="346.9" x2="967.6" y2="348.6"/>
				<line class="st7" x1="949.1" y1="357.2" x2="1082.6" y2="353.5"/>
			</g>
			<path class="st8" d="M1022.6,320l-2.8,17.9l-11.3-4.3l-13.9,3.6l2.3-15.9C997,321.2,1009.3,318.9,1022.6,320z"/>
			<path class="st9" d="M1128.1,309.8c3.6-4.4,59.1-8.1,57.8,8.9C1184.7,335.7,1120,319.9,1128.1,309.8z"/>
		</g>
		<g>
			<path class="st13" d="M1015.7,200.4h5.5l1.2,12.2c0,0-10.3,0.3-10.3,0S1015.7,200.4,1015.7,200.4z"/>
			<g>
				<path class="st6" d="M987.9,200.7l7-16.1l-3.2-1.8l-11.7,14C983.2,200.9,987.9,200.7,987.9,200.7z"/>
				<path class="st6" d="M1043.7,82.2l-7,16.1l3.2,1.8l11.7-14C1048.4,82,1043.7,82.2,1043.7,82.2z"/>
				<path class="st6" d="M1008.4,202.3c24.9,3.6,50.6-8.6,63.1-32.2c15.8-30,4.3-67.2-25.7-83l-2.3,4.3
					c27.5,14.5,38.2,48.7,23.7,76.2c-14.5,27.6-48.7,38.2-76.1,23.7l-2.3,4.3C994.9,199.2,1001.7,201.3,1008.4,202.3z"/>
			</g>
			<g>
				<path class="st8" d="M1018.1,194.2c17.3,1.2,32.1-6.9,41.3-19.7c6.5-9,10.3-20.2,10.3-31.9c0-26.1-19.3-46.3-44.4-50.8
					c-2.4-0.5-4.8-0.7-7.2-0.8c-10.7-0.6-20.4,2.5-28.4,8.1c-13.4,9.3-22.1,25.7-23.2,43.5c0,0.5,0,0.8-0.1,1.3
					C965.6,171.8,990.1,192.2,1018.1,194.2z"/>
				<g>
					<path class="st12" d="M1001,163.7c0,5.4,8,7.8,8.7,13c0.2,1.4-0.2,2.8,0.1,4.2c0.5,2.4,2.8,4.2,5.2,4.7
						c2.4,0.6,4.9,0.1,7.3-0.3c2.7-0.5,5.5-0.9,7.9-2.2c2.4-1.3,4.3-3.7,4.4-6.5c0.1-3.1-3-8-6.3-8.8c-0.8-0.2-1.8-0.4-2.3-1
						c-0.7-0.8-0.6-2.1,0.2-3c0.7-0.8,1.8-1.2,2.8-1.5c0.7-0.2,1.6-0.3,2.2-0.6c0.6-0.4,1.3-1.1,1.2-1.9c-0.2-1.2-1.5-1.7-2.7-2
						c-1.2-0.4-2.4-0.9-3.5-1.6c-0.8-0.5-1.8-1.3-1.5-2.3c0.3-0.7,1.1-1,1.8-1.1c1.8-0.3,3.9-0.1,5.6,0.6c1.7,0.6,3.5,1.8,5.2,1
						c1.2-0.5,1.8-1.9,1.9-3.1c0.1-1.8-0.4-3.5-1.8-4.6c-1.4-1.1-3-1.7-4.5-2.5c-1.9-1.1-3.8-3-3.5-5.2c0.3-2.8,3.5-4.1,6.3-4.7
						c1.8-0.5,4-0.7,5,0.7c0.9,1.4,0.2,3.3,0.8,4.9c0.6,1.8,2.9,2.4,4.7,2.3c1.8-0.1,3.7-0.7,5.5-0.6c3,0.3,5.5,2.8,6,5.6
						c0.6,2.9-0.9,6-3.3,7.7c-1.9,1.2-4.3,1.6-6.2,2.7c-1.9,1.1-3.5,3.7-2.2,5.6c0.6,0.9,1.8,1.5,2.4,2.5c0.8,1.6-0.1,3.4-1.2,4.8
						c-1.1,1.4-2.4,2.9-2.3,4.6c0.1,2.4,3,3.9,5.4,3.5c2.4-0.4,4.4-1.9,6.5-3.1c0.8-0.6,1.8-1,2.7-1.4c6.5-9,10.3-20.2,10.3-31.9
						c0-26.1-19.3-46.3-44.4-50.8c0.4,1.7,1.3,3.2,2.5,4.3c2.6,2.2,6.1,2.9,9.3,3.8c3.2,0.9,6.7,2.4,8.2,5.5
						c0.6,1.1,0.8,2.6,0.1,3.6c-1,1.4-3.1,1.3-4.6,0.4c-1.5-0.9-2.5-2.4-3.8-3.4c-1.4-1-3.3-1.7-4.7-0.6c-1.9,1.5-0.8,4.6,0.6,6.7
						s3,4.8,1.6,6.8c-1.1,1.5-3.5,1.5-5.2,0.6c-1.7-0.8-3-2.3-4.6-3.2c-3.4-2-8.3-1.7-10.9,1.4c-2.6,3.1-1.8,8.5,1.8,10.3
						c1.6,0.8,3.4,0.8,5.2,1.1c1.8,0.2,3.6,0.6,4.8,1.9c1.2,1.3,1.3,3.8-0.3,4.6c-1.1,0.6-2.9,0.7-2.9,1.9c0,0.9,1.2,1.4,1.9,1.9
						c1.8,1.4,1.2,4.6-0.7,5.9c-1.9,1.3-4.5,1-6.7,0.1c-2.1-0.9-4-2.3-6.1-3.3c-2.1-1-4.6-1.6-6.7-0.6c-2.1,0.9-3.4,3.9-2,5.7
						c0.8,1.1,2.3,1.6,3.2,2.6c1.7,1.9,0.6,5.1-0.8,7.2C1003.1,159,1001,161,1001,163.7z"/>
					<path class="st12" d="M966.5,143.7c0.6-0.4,1.2-0.6,1.8-0.7c1.9-0.1,3.3,1.9,3.8,3.9c0.4,1.9,0.4,4.1,1.4,5.7
						c1.3,2,4.2,2.8,6.3,1.6c2-1.2,3-4.1,1.9-6.2c-0.8-1.8-2.9-3.1-2.9-5c-0.1-2.1,2.2-3.6,4.3-3.7c2.1-0.1,4.1,0.8,6.1,1.3
						c2,0.5,4.4,0.5,5.9-1.1c1.2-1.3,1.4-3.4,0.6-5c-0.7-1.7-2-3-3.5-4c-1.1-0.7-2.3-1.5-3-2.7c-0.6-1.2-0.5-3,0.7-3.5
						c0.6-0.3,1.4-0.1,2-0.5c0.8-0.5,0.9-1.7,0.6-2.4c-0.4-0.8-1.2-1.4-1.9-1.9c-1.7-1.2-3.3-2.4-4.9-3.5c-0.7-0.6-1.6-1.1-1.8-2
						c-0.3-1,0.4-2,1.3-2.6c0.9-0.6,2-0.6,3-0.4c2,0.4,3.8,1.7,5.3,3c1.6,1.4,3,2.9,4.7,4c1.7,1.1,3.8,1.8,5.8,1.4
						c2-0.5,3.8-2.3,3.5-4.3c-0.2-1.3-1-2.4-1.9-3.4c-0.9-0.9-1.9-1.9-2.4-3.1c-0.6-1.2-0.4-2.9,0.6-3.6c1.2-0.8,3.2-0.6,3.7-1.9
						c0.5-1.2-0.9-2.2-2.1-2.7c-2.9-1-6-1.4-9.1-1c-1.6,0.2-3.1,0.6-4.7,0.4c-0.6-0.1-1.2-0.3-1.7-0.6
						c-13.4,9.3-22.1,25.7-23.2,43.5C966.6,142.9,966.5,143.4,966.5,143.7z"/>
				</g>
				<path class="st9" d="M1013.4,99.6c6.4,9.9-14.6,40.4-30.6,29.8C966.9,118.7,1004.6,85.8,1013.4,99.6z"/>
			</g>
			<path class="st11" d="M1054.1,213.8c-23.7-1.8-47.8-2.4-72.3-2.1c-1,0-1.8,0.7-1.8,1.8c-0.3,3.4-0.9,6.8-2,9.9
				c-0.5,1.3,0.5,2.6,1.8,2.6h75.1c1.2,0,2.1-1.1,1.8-2.3c-0.6-2.6-0.8-5.2-0.8-7.9C1055.9,214.7,1055.2,213.9,1054.1,213.8z"/>
		</g>
		<g>
			<path class="st11" d="M867.5,164l-3.5,6.2c1.1,50.4-3.6,119.2-3.6,119.2l108.4,10.4c4.8,9.2,33.9,8.6,35.6,0.4l94.4-6.2
				c0,0-6.2-59,5.1-127.6l-4-4.3l-113.7,41.7L867.5,164z"/>
			<path class="st12" d="M867.5,164c4.7,34-2.9,120.7-2.9,120.7l107,11.7c1.3,7.7,30.4,6.8,29.9,0.1l91.8-7.2
				c-5.9-47.5,6.7-127.2,6.7-127.2c-22.5-6.3-111.3,23-111.3,23S921.8,153.9,867.5,164z"/>
			<path class="st10" d="M884.6,157.4c-3.4,5.4-11,9-11,9c5.3,41.1-2.6,114.8-2.6,114.8s72.4-0.7,114.7,14.2
				c39.2-10.7,101.3-13.8,101.3-13.8c-1.6-54.6,9.3-117.5,9.3-117.5l-8.4-9.7L991.8,177L884.6,157.4z"/>
			<path class="st0" d="M992.3,170.5l-6.1,116.2c-57.8-26.5-104.3-11-104.3-11c6.8-54.5-0.8-121.2-0.8-121.2
				C937.2,127.9,992.3,170.5,992.3,170.5z"/>
			<path class="st0" d="M992.3,170.5l-6.1,116.2c51.8-30.4,94.3-16.5,94.3-16.5c-1.2-54.9,13.4-120.4,13.4-120.4
				C1040.8,117.6,992.3,170.5,992.3,170.5z"/>
			<path class="st7" d="M992.3,173.5c-7,71.3-5.9,109-5.9,109"/>
			<path class="st7" d="M889.9,278.9c26.4-0.6,53,2.3,78.6,8.9"/>
			<path class="st7" d="M996.5,290.3c22.2-7.9,45.6-12.3,69.2-13"/>
			<path class="st7" d="M1057.2,270.7c-15.3,1.2-30.5,5.1-44.4,11.6"/>
			<path class="st7" d="M904.6,275.3c16.4-1.7,33.1,0.7,49.1,4.8"/>
			<path class="st7" d="M878.5,173.3c1,24.2,0.3,48.5-2.1,72.6"/>
			<path class="st7" d="M984.7,175.7c-23.7-16-54.5-20.8-81.9-12.7"/>
			<path class="st7" d="M897.4,185.3c27.4-6.3,56.9-2.3,81.7,10.9"/>
			<path class="st7" d="M977.7,209c-24.5-10.1-52.2-12.2-78-6.1"/>
			<path class="st7" d="M898.2,220c26-4.8,53.1-2.8,78,5.9"/>
			<path class="st7" d="M976.3,243.6c-11.8-3-23.7-5.9-35.9-7.5s-24.6-1.7-36.5,1"/>
			<path class="st7" d="M900,253.7c24.5-3.4,49.8-0.6,73,8"/>
			<path class="st7" d="M999.2,260c10.1-3.9,20.2-7.7,30.8-10.1c10.5-2.4,21.5-3.3,32.2-1.3"/>
			<path class="st7" d="M995.5,242.2c22.3-13.6,48.9-20,74.8-17.9"/>
			<path class="st7" d="M1000.8,220.3c21.6-13.8,48.1-19.6,73.5-16.2"/>
			<path class="st7" d="M999.2,200.8c21.2-13,47.2-17.9,71.6-13.2"/>
			<path class="st7" d="M1003.4,179.1c4.8-3.6,9.9-6.9,15.2-9.8c8.3-4.6,17.3-8.2,26.5-10.2c9.3-1.9,19.1-2,28.3,0.4"/>
			<path class="st5" d="M1018,150.7c-5.9,1.6,4.6,54.5,4.6,54.5l-9.4-1.6l-6,6.8c0,0-7.4-43.4-5-49.9
				C1010.3,151.1,1018,150.7,1018,150.7z"/>
		</g>
		<g>
			<path class="st5" d="M1026.2,316.1c45.1-17.8,66.1,62.8-5.7,61.4C948.6,376.1,964.6,280.8,1026.2,316.1z"/>
			<path class="st13" d="M1032.5,318.4c-9.8,5.6-14.8-1.8-14.8-1.8c4-1.6,7.6,1.3,7.6,1.3C1029.5,315.9,1032.5,318.4,1032.5,318.4z"
				/>
			<path class="st8" d="M1023.6,318.8c5.6-18-18.4-27.4-18.4-27.4C1002.4,310.2,1023.6,318.8,1023.6,318.8z"/>
			<path class="st11" d="M1023.6,318.8c1.9,1.1,2.6,0.4,2.6,0.4c6.2-11.9,3-26.3,3-26.3c-8.1-3.7-9.5,0.3-9.5,0.3
				S1027.1,305.8,1023.6,318.8z"/>
			<path class="st9" d="M1048.7,322.7c9.6,1.3,20.7,23.8,8.1,29C1044.4,357,1041.3,321.7,1048.7,322.7z"/>
		</g>
		<g>
			<g>
				<path class="st14" d="M886.1,117.4c0,0-1.3,6.5-4.2,14.8c-5,14.7-14.5,35.2-29.7,35.3c-16,0.2-7.1-62.5-7.1-62.5
					c4.9,1.8,12.4,9.2,13.2,16c0.8,6.1,0.8,12.9,0.8,13l8.3-11.8l7.9-10.5L886.1,117.4z"/>
				<path class="st11" d="M882,132.2c-5,14.7-14.5,35.2-29.7,35.3c-16,0.2-10.6-28-5.5-46.2l1.2-1.1l10.4,0.7
					c0.8,6.1,0.8,12.9,0.8,13l8.3-11.8C874.4,124.4,879.4,129.3,882,132.2z"/>
				<path class="st8" d="M845.2,105c16,4.5,14.7,26.5,14.7,26.5c-2.2,1.7-12.6,2.8-12.6,2.8L845.2,105z"/>
				<path class="st0" d="M868.7,97.8v-4.3c8.6-4.5,16.3,0.5,16.3,0.5c-1.7-9.9,5.9-12.2,5.9-12.2l2.5,1.7l-2.7,14L868.7,97.8z"/>
				<path class="st8" d="M867.6,96.8c8.2-4.5,17.7-2.6,17.7-2.6s1.2-9.5,8.7-11.5l-1.2,20.8c-5.3,1.2-8.8,8.3-8.8,8.3
					c-11.5-1.5-17.3,2.9-17.3,2.9L867.6,96.8z"/>
				<g>
					<path class="st14" d="M886.1,117.4c0,0,3.1-6.8,3.2-9.2c0.2-2.5-1.1-14.4-2.2-14.3c-1.1,0.1-0.7,6.8-0.7,6.8s-1.3-1.9-2.8-2.7
						c-1.5-0.7-5.3-1-5.4-0.3c-0.1,0.7,1.2,1.1,1.2,1.1s-1.9,0.4-1.8,1.3c0.2,0.9,3.7,0.8,5.2,3.2c-3.9-1.5-5.9-1.7-5.8-0.7
						c0.1,1.4,3.9,1.1,4.5,3.7c-4.9,1.3-5.9,5.4-5.9,5.4L886.1,117.4z"/>
					<path class="st7" d="M879.7,98.8c1,0.2,2,0.5,3,0.9s1.8,1.2,2.3,2"/>
				</g>
			</g>
			<g>
				<g>
					<g>
						<polygon class="st11" points="826.5,372.8 825,379 884.8,379 873.3,373 						"/>
					</g>
					<polygon class="st6" points="852.4,150.4 873.3,373 826.5,373 806.6,150.8 					"/>
					<path class="st6" d="M834,148.6l2.9,103.1c0.2,6.2-0.9,12.4-3.2,18.2l-56.3,105L738,340.6l49.9-84.2l0.7-108.5L834,148.6z"/>
					<path class="st11" d="M789.1,379h-14.5l-42-32.7l5.5-5.8l40.5,33.2C785.6,374.3,789.1,379,789.1,379z"/>
				</g>
				<g>
					<line class="st7" x1="831.8" y1="154.9" x2="832" y2="180.1"/>
					<path class="st7" d="M835.5,202.8l2.6,46.6c0.3,5.6-0.6,11.1-2.5,16.4l-15.3,29.3"/>
					<polyline class="st7" points="835.3,154.9 835.2,174.2 831.8,177.5 					"/>
					<polyline class="st7" points="799.7,183.9 802.2,256.1 754.8,343.7 					"/>
					<path class="st7" d="M804,165.9c-0.3,3.1-1.2,6-2.8,8.6c-1.9,3.4-4.7,6-7.9,8.2"/>
					<path class="st7" d="M795.9,186.7c2.9,2.4,6.4,3.9,10.1,4.3"/>
					<path class="st7" d="M797.7,192.9c2.3,1.1,4.7,2,7.2,2.7"/>
					<line class="st7" x1="837.4" y1="201.8" x2="849" y2="191.2"/>
					<line class="st7" x1="839.1" y1="206.7" x2="847.1" y2="206.5"/>
					<line class="st7" x1="836.5" y1="263.3" x2="850.1" y2="370"/>
					<line class="st7" x1="827.2" y1="370.2" x2="871.6" y2="370"/>
					<line class="st7" x1="742.8" y1="335.5" x2="780.6" y2="367.5"/>
				</g>
			</g>
			<g>
				<g>
					<g>
						<g>
							<g>
								<path class="st8" d="M797.1,99.1l-8.4,48.9c0,0,28.3,14.2,64.3,5.6l-7.5-48.5l-21.3-4.3L797.1,99.1z"/>
							</g>
						</g>
					</g>
					<path class="st6" d="M827.6,119.1l-8.6,9.3c-0.5,0.6-0.4,1.4,0.4,1.8l4.2,2c0.6,0.3,0.8,1,0.5,1.6l-3.9,6.2
						c-0.6,1,0.5,2.1,1.5,1.6l12-6.8c0.6-0.4,0.7-1.2,0.2-1.8l-2.4-2.4c-0.6-0.6-0.4-1.5,0.3-1.8l3-1.4c0.6-0.3,0.8-1.2,0.4-1.8
						l-5.7-6.7C828.9,118.7,828,118.7,827.6,119.1z"/>
					<path class="st6" d="M827.6,119.1l-8.6,9.3c-0.5,0.6-0.4,1.4,0.4,1.8l4.2,2c0.6,0.3,0.8,1,0.5,1.6l-3.9,6.2
						c-0.6,1,0.5,2.1,1.5,1.6l12-6.8c0.6-0.4,0.7-1.2,0.2-1.8l-2.4-2.4c-0.6-0.6-0.4-1.5,0.3-1.8l3-1.4c0.6-0.3,0.8-1.2,0.4-1.8
						l-5.7-6.7C828.9,118.7,828,118.7,827.6,119.1z"/>
					<path class="st7" d="M844.3,106.2c4,12,5.2,27.3,5.2,27.3"/>
					<g>
						<path class="st14" d="M815.3,100.2c3.1,5.2,14,9.8,14,9.8s4-2.5,4.6-7.3l-7.3-1.8L815.3,100.2z"/>
						<path class="st14" d="M830.5,81.5c0,0,8.4,13.8,2.4,16c-1.2,0.5-2.6-0.1-2.6-0.1l1.5,8.3l-13.2-2l6.9-22.2
							C825.5,81.5,830.5,81.5,830.5,81.5z"/>
						<path class="st11" d="M821.6,84.3c-0.3,1.9,0.3,4.1,1.5,5.6l0.9-2.7c0.9-0.3,1.7-1.3,1.7-2.3c0.7,0,1.4-0.6,1.6-1.3
							C825.2,83.6,823.4,83.8,821.6,84.3z"/>
						<path class="st14" d="M822.1,87.9c0,0.7,0.6,1.4,1.4,1.4s1.4-0.6,1.4-1.4c0-0.7-0.6-1.4-1.4-1.4
							C822.7,86.6,822.1,87.1,822.1,87.9z"/>
						<g>
							<path class="st11" d="M828.4,86.2c0,0.2,0.1,0.3,0.3,0.3s0.3-0.1,0.3-0.3c0-0.2-0.1-0.3-0.3-0.3S828.4,86,828.4,86.2z"/>
							<path class="st11" d="M831.8,86.2c0,0.2,0.1,0.3,0.3,0.3s0.3-0.1,0.3-0.3c0-0.2-0.1-0.3-0.3-0.3S831.8,86,831.8,86.2z"/>
							<path class="st15" d="M830.9,86.2c0.4,0.5,0.7,0.8,1.2,1.2c-0.3,0.2-0.5,0.3-0.7,0.5c0.3,0.2,0.6,0.4,0.8,0.6
								c-0.8,0.4-2,0.6-3-0.2"/>
						</g>
					</g>
					<g>
						<path class="st13" d="M821.5,84.2l12.3-0.6c0,0-0.1-4.9-3.4-5.8C827.1,76.9,822.6,79.4,821.5,84.2z"/>
						<path class="st6" d="M830.3,83.8c0,0,8.9-3.2,9.4-1.3C840.4,84.4,830.3,83.8,830.3,83.8z"/>
					</g>
				</g>
				<g>
					<path class="st14" d="M802.9,167.7c0,0-1.7,7.9-8.3,12.3c0,0-8.1-2.7-17.8-7.1c-13-5.8-28.9-14.7-32.9-24.1
						c-4.1-9.8,9.6-25.2,19.7-34.8c1.5-1.5,3.1-2.8,4.9-4.1c8.5-6.2,19.3-10.1,28.6-10.8l-3.2,37.3l-4.4,2.3l-1.2,0.6l-8.4,4.4
						l13.5,14L802.9,167.7z"/>
					<path class="st11" d="M793.3,157.7c-4.6,5.9-10.2,11.1-16.4,15.3c-13-5.8-28.9-14.7-32.9-24.1c-4.1-9.8,9.6-25.2,19.7-34.8
						c1.5-1.5,3.1-2.8,4.9-4.1c0.9,0.5,1.8,0.9,2.8,1.5c5.5,3,11.4,6.1,14.4,11.6c2.4,4.3,2.8,9.3,3.5,14.1c0.1,0.6,0.2,1.1,0.3,1.7
						l-1.2,0.6l-8.4,4.4L793.3,157.7z"/>
					<path class="st8" d="M782.7,142.1c-11.4-10.3-19.4-28.5-19.4-28.5S780,98.4,797.1,99l-2.4,37.8L782.7,142.1z"/>
				</g>
				<path class="st7" d="M791.2,137.6c7.6-14.5,6.1-34,6.1-34"/>
			</g>
		</g>
		<g>
			<g>
				<g>
					<path class="st16" d="M1124.2,195.8c-23.6,38.6-48.3,108.7-73.1,177.9h42.9l71.3-177.3L1124.2,195.8z"/>
					<path class="st16" d="M1165.4,196.4c0,0,12.4,19.5,7.6,37.5c-4.8,17.9-51,55.5-51,55.5l35.2,84.4h-43c0,0-42.8-73.4-37.8-94.6
						c5-21.2,48.8-46.2,48.8-46.2l10.3-37L1165.4,196.4z"/>
					<g>
						<polygon class="st8" points="1051.1,373.1 1038.9,379.2 1094.8,379.2 1094.1,373.7 						"/>
					</g>
					<g>
						<polygon class="st8" points="1114.2,373.7 1102.1,379.2 1158,379.2 1157.2,373.7 						"/>
					</g>
				</g>
				<g>
					<path class="st17" d="M1095.8,253.6c0.2-0.2,28-20.2,38.2-26.5"/>
					<path class="st17" d="M1137.5,223.8c6.1-2.5,12.9-3.1,19.3-1.8"/>
					<path class="st17" d="M1139.1,219.9c5.8-5.1,13.3-8.2,21.1-8.7"/>
					<path class="st17" d="M1135.5,197.9c-6.7,15.4-9.9,30.4-9.9,30.4"/>
					<path class="st17" d="M1130.5,200.6c0,0-4.8,11.6-4.3,14.9c0.6,3.3,1.6,4.3,1.6,4.3"/>
					<path class="st17" d="M1079.7,299.1c0,0,14.1,32.6,22.5,51.4"/>
					<line class="st17" x1="1131" y1="281.8" x2="1114.1" y2="295.5"/>
					<line class="st17" x1="1121.9" y1="289.2" x2="1124.9" y2="296"/>
				</g>
			</g>
			<g>
				<path class="st11" d="M1167.8,149.7c-0.6-0.6-1.5-1-2.3-1.4c-0.8-0.4-1.7-1-1.9-1.9c-0.4-1.2,0.6-2.5,0.2-3.7
					c-0.3-0.9-1.2-1.5-2.2-1.7s-1.9-0.1-2.9-0.3c-0.9-0.1-1.9-0.6-2.4-1.4c-0.6-1.2,0-2.8-0.6-4c-0.5-0.8-1.5-1.3-2.4-1.5
					c-2.5-0.3-5,1.3-5.9,3.6l0.3,3.2c-0.4,0.6-0.1,1.3,0.5,1.8c0.6,0.5,1.2,0.6,1.8,0.8c0.6,0.3,1.2,0.6,1.4,1.3
					c0.2,0.6-0.1,1.1-0.3,1.6c-0.5,1-0.9,2.1-1.2,3.2s-0.4,2.3,0,3.3c0.4,1.1,1.3,1.9,2.5,2.1c1.4,0.2,2.7-0.8,4.1-1
					c1.4-0.2,2.7,0.5,4,0.9c1.3,0.5,2.7,0.7,4.1,0.6c1.4-0.2,2.8-0.8,3.5-1.9C1168.7,152.3,1168.7,150.7,1167.8,149.7z"/>
				<path class="st18" d="M1150.2,139c0,1.4-1.1,2.5-2.5,2.5c-1.4,0-2.5-1.1-2.5-2.5c0-1.4,1.1-2.5,2.5-2.5
					C1149.1,136.5,1150.2,137.7,1150.2,139z"/>
				<path class="st11" d="M1149.8,139.8c0.3,2.2-2.5,7.2-5.1,7.2s-6.6-4.9-6.6-7.1c0-2.2,1.8-4.2,6-4
					C1146.9,135.9,1149.5,137.3,1149.8,139.8z"/>
				<g>
					<path class="st19" d="M1127.4,195.7c-11.3,1-23.1-17.5-23.1-17.5s9-2.4,13.6-9.6c4.6-7.2,10.1-14.6,13.5-14.8
						c0,0,0.6,3.1,1.1,7.7C1134,173.4,1135.6,195.1,1127.4,195.7z"/>
					<path class="st8" d="M1132.4,161.5c-0.2,0.9-0.5,1.8-0.7,2.8c-0.9,3.1-2.3,6-3.6,9c-3.7-0.6-7.3-2.2-10.3-4.5
						c4.6-7.2,10.1-14.6,13.5-14.8C1131.3,153.8,1131.9,157,1132.4,161.5z"/>
				</g>
				<path class="st8" d="M1147.9,151.8l-16.5,2c-2.9,6.7-3.3,14-3.3,14s-6.9,6.6,1.1,15l-4.9,13c6.7,4.9,20.1,3.1,41.3,0.9l0.8-43.6
					L1147.9,151.8z"/>
				<path class="st7" d="M1131.8,154.7c0,0-2.9,8.3-3.7,13.1c-2.4,2.2-2.6,5-2.6,5"/>
				<g>
					<path class="st19" d="M1155.1,152.3c-4.3,10.3-18.1,14.9-14.2,0.4l7.1-0.8L1155.1,152.3z"/>
					<path class="st19" d="M1141.3,137.6c-4.3,7-5.8,10.5-5,11.6c0.8,1.1,5.1,1,5.1,1l1.6,6.2l11.8-3.5l-8.2-10.7l-1-3.9
						L1141.3,137.6z"/>
					<path class="st11" d="M1139.6,140.1c0.6-0.3,1-0.6,1.4-1.2c1.8,1.3,3.8,2.1,6,2.4c-0.1-1.1-0.4-2.3-0.7-3.4
						c-0.1-0.2-0.1-0.4-0.3-0.5c-0.1-0.1-0.3-0.1-0.5-0.1c-0.9,0-1.8-0.1-2.8-0.1c-0.4,0-0.8,0-1.2,0.1c-0.3,0.1-0.6,0.2-0.7,0.4
						C1139.9,138.3,1139.6,139.2,1139.6,140.1z"/>
					<g>
						<path class="st15" d="M1139.1,141.2c0.1-0.1,0.3-0.1,0.4-0.1s0.3,0.1,0.4,0.2"/>
						<path class="st15" d="M1141.6,141.4c0.1-0.1,0.3-0.1,0.5-0.1s0.3,0.2,0.4,0.3"/>
						<path class="st15" d="M1140.6,141.4c-0.3,0.2-0.6,0.3-0.9,0.5l-0.1,0.1c0,0,0,0.1,0.1,0.1c0.1,0.1,0.2,0.1,0.3,0.2
							c-0.3,0.2-0.5,0.5-0.7,0.6c1,0,2,0,3-0.2c-0.1,0.5-0.3,1-0.6,1.3c-0.3,0.2-0.6,0.4-0.8,0.5s-0.6,0-0.9,0"/>
					</g>
					<path class="st19" d="M1148.1,141.7c0,0.6-0.4,1-0.9,1.1c-0.6,0-1-0.4-1.1-0.9c0-0.6,0.4-1,0.9-1.1
						C1147.6,140.7,1148.1,141.2,1148.1,141.7z"/>
				</g>
			</g>
			<g>
				<g>
					<path class="st0" d="M1098.2,153.2l3.6-1.2c2.7,2.1,3.7,5.5,3.7,5.5c7.4-4.7,12.4-5.5,12.4-5.5l2.1,3.1c0,0-13.4,4.5-15.6,4.5
						S1098.2,153.2,1098.2,153.2z"/>
					<path class="st5" d="M1097,152.3l7.8,6.2l17.6-5l2.1,24.1c0,0-15.7,3.1-17.6,3.1c-1.8-0.1-8.1-7.4-8.1-7.4L1097,152.3z"/>
				</g>
				<g>
					<path class="st19" d="M1166.4,153.1c10.5,1.3,12.5,44.9-11.4,50c-21.2,4.4-45.5-24.1-45.5-24.1l6.2-9.3l30.3,9.7L1166.4,153.1z
						"/>
					<path class="st8" d="M1149.5,173.7c10,9.4,23.1,11.7,23.1,11.7s7.8-30.6-6.2-32.4L1149.5,173.7z"/>
					<g>
						<path class="st7" d="M1110.7,180.3c8.8,8.8,14.2,12.9,14.2,12.9"/>
						<line class="st7" x1="1146.6" y1="179.6" x2="1153.9" y2="181.4"/>
						<line class="st7" x1="1150" y1="173.3" x2="1160.3" y2="156.5"/>
					</g>
					<g>
						<path class="st19" d="M1115.8,169.6l-5.5-6.8c-1.4,1.1-0.2,5.7-0.2,5.7s-4.3,0.2-6.3-0.6s-4.4-4.5-5.5-4
							c-0.9,0.6,0.4,2.5,0.4,2.5s-1.6-1.3-2.3-0.6c-0.7,0.7,1.2,2.8,1.2,2.8s-1.1-0.3-1.3,0.5c-0.3,0.7,1.7,2.9,1.7,2.9
							s-0.8-0.5-1.2,0c-0.4,0.5,2.8,4.8,5,5.5c2.1,0.6,7.9,1.3,7.9,1.3L1115.8,169.6z"/>
						<path class="st20" d="M1099,167c0.9,1.3,2.2,2.3,3.6,3"/>
						<path class="st20" d="M1098,169.2c0.7,0.7,1.7,1.5,2.5,2"/>
						<path class="st20" d="M1098.2,172.5c0.6,0.5,1.2,0.9,1.9,1.2"/>
					</g>
				</g>
			</g>
		</g>
	</g>
	<g>
		<g>
			<polygon class="st11" points="965,38.3 940.9,21.5 934.7,29.7 958.4,43.2 			"/>
			<path class="st0" d="M963.9,38L941,22.6c-2.9-0.4-6.8-1.6-6.8-1.6s17.3,15.2,22.6,17.3C962.1,40.3,963.9,38,963.9,38z"/>
			<path class="st5" d="M928.8,27.9c-6,10.3-11.8,19.8-17.4,27.8c6.6,4.7,13,10,19,15.5c2.5,1.3,4.7,2.1,6.8,2.2L965,38.3
				c-2.6-0.5-5.9-1.8-9.7-3.6L943,26.4l-5.1-3.5l-1.1-0.7l-3.5-2.4C931.8,22.7,930.2,25.3,928.8,27.9z"/>
			<path class="st13" d="M934.6,28l11.8,7.1c0.4,0.3,0.6,0.8,0.3,1.2l-4.8,7.4c-0.3,0.5-1.1,0.6-1.5,0.3l-10.7-8.3
				c-0.4-0.3-0.5-0.7-0.2-1.1l3.8-6.2C933.3,27.8,934.1,27.7,934.6,28z"/>
			<polygon class="st9" points="940.7,59.1 943.4,57.8 942.9,26.4 937.8,22.9 			"/>
			<path class="st9" d="M933.3,20c-1.5,2.7-3,5.4-4.5,8l7,39.3l2.4,0l-1.4-45L933.3,20z"/>
			<path class="st13" d="M930.4,71.3c2.5,1.3,4.7,2.1,6.8,2.2L965,38.4c-2.6-0.5-5.9-1.8-9.7-3.6L930.4,71.3z"/>
			<path class="st6" d="M955.3,47.7L941.7,65c-1.7-0.3-3.3-1.6-3.3-1.6l12.2-17.5C953.1,47.3,955.3,47.7,955.3,47.7z"/>
			<line class="st21" x1="958.2" y1="35" x2="941.9" y2="23.9"/>
			<line class="st21" x1="940.3" y1="23.3" x2="953.6" y2="32.7"/>
		</g>
		<g>
			<g>
				<path class="st0" d="M1200.6,80.4l-4.8-4.4c14.7-6,26.2-2.9,26.2-2.9c-1-12.1,5.9-20.9,5.9-20.9l4.2,5.8c0,0-1.2,11.8-9.1,16.8
					C1215.1,79.7,1200.6,80.4,1200.6,80.4z"/>
				<path class="st10" d="M1202.1,87.1c-0.1-0.1-7-6.7-7-6.7c10.7-6.8,27.3-6.7,27.3-6.7c2.3-15.5,13.3-22.7,13.3-22.7l6.2,9.8
					c0,0-2.5,14.3-14.9,19.8C1214.7,86,1202.1,87.1,1202.1,87.1z"/>
				<path class="st11" d="M1193.2,83.6l1.3-1.4l24.9-6.6c2.5-0.8,5.8-3,6.6-4.3l15.3-18.7l1.9-0.3c0,0-5.4,14.9-17.6,23
					C1213.2,83.5,1193.2,83.6,1193.2,83.6z"/>
				<path class="st12" d="M1219.3,76.7l-26.1,7l21.2,21.3c7.6-2.9,15.9-5.1,24.7-6.7L1219.3,76.7z"/>
				<path class="st12" d="M1243,52.5l11.7,17.7l4.5,6.7c-1,0.9-1.8,1.9-2.8,2.9c-0.8,0.8-1.5,1.7-2.3,2.5c-0.5,0.6-1.1,1.2-1.5,1.8
					c-3,3.5-5.8,7.3-8.6,11.2L1227,71.9l2-2.4l1.8-2.3l0.9-1.1l3-3.6L1243,52.5z"/>
				<line class="st21" x1="1228.9" y1="70.8" x2="1244.8" y2="93.6"/>
				<path class="st11" d="M1243.2,60.7c-0.5,0.6-1.4,0.6-1.9,0l-7,9c0.2,0.3,0.2,0.8,0,1.1l3.6,5.1c0.5-0.6,1.4-0.5,1.9,0.1l8-8.9
					c-0.3-0.3-0.3-0.9,0-1.3L1243.2,60.7z"/>
				<path class="st8" d="M1219.3,76.7c4.4-0.8,7.8-4.9,7.8-4.9l16.9,23.4c-1.7,2.6-4.8,3-4.8,3L1219.3,76.7z"/>
			</g>
			<g class="st22">
				<path class="st0" d="M1229.1,69.4l23.6,14.7c0.5-0.6,1.1-1.2,1.5-1.8L1231,67.2L1229.1,69.4z"/>
				<path class="st0" d="M1234.7,62.4l-3,3.6l24.7,13.7c0.9-0.9,1.8-1.9,2.8-2.9l-4.4-6.7L1234.7,62.4z"/>
			</g>
		</g>
	</g>
	<g>
		<g>
			<path class="st8" d="M486.6,30.7H94.1c-4.5,0-8.1,3.6-8.1,8.1v33.3c0,4.5,3.6,8.1,8.1,8.1h392.5c4.5,0,8.1-3.6,8.1-8.1V38.8
				C494.7,34.4,491.1,30.7,486.6,30.7z"/>
		</g>
	</g>
</g>
<g id="TEXTS">
	<g>
		<text transform="matrix(1 0 0 1 116.0371 148.442)" class="st11 st23 st24">Get special price up to</text>
	</g>
	<text transform="matrix(1 0 0 1 115.8132 257.7157)" class="st11 st25 st26">50%</text>
	<text transform="matrix(1 0 0 1 365.2914 222.1218)" class="st11 st25 st27">off</text>
	<text transform="matrix(1 0 0 1 115.8132 323.9191)" class="st8 st23 st24">only this weekend</text>
	<g>
		<text transform="matrix(1 0 0 1 119.3398 66.2717)" class="st0 st23 st28">Special offer novels &amp; poems</text>
	</g>
	<rect x="175.6" y="382.2" class="st29" width="451.6" height="47"/>
</g>
</svg>
